<svg id="SVGDoc" width="34" height="26" xmlns="http://www.w3.org/2000/svg" version="1.1" xmlns:xlink="http://www.w3.org/1999/xlink" xmlns:avocode="https://avocode.com/" viewBox="0 0 34 26"><defs><path d="M1536.83876,700.06967h3.90461v1.97212h-3.90461zM1536.83876,707.95814h3.90461v1.97217h-3.90461zM1535.00004,704.01391h5.74345v1.97212h-5.74345zM1568.99998,704.99999c0,7.16812 -5.89108,12.99989 -13.13221,12.99989c-7.24113,0 -13.13221,-5.83178 -13.13221,-12.99989c0,-7.16817 5.89119,-12.99995 13.13221,-12.99995c7.24113,0 13.13221,5.83178 13.13221,12.99995zM1567.00779,704.99999c0,-6.08071 -4.99741,-11.02783 -11.14002,-11.02783c-6.14262,0 -11.14002,4.94712 -11.14002,11.02783c0,6.08071 4.99741,11.02778 11.14002,11.02778c6.14262,0 11.14002,-4.94706 11.14002,-11.02778zM1560.77442,708.36608l-1.12186,1.62968l-5.13382,-3.46322v-7.41231h1.99219v6.36976z" id="Path-0"/></defs><desc>Generated with Avocode.</desc><g transform="matrix(1,0,0,1,-1535,-692)"><g><title>Forma 1</title><use xlink:href="#Path-0" fill="#ff004f" fill-opacity="1"/></g></g></svg>