<svg id="SVGDoc" width="39" height="39" xmlns="http://www.w3.org/2000/svg" version="1.1" xmlns:xlink="http://www.w3.org/1999/xlink" xmlns:avocode="https://avocode.com/" viewBox="0 0 39 39"><defs><path d="M1704.99996,222.50002c0,-10.75206 8.74798,-19.50004 19.50005,-19.50004c10.75207,0 19.50005,8.74798 19.50005,19.50004c0,10.75201 -8.74798,19.49998 -19.50005,19.49998c-10.75207,0 -19.50005,-8.74798 -19.50005,-19.49998zM1706.94843,222.50002c0,9.67844 7.87319,17.55157 17.55157,17.55157c9.67838,0 17.55157,-7.87313 17.55157,-17.55157c0,-9.67844 -7.87319,-17.55163 -17.55157,-17.55163c-9.67838,0 -17.55157,7.87319 -17.55157,17.55163zM1719.33872,226.28548l3.78548,-3.78546l-3.78548,-3.78552c-0.38177,-0.38171 -0.38177,-0.99407 0,-1.37584c0.38177,-0.38171 0.99403,-0.38171 1.37581,0l3.78548,3.78552l3.78548,-3.78546c0.38177,-0.38177 0.99415,-0.38177 1.37581,0c0.38177,0.38171 0.38177,0.99407 0,1.37578l-3.78548,3.78552l3.80138,3.78546c0.38177,0.38171 0.38177,0.99407 0,1.37584c-0.19089,0.19086 -0.43739,0.28626 -0.69191,0.28626c-0.25452,0 -0.50102,-0.0954 -0.6918,-0.28626l-3.78559,-3.78552l-3.78536,3.78552c-0.191,0.19086 -0.43751,0.28626 -0.69202,0.28626c-0.2544,0 -0.50102,-0.0954 -0.6918,-0.28626c-0.38177,-0.38177 -0.38177,-0.99412 0,-1.37584z" id="Path-0"/></defs><desc>Generated with Avocode.</desc><g transform="matrix(1,0,0,1,-1705,-203)"><g><title>Shape 1</title><use xlink:href="#Path-0" fill="#f6f6f6" fill-opacity="1"/></g></g></svg>