<?xml version="1.0" encoding="utf-8"?>
<!-- Generator: Adobe Illustrator 16.0.3, SVG Export Plug-In . SVG Version: 6.00 Build 0)  -->
<!DOCTYPE svg PUBLIC "-//W3C//DTD SVG 1.1//EN" "http://www.w3.org/Graphics/SVG/1.1/DTD/svg11.dtd">
<svg version="1.1" id="Layer_1" xmlns="http://www.w3.org/2000/svg" xmlns:xlink="http://www.w3.org/1999/xlink" x="0px" y="0px"
	 width="185px" height="175px" viewBox="0 0 185 175" enable-background="new 0 0 185 175" xml:space="preserve">
<g>
	<path fill="#DA322C" d="M163.545,14.434l-4.281,0.007v-1.063h2.105V9.029h-2.111V7.905h4.289V1.383h13.111v13.051h6.527v6.558
		H163.55l0.007-6.561c0,0,4.313-0.01,6.52-0.01c0-2.187,0-6.507,0-6.507l-6.529-0.003L163.545,14.434L163.545,14.434z"/>
	<polygon fill="#DA322C" points="143.818,20.995 124.331,20.995 124.316,14.456 130.807,14.456 130.807,7.899 124.325,7.899 
		124.325,1.369 137.387,1.369 137.402,14.419 143.822,14.414 	"/>
	<path fill="#DA322C" d="M156.943,10.108c0,0,1.475,0,2.188,0c0,0.736,0,1.396,0,2.164c-0.705,0-1.387,0-2.152,0
		c0,0.767,0,1.43,0,2.185c-0.742,0-1.401,0-2.129,0c0,0.759,0,1.425,0,2.153c-0.746,0-1.427,0-2.203,0c0-0.684,0-1.366,0-2.121
		c-0.756,0-1.422,0-2.192,0c0-0.75,0-1.43,0-2.19c-0.771,0-1.437,0-2.142,0c0-0.746,0-1.41,0-2.167c0.666,0,1.326,0,2.088,0
		c0-0.771,0-1.453,0-2.209c0.767,0,1.43,0,2.178,0c0-0.732,0-1.394,0-2.122c0.781,0,1.48,0,2.262,0c0,0.679,0,1.341,0,2.07
		c0.721,0,1.36,0,2.104,0C156.943,8.618,156.943,10.108,156.943,10.108z M155.297,12.836c0-1.145,0-2.192,0-3.246
		c-1.102,0-2.13,0-3.188,0c0,1.104,0,2.153,0,3.246C153.193,12.836,154.223,12.836,155.297,12.836z"/>
	<path fill="#DA322C" d="M143.814,7.941c1.513,0,2.918,0,4.381,0c0,0.315,0,0.626,0,1.023c-0.676,0-1.357,0-2.094,0
		c0,1.486,0,2.887,0,4.392c0.682,0,1.359,0,2.096,0c0,0.408,0,0.715,0,1.073c-1.49,0-4.385,0-4.385,0S143.814,10.141,143.814,7.941z
		"/>
	<polygon fill="#DA322C" points="150.479,1.357 156.923,1.357 156.923,5.646 155.93,5.646 155.93,3.547 151.529,3.547 
		151.529,5.629 150.479,5.629 	"/>
	<polygon fill="#DA322C" points="155.913,18.85 155.913,16.741 156.916,16.741 156.916,20.99 150.482,20.99 150.482,16.739 
		151.496,16.739 151.496,18.85 	"/>
	<path fill="#DA322C" d="M147.113,24.338c0.645-0.022,1.267-0.099,1.878-0.051c0.747,0.058,1.35,0.587,1.366,1.269
		c0.047,1.76,0.017,3.521,0.017,5.332c-0.308,0-0.572,0-0.942,0c0-0.257,0-0.504,0-0.751c0-1.302,0.004-2.603,0-3.905
		c-0.002-0.988-0.281-1.22-1.369-1.06c0,1.875,0,3.766,0,5.711c-0.354,0-0.621,0-0.946,0
		C147.113,28.742,147.113,26.596,147.113,24.338z"/>
	<path fill="#DA322C" d="M128.303,25.181c0,1.907,0,3.783,0,5.708c-0.332,0-0.598,0-0.92,0c0-2.153,0-4.3,0-6.535
		c0.607-0.037,1.184-0.12,1.754-0.092c0.795,0.039,1.469,0.573,1.496,1.312c0.063,1.759,0.02,3.521,0.02,5.323
		c-0.305,0-0.569,0-0.936,0c0-0.271,0-0.519,0-0.767c0.001-1.303,0.006-2.606,0-3.91C129.713,25.256,129.402,25.009,128.303,25.181z
		"/>
	<path fill="#DA322C" d="M174.561,30.9c-0.354,0-0.601,0-0.931,0c0-0.615,0-1.192,0-1.77c0-0.999,0.011-1.999-0.004-2.998
		c-0.013-0.886-0.399-1.154-1.41-0.923c0,1.869,0,3.761,0,5.69c-0.362,0-0.631,0-0.95,0c0-2.149,0-4.275,0-6.451
		c0.707-0.221,1.43-0.304,2.164-0.108c0.649,0.174,1.094,0.631,1.112,1.282C174.593,27.36,174.561,29.1,174.561,30.9z"/>
	<path fill="#DA322C" d="M154.934,26.877c0.019-0.172,0.035-0.285,0.039-0.398c0.043-1.306-0.033-1.385-1.314-1.398
		c-0.229-0.002-0.455-0.021-0.665-0.032c-0.179-0.374-0.062-0.595,0.278-0.65c0.455-0.074,0.922-0.158,1.379-0.128
		c0.9,0.058,1.236,0.43,1.257,1.338c0.022,1.069,0.009,2.139,0.011,3.208c0,0.672,0,1.343,0,2.071
		c-1.029,0.191-2.036,0.496-2.881-0.283c-0.768-0.708-0.646-1.675-0.398-2.551C152.945,26.954,153.973,26.991,154.934,26.877z
		 M154.938,27.794c-0.549-0.037-1.057-0.123-1.307,0.388c-0.271,0.559-0.295,1.193,0.034,1.732c0.283,0.464,0.776,0.38,1.272,0.266
		C154.938,29.39,154.938,28.636,154.938,27.794z"/>
	<path fill="#DA322C" d="M179.119,26.867c0-0.406,0.008-0.793-0.002-1.181c-0.01-0.394-0.223-0.596-0.614-0.6
		c-0.46-0.005-0.92-0.001-1.354-0.001c-0.133-0.351-0.121-0.625,0.215-0.656c0.638-0.061,1.283-0.098,1.922-0.061
		c0.396,0.023,0.646,0.333,0.729,0.741c0.025,0.137,0.07,0.274,0.07,0.411c0.005,1.762,0.004,3.524,0.004,5.35
		c-0.975,0.225-1.939,0.479-2.801-0.188c-0.813-0.632-0.729-1.572-0.549-2.442C176.991,26.997,178.075,26.999,179.119,26.867z
		 M179.09,27.851c-0.529-0.156-0.969-0.12-1.295,0.305c-0.25,0.327-0.225,1.404,0.014,1.752c0.232,0.342,0.604,0.41,1.281,0.217
		C179.09,29.397,179.09,28.659,179.09,27.851z"/>
	<path fill="#DA322C" d="M165.689,27.679c0-0.581-0.021-1.162,0.004-1.742c0.041-1.003,0.729-1.688,1.67-1.692
		c0.936-0.004,1.672,0.678,1.705,1.666c0.039,1.161,0.039,2.324,0.006,3.485c-0.03,1.031-0.764,1.7-1.752,1.678
		c-0.955-0.021-1.58-0.674-1.619-1.721c-0.021-0.557-0.004-1.115-0.004-1.673C165.695,27.679,165.691,27.679,165.689,27.679z
		 M166.646,27.635c0.01,0,0.021,0,0.029,0c0,0.646-0.025,1.296,0.014,1.94c0.021,0.381,0.261,0.642,0.685,0.642
		c0.418,0,0.618-0.263,0.714-0.63c0.023-0.088,0.025-0.184,0.025-0.275c0.002-1.111,0.012-2.222-0.004-3.333
		c-0.008-0.543-0.281-0.866-0.688-0.887c-0.44-0.022-0.748,0.304-0.771,0.877C166.627,26.523,166.646,27.08,166.646,27.635z"/>
	<path fill="#DA322C" d="M140.633,28.218c-0.861,0-1.596,0-2.33,0c-0.033,0.162-0.066,0.25-0.068,0.338
		c-0.036,1.406,0.021,1.763,1.596,1.709c0.25-0.009,0.688-0.205,0.72,0.278c0.028,0.426-0.397,0.4-0.669,0.447
		c-0.384,0.066-0.787,0.102-1.174,0.065c-0.809-0.075-1.41-0.736-1.438-1.616c-0.035-1.182-0.039-2.368-0.002-3.55
		c0.03-0.969,0.808-1.668,1.728-1.643c0.961,0.026,1.625,0.71,1.638,1.705C140.641,26.666,140.633,27.38,140.633,28.218z
		 M138.256,27.347c0.541,0,0.965,0,1.434,0c0-0.574,0.037-1.081-0.012-1.58c-0.041-0.437-0.371-0.702-0.736-0.68
		c-0.414,0.024-0.645,0.291-0.674,0.665C138.225,26.272,138.256,26.798,138.256,27.347z"/>
	<path fill="#DA322C" d="M158.128,22.996c0.354,0,0.603,0,0.901,0c0.037,0.455,0.072,0.881,0.109,1.34
		c0.485,0.026,0.922,0.049,1.41,0.075c0.02,0.246,0.034,0.466,0.059,0.761c-0.488,0.031-0.941,0.06-1.447,0.092
		c-0.026,0.185-0.074,0.361-0.075,0.538c-0.008,1.139-0.012,2.278-0.002,3.417c0.009,0.91,0.099,0.989,0.996,1.011
		c0.183,0.004,0.364,0.021,0.532,0.031c0.171,0.311,0.101,0.501-0.188,0.639c-1.207,0.58-2.235-0.002-2.278-1.351
		c-0.047-1.394-0.016-2.79-0.018-4.185C158.128,24.601,158.128,23.836,158.128,22.996z"/>
	<path fill="#DA322C" d="M132.977,22.998c0.32,0,0.568,0,0.863,0c0.026,0.443,0.053,0.852,0.081,1.333
		c0.486,0.027,0.958,0.055,1.462,0.083c0,0.274,0,0.494,0,0.768c-0.479,0.027-0.934,0.053-1.425,0.081
		c-0.028,0.177-0.071,0.331-0.073,0.484c-0.006,1.208-0.01,2.415-0.001,3.622c0.007,0.763,0.097,0.845,0.839,0.857
		c0.229,0.004,0.454,0.001,0.857,0.001c-0.161,0.305-0.206,0.552-0.35,0.637c-1.111,0.667-2.281,0.024-2.293-1.265
		c-0.02-2.043-0.006-4.087-0.004-6.131C132.936,23.332,132.958,23.197,132.977,22.998z"/>
	<path fill="#DA322C" d="M143.708,30.904c-0.378,0-0.628,0-0.909,0c-0.025-0.185-0.064-0.34-0.064-0.497
		c-0.004-1.721,0.014-3.441-0.012-5.161c-0.008-0.458,0.154-0.694,0.594-0.764c0.586-0.093,1.17-0.191,1.822-0.298
		c0.021,0.35,0.032,0.57,0.049,0.855c-0.498,0.033-0.946,0.062-1.479,0.096C143.708,27.059,143.708,28.953,143.708,30.904z"/>
	<path fill="#DA322C" d="M183.191,31.027c-0.686-0.115-0.834-0.253-0.854-0.896c-0.023-0.93-0.01-1.86-0.01-2.791
		c-0.001-1.417,0-2.834,0-4.315c0.3,0,0.559,0,0.859,0C183.191,25.699,183.191,28.36,183.191,31.027z"/>
	<path fill="#DA322C" d="M125.049,30.907c-0.31,0-0.558,0-0.857,0c0-2.164,0-4.303,0-6.484c0.287,0,0.551,0,0.857,0
		C125.049,26.581,125.049,28.701,125.049,30.907z"/>
	<path fill="#DA322C" d="M163.471,30.906c-0.31,0-0.559,0-0.857,0c0-2.155,0-4.279,0-6.486c0.267-0.013,0.529-0.027,0.857-0.043
		C163.471,26.557,163.471,28.699,163.471,30.906z"/>
	<path fill="#DA322C" d="M158.116,17.683c0-0.73,0-1.372,0-2.068c0.696,0,1.358,0,2.09,0c0,0.669,0,1.347,0,2.068
		C159.518,17.683,158.854,17.683,158.116,17.683z"/>
	<rect x="158.143" y="4.625" fill="#DA322C" width="2.09" height="2.116"/>
	<path fill="#DA322C" d="M149.223,17.678c-0.695,0-1.334,0-2.02,0c0-0.704,0-1.361,0-2.068c0.676,0,1.314,0,2.02,0
		C149.223,16.269,149.223,16.944,149.223,17.678z"/>
	<path fill="#DA322C" d="M147.2,6.737c0-0.701,0-1.358,0-2.065c0.684,0,1.321,0,2.024,0c0,0.674,0,1.351,0,2.065
		C148.549,6.737,147.893,6.737,147.2,6.737z"/>
	<path fill="#DA322C" d="M163.475,23.015c0.045,0.73,0.045,0.732-0.848,0.762c0-0.235,0-0.471,0-0.762
		C162.893,23.015,163.157,23.015,163.475,23.015z"/>
	<path fill="#DA322C" d="M125.021,23.015c0.074,0.709,0.062,0.723-0.817,0.765c0-0.237,0-0.473,0-0.765
		C124.452,23.015,124.713,23.015,125.021,23.015z"/>
</g>
<g>
	<path fill="#E40887" d="M158.198,67.449c0.649-1.552,3.849-11.683,7.024-14.872c3.291-3.306,5.096-1.985,5.096-1.985
		s0.209-1.416-1.198-2.527c-1.824-1.438-4.134-0.645-5.877,0.987c-0.839,0.786-2.086,2.938-3.056,5.187
		c-1.432,3.312-2.762,6.758-3.271,7.396c-0.631,0.796-2.044,1.016-1.378-1.143c0.689-2.246,1.232-2.993,1.561-3.92
		c0.854-2.448,0.305-3.256,0.135-3.569c-0.319-0.591-0.904-0.91-1.515-1.071c-1.268-0.334-2.45,0.027-2.45,0.027
		c0.5,1.339,1.109,2.094-0.465,6.588c-0.078,0.223-0.148,0.438-0.21,0.646c-0.294,0.776-1.142,2.38-1.747,3.005
		c-0.712,0.731-1.539,1.411-2.369,1.691c-0.776,0.263-2.871,0.23-1.865-1.8c0.365-0.734,1.271-1.522,2.5-2.301
		c2.146-1.358,2.902-3.138,2.753-4.504c-0.122-1.111-0.576-2.426-2.403-3.066c-1.388-0.485-3.354,0.057-4.177,0.95
		c-1.024,1.115-1.026,2.019-0.94,3.03c0,0,0.838-1.037,1.893-1.434c0.471-0.176,0.98-0.184,1.393-0.053
		c0.696,0.222,0.955,1.013,0.49,1.728c-1.146,1.765-3.207,2.611-4.104,3.443c-0.449,0.416-0.838,0.825-1.113,1.232
		c-1.225,1.533-1.875,2.732-2.926,3.279c-0.746,0.386-1.287,0.245-1.293-0.43c-0.004-0.619,0.592-2.128,1.313-3.521
		c0.461-0.892,1.758-2.963,2.204-3.774c0.569-1.036,0.963-2.296,0.008-3.105c-1.849-1.564-3.856-0.274-3.856-0.274
		c0.129,1.254-0.539,2.713-1.75,5.099c-1.242,2.449-2.688,6.915,0.235,7.786c1.179,0.351,2.457,0.173,3.456-0.463
		c0.678-0.431,1.469-1.322,2.195-2.227c0.205,0.829,0.807,1.624,2.039,2.039c3.912,0.588,6.549-1.396,7.777-3.235
		c0.576,2.932,4.139,2.533,4.139,2.533s-0.325,1.256-0.764,1.903c-7.007-1.574-19.17-0.043-25.213,4.28
		c-1.236,0.885-2.218,1.887-2.845,3.003c-0.192,0.343-1.06,1.647-0.922,3.469c0.142,1.899,1.343,3.162,1.897,3.602
		c2.711,2.141,8.352,2.73,13.457,1.565c8.92-2.032,13.479-9.805,14.35-11.166c9.404,3.857,4.772,10.591,3.949,11.263
		c1.969,0.521,7.463-1.616,7.045-6.871C166.982,70.616,159.941,67.882,158.198,67.449z M151.117,74.665
		c-1.021,1.197-2.93,3.063-7.491,4.937c-1.733,0.712-3.55,1.218-5.726,1.258c-1.5,0.026-3.73,0.283-6.9-1.243
		c-0.689-0.333-1.335-0.897-1.607-1.864c-0.328-1.164,0.756-2.792,4-4.744c4.01-2.416,7.735-2.911,10.853-3.242
		c5.921-0.627,9.917,0.765,9.917,0.765C152.997,72.623,152.039,73.585,151.117,74.665z"/>
	<path fill="#E40887" d="M181.572,50.948c-1.848-1.564-3.856-0.274-3.856-0.274c0.13,1.253-0.54,2.713-1.751,5.099
		c-0.875,1.724-1.857,4.565-1.357,6.323c0.567,1.996,3.177,1.659,3.728,1.557c1.319-0.245,1.772-1.149,1.694-1.942
		c-0.86,0.696-1.34,0.697-1.625,0.42c-0.17-0.165-0.655-0.612-0.133-1.919c0.277-0.703,0.679-1.585,1.09-2.386
		c0.463-0.891,1.759-2.962,2.203-3.772C182.137,53.018,182.529,51.757,181.572,50.948z"/>
	<path fill="#E40887" d="M135.367,58.406c0.453-1.665,0.675-3.363,0.601-4.914c-0.065-1.393-0.374-2.19-0.839-2.998
		c-0.593-1.03-1.285-1.801-3.01-2.441c-3.919-1.457-5.643-1.248-7.084-1.938c-1.455-0.696-1.178-1.942-0.258-2.315
		c0.798-0.321,1.826-0.243,2.354-0.176c1.156,0.145,2.605,0.459,4.137,0.994c1.709,0.599,3.408,1.25,6.422,2.097
		c6.015,1.692,13.168-3.179,8.881-8.608c-0.771,1.486-5.375,5.731-14.797,2.931c-4.979-1.48-9.11,0.074-10.082,2.103
		c-0.498,1.037-0.328,2.985,1.433,4.299c0.871,0.649,2.106,0.908,3.358,1.316c0.582,0.192,2.33,0.617,3.051,0.817
		c0.898,0.249,1.914,0.638,2.724,1.343c0.851,0.739,1.236,1.482,1.418,2.112c0.19,0.656,0.269,2.304,0.249,2.727
		c-0.136,3.296-2.371,6.517-4.889,7.892c-1.534,0.837-1.926-0.316-1.598-1.881c0.387-1.835,1.354-3.976,2.351-4.845
		c1.847-1.613,2.666,0.225,2.666,0.225c0.673-0.183,1.307-3.737-2.584-2.755c-4.53,1.143-9.986,10.996-4.265,12.94
		C129.977,68.816,133.896,63.79,135.367,58.406z"/>
	<path fill="#E40887" d="M175.918,47.408c-0.277-1.462-0.881-3.144-1.734-4.548c0.924-0.427,1.866-0.709,3.438-0.779
		c2.308-0.103,3.935,1.385,3.935,1.385s2.643-1.548,0.358-4.231c-2.433-2.58-6.987-0.757-10.083,0.846
		c-3.426-3.367-8.646-5.382-14.688-3.523c-2.752,0.847-5.629,2.353-7.086,4.831c-0.496,0.843-0.832,2.133-0.607,3.591
		c0.479,3.09,4.133,3.974,7.587,3.717c0.969-0.072,3.424-0.61,5.967-1.563c3.192-1.197,6.617-2.893,8.44-3.376
		c1.546,1.375,2.675,3.9,2.507,6.493c-0.286,4.365-3.968,8.509-4.478,9.153c-0.494,0.624-1.166,1.141-1.269,1.202
		c-2.063,1.278-1.399-4.164,0.729-6.293c1.67-1.667,2.908-0.438,2.908-0.438c0.885-1.126,0.286-3.5-3.813-1.656
		c-2.865,1.288-4.848,4.773-5.17,7.579c-0.291,2.545,0.369,4.766,2.082,5.107c3.259,0.698,6.717-3.702,7.904-5.636
		C174.572,56.46,176.962,52.889,175.918,47.408z M155.51,45.731c-1.521-1.585-0.296-3.591,0.785-4.32
		c1.436-0.965,3.402-1.463,4.482-1.563c2.625-0.242,6.295,0.372,8.236,1.925C166.143,43.473,157.873,48.198,155.51,45.731z"/>
	<circle fill="#E40887" cx="141.816" cy="50.162" r="2.19"/>
	<circle fill="#E40887" cx="181.257" cy="47.541" r="2.19"/>
</g>
<g>
	<g>
		<path fill="#82B3DC" d="M38.578,128.307c0,1.494-1.036,2.688-3.026,2.688c-1.981,0-3.009-1.184-3.009-2.688v-3.871h1.825v3.385
			c0,1.164,0.404,1.539,1.184,1.539c0.797,0,1.201-0.375,1.201-1.539v-3.385h1.825V128.307z"/>
		<path fill="#82B3DC" d="M45.856,130.898h-2.458l-1.623-1.853l-0.358,0.44v1.41h-1.825v-6.465h1.825v2.485l2.091-2.485h2.247
			l-2.779,3.237L45.856,130.898z"/>
		<path fill="#82B3DC" d="M49.068,129.523c-0.019-0.008-0.037-0.008-0.056-0.008h-0.797v1.383h-1.88v-6.463h3.072
			c2.008,0,2.696,1.183,2.696,2.467c0,1.055-0.376,1.844-1.183,2.265l1.385,1.731h-2.238L49.068,129.523z M48.216,128.049h0.715
			c0.926,0,1.201-0.515,1.201-1.009c0-0.541-0.256-1.073-1.045-1.073h-0.871V128.049z"/>
		<path fill="#82B3DC" d="M57.413,129.863h-2.412l-0.45,1.035H52.59l3.182-6.463h0.88l3.191,6.463h-1.972L57.413,129.863z
			 M55.662,128.379h1.101l-0.551-1.275L55.662,128.379z"/>
		<path fill="#82B3DC" d="M62.225,130.898h-1.88v-6.463h1.88V130.898z"/>
		<path fill="#82B3DC" d="M69.364,124.436v6.465h-0.88l-3.347-3.198v3.198h-1.88v-6.465h0.881l3.347,3.201v-3.201H69.364z"/>
		<path fill="#82B3DC" d="M75.586,129.369v1.529h-5.254v-6.463h5.062v1.529h-3.237v1.057h2.668v1.484h-2.668v0.861L75.586,129.369
			L75.586,129.369z"/>
	</g>
	<g>
		<path fill="#82B3DC" d="M38.211,134.715h-1.889v4.934h-1.88v-4.934h-1.898v-1.531h5.667V134.715z"/>
		<path fill="#82B3DC" d="M45.134,136.42c0,1.835-1.541,3.32-3.457,3.32c-1.907,0-3.457-1.485-3.457-3.32
			c0-1.832,1.549-3.318,3.457-3.318C43.594,133.102,45.134,134.588,45.134,136.42z M43.227,136.42c0-0.906-0.688-1.648-1.55-1.648
			c-0.843,0-1.541,0.742-1.541,1.648c0,0.918,0.697,1.65,1.541,1.65C42.539,138.07,43.227,137.338,43.227,136.42z"/>
		<path fill="#82B3DC" d="M48.922,139.648h-3.108v-6.465h2.897c1.797,0,3.255,1.447,3.255,3.234
			C51.966,138.137,50.618,139.648,48.922,139.648z M48.757,138.018c0.752-0.027,1.357-0.732,1.357-1.598
			c0-0.879-0.633-1.604-1.403-1.604h-1.073v3.199h1.119V138.018z"/>
		<path fill="#82B3DC" d="M56.362,138.613H53.95l-0.449,1.035h-1.963l3.182-6.465h0.881l3.191,6.465H56.82L56.362,138.613z
			 M54.611,137.128h1.1l-0.55-1.276L54.611,137.128z"/>
		<path fill="#82B3DC" d="M63.906,133.184l-2.438,4.293v2.172h-1.881v-2.172l-2.43-4.293h2.137l1.238,2.35l1.238-2.35H63.906z"/>
	</g>
	<path fill="#82B3DC" d="M17.949,114.912c-6.827,0-12.362,5.535-12.362,12.361c0,6.83,5.535,12.363,12.362,12.363h12.364v-12.363
		C30.313,120.447,24.777,114.912,17.949,114.912z M18.132,130.504c0,2.344-1.625,4.213-4.746,4.213
		c-3.106,0-4.717-1.854-4.717-4.213v-6.068h2.862v5.309c0,1.824,0.632,2.416,1.854,2.416c1.251,0,1.884-0.592,1.884-2.416v-5.309
		h2.861v6.068H18.132z M28.264,126.87h-3.003v7.845h-2.989v-7.845h-3.019v-2.435h9.011V126.87z"/>
</g>
<g>
	<polygon fill="#FFFFFF" points="141.256,102.759 141.256,115.189 138.286,115.189 138.286,105.688 135.088,105.688 
		135.088,115.189 132.116,115.189 132.116,102.759 	"/>
	<polygon fill="#FFFFFF" points="141.256,88.423 141.256,100.854 138.286,100.854 138.286,91.354 135.088,91.354 135.088,100.854 
		132.116,100.854 132.116,88.423 	"/>
	<polygon fill="#FFFFFF" points="148.966,95.988 148.025,93.458 147.123,95.917 145.264,100.854 142.083,100.854 146.948,88.409 
		149.068,88.409 154.124,100.854 150.771,100.854 	"/>
	<path fill="#FFFFFF" d="M181.148,95.771c-0.455,1.254-1.631,2.146-3.018,2.146c-1.771,0-3.211-1.469-3.211-3.282
		c0-1.813,1.438-3.281,3.211-3.281c1.367,0,2.535,0.873,2.999,2.104h2.979c-0.541-2.871-3.01-5.04-5.979-5.04
		c-3.357,0-6.085,2.783-6.085,6.22c0,3.434,2.728,6.217,6.085,6.217c2.979,0,5.46-2.188,5.982-5.082H181.148L181.148,95.771z"/>
	<path fill="#FFFFFF" d="M165.044,97.843c-1.774,0-3.212-1.47-3.212-3.28c0-1.813,1.438-3.283,3.212-3.283s3.212,1.471,3.212,3.283
		C168.256,96.373,166.818,97.843,165.044,97.843 M165.044,88.415c-2.823,0-5.196,1.967-5.883,4.633h-1.246V88.42h-2.955v12.426
		h2.955v-4.777h1.208c0.634,2.742,3.044,4.785,5.921,4.785c3.36,0,6.085-2.783,6.085-6.22
		C171.129,91.198,168.404,88.415,165.044,88.415"/>
	<polygon fill="#FFFFFF" points="148.966,110.324 148.025,107.792 147.123,110.252 145.264,115.189 142.083,115.189 
		146.948,102.743 149.068,102.743 154.124,115.189 150.771,115.189 	"/>
	<path fill="#FFFFFF" d="M181.148,110.107c-0.455,1.252-1.631,2.146-3.018,2.146c-1.771,0-3.211-1.471-3.211-3.282
		c0-1.813,1.438-3.283,3.211-3.283c1.367,0,2.535,0.875,2.999,2.104h2.979c-0.541-2.871-3.01-5.04-5.979-5.04
		c-3.357,0-6.085,2.784-6.085,6.22c0,3.434,2.728,6.219,6.085,6.219c2.979,0,5.46-2.188,5.982-5.082H181.148L181.148,110.107z"/>
	<path fill="#FFFFFF" d="M165.044,112.178c-1.774,0-3.212-1.471-3.212-3.283c0-1.812,1.438-3.279,3.212-3.279
		s3.212,1.47,3.212,3.279C168.256,110.707,166.818,112.178,165.044,112.178 M165.044,102.749c-2.823,0-5.196,1.967-5.883,4.634
		h-1.246v-4.627h-2.955v12.426h2.955v-4.779h1.208c0.634,2.742,3.044,4.787,5.921,4.787c3.36,0,6.085-2.785,6.085-6.221
		C171.129,105.534,168.404,102.749,165.044,102.749"/>
</g>
<g>
	<path fill="#F7C91C" d="M10.554,86.102l0.741-0.677h1.728v-4.731l-0.013-0.48H7.593L3.15,83.935v4.219h7.403L10.554,86.102
		L10.554,86.102z M14.503,80.213v5.211h2.222l0.74,0.677v1.538L3.15,96.838v4.962h3.455l6.911-4.466l10.859-6.947v-6.452
		l-3.95-3.721L14.503,80.213L14.503,80.213z M18.149,96.088l-8.582,5.514v0.198h14.808v-5.243l-0.027-0.465L18.149,96.088z
		 M41.651,83.935h-6.417v5.708h-6.91v6.431l6.91,0.007v5.722h6.395l0.007-5.715l6.926,0.007v-6.447h-6.918L41.651,83.935z
		 M58.928,86.102l0.741-0.677h1.728v-4.731l-0.013-0.48h-5.417l-4.443,3.721v4.219h7.405L58.928,86.102L58.928,86.102z
		 M68.799,80.213h-5.922v5.211h2.221l0.741,0.677v1.538l-14.315,9.198v4.962h3.456l6.91-4.466l10.86-6.947v-6.452L68.799,80.213z
		 M57.94,101.602v0.198h14.809v-5.243v-0.465l-6.226-0.004L57.94,101.602z"/>
</g>
<g>
	<path fill="#B42025" d="M68.365,2.36c-0.387-0.374-0.893-0.637-1.606-0.648h-3.653c-0.712,0.011-0.934,0.274-1.321,0.648
		c-0.374,0.382-0.71,0.629-0.727,1.436c0,0,0,6.075,0,6.543c0,0.468-0.165,0.812-0.513,0.812h-2.68
		c-0.411,0-0.545-0.343-0.545-0.812c0-0.468,0-6.543,0-6.543c-0.017-0.8-0.351-1.05-0.728-1.436
		c-0.387-0.374-0.896-0.637-1.606-0.648h-3.835c-0.713,0.011-0.935,0.276-1.323,0.651c-0.374,0.382-0.709,0.632-0.723,1.432v22.902
		c0.014,0.803,0.35,1.049,0.723,1.432c0.387,0.373,0.61,0.674,1.323,0.686h3.835c0.711-0.012,1.22-0.31,1.606-0.685
		c0.376-0.381,0.71-0.63,0.728-1.433c0,0,0-6.127,0-6.778c0-0.649,0.07-0.759,0.545-0.759h2.68c0.333,0,0.513,0.109,0.513,0.759
		c0,0.654,0,6.778,0,6.778c0.017,0.805,0.354,1.052,0.727,1.433c0.386,0.375,0.607,0.673,1.321,0.685h3.653
		c0.715-0.012,1.221-0.31,1.607-0.685c0.374-0.378,0.712-0.628,0.726-1.433V3.796C69.078,2.99,68.74,2.743,68.365,2.36z
		 M67.992,26.835c-0.009,0.671-0.579,0.941-1.233,0.945h-3.651c-0.654-0.004-0.939-0.274-0.948-0.945V18.82
		c0,0-0.113-0.69-0.563-0.69h-4.815c-0.545,0-0.562,0.69-0.562,0.69v8.015c-0.007,0.676-0.575,0.943-1.232,0.945h-3.835
		c-0.66-0.002-0.939-0.269-0.945-0.945V3.763c0.009-0.671,0.292-0.942,0.945-0.947h3.835c0.653,0.005,1.223,0.276,1.232,0.947
		c0,0,0,7.46,0,7.812c0,0.351,0.159,0.652,0.562,0.652h4.815c0.45,0,0.563-0.226,0.563-0.652c0-0.424,0-7.812,0-7.812
		c0.009-0.671,0.293-0.942,0.948-0.947h3.651c0.654,0.005,1.224,0.276,1.233,0.947V26.835z M66.094,3.697h-2.417
		c-0.349,0-0.641,0.167-0.641,0.533v8.346c0,0.476-0.046,0.772-0.544,0.772H55.82c-0.398,0-0.722-0.44-0.722-0.823V4.264
		c0-0.356-0.197-0.566-0.505-0.566c-0.483,0-2.696,0-2.696,0c-0.536,0-0.774,0.27-0.774,0.6c0,0,0,21.539,0,21.914
		c0,0.376,0.172,0.686,0.813,0.686s2.562,0,2.562,0s0.601-0.134,0.601-0.686v-8.428c0-0.353,0.295-0.758,0.722-0.758h6.671
		c0.452,0,0.544,0.438,0.544,0.758c0,1.718,0.001,7.928,0.001,8.428c0,0.501,0.569,0.686,0.569,0.686s2.396,0,2.847,0
		c0.451,0,0.654-0.233,0.654-0.686V4.33C67.106,3.908,66.758,3.697,66.094,3.697z M20.19,1.855H4.271
		C3.573,1.869,3.079,2.246,2.703,2.637C2.341,3.033,2.015,3.161,2,4.002v3.076C1.99,7.556,2.17,7.694,2.449,8.059
		c0.427,0.556,0.853,0.699,1.133,0.79c0.293,0.081,0.506,0.09,0.69,0.093c0,0,2.769,0,3.031,0c0.261,0,0.54,0.133,0.54,0.636
		c0,0.498,0,17.153,0,17.153c0.015,0.84,0.343,1.111,0.704,1.508c0.376,0.389,0.867,0.7,1.569,0.713h4.031
		c0.702-0.014,0.909-0.328,1.283-0.719c0.363-0.398,0.686-0.665,0.701-1.503V9.603c0,0-0.003-0.661,0.542-0.661
		c0.546,0,3.231,0,3.231,0c0.246-0.008,0.396-0.008,0.867-0.213c0.231-0.111,0.53-0.293,0.808-0.662
		c0.281-0.364,0.463-0.508,0.453-0.989l0.001-3.076c-0.016-0.841-0.341-1.065-0.705-1.462C20.952,2.149,20.888,1.869,20.19,1.855z
		 M20.912,7.215c0,0.24-0.082,0.502-0.276,0.7c-0.193,0.201-0.343-0.106-0.732-0.106c0,0-3.657,0-4.156,0
		c-0.617,0-0.738,0.491-0.738,0.791c0,0.302,0,18.27,0,18.27c-0.009,0.669-0.253,0.938-0.863,0.946h-4.031
		c-0.612-0.007-1.142-0.277-1.152-0.946c0,0,0-17.893,0-18.27c0-0.375-0.31-0.791-0.784-0.791c-0.474,0-3.908,0-3.908,0
		c-0.389,0-0.682,0.308-0.875,0.106c-0.193-0.197-0.275-0.459-0.275-0.7V3.832c0.009-0.668,0.54-0.799,1.15-0.806H20.19
		c0.611,0.007,0.712,0.135,0.722,0.806V7.215z M19.547,3.866H5.056c-0.443,0-0.641,0.317-0.641,0.507c0,0.188,0,1.847,0,2.162
		c0,0.312,0.159,0.449,0.35,0.449H9.58c0.309,0,0.678,0.44,0.678,0.765c0,0.323-0.002,18.338-0.002,18.588s0.155,0.495,0.345,0.495
		h2.966c0.178,0,0.436-0.145,0.436-0.495V7.749c0-0.4,0.371-0.765,0.75-0.765h4.794c0.354,0,0.5-0.262,0.5-0.636V4.373
		C20.047,4.048,19.866,3.866,19.547,3.866z M34.587,0.771c-3.141,0-5.857,1.201-7.703,2.934c-1.893,1.777-2.975,3.951-2.968,6.957
		v9.072c-0.006,2.621,1.368,5.633,2.925,7.095c1.845,1.731,4.521,2.978,7.658,2.978c5.521,0,10.771-2.447,10.771-9.294V20.2
		c-0.015-0.835-0.055-1.459-0.417-1.852c-0.373-0.386-0.64-0.629-1.353-0.629s-3.612,0.01-4.136,0.01
		c-0.862,0-1.804,0.33-1.892,1.803c-0.049,0.827-0.714,1.734-2.723,1.734c-2.185,0-2.347-1.724-2.339-2.151v-7.562
		c-0.008-0.429,0.154-2.241,2.339-2.241c2.062,0,2.673,0.886,2.723,1.73c0.088,1.472,1.03,1.803,1.892,1.803
		c0.524,0,3.398,0.002,4.109,0.002c0.713,0,1.007-0.234,1.38-0.619c0.362-0.393,0.402-1.016,0.417-1.854V10.06
		C45.271,1.807,37.395,0.771,34.587,0.771z M43.397,11.785c0,0-2.862,0.003-3.508,0.003s-1.304-0.115-1.385-1.176
		c-0.163-2.129-2.143-2.601-3.569-2.601c-3.385,0-3.702,2.396-3.7,3.229v8.093c-0.001,0.832,0.315,3.228,3.7,3.228
		c1.155,0,3.396-0.32,3.569-2.601c0.081-1.058,0.739-1.176,1.385-1.176s3.508,0.005,3.508,0.005c0.606,0.009,0.658,0.485,0.658,1.65
		c0,5.242-4.074,8.052-9.468,8.052c-5.401,0-9.459-4.041-9.467-9.218v-8.154c0.008-5.175,3.982-9.127,9.383-9.127
		c5.393,0,9.552,2.898,9.552,8.142C44.055,11.298,44.003,11.776,43.397,11.785z M34.549,3.38c-4.847,0-8.55,3.711-8.55,7.831v8.152
		c0,4.117,3.783,7.989,8.631,7.989c4.016,0,8.136-2.058,8.382-6.553c0.024-0.438-0.201-0.769-0.507-0.769
		c-0.308,0-2.093,0.001-2.093,0.001c-0.438,0-0.759,0.093-0.831,0.51c-0.403,2.304-2.134,3.477-4.863,3.477
		c-2.923,0-4.835-2.211-4.839-4.655v-8.152c0.004-2.447,1.916-4.655,4.839-4.655c2.918,0,4.438,1.043,4.863,3.474
		c0.072,0.417,0.393,0.511,0.831,0.511c0,0,1.785,0.004,2.093,0.004c0.307,0,0.531-0.336,0.507-0.772
		C42.766,5.275,38.564,3.38,34.549,3.38z"/>
</g>
<g>
	<path fill="#95C76B" d="M19.491,50.013h-3.188v9.044h-0.234v0.001h-2.347v-0.001h-0.234v-9.044H10.3v-2.35h9.192L19.491,50.013
		L19.491,50.013z M26.256,53.361c0-6.281-5.086-11.373-11.361-11.373c-6.274,0-11.361,5.091-11.361,11.373
		c0,6.281,5.086,11.372,11.361,11.372S26.256,59.642,26.256,53.361"/>
	<path fill="#95C76B" d="M67.578,50.013H64.39v9.044h-0.234v0.001h-2.347v-0.001h-0.234v-9.044h-3.188v-2.35h9.192L67.578,50.013
		L67.578,50.013z M74.343,53.361c0-6.281-5.086-11.373-11.361-11.373c-6.274,0-11.36,5.091-11.36,11.373
		c0,6.281,5.086,11.372,11.36,11.372S74.343,59.642,74.343,53.361"/>
	<path fill="#95C76B" d="M35.044,53.98l6.954-3.408c-0.739-0.782-1.785-1.271-2.945-1.271c-2.24,0-4.056,1.817-4.056,4.06
		C34.997,53.571,35.013,53.779,35.044,53.98 M45.285,51.652l-9.178,4.497c0.739,0.783,1.785,1.271,2.945,1.271
		c1.319,0,2.491-0.631,3.231-1.608L42.31,55.8l2.483,0.53c-1.075,2.078-3.242,3.498-5.741,3.498c-3.568,0-6.461-2.896-6.461-6.467
		c0-3.572,2.894-6.467,6.461-6.467C42.03,46.894,44.537,48.909,45.285,51.652 M50.299,53.361c0-6.281-5.086-11.373-11.361-11.373
		S27.577,47.08,27.577,53.361c0,6.281,5.087,11.373,11.361,11.373S50.299,59.642,50.299,53.361"/>
</g>
<g>
	<path fill="#FFFFFF" d="M148.55,167.861c0,0.462,0.386,0.843,0.858,0.843h2.439c0.473,0,0.857-0.381,0.857-0.843V154.73
		l-4.157,8.094L148.55,167.861L148.55,167.861z M146.547,131.742h8.165v-1.1h-8.165V131.742z M153.202,127.682h-5.144
		c-0.824,0-1.514,0.674-1.514,1.481v0.642h8.165v-0.642C154.712,128.354,154.023,127.682,153.202,127.682z M146.547,133.68h8.165
		v-1.1h-8.165V133.68z M146.547,135.137c0,0.809,0.688,1.482,1.512,1.482h5.146c0.819,0,1.51-0.676,1.51-1.482v-0.619h-8.165
		L146.547,135.137L146.547,135.137z M168.021,140.125c-0.752,0-7.246,0-7.246,0c-2.246,0-4.159,1.836-4.159,4.079
		c0,0,0,23.337,0,23.642c0,0.35,0.341,0.805,0.791,0.805h2.493c0.553,0,0.885-0.496,0.875-0.758c0-0.084,0-11.076,0-11.076h3.947
		c0,0,0,10.729,0,11.039c0,0.313,0.291,0.758,0.789,0.795h2.596c0,0,0.781-0.037,0.781-0.996v-26.616
		C168.887,140.859,168.758,140.139,168.021,140.125z M164.723,153.633h-3.947v-9.429h3.947V153.633z M151.85,140.034h-2.439
		c-0.475,0-0.858,0.379-0.858,0.842v15.13l4.157-8.095v-7.035C152.707,140.413,152.32,140.034,151.85,140.034z M143.783,140.034
		h-2.439c-0.473,0-0.857,0.379-0.857,0.842v11.687h-3.947v-11.687c0-0.463-0.391-0.842-0.859-0.842h-2.439
		c-0.473,0-0.858,0.379-0.858,0.842v26.88c0,0.465,0.388,0.844,0.858,0.844h2.439c0.473,0,0.859-0.379,0.859-0.844v-12.01h3.947
		v12.01c0,0.465,0.387,0.844,0.857,0.844h2.439c0.474,0,0.859-0.379,0.859-0.844v-26.88
		C144.643,140.413,144.257,140.034,143.783,140.034z M182.783,140.034h-2.442c-0.471,0-0.858,0.379-0.858,0.842v11.687h-3.946
		v-11.687c0-0.463-0.388-0.842-0.858-0.842h-2.441c-0.471,0-0.857,0.379-0.857,0.842v26.88c0,0.465,0.387,0.844,0.857,0.844h2.441
		c0.473,0,0.858-0.379,0.858-0.844v-12.01h3.946v12.01c0,0.465,0.39,0.844,0.858,0.844h2.442c0.472,0,0.857-0.379,0.857-0.844
		v-26.88C183.643,140.413,183.255,140.034,182.783,140.034z M129.023,140.034h-2.439c-0.473,0-0.857,0.379-0.857,0.842v15.438
		h-3.949v-14.388h-0.004v-1.053c0-0.463-0.385-0.842-0.855-0.842h-2.439c-0.468,0-0.849,0.368-0.856,0.823
		c0,0.004-0.003,0.014-0.003,0.019v1.054h0.003v14.387c0,2.246,1.913,4.123,4.159,4.123h3.947v4.08h-3.965v-0.847
		c0-0.169-0.055-0.325-0.142-0.459c-0.042-0.063-0.093-0.114-0.146-0.165c-0.152-0.133-0.352-0.22-0.57-0.22h-2.439
		c-0.221,0-0.42,0.087-0.572,0.22c-0.142,0.125-0.237,0.294-0.271,0.484c-0.008,0.047-0.017,0.091-0.017,0.14v1.056h0.002
		c-0.022,0.824,0.129,3.871,3.766,3.871h4.355c2.285,0,4.155-1.916,4.155-4.08v-23.644
		C129.882,140.413,129.497,140.034,129.023,140.034z"/>
</g>
<g>
	<path fill="#FFFFFF" d="M33.391,155.874l3.528,8.319l3.527-8.319h4.208l-5.976,13.399H35.16l-5.977-13.399H33.391z"/>
	<path fill="#FFFFFF" d="M49.668,155.874l3.528,8.319l3.527-8.319h4.208l-5.978,13.399h-3.519l-5.977-13.399H49.668z"/>
	<path fill="#FFFFFF" d="M22.027,155.874c-3.742,0-6.773,3.032-6.773,6.772c0,3.741,3.032,6.772,6.773,6.772
		c3.74,0,6.772-3.031,6.772-6.772C28.799,158.906,25.767,155.874,22.027,155.874z M22.025,165.967c-1.833,0-3.319-1.486-3.319-3.32
		s1.485-3.32,3.319-3.32c1.835,0,3.321,1.486,3.321,3.32S23.86,165.967,22.025,165.967z"/>
	<path fill="#FFFFFF" d="M71.744,155.874v1.114c-1.067-0.703-2.344-1.114-3.719-1.114c-3.741,0-6.773,3.032-6.773,6.772
		c0,3.741,3.032,6.772,6.773,6.772c1.375,0,2.652-0.41,3.719-1.115v1.115h3.842v-13.545H71.744z M68.024,165.967
		c-1.833,0-3.318-1.486-3.318-3.32s1.485-3.32,3.318-3.32s3.32,1.486,3.32,3.32S69.858,165.967,68.024,165.967z"/>
	<circle fill="#FFFFFF" cx="8.375" cy="162.656" r="3.319"/>
</g>
</svg>
