<?xml version="1.0" standalone="no"?>
<!DOCTYPE svg PUBLIC "-//W3C//DTD SVG 1.1//EN" "http://www.w3.org/Graphics/SVG/1.1/DTD/svg11.dtd" >
<svg xmlns="http://www.w3.org/2000/svg">
<metadata></metadata>
<defs>
<font id="oneplusonettfblack" horiz-adv-x="659" >
<font-face units-per-em="2048" ascent="1536" descent="-512" />
<missing-glyph horiz-adv-x="645" />
<glyph horiz-adv-x="0" />
<glyph unicode="&#xd;" horiz-adv-x="681" />
<glyph unicode=" "  horiz-adv-x="645" />
<glyph unicode="&#x09;" horiz-adv-x="645" />
<glyph unicode="&#xa0;" horiz-adv-x="645" />
<glyph unicode="!" horiz-adv-x="794" d="M174 172q0 92 72 160q68 55 166 55t166 -55q70 -68 69 -160q0 -96 -69 -160q-68 -55 -166.5 -55t-165.5 55q-72 66 -72 160zM184 1198h449l-101 -657h-247z" />
<glyph unicode="&#x22;" horiz-adv-x="1064" d="M57 979v547h369l-74 -547h-295zM584 979v547h368l-73 -547h-295z" />
<glyph unicode="#" horiz-adv-x="1476" d="M92 141v285h199l28 313h-227v285h252l16 174h281l-16 -174h336l16 174h280l-16 -174h143v-285h-167l-29 -313h196v-285h-223l-12 -141h-281l13 141h-338l-13 -141h-278l12 141h-172zM569 426h338l29 313h-338z" />
<glyph unicode="$" horiz-adv-x="1007" d="M76 821q0 125 71.5 213t200.5 121l21 217h280l17 -211q55 -8 104 -20.5t70 -20.5l22 -8l-28 -293q-170 43 -271 43q-111 0 -110 -41q0 -31 74.5 -56.5t164.5 -49t165 -94t75 -181.5q0 -276 -262 -352l-21 -262h-280l-21 240q-74 6 -140.5 20t-96.5 25l-29 12l31 297 q127 -47 264 -47q168 0 168 63q0 23 -48 39.5t-117 34.5t-138.5 48t-117.5 97.5t-48 165.5z" />
<glyph unicode="%" horiz-adv-x="2250" d="M57 1004q0 195 117 313.5t326 118.5q203 0 323.5 -120t120.5 -312q0 -199 -115.5 -319t-328.5 -120q-219 0 -331 119t-112 320zM385 1006q0 -147 115 -148q121 0 121 148q0 139 -121 139q-115 0 -115 -139zM610 0l594 1198h338l-594 -1198h-338zM1307 395 q0 195 116.5 313.5t325.5 118.5q203 0 323.5 -119.5t120.5 -312.5q0 -199 -115.5 -318.5t-328.5 -119.5q-219 0 -330.5 118.5t-111.5 319.5zM1634 397q0 -147 115 -147q121 0 121 147q0 139 -121 140q-115 -1 -115 -140z" />
<glyph unicode="&#x26;" horiz-adv-x="1411" d="M57 356q0 131 82 220.5t207 138.5q-37 86 -37 166q0 170 141.5 264t399.5 94l127 -319q-121 0 -184.5 -28t-63.5 -112q0 -133 221 -295q16 61 17 129q0 90 -31 199l297 21q41 -123 41 -240q0 -139 -55 -266q100 -49 188 -78l-154 -293q-133 63 -239 125 q-180 -125 -441 -125q-238 0 -377 110.5t-139 288.5zM424 412q0 -70 51 -124.5t168 -54.5q63 0 113 21q-174 131 -289 270q-43 -40 -43 -112z" />
<glyph unicode="'" horiz-adv-x="536" d="M57 979v547h369l-74 -547h-295z" />
<glyph unicode="(" horiz-adv-x="907" d="M186 557q0 199 35 374t85 281.5t100.5 185.5t85.5 111l34 33l308 -127q-10 -12 -26.5 -36.5t-59.5 -108.5t-77 -176.5t-60.5 -238.5t-26.5 -297.5t25.5 -296t62.5 -240t73.5 -169t61.5 -108.5l27 -35l-308 -127q-14 10 -36.5 33t-81 106.5t-103.5 185t-82 276.5t-37 374z " />
<glyph unicode=")" horiz-adv-x="907" d="M74 -291q10 12 26.5 37t59.5 109t75.5 176t59.5 238.5t27 298t-26 296t-62.5 239.5t-72.5 169t-63 108l-24 35l307 127q14 -10 36.5 -32.5t81 -106.5t103.5 -185.5t82 -276.5t37 -373.5t-35 -374t-85 -282t-100 -185t-85 -111.5l-35 -33z" />
<glyph unicode="*" horiz-adv-x="985" d="M0 987l115 352l262 -163l-66 301h371l-74 -299l266 155l113 -352l-305 -23l229 -204l-301 -217l-116 282l-123 -280l-299 219l233 198z" />
<glyph unicode="+" horiz-adv-x="1136" d="M55 403v312h353v334h327v-334h346v-312h-346v-335h-327v335h-353z" />
<glyph unicode="," horiz-adv-x="667" d="M23 -219q18 14 46.5 38.5t76 95.5t47.5 132l-5 35q-68 47 -67 145q0 76 52 129.5t153 53.5q104 0 180 -84t76 -220q0 -96 -40 -184t-96.5 -144.5t-111.5 -99.5t-96 -63l-39 -18z" />
<glyph unicode="-" horiz-adv-x="825" d="M57 403v312h711v-312h-711z" />
<glyph unicode="." horiz-adv-x="761" d="M141 172q0 92 72 160q68 55 166 55t166 -55q70 -68 69 -160q0 -96 -69 -160q-68 -55 -166 -55t-166 55q-72 66 -72 160z" />
<glyph unicode="/" horiz-adv-x="1128" d="M-45 -512l874 2048h381l-872 -2048h-383z" />
<glyph unicode="0" horiz-adv-x="1261" d="M63 596q0 643 567.5 643t567.5 -643q0 -305 -132 -472t-435 -167t-435.5 167t-132.5 472zM483 596q0 -197 27 -263.5t121 -66.5t120.5 66.5t26.5 263.5t-26.5 265.5t-120.5 68.5t-121 -68.5t-27 -265.5z" />
<glyph unicode="1" horiz-adv-x="888" d="M72 1059l407 139h266v-1198h-389v877l-223 -82z" />
<glyph unicode="2" horiz-adv-x="1038" d="M25 0v207q23 14 61.5 40.5t135.5 102.5t172 145.5t136.5 153.5t61.5 146q0 117 -170 116q-68 0 -142.5 -13t-115.5 -26l-43 -12l-53 301q14 8 43.5 21.5t138 35t239.5 21.5q246 0 374 -111.5t128 -298.5q0 -260 -397 -499h399v-330h-968z" />
<glyph unicode="3" horiz-adv-x="1073" d="M86 23l29 286q180 -51 331 -51q102 0 143.5 24.5t41.5 82.5q0 43 -31 60t-94 17h-141l-78 254l172 178h-334v324h833v-223l-340 -305q410 0 410 -305q0 -201 -141.5 -304.5t-376.5 -103.5q-137 0 -243.5 16.5t-143.5 32.5z" />
<glyph unicode="4" horiz-adv-x="1183" d="M51 414l318 784h405l-285 -661h168l62 372h319v-372h125v-193l-125 -100v-244h-391v233h-575z" />
<glyph unicode="5" horiz-adv-x="1077" d="M102 23l29 286q180 -51 332 -51q172 0 172 127q0 49 -38 82t-112 33h-319l45 698h731v-324h-428l-6 -126h12q512 0 512 -363q0 -115 -46 -201t-122 -134t-161 -70.5t-177 -22.5q-137 0 -243.5 16.5t-143.5 32.5z" />
<glyph unicode="6" horiz-adv-x="1144" d="M63 506q0 145 44.5 267t116 204t165.5 140.5t188.5 87t190.5 34.5l127 -309q-82 -8 -131 -17.5t-111.5 -39t-101.5 -80.5h33q516 0 516 -412q0 -190 -142.5 -307t-371.5 -117q-244 0 -383.5 133t-139.5 416zM463 440q0 -109 27.5 -147.5t95.5 -38.5q57 0 85.5 38 t28.5 97.5t-32.5 93t-130.5 33.5h-72q-2 -25 -2 -76z" />
<glyph unicode="7" horiz-adv-x="1005" d="M14 858v340h979v-219l-381 -979h-448l389 858h-539z" />
<glyph unicode="8" horiz-adv-x="1198" d="M43 346q0 174 147 268q-119 90 -118 234q0 166 145 278.5t381 112.5t381 -112.5t145 -278.5q0 -143 -120 -234q150 -94 149 -268q0 -170 -134 -278.5t-415 -110.5h-6q-285 0 -420 109.5t-135 279.5zM449 385q0 -59 37.5 -95t111.5 -36h2q72 0 110 36t38 95q0 49 -40 83 t-116 34h-4q-68 -4 -103.5 -38t-35.5 -79zM459 836q0 -53 33.5 -88t93.5 -37h24q57 2 92 36.5t35 88.5q0 51 -36.5 78.5t-102.5 27.5t-102.5 -27.5t-36.5 -78.5z" />
<glyph unicode="9" horiz-adv-x="1144" d="M45 815q0 190 142.5 307t371.5 117q244 0 383 -133t139 -416q0 -145 -44 -267t-115.5 -204t-165.5 -140.5t-188.5 -87t-190.5 -34.5l-127 309q82 8 130 17.5t110.5 39t101.5 80.5h-31q-516 0 -516 412zM444 807q0 -59 33 -93t131 -34h70q4 45 4 76q0 109 -27.5 147.5 t-95.5 38.5q-57 0 -86 -38t-29 -97z" />
<glyph unicode=":" horiz-adv-x="761" d="M141 172q0 92 72 160q68 55 166 55t166 -55q70 -68 69 -160q0 -96 -69 -160q-68 -55 -166 -55t-166 55q-72 66 -72 160zM141 852q0 92 72 160q68 55 166 55t166 -55q70 -68 69 -160q0 -96 -69 -160q-68 -55 -166 -55t-166 55q-72 66 -72 160z" />
<glyph unicode=";" horiz-adv-x="761" d="M78 -219q18 14 47 38.5t76 95.5t47 132l-4 35q-68 47 -68 145q0 76 52.5 129.5t152.5 53.5q104 0 180 -84t76 -220q0 -96 -40 -184t-95.5 -144.5t-111.5 -99.5t-95 -63l-41 -18zM141 852q0 92 72 160q68 55 166 55t166 -55q70 -68 69 -160q0 -96 -69 -160 q-68 -55 -166 -55t-166 55q-72 66 -72 160z" />
<glyph unicode="&#x3c;" horiz-adv-x="921" d="M102 594l471 500l246 -211l-276 -289l276 -289l-246 -211z" />
<glyph unicode="=" horiz-adv-x="1310" d="M55 164v311h1200v-311h-1200zM55 643v311h1200v-311h-1200z" />
<glyph unicode="&#x3e;" horiz-adv-x="921" d="M102 305l277 289l-277 289l246 211l471 -500l-471 -500z" />
<glyph unicode="?" horiz-adv-x="1091" d="M145 1161q14 8 44 21.5t140.5 35t243.5 21.5q238 0 367 -94t129 -234q0 -109 -71.5 -194.5t-174 -131.5t-206 -77t-175.5 -41l-71 -8l-27 246q12 2 34.5 7t79 20.5t99.5 32.5t78 44t35 53q0 31 -34 40t-106 9q-82 0 -164.5 -13t-123.5 -26l-43 -12zM256 172q0 92 72 160 q68 55 166 55t165 -55q70 -68 70 -160q0 -96 -70 -160q-68 -55 -166 -55t-165 55q-72 66 -72 160z" />
<glyph unicode="@" horiz-adv-x="2091" d="M84 492q0 430 272.5 687t784.5 257q428 0 651 -193.5t223 -535.5q0 -631 -497 -631q-219 0 -289 112h-19q-6 -12 -17 -30.5t-63.5 -50t-121.5 -31.5q-184 0 -294 109.5t-110 330.5q0 199 135 320.5t369 121.5q100 0 191.5 -10t130.5 -22l40 -11v-532q0 -70 66 -70 q82 0 122 79t40 294q0 233 -134 348t-423 115q-328 0 -514.5 -157.5t-186.5 -499.5q0 -299 157 -450t433 -151q115 0 206 11.5t124 21.5l33 10l24 -282q-10 -8 -31.5 -19.5t-118 -30t-225.5 -18.5q-958 1 -958 908zM926 516q0 -199 149 -199q86 0 117 72v326q-25 8 -88 8 q-100 0 -139 -54.5t-39 -152.5z" />
<glyph unicode="A" horiz-adv-x="1411" d="M23 0l450 1198h488l430 -1198h-420l-60 205h-417l-58 -205h-413zM578 494h247l-118 393h-9z" />
<glyph unicode="B" horiz-adv-x="1288" d="M125 0v1198q217 41 469 41q297 0 437 -94t140 -250q0 -182 -176 -289q231 -59 232 -266q0 -180 -158 -281.5t-455 -101.5q-115 0 -237.5 11.5t-188.5 21.5zM489 268q115 -8 152 -8q195 0 195 104.5t-168 104.5h-179v-201zM489 737h160q68 0 106 29t38 76q0 94 -179 94 q-27 0 -125 -8v-191z" />
<glyph unicode="C" horiz-adv-x="1159" d="M61 596q0 297 171 470t481 173q119 0 221 -20.5t145 -40.5l43 -21l-53 -309q-125 51 -289 51q-301 0 -301 -303q0 -299 299 -299q86 0 159 13.5t103 25.5l29 12l53 -309q-12 -8 -38.5 -22.5t-129 -37t-231.5 -22.5q-317 0 -489.5 171t-172.5 468z" />
<glyph unicode="D" horiz-adv-x="1419" d="M125 0v1198q221 41 502 41q348 0 539.5 -166t191.5 -477q0 -307 -186.5 -472t-542.5 -165q-133 0 -259 10.5t-186 20.5zM535 285q33 -2 98 -2q156 0 231.5 74.5t75.5 238.5q0 168 -77 243.5t-236 75.5q-61 0 -92 -2v-628z" />
<glyph unicode="E" horiz-adv-x="1161" d="M125 0v1198h915v-324h-505v-116h430v-309h-430v-125h522v-324h-932z" />
<glyph unicode="F" horiz-adv-x="1075" d="M125 0v1198h924v-324h-514v-196h450v-311h-450v-367h-410z" />
<glyph unicode="G" horiz-adv-x="1353" d="M61 596q0 283 198 463t505 180q123 0 227.5 -20.5t147.5 -40.5l43 -21l-54 -309q-125 51 -319 51q-166 0 -248 -82t-82 -223q0 -147 81 -222t224 -75q125 0 138 8v111h-205v313h551v-709q-215 -63 -523 -63q-352 0 -518 168t-166 471z" />
<glyph unicode="H" horiz-adv-x="1427" d="M125 0v1198h410v-438h358v438h410v-1198h-410v451h-358v-451h-410z" />
<glyph unicode="I" d="M125 0v1198h410v-1198h-410z" />
<glyph unicode="J" d="M-82 -86q207 0 207 213v1071h410v-1165q0 -449 -490 -449z" />
<glyph unicode="K" horiz-adv-x="1363" d="M125 0v1198h410v-426h51l301 426h456l-421 -545l464 -653h-479l-319 473h-53v-473h-410z" />
<glyph unicode="L" horiz-adv-x="1030" d="M125 0v1198h410v-874h479v-324h-889z" />
<glyph unicode="M" horiz-adv-x="1787" d="M125 0v1198h391l369 -584h16l373 584h389v-1198h-393v567h-15l-225 -362h-272l-228 362h-12v-567h-393z" />
<glyph unicode="N" horiz-adv-x="1458" d="M125 0v1198h426l430 -678h8l-10 121v557h354v-1198h-432l-424 666h-8l8 -156v-510h-352z" />
<glyph unicode="O" horiz-adv-x="1462" d="M61 600q0 287 174.5 463t496 176t495.5 -176t174 -463q0 -289 -174 -466t-495.5 -177t-496 177t-174.5 466zM479 600q0 -133 63.5 -218t188.5 -85t187.5 85t62.5 218q0 129 -63.5 214t-186.5 85t-187.5 -85t-64.5 -214z" />
<glyph unicode="P" horiz-adv-x="1191" d="M125 0v1198q252 41 434 41q592 0 592 -448q0 -219 -157.5 -343t-356.5 -124h-131v-324h-381zM506 618h49q176 0 176 173q0 141 -176 141q-33 0 -49 -2v-312z" />
<glyph unicode="Q" horiz-adv-x="1462" d="M61 600q0 287 174.5 463t496 176t495.5 -176t174 -463q0 -231 -113.5 -394t-329.5 -220q45 -72 209 -72l-127 -330q-236 0 -347 88t-111 297q-252 39 -386.5 209t-134.5 422zM479 600q0 -133 63.5 -218t188.5 -85t187.5 85t62.5 218q0 129 -63.5 214t-186.5 85 t-187.5 -85t-64.5 -214z" />
<glyph unicode="R" horiz-adv-x="1255" d="M125 0v1198h2q233 41 432 41q594 0 594 -448q0 -229 -207 -359l266 -432h-469l-153 344h-84v-344h-381zM506 618h47q180 0 180 173q0 141 -176 141q-33 0 -51 -2v-312z" />
<glyph unicode="S" horiz-adv-x="1064" d="M96 49l99 305q148 -65 282 -65h4q123 0 123 51q0 23 -51 49.5t-124 60t-146.5 82t-125 133.5t-51.5 191q0 184 121 283.5t316 99.5q113 0 214 -20.5t144 -40.5l45 -21l-74 -297q-172 51 -276 51q-88 0 -88 -53q0 -27 51 -56.5t124 -65.5t145.5 -84t124 -127t51.5 -175 q0 -180 -126 -286.5t-354 -106.5q-147 0 -253.5 23.5t-139.5 46.5z" />
<glyph unicode="T" horiz-adv-x="1075" d="M31 874v324h1013v-324h-301v-874h-409v874h-303z" />
<glyph unicode="U" horiz-adv-x="1390" d="M106 477v721h410v-639q0 -121 37 -179t143.5 -58t143.5 59t37 178v639h407v-721q0 -236 -136 -378t-451.5 -142t-453 142t-137.5 378z" />
<glyph unicode="V" horiz-adv-x="1359" d="M-4 1198h438l242 -821h10l240 821h436l-416 -1198h-532z" />
<glyph unicode="W" horiz-adv-x="1955" d="M-4 1198h424l158 -770h8l172 770h442l178 -762h8l148 762h424l-350 -1198h-441l-184 729h-8l-191 -729h-442z" />
<glyph unicode="X" horiz-adv-x="1380" d="M-14 0l454 596l-450 602h469l231 -336l230 336h466l-448 -600l457 -598h-488l-217 328l-217 -328h-487z" />
<glyph unicode="Y" horiz-adv-x="1249" d="M-43 1198h457l200 -465h9l213 465h456l-463 -809v-389h-409v389z" />
<glyph unicode="Z" horiz-adv-x="1249" d="M82 0v244l547 630h-547v324h1083v-244l-542 -630h542v-324h-1083z" />
<glyph unicode="[" horiz-adv-x="972" d="M186 -203v1673h785v-292h-432v-1088h432v-293h-785z" />
<glyph unicode="\" horiz-adv-x="1128" d="M-82 1536h383l873 -2048h-381z" />
<glyph unicode="]" horiz-adv-x="972" d="M0 90h432v1088h-432v290h786v-1671h-786v293z" />
<glyph unicode="^" horiz-adv-x="864" d="M55 1104l375 342l379 -342l-162 -164l-215 209l-217 -209z" />
<glyph unicode="_" horiz-adv-x="1685" d="M55 -104h1571v-312h-1571v312z" />
<glyph unicode="`" horiz-adv-x="559" d="M-74 1393l369 41l84 -263l-275 -20z" />
<glyph unicode="a" horiz-adv-x="1292" d="M57 514q0 555 633 555q135 0 258 -13.5t178 -25.5l54 -12v-637q0 -133 108 -133l-114 -291q-203 0 -302 109h-24q-2 -4 -6 -11.5t-26.5 -27t-52.5 -33.5t-88.5 -25.5t-131.5 -11.5q-219 0 -352.5 147.5t-133.5 409.5zM465 524q0 -254 172 -254q39 0 75 12.5t52 24.5 l16 15v430q-39 4 -86 4q-229 -1 -229 -232z" />
<glyph unicode="b" horiz-adv-x="1271" d="M92 8v1385h400v-369h10q74 45 227 45q233 0 359 -151.5t126 -389.5q0 -260 -161.5 -415.5t-470.5 -155.5q-139 0 -262 13.5t-177 25.5zM492 274h12q10 -2 28.5 -3t36.5 -1q236 0 236 248q0 238 -166 238q-39 0 -75 -7.5t-52 -13.5t-20 -10v-451z" />
<glyph unicode="c" horiz-adv-x="1015" d="M57 518q0 258 158 404.5t420 146.5q92 0 171 -16.5t112 -32.5l32 -14l-32 -308q-109 51 -218 52q-231 0 -231 -228q0 -121 63.5 -183.5t161.5 -62.5q51 0 107.5 13.5t87.5 25.5l29 13l32 -312q-8 -6 -25.5 -16t-98.5 -26.5t-191 -16.5q-276 0 -427 157.5t-151 403.5z" />
<glyph unicode="d" horiz-adv-x="1269" d="M57 514q0 272 131 413.5t347 141.5q63 0 120.5 -11t83.5 -22l27 -12h14v369h398v-1366q-213 -70 -506 -70q-299 0 -457 144.5t-158 412.5zM465 524q0 -260 213 -260l102 2v467q-59 29 -141 29q-78 0 -126 -58.5t-48 -179.5z" />
<glyph unicode="e" horiz-adv-x="1126" d="M57 477q0 274 143.5 433t381.5 159q233 0 370.5 -138t137.5 -362q0 -49 -4.5 -94t-8.5 -65l-4 -21h-622q2 -78 57 -106.5t199 -28.5q61 0 126.5 12.5t100.5 24.5l37 14l33 -289q-8 -6 -29 -16t-112 -26.5t-216 -16.5q-256 0 -423 132t-167 388zM436 635h312v18 q0 53 -38 91t-108 38q-66 0 -109 -39.5t-57 -107.5z" />
<glyph unicode="f" horiz-adv-x="841" d="M45 705v225l111 92q4 209 124.5 311.5t374.5 102.5l127 -320q-96 0 -150 -19.5t-71 -72.5h234v-319h-240v-705h-399v705h-111z" />
<glyph unicode="g" horiz-adv-x="1271" d="M57 514q0 555 633 555q135 0 258 -18.5t178 -34.5l54 -19v-1067q0 -174 -156 -260t-389 -86q-123 0 -220.5 15.5t-133.5 31.5l-37 15l30 282q143 -47 281 -47q225 0 225 86v58h-14q-8 -8 -22.5 -19.5t-73 -30t-127.5 -18.5q-219 0 -352.5 147.5t-133.5 409.5zM465 524 q0 -254 172 -254q39 0 75 12.5t52 24.5l16 15v430q-39 4 -86 4q-229 -1 -229 -232z" />
<glyph unicode="h" horiz-adv-x="1259" d="M92 0v1393h400v-369h12q80 45 276 45q399 0 400 -389v-680h-400v606q0 49 -35.5 81t-113.5 32l-139 -6v-713h-400z" />
<glyph unicode="i" horiz-adv-x="583" d="M88 1292q0 90 54.5 137.5t148.5 47.5t148.5 -47.5t54.5 -137.5t-55.5 -138t-147.5 -48q-90 0 -146.5 48t-56.5 138zM92 0v1024h400v-1024h-400z" />
<glyph unicode="j" horiz-adv-x="602" d="M-76 -82q186 0 187 193v913h399v-1008q0 -428 -459 -428zM106 1292q0 90 54.5 137.5t148.5 47.5t148.5 -47.5t54.5 -137.5t-55.5 -138t-147.5 -48q-90 0 -146.5 48t-56.5 138z" />
<glyph unicode="k" horiz-adv-x="1185" d="M92 0v1393h400v-742h38l181 373h456l-303 -459l336 -565h-477l-197 371h-34v-371h-400z" />
<glyph unicode="l" horiz-adv-x="665" d="M92 385v1008h400v-914q0 -192 184 -192h2l-127 -330q-459 0 -459 428z" />
<glyph unicode="m" horiz-adv-x="1783" d="M92 0v997q227 72 563 72q186 0 293 -59q213 59 342 59q221 0 316.5 -94t95.5 -287v-688h-399v627q0 51 -24 71.5t-81 20.5q-49 0 -100 -10v-709h-400v627q0 51 -23.5 71.5t-78.5 20.5l-107 -6v-713h-397z" />
<glyph unicode="n" horiz-adv-x="1261" d="M92 0v997q236 72 576 72q276 0 394 -96t118 -293v-680h-400v606q0 113 -147 113l-144 -4v-715h-397z" />
<glyph unicode="o" horiz-adv-x="1292" d="M57 532q0 250 154 392.5t434.5 142.5t435 -142.5t154.5 -392.5q0 -266 -161 -421.5t-429 -155.5q-281 0 -434.5 153.5t-153.5 423.5zM467 516q0 -262 178 -262q180 0 180 260q0 254 -180 254q-98 0 -138 -65.5t-40 -186.5z" />
<glyph unicode="p" horiz-adv-x="1271" d="M92 -369v1366q203 72 490 72q350 0 491 -143.5t141 -397.5q0 -252 -134 -411.5t-351 -159.5q-72 0 -128 17.5t-77 33.5l-22 17h-13v-394h-397zM489 324q55 -53 150 -54q74 0 120 59.5t46 188.5q0 131 -60.5 184.5t-175.5 53.5l-80 -4v-428z" />
<glyph unicode="q" horiz-adv-x="1271" d="M57 514q0 555 633 555q119 0 242 -18.5t186 -34.5l62 -19v-1366h-400v394h-14q-8 -8 -22.5 -19.5t-73 -30t-127.5 -18.5q-219 0 -352.5 147.5t-133.5 409.5zM465 524q0 -254 172 -254q39 0 75 12.5t52 24.5l16 15v430q-39 4 -86 4q-229 -1 -229 -232z" />
<glyph unicode="r" horiz-adv-x="845" d="M92 0v997q180 72 461 72q90 0 165 -14.5t105 -28.5l31 -14l-37 -310q-92 37 -225 37l-103 -6v-733h-397z" />
<glyph unicode="s" horiz-adv-x="987" d="M66 717q0 160 112.5 256t308.5 96q100 0 191.5 -15.5t132.5 -29.5l41 -16l-29 -293q-170 43 -270 43q-111 0 -111 -41q0 -31 75 -56.5t165 -49t165 -94.5t75 -181q0 -379 -498 -379q-94 0 -182 15.5t-129 31.5l-41 14l30 297q127 -47 265 -47q168 0 168 64q0 23 -48.5 39 t-118 34.5t-138 48t-116.5 97.5t-48 166z" />
<glyph unicode="t" horiz-adv-x="837" d="M35 705v225l119 65l88 203h303v-174h203v-319h-203v-267q0 -88 41 -119.5t145 -31.5l-127 -330q-236 0 -347.5 89t-111.5 298v361h-110z" />
<glyph unicode="u" horiz-adv-x="1263" d="M82 342v682h399v-608q0 -49 37 -80t115 -31l139 6v713h399v-997q-223 -70 -581 -70q-274 0 -391 94t-117 291z" />
<glyph unicode="v" horiz-adv-x="1175" d="M-8 1024h440l150 -700h14l147 700h441l-334 -1024h-524z" />
<glyph unicode="w" horiz-adv-x="1734" d="M0 1024h422l98 -604h12l136 604h399l135 -604h12l99 604h422l-310 -1024h-432l-121 588h-10l-121 -588h-434z" />
<glyph unicode="x" horiz-adv-x="1210" d="M-6 0l358 512l-358 512h465l141 -305h12l142 305h463l-359 -512l359 -512h-465l-140 326h-12l-139 -326h-467z" />
<glyph unicode="y" horiz-adv-x="1196" d="M-10 1024h440l203 -664h10l123 664h440l-336 -983q-51 -145 -113.5 -240.5t-138 -140.5t-144 -60.5t-163.5 -15.5l-121 332q186 0 256 86z" />
<glyph unicode="z" horiz-adv-x="1024" d="M27 0v213l417 502h-383v309h936v-193l-417 -522h405l-2 -309h-956z" />
<glyph unicode="{" horiz-adv-x="991" d="M211 432v332q68 0 131.5 20.5t63.5 65.5t-31 159.5t-31 188.5q0 172 129 254t461 82v-289q-246 0 -246 -151q0 -59 31 -168t31 -170q0 -90 -93 -158q92 -68 93 -158q0 -61 -31 -169.5t-31 -168.5q0 -152 246 -151v-289q-332 0 -461 82t-129 254q0 74 31 188.5t31 159.5 t-63.5 65.5t-131.5 20.5z" />
<glyph unicode="|" horiz-adv-x="878" d="M250 -512v2048h379v-2048h-379z" />
<glyph unicode="}" horiz-adv-x="991" d="M119 -49q246 0 246 151q0 59 -31 168t-31 170q0 90 92 158q-92 68 -92 158q0 61 31 169.5t31 168.5q0 152 -246 151v289q332 0 461 -82t129 -254q0 -74 -31 -188.5t-31 -159.5t63.5 -65.5t131.5 -20.5v-332q-68 0 -131.5 -20.5t-63.5 -65.5t31 -159.5t31 -188.5 q0 -172 -129 -254t-461 -82v289z" />
<glyph unicode="~" horiz-adv-x="1447" d="M117 846q4 6 13 15t43 31.5t73 41t105.5 33t140.5 14.5q86 0 155.5 -18.5t117.5 -45t92 -53t100.5 -45t122 -18.5t124 13t84.5 28l27 14l16 -315q-4 -6 -11 -15.5t-37 -33t-64.5 -42t-95 -34t-130.5 -15.5q-92 0 -171 27t-127 58.5t-123.5 58t-161.5 26.5 q-72 0 -141.5 -19.5t-104.5 -37.5l-33 -18z" />
<glyph unicode="&#xa9;" horiz-adv-x="1677" d="M82 692q0 330 194.5 537t557.5 207q365 0 563 -207t198 -537t-195.5 -532.5t-565.5 -202.5q-369 0 -560.5 201.5t-191.5 533.5zM406 690q0 -209 110.5 -335t314.5 -126q209 0 325 127t116 334q0 211 -116 342t-325 131q-205 0 -315 -131t-110 -342zM500 682 q0 170 106.5 270.5t280.5 100.5q49 0 88 -6.5t53 -14.5l14 -6l-24 -219q-61 10 -90 10q-80 0 -118 -31.5t-38 -103.5q0 -117 146 -117q18 0 42.5 6.5t40.5 10.5l17 6l24 -242q-43 -27 -155 -27q-174 0 -280.5 96.5t-106.5 266.5z" />
<glyph unicode="&#xab;" horiz-adv-x="1337" d="M174 512l397 403l172 -188l-215 -217l213 -217l-172 -195zM649 512l398 403l172 -188l-215 -217l213 -217l-173 -195z" />
<glyph unicode="&#xad;" horiz-adv-x="825" d="M57 403v312h711v-312h-711z" />
<glyph unicode="&#xae;" horiz-adv-x="1525" d="M82 764q0 297 175 483.5t501 186.5q330 0 508 -186.5t178 -483.5t-177 -479.5t-509 -182.5t-504 182.5t-172 479.5zM373 762q0 -186 98 -289.5t285 -103.5q190 0 293.5 104.5t103.5 288.5q0 186 -104.5 295.5t-292.5 109.5q-186 0 -284.5 -108.5t-98.5 -296.5zM492 489 v566h253q139 0 211 -57.5t72 -163.5q0 -88 -65 -158l65 -187h-246l-32 109h-29v-109h-229zM721 770h10q55 0 55 51q0 45 -55 45h-10v-96z" />
<glyph unicode="&#xbb;" horiz-adv-x="1337" d="M115 287l217 217l-213 217l172 194l395 -413l-397 -404zM590 287l217 217l-213 217l172 194l395 -413l-397 -404z" />
<glyph unicode="&#x400;" horiz-adv-x="1161" d="M125 0v1198h915v-324h-505v-116h430v-309h-430v-125h522v-324h-932zM301 1516l369 40l84 -262l-275 -20z" />
<glyph unicode="&#x401;" horiz-adv-x="1161" d="M125 0v1198h915v-324h-505v-116h430v-309h-430v-125h522v-324h-932zM162 1390.5q0 71.5 52 118.5t124 47t124 -48t52 -117q0 -72 -52 -119t-124 -47t-124 47t-52 118.5zM653 1390.5q0 71.5 52.5 118.5t124 47t124 -48t52.5 -117q0 -72 -52.5 -119t-124 -47t-124 47 t-52.5 118.5z" />
<glyph unicode="&#x402;" horiz-adv-x="1474" d="M31 885v313h1013v-313h-301v-142h11q66 45 270 45q397 0 397 -389v-366q0 -449 -487 -449l-127 330q207 0 207 213v199q0 49 -36 80.5t-114 31.5q-45 0 -121 -22v-416h-409v885h-303z" />
<glyph unicode="&#x403;" horiz-adv-x="974" d="M125 0v1198h870v-324h-460v-874h-410zM360 1292l84 264l377 -40l-178 -244z" />
<glyph unicode="&#x404;" horiz-adv-x="1167" d="M61 596q0 285 172.5 464t479.5 179q119 0 221 -20.5t145 -40.5l43 -21l-53 -309q-125 51 -289 51q-248 0 -301 -154h533l-21 -296h-514q25 -80 96.5 -116t204.5 -36q86 0 159 13.5t103 25.5l29 12l53 -309q-12 -8 -38.5 -22.5t-129 -37t-231.5 -22.5q-317 0 -489.5 171 t-172.5 468z" />
<glyph unicode="&#x405;" horiz-adv-x="1064" d="M96 49l99 305q150 -66 286 -65q123 0 123 51q0 23 -51 49.5t-124 60t-146.5 82t-125 133.5t-51.5 191q0 184 121 283.5t316 99.5q113 0 214 -20.5t144 -40.5l45 -21l-74 -297q-172 51 -276 51q-88 0 -88 -53q0 -27 51 -56.5t124 -65.5t145.5 -84t124 -127t51.5 -175 q0 -180 -126 -286.5t-354 -106.5q-147 0 -253.5 23.5t-139.5 46.5z" />
<glyph unicode="&#x406;" d="M125 0v1198h410v-1198h-410z" />
<glyph unicode="&#x407;" d="M-96 1390.5q0 71.5 52 118.5t124 47t124 -48t52 -117q0 -72 -52 -119t-124 -47t-124 47t-52 118.5zM125 0v1198h410v-1198h-410zM395 1390.5q0 71.5 52.5 118.5t124 47t124 -48t52.5 -117q0 -72 -52.5 -119t-124 -47t-124 47t-52.5 118.5z" />
<glyph unicode="&#x408;" d="M-82 -86q207 0 207 213v1071h410v-1165q0 -449 -490 -449z" />
<glyph unicode="&#x409;" horiz-adv-x="1966" d="M66 319q139 0 202.5 218.5t63.5 660.5h962v-385h47q317 0 450.5 -109.5t133.5 -310.5q0 -436 -584 -436q-113 0 -226.5 11.5t-172.5 21.5l-57 10v874h-185q-4 -399 -138 -658t-359 -259zM1294 260h49q190 0 191 133q0 59 -42 91t-149 32h-49v-256z" />
<glyph unicode="&#x40a;" horiz-adv-x="1974" d="M125 0v1198h410v-438h358v438h410v-385h47q317 0 450 -109.5t133 -310.5q0 -436 -583 -436q-113 0 -226.5 11.5t-173.5 21.5l-57 10v451h-358v-451h-410zM1303 260h49q190 0 190 133q0 59 -42 91t-148 32h-49v-256z" />
<glyph unicode="&#x40b;" horiz-adv-x="1527" d="M31 885v313h1013v-313h-301v-142h11q66 45 270 45q397 0 397 -389v-399h-407v326q0 49 -36 80.5t-114 31.5q-45 0 -121 -22v-416h-409v885h-303z" />
<glyph unicode="&#x40c;" horiz-adv-x="1363" d="M125 0v1198h410v-426h51l301 426h456l-421 -545l464 -653h-479l-319 473h-53v-473h-410zM461 1292l84 264l377 -40l-179 -244z" />
<glyph unicode="&#x40d;" horiz-adv-x="1441" d="M125 0v1198h389v-442l-10 -156h6l412 549l20 49h375v-1198h-389v426l8 172h-6l-406 -549l-20 -49h-379zM473 1516l369 40l84 -262l-275 -20z" />
<glyph unicode="&#x40e;" horiz-adv-x="1288" d="M-23 1198h457l246 -545h14l183 545h436l-375 -817q-113 -248 -243 -336t-333 -88l-114 336q152 0 221 49zM262 1370l90 238q102 -66 324 -66q100 0 181 16.5t114 32.5l30 17l91 -238q-12 -10 -39 -25.5t-133.5 -41t-243.5 -25.5q-135 0 -238.5 22.5t-138.5 47.5z" />
<glyph unicode="&#x40f;" horiz-adv-x="1394" d="M125 0v1198h410v-874h325v874h410v-1198h-393l-25 -362h-305l-27 362h-395z" />
<glyph unicode="&#x410;" horiz-adv-x="1411" d="M23 0l450 1198h488l430 -1198h-420l-60 205h-417l-58 -205h-413zM578 494h247l-118 393h-9z" />
<glyph unicode="&#x411;" horiz-adv-x="1206" d="M125 0v1198h897v-324h-487v-122h47q317 0 450 -99.5t133 -281.5q0 -414 -583 -414q-113 0 -226.5 11.5t-171.5 21.5zM535 260h49q190 0 190 111q0 104 -190 104h-49v-215z" />
<glyph unicode="&#x412;" horiz-adv-x="1288" d="M125 0v1198q217 41 469 41q297 0 437 -94t140 -250q0 -182 -176 -289q231 -59 232 -266q0 -180 -158 -281.5t-455 -101.5q-115 0 -237.5 11.5t-188.5 21.5zM489 268q115 -8 152 -8q195 0 195 104.5t-168 104.5h-179v-201zM489 737h160q68 0 106 29t38 76q0 94 -179 94 q-27 0 -125 -8v-191z" />
<glyph unicode="&#x413;" horiz-adv-x="974" d="M125 0v1198h870v-324h-460v-874h-410z" />
<glyph unicode="&#x414;" horiz-adv-x="1490" d="M41 324h119q150 381 149 874h957v-874h166l-60 -594h-328v270h-638l2 -270h-306zM530 324h334v550h-211q-33 -302 -123 -550z" />
<glyph unicode="&#x415;" horiz-adv-x="1161" d="M125 0v1198h915v-324h-505v-116h430v-309h-430v-125h522v-324h-932z" />
<glyph unicode="&#x416;" horiz-adv-x="1972" d="M-6 0l461 598l-441 600h478l264 -405h37v405h385v-403h28l289 403h477l-465 -530l490 -668h-477l-310 473h-32v-473h-385v471h-39l-283 -471h-477z" />
<glyph unicode="&#x417;" horiz-adv-x="1079" d="M45 53l53 303q135 -72 316 -71q176 0 176 96q0 80 -141 80h-226v284h250q45 2 81 22.5t36 59.5q0 84 -178 84q-63 0 -137 -13t-115 -26l-41 -12l-53 301q14 8 42.5 21.5t132 35t224.5 21.5q262 0 393 -100.5t131 -268.5q0 -160 -160 -252q188 -74 189 -262 q0 -180 -155.5 -289.5t-399.5 -109.5q-135 0 -239.5 23.5t-141.5 48.5z" />
<glyph unicode="&#x418;" horiz-adv-x="1441" d="M125 0v1198h389v-442l-10 -156h6l412 549l20 49h375v-1198h-389v426l8 172h-6l-406 -549l-20 -49h-379z" />
<glyph unicode="&#x419;" horiz-adv-x="1441" d="M125 0v1198h389v-442l-10 -156h6l412 549l20 49h375v-1198h-389v426l8 172h-6l-406 -549l-20 -49h-379zM348 1370l90 238q102 -66 324 -66q100 0 181 16.5t114 32.5l30 17l91 -238q-12 -10 -39 -25.5t-133.5 -41t-243.5 -25.5q-135 0 -238.5 22.5t-138.5 47.5z" />
<glyph unicode="&#x41a;" horiz-adv-x="1363" d="M125 0v1198h410v-426h51l301 426h456l-421 -545l464 -653h-479l-319 473h-53v-473h-410z" />
<glyph unicode="&#x41b;" horiz-adv-x="1419" d="M66 319q139 0 202.5 218.5t63.5 660.5h962v-1198h-409v874h-185q-4 -399 -138 -658t-359 -259z" />
<glyph unicode="&#x41c;" horiz-adv-x="1787" d="M125 0v1198h391l369 -584h16l373 584h389v-1198h-393v567h-15l-225 -362h-272l-228 362h-12v-567h-393z" />
<glyph unicode="&#x41d;" horiz-adv-x="1427" d="M125 0v1198h410v-438h358v438h410v-1198h-410v451h-358v-451h-410z" />
<glyph unicode="&#x41e;" horiz-adv-x="1462" d="M61 600q0 287 174.5 463t496 176t495.5 -176t174 -463q0 -289 -174 -466t-495.5 -177t-496 177t-174.5 466zM479 600q0 -133 63.5 -218t188.5 -85t187.5 85t62.5 218q0 129 -63.5 214t-186.5 85t-187.5 -85t-64.5 -214z" />
<glyph unicode="&#x41f;" horiz-adv-x="1394" d="M125 0v1198h1145v-1198h-410v874h-325v-874h-410z" />
<glyph unicode="&#x420;" horiz-adv-x="1191" d="M125 0v1198q252 41 434 41q592 0 592 -448q0 -219 -157.5 -343t-356.5 -124h-131v-324h-381zM506 618h49q176 0 176 173q0 141 -176 141q-33 0 -49 -2v-312z" />
<glyph unicode="&#x421;" horiz-adv-x="1142" d="M61 596q0 297 171 470t481 173q119 0 221 -20.5t145 -40.5l43 -21l-53 -309q-125 51 -289 51q-301 0 -301 -303q0 -299 299 -299q86 0 159 13.5t103 25.5l29 12l53 -309q-12 -8 -38.5 -22.5t-129 -37t-231.5 -22.5q-317 0 -489.5 171t-172.5 468z" />
<glyph unicode="&#x422;" horiz-adv-x="1075" d="M31 874v324h1013v-324h-301v-874h-409v874h-303z" />
<glyph unicode="&#x423;" horiz-adv-x="1288" d="M-23 1198h457l246 -545h14l183 545h436l-375 -817q-113 -248 -243 -336t-333 -88l-114 336q152 0 221 49z" />
<glyph unicode="&#x424;" horiz-adv-x="1677" d="M61 612q0 225 161 339t433 118v129h367v-129q270 -4 432 -117.5t162 -339.5q0 -229 -163 -352t-431 -127v-133h-367v133q-268 4 -431 127t-163 352zM442 612q0 -178 213 -188v367q-213 -11 -213 -179zM1022 418q111 8 162 60t51 134q0 166 -213 174v-368z" />
<glyph unicode="&#x425;" horiz-adv-x="1380" d="M-14 0l454 596l-450 602h469l231 -336l230 336h466l-448 -600l457 -598h-488l-217 328l-217 -328h-487z" />
<glyph unicode="&#x426;" horiz-adv-x="1497" d="M125 0v1198h410v-874h325v874h410v-874h166l-39 -594h-305l-19 270h-948z" />
<glyph unicode="&#x427;" horiz-adv-x="1304" d="M92 702v496h410v-420q0 -66 27.5 -92.5t95.5 -26.5q66 0 145 27v512h410v-1198h-410v393h-4q-8 -8 -26.5 -21.5t-93.5 -35t-173 -21.5q-201 0 -291 109.5t-90 277.5z" />
<glyph unicode="&#x428;" horiz-adv-x="1896" d="M125 0v1198h410v-874h206v874h412v-874h209v874h410v-1198h-1647z" />
<glyph unicode="&#x429;" horiz-adv-x="1998" d="M125 0v1198h410v-874h206v874h412v-874h209v874h410v-874h163l-39 -594h-305l-18 270h-1448z" />
<glyph unicode="&#x42a;" horiz-adv-x="1413" d="M31 874v324h710v-385h47q317 0 450.5 -109.5t133.5 -310.5q0 -436 -584 -436q-113 0 -226 11.5t-173 21.5l-57 10v874h-301zM741 260h50q190 0 190 133q0 59 -42 91t-148 32h-50v-256z" />
<glyph unicode="&#x42b;" horiz-adv-x="1865" d="M125 0v1198h410v-385h47q317 0 450 -109.5t133 -310.5q0 -436 -583 -436q-113 0 -226.5 11.5t-171.5 21.5zM535 260h49q190 0 190 133q0 59 -42 91t-148 32h-49v-256zM1331 0v1198h410v-1198h-410z" />
<glyph unicode="&#x42c;" horiz-adv-x="1206" d="M125 0v1198h410v-385h47q317 0 450 -109.5t133 -310.5q0 -436 -583 -436q-113 0 -226.5 11.5t-171.5 21.5zM535 260h49q190 0 190 133q0 59 -42 91t-148 32h-49v-256z" />
<glyph unicode="&#x42d;" horiz-adv-x="1150" d="M45 53l53 303q135 -72 316 -71q193 0 235 176h-426v284h434q-12 88 -66 127t-190 39q-63 0 -137 -13t-114 -26l-41 -12l-54 301q14 8 43 21.5t132.5 35t224.5 21.5q328 0 481.5 -174t153.5 -469q0 -291 -157 -465t-470 -174q-135 0 -239.5 23.5t-141.5 48.5z" />
<glyph unicode="&#x42e;" horiz-adv-x="2035" d="M125 0v1198h410v-438h155q43 221 201 350t414 129q322 0 495.5 -176t173.5 -463q0 -289 -174 -466t-495 -177q-258 0 -418 133t-199 361h-153v-451h-410zM1053 600q0 -133 63.5 -218t188.5 -85t187 85t62 218q0 129 -63.5 214t-186 85t-187 -85t-64.5 -214z" />
<glyph unicode="&#x42f;" horiz-adv-x="1255" d="M43 0l270 438q-104 51 -164.5 145.5t-60.5 217.5q0 199 149.5 318.5t407.5 119.5q123 0 244 -10t180 -21l61 -10v-1198h-380v385h-86l-222 -385h-399zM477 801q0 -53 32 -90t101 -37h140v254q-37 2 -105 2q-168 0 -168 -129z" />
<glyph unicode="&#x430;" horiz-adv-x="1292" d="M57 514q0 555 633 555q135 0 258 -13.5t178 -25.5l54 -12v-637q0 -133 108 -133l-114 -291q-203 0 -302 109h-24q-2 -4 -6 -11.5t-26.5 -27t-52.5 -33.5t-88.5 -25.5t-131.5 -11.5q-219 0 -352.5 147.5t-133.5 409.5zM465 524q0 -254 172 -254q39 0 75 12.5t52 24.5 l16 15v430q-39 4 -86 4q-229 -1 -229 -232z" />
<glyph unicode="&#x431;" horiz-adv-x="1292" d="M57 614q0 387 214 604.5t591 217.5h168l90 -381h-180q-244 0 -336 -36t-119 -161h31q8 8 25.5 19.5t87 30t159.5 18.5q193 0 320 -109.5t127 -324.5q0 -262 -163 -399.5t-447 -137.5q-568 0 -568 659zM467 578q0 -166 42 -245t140 -79q88 0 132 59.5t44 139.5 q0 160 -180 159q-121 1 -178 -34z" />
<glyph unicode="&#x432;" horiz-adv-x="1175" d="M92 0v1024q205 45 483 45q506 0 506 -283q0 -117 -106 -202q156 -96 155 -252q0 -180 -134 -277.5t-404 -97.5q-139 0 -264 11.5t-181 21.5zM471 254q86 -6 141 -6q117 0 117 96q0 80 -115 80h-143v-170zM471 664h215q4 20 4 36q0 78 -115 78q-14 0 -104 -8v-106z" />
<glyph unicode="&#x433;" horiz-adv-x="831" d="M92 0v1024h737v-319h-337v-705h-400z" />
<glyph unicode="&#x434;" horiz-adv-x="1374" d="M12 309h125q76 152 106.5 314.5t30.5 400.5h906v-715h172l-43 -565h-314l-20 256h-610l-19 -256h-293zM489 309h320v406h-215q-25 -218 -105 -406z" />
<glyph unicode="&#x435;" horiz-adv-x="1126" d="M57 477q0 274 143.5 433t381.5 159q233 0 370.5 -138t137.5 -362q0 -49 -4.5 -94t-8.5 -65l-4 -21h-622q2 -78 57 -106.5t199 -28.5q61 0 126.5 12.5t100.5 24.5l37 14l33 -289q-8 -6 -29 -16t-112 -26.5t-216 -16.5q-256 0 -423 132t-167 388zM436 635h312v18 q0 53 -38 91t-108 38q-66 0 -109 -39.5t-57 -107.5z" />
<glyph unicode="&#x436;" horiz-adv-x="1738" d="M10 0l281 537l-281 487h453l139 -348h72v348h389v-348h72l137 348h457l-287 -485l287 -539h-457l-158 410h-51v-410h-389v410h-72l-139 -410h-453z" />
<glyph unicode="&#x437;" horiz-adv-x="1017" d="M76 18l30 306q143 -47 283 -48q182 0 182 76q0 66 -165 66h-183v248h193q12 0 32.5 -1t28.5 -1q70 0 70 34q0 51 -166 52q-57 0 -126 -10.5t-108 -22.5l-41 -10l-28 301q174 61 416 61q449 0 448 -309q0 -137 -143 -205q61 -33 111.5 -94.5t50.5 -149.5q0 -354 -474 -354 q-129 0 -232 15.5t-140 31.5z" />
<glyph unicode="&#x438;" horiz-adv-x="1290" d="M92 0v1024h400v-375l-15 -114l8 -5l404 494h309v-1024h-399v336l12 121l-8 6l-402 -463h-309z" />
<glyph unicode="&#x439;" horiz-adv-x="1290" d="M92 0v1024h400v-375l-15 -114l8 -5l404 494h309v-1024h-399v336l12 121l-8 6l-402 -463h-309zM264 1247l90 238q102 -66 324 -66q100 0 181 16.5t112 32.5l33 17l90 -238q-12 -10 -39 -25.5t-133.5 -41t-243.5 -25.5q-135 0 -238.5 22.5t-140.5 47.5z" />
<glyph unicode="&#x43a;" horiz-adv-x="1185" d="M92 0v1024h400v-381h38l181 381h456l-299 -469l332 -555h-477l-201 377h-30v-377h-400z" />
<glyph unicode="&#x43b;" horiz-adv-x="1204" d="M-16 248q57 0 98 30.5t78 110.5t55 238.5t18 396.5h879v-1024h-401v705h-154q0 -395 -112.5 -571.5t-335.5 -176.5z" />
<glyph unicode="&#x43c;" horiz-adv-x="1591" d="M92 0v1024h443l258 -477h6l258 477h442v-1024h-354v424l16 143h-12l-242 -444h-223l-244 440h-10l14 -143v-420h-352z" />
<glyph unicode="&#x43d;" horiz-adv-x="1267" d="M92 0v1024h400v-348h286v348h398v-1024h-398v375h-286v-375h-400z" />
<glyph unicode="&#x43e;" horiz-adv-x="1292" d="M57 532q0 250 154 392.5t434.5 142.5t435 -142.5t154.5 -392.5q0 -266 -161 -421.5t-429 -155.5q-281 0 -434.5 153.5t-153.5 423.5zM467 516q0 -262 178 -262q180 0 180 260q0 254 -180 254q-98 0 -138 -65.5t-40 -186.5z" />
<glyph unicode="&#x43f;" horiz-adv-x="1251" d="M92 0v1024h1067v-1024h-399v705h-268v-705h-400z" />
<glyph unicode="&#x440;" horiz-adv-x="1271" d="M92 -369v1366q203 72 490 72q350 0 491 -143.5t141 -397.5q0 -252 -134 -411.5t-351 -159.5q-72 0 -128 17.5t-77 33.5l-22 17h-13v-394h-397zM489 324q55 -53 150 -54q74 0 120 59.5t46 188.5q0 131 -60.5 184.5t-175.5 53.5l-80 -4v-428z" />
<glyph unicode="&#x441;" horiz-adv-x="1015" d="M57 518q0 258 158 404.5t420 146.5q92 0 171 -16.5t112 -32.5l32 -14l-32 -308q-109 51 -218 52q-231 0 -231 -228q0 -121 63.5 -183.5t161.5 -62.5q51 0 107.5 13.5t87.5 25.5l29 13l32 -312q-8 -6 -25.5 -16t-98.5 -26.5t-191 -16.5q-276 0 -427 157.5t-151 403.5z" />
<glyph unicode="&#x442;" horiz-adv-x="919" d="M10 705v319h899v-319h-250v-705h-399v705h-250z" />
<glyph unicode="&#x443;" horiz-adv-x="1196" d="M-10 1024h440l203 -664h10l123 664h440l-336 -983q-51 -145 -113.5 -240.5t-138 -140.5t-144 -60.5t-163.5 -15.5l-121 332q186 0 256 86z" />
<glyph unicode="&#x444;" horiz-adv-x="1681" d="M57 530q0 246 160 389.5t434 149.5v324h379v-324q594 -8 594 -537q0 -264 -160.5 -416.5t-433.5 -158.5v-326h-379v326q-309 4 -451.5 150.5t-142.5 422.5zM446 530q0 -272 205 -288v538q-205 -10 -205 -250zM1030 246q184 25 184 286q0 223 -184 248v-534z" />
<glyph unicode="&#x445;" horiz-adv-x="1210" d="M-6 0l358 512l-358 512h465l141 -305h12l142 305h463l-359 -512l359 -512h-465l-140 326h-12l-139 -326h-467z" />
<glyph unicode="&#x446;" horiz-adv-x="1353" d="M92 0v1024h400v-705h268v705h399v-705h152l-62 -575h-315v256h-842z" />
<glyph unicode="&#x447;" horiz-adv-x="1181" d="M55 594v430h408v-373q0 -90 112 -90l115 4v459h400v-1024h-400v309h-10q-76 -14 -244 -14q-172 0 -276.5 71.5t-104.5 227.5z" />
<glyph unicode="&#x448;" horiz-adv-x="1738" d="M92 0v1024h381v-705h205v705h383v-705h205v705h381v-1024h-1555z" />
<glyph unicode="&#x449;" horiz-adv-x="1839" d="M92 0v1024h381v-705h205v705h383v-705h205v705h381v-705h149l-61 -575h-316v256h-1327z" />
<glyph unicode="&#x44a;" horiz-adv-x="1329" d="M0 705v319h657v-299h111q244 0 385 -91t141 -259q0 -418 -536 -418q-123 0 -248 11.5t-188 21.5l-64 10v705h-258zM657 248q37 -4 95 -4q72 0 103.5 24.5t31.5 81.5q0 88 -121 88h-109v-190z" />
<glyph unicode="&#x44b;" horiz-adv-x="1748" d="M92 0v1024h400v-299h110q244 0 385 -91t141 -259q0 -418 -536 -418q-123 0 -248 11.5t-188 21.5zM492 248q37 -4 94 -4q72 0 103.5 24.5t31.5 81.5q0 88 -121 88h-108v-190zM1260 0v1024h397v-1024h-397z" />
<glyph unicode="&#x44c;" horiz-adv-x="1163" d="M92 0v1024h400v-299h110q244 0 385 -91t141 -259q0 -418 -536 -418q-123 0 -248 11.5t-188 21.5zM492 248q37 -4 94 -4q72 0 103.5 24.5t31.5 81.5q0 88 -121 88h-108v-190z" />
<glyph unicode="&#x44d;" horiz-adv-x="1114" d="M76 18l30 306q166 -47 338 -48q195 0 236 125h-451v248h441q-55 100 -226 101q-80 0 -163.5 -10.5t-128.5 -22.5l-46 -10l-28 301q100 61 368 61q297 0 453 -147.5t156 -393.5q0 -571 -609 -571q-115 0 -207 15.5t-128 31.5z" />
<glyph unicode="&#x44e;" horiz-adv-x="1744" d="M92 0v1024h400v-348h112q37 186 169 288.5t345 102.5q272 0 421 -142.5t149 -392.5q0 -266 -155 -421.5t-415 -155.5q-213 0 -344 110.5t-168 309.5h-114v-375h-400zM961 516q0 -262 157 -262q160 0 160 260q0 254 -160 254q-157 0 -157 -252z" />
<glyph unicode="&#x44f;" horiz-adv-x="1179" d="M47 0l221 397q-193 86 -192 297q0 170 120.5 272.5t370.5 102.5q117 0 247 -11t202 -22l71 -12v-1024h-399v342h-78l-147 -342h-416zM459 668q0 -113 151 -113h78v227q-14 0 -42 1t-38 1q-149 1 -149 -116z" />
<glyph unicode="&#x450;" horiz-adv-x="1146" d="M68 477q0 274 143 433t381 159q233 0 370.5 -138t137.5 -362q0 -49 -4 -94t-9 -65l-4 -21h-622q2 -78 57 -106.5t199 -28.5q61 0 126.5 12.5t102.5 24.5l35 14l33 -289q-8 -6 -28.5 -16t-112 -26.5t-216.5 -16.5q-256 0 -422.5 132t-166.5 388zM330 1393l368 41l84 -263 l-274 -20zM446 635h312v18q0 53 -38 91t-108 38q-66 0 -109 -39.5t-57 -107.5z" />
<glyph unicode="&#x451;" horiz-adv-x="1126" d="M57 477q0 274 143.5 433t381.5 159q233 0 370.5 -138t137.5 -362q0 -49 -4.5 -94t-8.5 -65l-4 -21h-622q2 -78 57 -106.5t199 -28.5q61 0 126.5 12.5t100.5 24.5l37 14l33 -289q-8 -6 -29 -16t-112 -26.5t-216 -16.5q-256 0 -423 132t-167 388zM160 1267.5q0 71.5 52 119 t124 47.5t124 -48.5t52 -117.5q0 -72 -52 -119t-124 -47t-124 47t-52 118.5zM436 635h312v18q0 53 -38 91t-108 38q-66 0 -109 -39.5t-57 -107.5zM651 1267.5q0 71.5 52.5 119t124 47.5t124 -48.5t52.5 -117.5q0 -72 -52.5 -119t-124 -47t-124 47t-52.5 118.5z" />
<glyph unicode="&#x452;" horiz-adv-x="1241" d="M2 918v186l111 70v219h397v-195h373v-280h-373v-220h14q80 45 277 45q399 0 399 -389v-342q0 -428 -459 -428l-127 330q186 0 187 192v175q0 49 -36 80.5t-114 31.5l-139 -6l-2 8v-395h-397v918h-111z" />
<glyph unicode="&#x453;" horiz-adv-x="831" d="M92 0v1024h737v-319h-337v-705h-400zM274 1169l84 265l377 -41l-178 -244z" />
<glyph unicode="&#x454;" horiz-adv-x="1036" d="M57 518q0 258 158 404.5t420 146.5q92 0 171 -16.5t112 -32.5l32 -14l-32 -308q-109 51 -218 52q-113 0 -175 -29t-83 -94h420l-20 -246h-385q57 -104 237 -105q51 0 107.5 13.5t87.5 25.5l29 13l32 -312q-8 -6 -25.5 -16t-98.5 -26.5t-191 -16.5q-276 0 -427 157.5 t-151 403.5z" />
<glyph unicode="&#x455;" horiz-adv-x="987" d="M66 717q0 160 112.5 256t308.5 96q100 0 191.5 -15.5t132.5 -29.5l41 -16l-29 -293q-170 43 -270 43q-111 0 -111 -41q0 -31 75 -56.5t165 -49t165 -94.5t75 -181q0 -379 -498 -379q-94 0 -182 15.5t-129 31.5l-41 14l30 297q127 -47 265 -47q168 0 168 64q0 23 -48.5 39 t-118 34.5t-138 48t-116.5 97.5t-48 166z" />
<glyph unicode="&#x456;" horiz-adv-x="583" d="M88 1292q0 90 54.5 137.5t148.5 47.5t148.5 -47.5t54.5 -137.5t-55.5 -138t-147.5 -48q-90 0 -146.5 48t-56.5 138zM92 0v1024h400v-1024h-400z" />
<glyph unicode="&#x457;" horiz-adv-x="583" d="M-133 1267.5q0 71.5 52 119t124 47.5t124 -48.5t52 -117.5q0 -72 -52 -119t-124 -47t-124 47t-52 118.5zM92 0v1024h400v-1024h-400zM358 1267.5q0 71.5 52.5 119t124 47.5t124 -48.5t52.5 -117.5q0 -72 -52.5 -119t-124 -47t-124 47t-52.5 118.5z" />
<glyph unicode="&#x458;" horiz-adv-x="602" d="M-76 -82q186 0 187 193v913h399v-1008q0 -428 -459 -428zM111 1292q0 90 54 137.5t148.5 47.5t148.5 -47.5t54 -137.5t-55 -138t-148 -48q-90 0 -146 48t-56 138z" />
<glyph unicode="&#x459;" horiz-adv-x="1783" d="M-16 248q57 0 98 30.5t78 110.5t55 238.5t18 396.5h879v-299h111q244 0 385 -91t141 -259q0 -418 -537 -418q-123 0 -247.5 11.5t-188.5 21.5l-63 10h-2v705h-154q0 -395 -112.5 -571.5t-335.5 -176.5zM1112 248q37 -4 94 -4q72 0 103.5 24.5t31.5 81.5q0 88 -120 88 h-109v-190z" />
<glyph unicode="&#x45a;" horiz-adv-x="1847" d="M92 0v1024h400v-348h284v348h400v-299h110q244 0 385 -91t141 -259q0 -418 -536 -418q-123 0 -248 11.5t-188 21.5l-64 10v375h-284v-375h-400zM1176 248q37 -4 94 -4q72 0 103.5 24.5t31.5 81.5q0 88 -121 88h-108v-190z" />
<glyph unicode="&#x45b;" horiz-adv-x="1241" d="M2 918v186l111 70v219h397v-195h373v-280h-373v-220h14q80 45 277 45q399 0 399 -389v-354h-399v281q0 49 -36 80.5t-114 31.5l-139 -6l-2 8v-395h-397v918h-111z" />
<glyph unicode="&#x45c;" horiz-adv-x="1185" d="M92 0v1024h400v-381h38l181 381h456l-299 -469l332 -555h-477l-201 377h-30v-377h-400zM455 1169l84 265l376 -41l-178 -244z" />
<glyph unicode="&#x45d;" horiz-adv-x="1310" d="M102 0v1024h400v-375l-15 -114l9 -5l403 494h309v-1024h-399v336l12 121l-8 6l-401 -463h-310zM377 1393l368 41l84 -263l-274 -20z" />
<glyph unicode="&#x45e;" horiz-adv-x="1196" d="M-10 1024h440l203 -664h10l123 664h440l-336 -983q-51 -145 -113.5 -240.5t-138 -140.5t-144 -60.5t-163.5 -15.5l-121 332q186 0 256 86zM188 1247l91 238q102 -66 323 -66q100 0 181 16.5t114 32.5l31 17l90 -238q-12 -10 -39 -25.5t-133.5 -41t-243.5 -25.5 q-135 0 -238.5 22.5t-138.5 47.5z" />
<glyph unicode="&#x45f;" horiz-adv-x="1325" d="M92 0v1024h400v-705h342v705h399v-1024h-395l-19 -256h-315l-21 256h-391z" />
<glyph unicode="&#x462;" horiz-adv-x="1325" d="M31 874v324h211v74h407v-74h395v-324h-393v-124h68q287 0 424 -83t137 -268q0 -399 -561 -399h-477v874h-211zM651 303h49q102 0 145.5 17.5t43.5 68.5t-46 68.5t-143 17.5h-49v-172z" />
<glyph unicode="&#x463;" horiz-adv-x="1288" d="M0 705v319h217v205h399v-205h308v-279l-306 -10v-22h101q272 0 403 -79t131 -259q0 -193 -130 -284t-406 -91h-500v705h-217zM616 281h95q76 0 105.5 19t29.5 75q0 47 -33 65.5t-100 18.5h-97v-178z" />
<glyph unicode="&#x490;" horiz-adv-x="940" d="M125 0v1198h520l21 184h274l21 -508h-426v-874h-410z" />
<glyph unicode="&#x491;" horiz-adv-x="821" d="M92 0v1024h397l41 248h271l20 -567h-329v-705h-400z" />
<glyph unicode="&#x2000;" horiz-adv-x="804" />
<glyph unicode="&#x2001;" horiz-adv-x="1608" />
<glyph unicode="&#x2002;" horiz-adv-x="804" />
<glyph unicode="&#x2003;" horiz-adv-x="1608" />
<glyph unicode="&#x2004;" horiz-adv-x="536" />
<glyph unicode="&#x2005;" horiz-adv-x="402" />
<glyph unicode="&#x2006;" horiz-adv-x="268" />
<glyph unicode="&#x2007;" horiz-adv-x="268" />
<glyph unicode="&#x2008;" horiz-adv-x="201" />
<glyph unicode="&#x2009;" horiz-adv-x="321" />
<glyph unicode="&#x200a;" horiz-adv-x="89" />
<glyph unicode="&#x2010;" horiz-adv-x="825" d="M57 403v312h711v-312h-711z" />
<glyph unicode="&#x2011;" horiz-adv-x="825" d="M57 403v312h711v-312h-711z" />
<glyph unicode="&#x2012;" horiz-adv-x="825" d="M57 403v312h711v-312h-711z" />
<glyph unicode="&#x2013;" horiz-adv-x="1310" d="M55 403v312h1200v-312h-1200z" />
<glyph unicode="&#x2014;" horiz-adv-x="1681" d="M55 403v312h1571v-312h-1571z" />
<glyph unicode="&#x2018;" horiz-adv-x="503" d="M35 940q0 96 33.5 182t81 140.5t94.5 96.5t80 58l34 19l177 -144q-12 -12 -31 -36.5t-49.5 -106.5t-30.5 -172q0 -135 63 -272l-389 -43q-63 147 -63 278z" />
<glyph unicode="&#x2019;" horiz-adv-x="503" d="M-16 805q12 12 30.5 36.5t49 106.5t30.5 172q0 135 -63 273l389 43q63 -147 63 -279q0 -96 -33.5 -182t-80.5 -140.5t-94.5 -96.5t-81.5 -58l-33 -18z" />
<glyph unicode="&#x201a;" horiz-adv-x="503" d="M-16 -219q12 12 30.5 36.5t49 106.5t30.5 172q0 135 -63 273l389 43q63 -147 63 -279q0 -96 -33.5 -182t-80.5 -140.5t-94.5 -96.5t-81.5 -58l-33 -18z" />
<glyph unicode="&#x201c;" horiz-adv-x="1007" d="M35 940q0 96 33.5 182t81 140.5t94.5 96.5t80 58l34 19l177 -144q-12 -12 -31 -36.5t-49.5 -106.5t-30.5 -172q0 -135 63 -272l-389 -43q-63 147 -63 278zM539 940q0 96 33.5 182t80.5 140.5t94.5 96.5t79.5 58l35 19l176 -144q-12 -12 -30.5 -36.5t-49 -106.5 t-30.5 -172q0 -135 63 -272l-389 -43q-63 147 -63 278z" />
<glyph unicode="&#x201d;" horiz-adv-x="1007" d="M-16 805q12 12 30.5 36.5t49 106.5t30.5 172q0 135 -63 273l389 43q63 -147 63 -279q0 -96 -33.5 -182t-80.5 -140.5t-94.5 -96.5t-81.5 -58l-33 -18zM487 805q12 12 31 36.5t49.5 106.5t30.5 172q0 135 -63 273l389 43q63 -147 63 -279q0 -96 -33.5 -182t-81 -140.5 t-94.5 -96.5t-82 -58l-32 -18z" />
<glyph unicode="&#x201e;" horiz-adv-x="1007" d="M-16 -219q12 12 30.5 36.5t49 106.5t30.5 172q0 135 -63 273l389 43q63 -147 63 -279q0 -96 -33.5 -182t-80.5 -140.5t-94.5 -96.5t-81.5 -58l-33 -18zM487 -219q12 12 31 36.5t49.5 106.5t30.5 172q0 135 -63 273l389 43q63 -147 63 -279q0 -96 -33.5 -182t-81 -140.5 t-94.5 -96.5t-82 -58l-32 -18z" />
<glyph unicode="&#x2022;" horiz-adv-x="995" d="M119 688q0 137 108 240q100 82 248 82q150 0 250 -82q104 -100 104 -240q0 -143 -104 -239q-102 -84 -250 -84q-145 0 -248 84q-108 96 -108 239z" />
<glyph unicode="&#x2026;" horiz-adv-x="2117" d="M141 172q0 92 72 160q68 55 166 55t166 -55q70 -68 69 -160q0 -96 -69 -160q-68 -55 -166 -55t-166 55q-72 66 -72 160zM819 172q0 92 72 160q68 55 166 55t166 -55q70 -68 69 -160q0 -96 -69 -160q-68 -55 -166.5 -55t-165.5 55q-72 66 -72 160zM1497 172q0 92 72 160 q68 55 166 55t166 -55q70 -68 69 -160q0 -96 -69 -160q-68 -55 -166.5 -55t-165.5 55q-72 66 -72 160z" />
<glyph unicode="&#x202f;" horiz-adv-x="321" />
<glyph unicode="&#x2039;" horiz-adv-x="862" d="M174 512l397 403l172 -188l-215 -217l213 -217l-172 -195z" />
<glyph unicode="&#x203a;" horiz-adv-x="862" d="M115 287l217 217l-213 217l172 194l395 -413l-397 -404z" />
<glyph unicode="&#x205f;" horiz-adv-x="402" />
<glyph unicode="&#x20ac;" horiz-adv-x="1202" d="M63 418v147h97v31q0 41 2 61l-99 35v148h125q106 399 568 399q104 0 189 -21.5t118 -41.5l33 -23l-43 -268q-147 49 -226 49q-178 0 -231 -94h424v-209h-461v-66h461v-209h-426q49 -98 233 -98q35 0 91.5 12.5t95.5 24.5l39 12l43 -268q-12 -10 -36 -24.5t-112 -38 t-192 -23.5q-473 0 -574 422z" />
<glyph unicode="&#x2122;" horiz-adv-x="2041" d="M25 1130v263h733v-263h-201v-577h-330v577h-202zM856 553v840h315l234 -412h14l236 412h313v-840h-317v369h-13l-116 -232h-219l-117 232h-12v-369h-318z" />
<glyph unicode="&#x25fc;" horiz-adv-x="1024" d="M0 0v1024h1024v-1024h-1024z" />
</font>
</defs>
</svg>
