<?xml version="1.0" standalone="no"?>
<!DOCTYPE svg PUBLIC "-//W3C//DTD SVG 1.1//EN" "http://www.w3.org/Graphics/SVG/1.1/DTD/svg11.dtd" >
<svg xmlns="http://www.w3.org/2000/svg">
<metadata></metadata>
<defs>
<font id="oneplusonettfblack" horiz-adv-x="685" >
<font-face units-per-em="2048" ascent="1536" descent="-512" />
<missing-glyph horiz-adv-x="670" />
<glyph horiz-adv-x="0" />
<glyph unicode="&#xd;" horiz-adv-x="708" />
<glyph unicode=" "  horiz-adv-x="670" />
<glyph unicode="&#x09;" horiz-adv-x="670" />
<glyph unicode="&#xa0;" horiz-adv-x="670" />
<glyph unicode="!" horiz-adv-x="825" d="M191 1246h467l-105 -683h-257zM181 179q0 96 75 166q71 57 172.5 57t172.5 -57q73 -70 72 -166q0 -100 -72 -167q-71 -57 -173 -57t-172 57q-75 69 -75 167z" />
<glyph unicode="&#x22;" horiz-adv-x="1106" d="M607 1018v569h383l-76 -569h-307zM59 1018v569h384l-77 -569h-307z" />
<glyph unicode="#" horiz-adv-x="1535" d="M592 443h351l30 326h-351zM96 147v296h207l29 326h-236v296h262l16 181h293l-17 -181h349l17 181h291l-16 -181h148v-296h-173l-30 -326h203v-296h-232l-12 -147h-292l13 147h-351l-14 -147h-289l13 147h-179z" />
<glyph unicode="$" horiz-adv-x="1047" d="M79 854q0 130 74.5 221.5t208.5 125.5l22 226h291l18 -220q57 -8 108 -21t73 -21l22 -9l-29 -304q-176 44 -281 44q-116 0 -115 -42q0 -32 77.5 -58.5t171 -51t171.5 -98t78 -188.5q0 -287 -272 -366l-22 -273h-291l-22 250q-77 6 -146 20.5t-101 25.5l-30 13l33 309 q132 -49 274 -49q175 0 175 65q0 24 -50 41.5t-122 36t-144 50t-122 101.5t-50 172z" />
<glyph unicode="%" horiz-adv-x="2340" d="M1699 413q0 -153 120 -153q126 0 126 153q0 144 -126 145q-120 -1 -120 -145zM1359 411q0 203 121.5 326t338.5 123q211 0 336.5 -124t125.5 -325q0 -207 -120.5 -331.5t-341.5 -124.5q-228 0 -344 123.5t-116 332.5zM634 0l618 1246h352l-618 -1246h-352zM400 1046 q0 -153 120 -154q126 0 126 154q0 145 -126 145q-120 0 -120 -145zM59 1044q0 203 122 326t339 123q211 0 336.5 -124.5t125.5 -324.5q0 -207 -120 -331.5t-342 -124.5q-228 0 -344.5 123.5t-116.5 332.5z" />
<glyph unicode="&#x26;" horiz-adv-x="1467" d="M441 428q0 -72 53 -129t175 -57q65 0 117 22q-181 136 -300 281q-45 -42 -45 -117zM59 370q0 136 85.5 229.5t215.5 144.5q-39 89 -39 172q0 177 147.5 275t415.5 98l132 -332q-126 0 -192 -29t-66 -117q0 -138 230 -307q17 64 18 135q0 93 -33 207l309 21 q43 -128 43 -249q0 -145 -57 -277q104 -51 195 -81l-160 -305q-138 66 -248 130q-188 -130 -459 -130q-248 0 -392.5 115t-144.5 300z" />
<glyph unicode="'" horiz-adv-x="557" d="M59 1018v569h384l-77 -569h-307z" />
<glyph unicode="(" horiz-adv-x="943" d="M193 579q0 207 36.5 389t88.5 293t104.5 193t89.5 115l35 35l320 -132q-10 -13 -27 -38.5t-62 -113t-80.5 -183.5t-63 -248t-27.5 -309.5t26.5 -307.5t65 -249.5t76.5 -176t64 -112.5l28 -37l-320 -132q-15 11 -38 35t-84 110.5t-108 192t-85.5 287.5t-38.5 389z" />
<glyph unicode=")" horiz-adv-x="943" d="M77 -303q10 13 27.5 39t62 113.5t78.5 183t62 248t28 310t-27 307.5t-65 249t-75.5 176t-65.5 112l-25 37l319 132q15 -11 38.5 -34.5t84 -110.5t107.5 -192.5t85.5 -287.5t38.5 -388.5t-36.5 -389t-88.5 -293.5t-104 -192.5t-88 -115.5l-37 -35z" />
<glyph unicode="*" horiz-adv-x="1024" d="M0 1026l120 367l272 -170l-69 313h386l-77 -311l277 161l117 -366l-317 -24l238 -212l-313 -226l-120 294l-128 -291l-311 227l242 206z" />
<glyph unicode="+" horiz-adv-x="1181" d="M57 419v325h367v347h340v-347h360v-325h-360v-348h-340v348h-367z" />
<glyph unicode="," horiz-adv-x="693" d="M24 -228q19 15 48.5 40.5t79 99t49.5 137.5l-5 36q-71 49 -70 151q0 79 54 134.5t159 55.5q108 0 187 -87t79 -229q0 -100 -41.5 -191.5t-100 -150t-116 -103.5t-99.5 -65l-41 -19z" />
<glyph unicode="-" horiz-adv-x="857" d="M59 419v325h740v-325h-740z" />
<glyph unicode="." horiz-adv-x="791" d="M147 179q0 96 75 166q70 57 172 57t173 -57q73 -70 72 -166q0 -100 -72 -167q-71 -57 -173 -57t-172 57q-75 69 -75 167z" />
<glyph unicode="/" horiz-adv-x="1173" d="M-47 -532l909 2129h396l-906 -2129h-399z" />
<glyph unicode="0" horiz-adv-x="1311" d="M502 620q0 -205 28 -274t126 -69t125.5 69t27.5 274t-27.5 276t-125.5 71t-126 -71t-28 -276zM66 620q0 669 590 669t590 -669q0 -317 -137.5 -491t-452.5 -174t-452.5 174t-137.5 491z" />
<glyph unicode="1" horiz-adv-x="923" d="M75 1101l423 145h277v-1246h-405v912l-232 -85z" />
<glyph unicode="2" horiz-adv-x="1079" d="M26 0v215q24 15 64 42.5t141 106.5t179 151.5t142 159.5t64 152q0 121 -177 120q-71 0 -148.5 -13.5t-119.5 -26.5l-45 -13l-55 313q14 9 45 23t143.5 36.5t249.5 22.5q255 0 388.5 -116t133.5 -311q0 -270 -413 -519h415v-343h-1007z" />
<glyph unicode="3" horiz-adv-x="1115" d="M89 24l31 297q187 -53 344 -53q106 0 149 25.5t43 86.5q0 44 -32 62t-98 18h-146l-82 264l179 185h-347v337h866v-232l-353 -317q426 0 426 -317q0 -209 -147 -317t-392 -108q-142 0 -253 17.5t-149 33.5z" />
<glyph unicode="4" horiz-adv-x="1230" d="M53 431l331 815h421l-296 -688h174l65 387h332v-387h130v-200l-130 -104v-254h-407v242h-598z" />
<glyph unicode="5" horiz-adv-x="1120" d="M106 24l30 297q187 -53 346 -53q178 0 178 132q0 51 -39.5 85.5t-116.5 34.5h-331l46 726h761v-337h-445l-7 -131h13q532 0 532 -378q0 -119 -47.5 -208.5t-126.5 -139.5t-167.5 -73.5t-184.5 -23.5q-142 0 -253 17.5t-149 33.5z" />
<glyph unicode="6" horiz-adv-x="1189" d="M482 458q0 -114 28.5 -154t98.5 -40q60 0 89.5 39.5t29.5 101.5t-34 97t-136 35h-74q-2 -26 -2 -79zM66 526q0 151 46 278t120.5 212t172 146t196 90.5t198.5 36.5l132 -322q-85 -8 -136 -18t-116 -40.5t-106 -83.5h34q537 0 537 -429q0 -197 -148 -319t-387 -122 q-253 0 -398 138.5t-145 432.5z" />
<glyph unicode="7" horiz-adv-x="1045" d="M15 892v354h1018v-228l-397 -1018h-465l404 892h-560z" />
<glyph unicode="8" horiz-adv-x="1245" d="M477 869q0 -55 35 -91t97 -39h25q60 3 96 38.5t36 91.5q0 53 -37.5 82t-106.5 29t-107 -29t-38 -82zM467 400q0 -61 39 -98.5t116 -37.5h2q75 0 114.5 37.5t39.5 98.5q0 51 -41.5 86.5t-120.5 35.5h-4q-71 -4 -108 -39.5t-37 -82.5zM45 360q0 181 153 279 q-124 93 -123 243q0 173 150.5 290t396 117t396.5 -117t151 -290q0 -149 -125 -243q156 -98 155 -279q0 -177 -139.5 -290t-431.5 -115h-6q-296 0 -436.5 114t-140.5 291z" />
<glyph unicode="9" horiz-adv-x="1189" d="M462 839.5q0 -61.5 34 -97t136 -35.5h73q4 47 4 79q0 114 -28.5 154t-99.5 40q-59 0 -89 -39.5t-30 -101zM47 848q0 197 148 319t386 122q254 0 398.5 -138.5t144.5 -432.5q0 -151 -45.5 -278t-120 -212.5t-172.5 -146t-196 -90t-198 -36.5l-132 322q85 8 135 18 t115 40.5t106 83.5h-33q-536 0 -536 429z" />
<glyph unicode=":" horiz-adv-x="791" d="M147 886q0 96 75 166q70 58 172 58t173 -58q73 -70 72 -166q0 -100 -72 -166q-71 -58 -173 -58t-172 58q-75 68 -75 166zM147 179q0 96 75 166q70 57 172 57t173 -57q73 -70 72 -166q0 -100 -72 -167q-71 -57 -173 -57t-172 57q-75 69 -75 167z" />
<glyph unicode=";" horiz-adv-x="791" d="M147 886q0 96 75 166q70 58 172 58t173 -58q73 -70 72 -166q0 -100 -72 -166q-71 -58 -173 -58t-172 58q-75 68 -75 166zM81 -228q19 15 49 40.5t79 99t49 137.5l-4 36q-71 49 -71 151q0 79 54.5 134.5t158.5 55.5q108 0 187 -87t79 -229q0 -100 -41.5 -191.5t-99 -150 t-116 -103.5t-98.5 -65l-43 -19z" />
<glyph unicode="&#x3c;" horiz-adv-x="957" d="M106 618l490 520l256 -220l-287 -300l287 -301l-256 -219z" />
<glyph unicode="=" horiz-adv-x="1362" d="M57 669v323h1248v-323h-1248zM57 171v323h1248v-323h-1248z" />
<glyph unicode="&#x3e;" horiz-adv-x="957" d="M106 317l288 301l-288 300l256 220l490 -520l-490 -520z" />
<glyph unicode="?" horiz-adv-x="1134" d="M266 179q0 96 75 166q71 57 173 57t171 -57q73 -70 73 -166q0 -100 -73 -167q-70 -57 -172 -57t-172 57q-75 69 -75 167zM151 1207q14 9 45.5 23t146.5 36.5t253 22.5q247 0 381.5 -98t134.5 -244q0 -113 -74.5 -202t-181 -136.5t-214 -80t-182.5 -42.5l-74 -9l-28 256 q12 2 35.5 7.5t82.5 21.5t103.5 33.5t81 45.5t36.5 55q0 33 -35.5 42t-110.5 9q-85 0 -171 -13.5t-128 -26.5l-45 -13z" />
<glyph unicode="@" horiz-adv-x="2174" d="M963 537q0 -207 155 -207q89 0 122 75v339q-26 8 -92 8q-104 0 -144.5 -56.5t-40.5 -158.5zM87 512q0 447 283.5 714t816.5 267q445 0 677 -201t232 -557q0 -656 -517 -656q-228 0 -301 117h-20q-6 -13 -17.5 -32t-66 -52t-126.5 -33q-191 0 -305.5 114t-114.5 344 q0 207 140.5 333t383.5 126q104 0 199.5 -10t135.5 -23l42 -11v-554q0 -72 68 -72q86 0 127.5 82t41.5 305q0 243 -139.5 362.5t-439.5 119.5q-341 0 -535 -164t-194 -519q0 -311 163 -468t450 -157q120 0 214.5 12t128.5 22l35 10l25 -293q-11 -8 -33 -20t-122.5 -31.5 t-234.5 -19.5q-997 1 -997 945z" />
<glyph unicode="A" horiz-adv-x="1467" d="M601 514h257l-123 408h-9zM24 0l468 1246h507l448 -1246h-437l-63 213h-433l-61 -213h-429z" />
<glyph unicode="B" horiz-adv-x="1339" d="M509 766h166q71 0 110.5 30.5t39.5 79.5q0 97 -186 97q-29 0 -130 -8v-199zM509 279q119 -9 158 -9q202 0 202 109t-174 109h-186v-209zM130 0v1246q226 43 488 43q309 0 454.5 -98t145.5 -260q0 -189 -183 -301q240 -61 241 -276q0 -188 -164.5 -293.5t-472.5 -105.5 q-120 0 -247.5 12t-195.5 23z" />
<glyph unicode="C" horiz-adv-x="1205" d="M63 620q0 309 178 489t501 180q123 0 229 -21.5t151 -42.5l45 -22l-55 -321q-130 53 -301 53q-313 0 -313 -315q0 -311 311 -311q90 0 165.5 14t107.5 26l30 13l55 -321q-13 -9 -40.5 -24t-134 -38.5t-240.5 -23.5q-330 0 -509.5 178t-179.5 487z" />
<glyph unicode="D" horiz-adv-x="1475" d="M556 296q35 -2 102 -2q163 0 241.5 77.5t78.5 248.5q0 175 -80.5 253.5t-245.5 78.5q-63 0 -96 -2v-654zM130 0v1246q230 43 522 43q362 0 561 -173t199 -496q0 -319 -194 -491t-564 -172q-138 0 -269 11t-194 22z" />
<glyph unicode="E" horiz-adv-x="1207" d="M130 0v1246h952v-337h-526v-121h448v-321h-448v-130h543v-337h-969z" />
<glyph unicode="F" horiz-adv-x="1118" d="M130 0v1246h961v-337h-535v-204h468v-323h-468v-382h-426z" />
<glyph unicode="G" horiz-adv-x="1407" d="M63 620q0 294 206 481.5t526 187.5q127 0 236 -21.5t154 -42.5l44 -22l-56 -321q-130 53 -332 53q-172 0 -257.5 -85.5t-85.5 -231.5q0 -153 84.5 -231t232.5 -78q130 0 144 8v116h-213v325h573v-737q-224 -66 -544 -66q-366 0 -539 175t-173 490z" />
<glyph unicode="H" horiz-adv-x="1484" d="M130 0v1246h426v-456h373v456h426v-1246h-426v469h-373v-469h-426z" />
<glyph unicode="I" d="M130 0v1246h426v-1246h-426z" />
<glyph unicode="J" d="M-85 -89q215 0 215 221v1114h426v-1212q0 -467 -509 -467z" />
<glyph unicode="K" horiz-adv-x="1417" d="M130 0v1246h426v-443h53l313 443h475l-438 -567l482 -679h-498l-331 492h-56v-492h-426z" />
<glyph unicode="L" horiz-adv-x="1071" d="M130 0v1246h426v-909h499v-337h-925z" />
<glyph unicode="M" horiz-adv-x="1858" d="M130 0v1246h407l383 -607h17l388 607h405v-1246h-409v590h-16l-234 -377h-283l-237 377h-12v-590h-409z" />
<glyph unicode="N" horiz-adv-x="1516" d="M130 0v1246h443l447 -705h9l-11 126v579h368v-1246h-449l-441 693h-8l8 -163v-530h-366z" />
<glyph unicode="O" horiz-adv-x="1520" d="M498 624q0 -138 66 -226.5t196 -88.5t195 88.5t65 226.5q0 134 -66 222.5t-194 88.5t-195 -88.5t-67 -222.5zM63 624q0 298 181.5 481.5t516 183.5t515.5 -183.5t181 -481.5q0 -301 -181 -485t-515.5 -184t-516 184t-181.5 485z" />
<glyph unicode="P" horiz-adv-x="1238" d="M526 643h51q183 0 183 180q0 146 -183 146q-34 0 -51 -2v-324zM130 0v1246q262 43 451 43q616 0 616 -466q0 -228 -164 -357t-371 -129h-136v-337h-396z" />
<glyph unicode="Q" horiz-adv-x="1520" d="M498 624q0 -138 66 -226.5t196 -88.5t195 88.5t65 226.5q0 134 -66 222.5t-194 88.5t-195 -88.5t-67 -222.5zM63 624q0 298 181.5 481.5t516 183.5t515.5 -183.5t181 -481.5q0 -240 -118 -409.5t-343 -229.5q47 -74 218 -74l-132 -344q-246 0 -361.5 91.5t-115.5 309.5 q-262 40 -402 217t-140 439z" />
<glyph unicode="R" horiz-adv-x="1305" d="M526 643h49q187 0 187 180q0 146 -183 146q-34 0 -53 -2v-324zM130 0v1246h2q242 43 449 43q618 0 618 -466q0 -239 -215 -374l276 -449h-487l-159 358h-88v-358h-396z" />
<glyph unicode="S" horiz-adv-x="1106" d="M100 51l103 317q156 -68 297 -67q128 0 128 53q0 24 -53 51.5t-129 62t-152.5 85t-130 139t-53.5 198.5q0 192 126 295.5t329 103.5q117 0 222 -21.5t150 -42.5l47 -22l-77 -309q-179 53 -287 53q-92 0 -92 -55q0 -28 53 -58.5t129 -68t151.5 -87.5t129 -132t53.5 -182 q0 -187 -131 -298t-368 -111q-153 0 -263.5 24.5t-145.5 48.5z" />
<glyph unicode="T" horiz-adv-x="1118" d="M32 909v337h1054v-337h-313v-909h-426v909h-315z" />
<glyph unicode="U" horiz-adv-x="1445" d="M110 496v750h427v-665q0 -125 38.5 -185.5t149 -60.5t149 61.5t38.5 184.5v665h423v-750q0 -245 -141.5 -393t-469.5 -148t-471 148t-143 393z" />
<glyph unicode="V" horiz-adv-x="1413" d="M-4 1246h455l252 -854h10l250 854h453l-432 -1246h-553z" />
<glyph unicode="W" horiz-adv-x="2033" d="M-4 1246h441l164 -801h8l179 801h460l185 -793h8l154 793h441l-364 -1246h-458l-192 758h-8l-199 -758h-459z" />
<glyph unicode="X" horiz-adv-x="1435" d="M-15 0l473 620l-468 626h487l241 -350l239 350h484l-465 -624l475 -622h-508l-225 341l-226 -341h-507z" />
<glyph unicode="Y" horiz-adv-x="1298" d="M-45 1246h476l208 -484h9l221 484h475l-482 -841v-405h-425v405z" />
<glyph unicode="Z" horiz-adv-x="1298" d="M85 0v254l569 655h-569v337h1127v-254l-564 -655h564v-337h-1127z" />
<glyph unicode="[" horiz-adv-x="1010" d="M193 -211v1740h817v-304h-449v-1131h449v-305h-817z" />
<glyph unicode="\" horiz-adv-x="1173" d="M-85 1597h398l908 -2129h-396z" />
<glyph unicode="]" horiz-adv-x="1010" d="M0 94h449v1131h-449v302h817v-1738h-817v305z" />
<glyph unicode="^" horiz-adv-x="898" d="M57 1148l390 356l394 -356l-168 -170l-224 217l-225 -217z" />
<glyph unicode="_" horiz-adv-x="1752" d="M57 -108h1634v-325h-1634v325z" />
<glyph unicode="`" horiz-adv-x="581" d="M-77 1449l384 42l87 -273l-286 -21z" />
<glyph unicode="a" horiz-adv-x="1343" d="M484 545q0 -264 178 -264q41 0 78.5 13t54.5 25l16 16v447q-40 4 -89 4q-238 -1 -238 -241zM59 535q0 577 659 577q140 0 268 -14t185 -27l56 -12v-663q0 -138 113 -138l-119 -303q-211 0 -314 114h-25q-2 -5 -6 -12.5t-27.5 -28t-55 -35t-92 -26.5t-136.5 -12 q-228 0 -367 153.5t-139 426.5z" />
<glyph unicode="b" horiz-adv-x="1321" d="M512 285h12q11 -2 30 -3t38 -1q245 0 245 258q0 247 -172 247q-41 0 -78.5 -7.5t-54 -14t-20.5 -10.5v-469zM96 8v1441h416v-384h10q77 47 236 47q242 0 373.5 -157.5t131.5 -405.5q0 -270 -168 -432t-490 -162q-144 0 -272 14t-184 27z" />
<glyph unicode="c" horiz-adv-x="1055" d="M59 539q0 268 164.5 420.5t436.5 152.5q96 0 178 -17.5t117 -33.5l33 -15l-33 -320q-114 53 -227 54q-240 0 -240 -237q0 -126 66 -191t168 -65q53 0 111.5 14t91.5 27l30 13l33 -324q-8 -7 -26.5 -17t-102.5 -27.5t-199 -17.5q-287 0 -444 164t-157 420z" />
<glyph unicode="d" horiz-adv-x="1319" d="M484 545q0 -270 221 -270l106 2v485q-61 30 -146 30q-82 0 -131.5 -60.5t-49.5 -186.5zM59 535q0 282 136.5 429.5t360.5 147.5q66 0 126 -11.5t87 -23.5l28 -12h14v384h414v-1421q-221 -73 -526 -73q-311 0 -475.5 150.5t-164.5 429.5z" />
<glyph unicode="e" horiz-adv-x="1171" d="M453 660h325v19q0 55 -39.5 94.5t-112.5 39.5q-69 0 -113.5 -41t-59.5 -112zM59 496q0 285 149.5 450.5t396.5 165.5q243 0 386 -143.5t143 -376.5q0 -51 -5 -98t-9 -68l-4 -21h-647q2 -82 59.5 -111.5t206.5 -29.5q64 0 132 13t104 26l39 14l34 -300q-8 -7 -30 -17 t-116.5 -27.5t-224.5 -17.5q-266 0 -440 137.5t-174 403.5z" />
<glyph unicode="f" horiz-adv-x="874" d="M47 733v234l115 96q4 217 129.5 323.5t389.5 106.5l132 -332q-100 0 -156 -20.5t-74 -75.5h244v-332h-250v-733h-415v733h-115z" />
<glyph unicode="g" horiz-adv-x="1321" d="M484 545q0 -264 178 -264q41 0 78.5 13t54.5 25l16 16v447q-40 4 -89 4q-238 -1 -238 -241zM59 535q0 577 659 577q140 0 268 -19.5t185 -35.5l56 -20v-1110q0 -181 -162 -270.5t-405 -89.5q-128 0 -229 16.5t-139 32.5l-38 16l31 293q149 -49 292 -49q234 0 234 90v60 h-14q-9 -8 -24 -20t-76 -31.5t-132 -19.5q-228 0 -367 153.5t-139 426.5z" />
<glyph unicode="h" horiz-adv-x="1309" d="M96 0v1449h416v-384h12q83 47 287 47q415 0 416 -405v-707h-416v630q0 51 -37 84.5t-118 33.5l-144 -6v-742h-416z" />
<glyph unicode="i" horiz-adv-x="606" d="M96 0v1065h416v-1065h-416zM92 1343.5q0 93.5 56.5 143t154 49.5t154.5 -49.5t57 -143t-58 -143.5t-153 -50q-94 0 -152.5 50t-58.5 143.5z" />
<glyph unicode="j" horiz-adv-x="626" d="M110 1343.5q0 93.5 57 143t154.5 49.5t154 -49.5t56.5 -143t-57.5 -143.5t-153.5 -50q-93 0 -152 50t-59 143.5zM-79 -85q193 0 194 200v950h415v-1048q0 -445 -477 -445z" />
<glyph unicode="k" horiz-adv-x="1232" d="M96 0v1449h416v-772h39l188 388h475l-315 -477l349 -588h-496l-205 386h-35v-386h-416z" />
<glyph unicode="l" horiz-adv-x="691" d="M96 400v1049h416v-951q0 -201 193 -200l-132 -343q-477 0 -477 445z" />
<glyph unicode="m" horiz-adv-x="1854" d="M96 0v1037q236 75 585 75q194 0 305 -62q221 62 356 62q229 0 328.5 -98t99.5 -298v-716h-415v652q0 53 -25 74.5t-84 21.5q-51 0 -104 -11v-737h-416v652q0 53 -24.5 74.5t-81.5 21.5l-111 -6v-742h-413z" />
<glyph unicode="n" horiz-adv-x="1311" d="M96 0v1037q245 75 599 75q287 0 409.5 -100t122.5 -305v-707h-416v630q0 118 -153 118l-149 -4v-744h-413z" />
<glyph unicode="o" horiz-adv-x="1343" d="M486 537q0 -273 185 -273q187 0 187 271q0 264 -187 264q-102 0 -143.5 -68.5t-41.5 -193.5zM59 553q0 260 160.5 408.5t452 148.5t452 -148.5t160.5 -408.5q0 -276 -167 -438t-446 -162q-292 0 -452 159.5t-160 440.5z" />
<glyph unicode="p" horiz-adv-x="1321" d="M509 337q57 -55 156 -56q77 0 124.5 62t47.5 196q0 136 -63 191.5t-182 55.5l-83 -4v-445zM96 -384v1421q211 75 509 75q364 0 511 -149.5t147 -413.5q0 -262 -139.5 -428t-365.5 -166q-75 0 -133 18.5t-80 34.5l-23 18h-13v-410h-413z" />
<glyph unicode="q" horiz-adv-x="1321" d="M484 545q0 -264 178 -264q41 0 78.5 13t54.5 25l16 16v447q-40 4 -89 4q-238 -1 -238 -241zM59 535q0 577 659 577q123 0 251 -19.5t194 -35.5l64 -20v-1421h-416v410h-14q-9 -8 -24 -20t-76 -31.5t-132 -19.5q-228 0 -367 153.5t-139 426.5z" />
<glyph unicode="r" horiz-adv-x="878" d="M96 0v1037q187 75 479 75q94 0 172 -15t109 -30l32 -15l-38 -322q-96 39 -234 39l-107 -7v-762h-413z" />
<glyph unicode="s" horiz-adv-x="1026" d="M69 746q0 166 117 266t320 100q104 0 199.5 -16t137.5 -31l43 -17l-30 -304q-177 44 -281 44q-115 0 -115 -42q0 -33 78 -59.5t171.5 -50.5t171.5 -98t78 -189q0 -394 -518 -394q-98 0 -189.5 16.5t-133.5 32.5l-43 15l31 309q132 -49 276 -49q174 0 174 66 q0 24 -50 40.5t-122.5 36t-144 50t-121 101.5t-49.5 173z" />
<glyph unicode="t" horiz-adv-x="870" d="M36 733v234l124 68l92 211h315v-181h211v-332h-211v-277q0 -92 42.5 -125t150.5 -33l-132 -343q-245 0 -361 92.5t-116 310.5v375h-115z" />
<glyph unicode="u" horiz-adv-x="1313" d="M85 356v709h415v-632q0 -51 38.5 -83.5t119.5 -32.5l145 6v742h415v-1037q-232 -73 -604 -73q-285 0 -407 98t-122 303z" />
<glyph unicode="v" horiz-adv-x="1222" d="M-8 1065h457l156 -728h15l153 728h458l-347 -1065h-545z" />
<glyph unicode="w" horiz-adv-x="1803" d="M0 1065h439l102 -628h12l142 628h415l140 -628h13l103 628h438l-322 -1065h-449l-126 612h-11l-125 -612h-452z" />
<glyph unicode="x" horiz-adv-x="1258" d="M-6 0l372 532l-372 533h483l147 -317h12l148 317h482l-374 -533l374 -532h-484l-146 339h-12l-145 -339h-485z" />
<glyph unicode="y" horiz-adv-x="1243" d="M-10 1065h457l211 -691h11l128 691h457l-349 -1022q-53 -151 -118 -250.5t-143.5 -146t-150 -63t-170.5 -16.5l-125 346q193 0 266 89z" />
<glyph unicode="z" horiz-adv-x="1064" d="M28 0v222l434 522h-399v321h974v-201l-434 -543h421l-2 -321h-994z" />
<glyph unicode="{" horiz-adv-x="1030" d="M219 449v346q71 0 137 21t66 68t-32 166t-32 196q0 179 134 264t479 85v-300q-255 0 -255 -157q0 -62 32 -175t32 -177q0 -93 -97 -164q96 -71 97 -164q0 -64 -32 -177t-32 -175q0 -158 255 -157v-301q-345 0 -479 85.5t-134 264.5q0 77 32 196t32 166t-66 68t-137 21z " />
<glyph unicode="|" horiz-adv-x="913" d="M260 -532v2129h394v-2129h-394z" />
<glyph unicode="}" horiz-adv-x="1030" d="M124 -51q256 0 256 157q0 61 -32.5 174.5t-32.5 177.5q0 93 96 164q-96 71 -96 164q0 64 32.5 176.5t32.5 175.5q0 158 -256 157v300q345 0 479 -85t134 -264q0 -77 -32 -196t-32 -166t66 -68t137 -21v-346q-71 0 -137 -21t-66 -68t32 -166t32 -196q0 -179 -134 -264.5 t-479 -85.5v301z" />
<glyph unicode="~" horiz-adv-x="1504" d="M122 880q4 6 13.5 15.5t44.5 33t75.5 42.5t110 34t146.5 15q89 0 161.5 -19t122.5 -46.5t95.5 -55t104.5 -47t127 -19.5t128.5 13.5t88.5 29.5l28 14l16 -327q-4 -7 -11 -16.5t-38.5 -34t-67.5 -44t-98.5 -35.5t-135.5 -16q-96 0 -178 28t-132 61t-128.5 60.5 t-168.5 27.5q-74 0 -146.5 -20.5t-108.5 -38.5l-35 -19z" />
<glyph unicode="&#xa9;" horiz-adv-x="1744" d="M520 709q0 177 111 281.5t291 104.5q51 0 92 -6.5t55 -15.5l15 -6l-25 -228q-64 11 -94 11q-83 0 -122.5 -33t-39.5 -108q0 -121 152 -121q18 0 43.5 6.5t42.5 10.5l18 7l25 -252q-45 -28 -162 -28q-180 0 -291 100t-111 277zM422 718q0 -218 115 -349t327 -131 q218 0 338.5 132t120.5 348q0 219 -120.5 355.5t-338.5 136.5q-213 0 -327.5 -136.5t-114.5 -355.5zM85 720q0 343 202.5 558t579.5 215q380 0 586 -215t206 -558.5t-203.5 -554t-588.5 -210.5q-383 0 -582.5 209.5t-199.5 555.5z" />
<glyph unicode="&#xab;" horiz-adv-x="1390" d="M675 532l414 420l179 -196l-224 -226l222 -225l-180 -203zM181 532l413 420l179 -196l-224 -226l222 -225l-179 -203z" />
<glyph unicode="&#xad;" horiz-adv-x="857" d="M59 419v325h740v-325h-740z" />
<glyph unicode="&#xae;" horiz-adv-x="1586" d="M750 801h10q57 0 57 53q0 47 -57 47h-10v-100zM512 509v588h263q144 0 219 -59.5t75 -170.5q0 -91 -67 -164l67 -194h-256l-33 113h-30v-113h-238zM388 792q0 -193 102 -300.5t296 -107.5q198 0 305.5 108.5t107.5 299.5q0 194 -108.5 308t-304.5 114q-193 0 -295.5 -113 t-102.5 -309zM85 794.5q0 308.5 182 502.5t521 194q344 0 529 -194t185 -502.5t-184 -498.5t-529.5 -190t-524.5 190t-179 498.5z" />
<glyph unicode="&#xbb;" horiz-adv-x="1390" d="M614 298l225 226l-221 226l179 202l410 -430l-412 -420zM120 298l225 226l-221 226l179 202l410 -430l-412 -420z" />
<glyph unicode="&#x400;" horiz-adv-x="1207" d="M313 1577l384 41l87 -272l-286 -21zM130 0v1246h952v-337h-526v-121h448v-321h-448v-130h543v-337h-969z" />
<glyph unicode="&#x401;" horiz-adv-x="1207" d="M679 1446q0 74 54.5 123t129 49t129 -50t54.5 -121q0 -75 -54.5 -124t-129 -49t-129 49t-54.5 123zM168 1446q0 74 54.5 123t129 49t129 -50t54.5 -121q0 -75 -54.5 -124t-129 -49t-129 49t-54.5 123zM130 0v1246h952v-337h-526v-121h448v-321h-448v-130h543v-337h-969z " />
<glyph unicode="&#x402;" horiz-adv-x="1532" d="M32 920v326h1054v-326h-313v-147h11q69 47 281 47q413 0 413 -405v-381q0 -467 -507 -467l-132 344q216 0 216 221v207q0 51 -37.5 84t-118.5 33q-47 0 -126 -23v-433h-426v920h-315z" />
<glyph unicode="&#x403;" horiz-adv-x="1012" d="M374 1344l88 274l392 -41l-185 -254zM130 0v1246h905v-337h-479v-909h-426z" />
<glyph unicode="&#x404;" horiz-adv-x="1213" d="M63 620q0 296 179.5 482.5t499.5 186.5q123 0 229 -21.5t151 -42.5l45 -22l-55 -321q-130 53 -301 53q-258 0 -313 -160h554l-21 -308h-535q26 -83 100.5 -120.5t212.5 -37.5q90 0 165.5 14t107.5 26l30 13l55 -321q-13 -9 -40.5 -24t-134 -38.5t-240.5 -23.5 q-330 0 -509.5 178t-179.5 487z" />
<glyph unicode="&#x405;" horiz-adv-x="1106" d="M100 51l103 317q156 -68 297 -67q128 0 128 53q0 24 -53 51.5t-129 62t-152.5 85t-130 139t-53.5 198.5q0 192 126 295.5t329 103.5q117 0 222 -21.5t150 -42.5l47 -22l-77 -309q-179 53 -287 53q-92 0 -92 -55q0 -28 53 -58.5t129 -68t151.5 -87.5t129 -132t53.5 -182 q0 -187 -131 -298t-368 -111q-153 0 -263.5 24.5t-145.5 48.5z" />
<glyph unicode="&#x406;" d="M130 0v1246h426v-1246h-426z" />
<glyph unicode="&#x407;" d="M411 1446q0 74 54.5 123t129 49t129 -50t54.5 -121q0 -75 -54.5 -124t-129 -49t-129 49t-54.5 123zM130 0v1246h426v-1246h-426zM-100 1446q0 74 54 123t129 49t129 -50t54 -121q0 -75 -54 -124t-129 -49t-129 49t-54 123z" />
<glyph unicode="&#x408;" d="M-85 -89q215 0 215 221v1114h426v-1212q0 -467 -509 -467z" />
<glyph unicode="&#x409;" horiz-adv-x="2044" d="M1346 270h51q197 0 198 139q0 61 -43.5 94.5t-154.5 33.5h-51v-267zM69 332q144 0 210 227t66 687h1001v-400h49q329 0 468 -114t139 -323q0 -454 -607 -454q-118 0 -236 12t-179 23l-60 10v909h-192q-4 -415 -143.5 -684.5t-373.5 -269.5z" />
<glyph unicode="&#x40a;" horiz-adv-x="2052" d="M1355 270h51q198 0 198 139q0 61 -44 94.5t-154 33.5h-51v-267zM130 0v1246h426v-456h373v456h426v-400h49q330 0 468 -114t138 -323q0 -454 -606 -454q-118 0 -236 12t-180 23l-59 10v469h-373v-469h-426z" />
<glyph unicode="&#x40b;" horiz-adv-x="1588" d="M32 920v326h1054v-326h-313v-147h11q69 47 281 47q413 0 413 -405v-415h-423v339q0 51 -37.5 84t-118.5 33q-47 0 -126 -23v-433h-426v920h-315z" />
<glyph unicode="&#x40c;" horiz-adv-x="1417" d="M479 1344l88 274l392 -41l-186 -254zM130 0v1246h426v-443h53l313 443h475l-438 -567l482 -679h-498l-331 492h-56v-492h-426z" />
<glyph unicode="&#x40d;" horiz-adv-x="1498" d="M492 1577l384 41l87 -272l-286 -21zM130 0v1246h405v-460l-11 -162h6l429 571l21 51h390v-1246h-405v443l8 179h-6l-422 -571l-21 -51h-394z" />
<glyph unicode="&#x40e;" horiz-adv-x="1339" d="M272 1425l94 247q106 -68 337 -68q104 0 188.5 17t118.5 34l31 17l95 -247q-13 -11 -41 -27t-138.5 -42.5t-253.5 -26.5q-140 0 -248 23.5t-144 49.5zM-24 1246h475l256 -567h15l190 567h454l-390 -850q-118 -258 -253 -349.5t-347 -91.5l-118 350q158 0 230 51z" />
<glyph unicode="&#x40f;" horiz-adv-x="1449" d="M130 0v1246h426v-909h338v909h427v-1246h-409l-26 -376h-317l-28 376h-411z" />
<glyph unicode="&#x410;" horiz-adv-x="1467" d="M601 514h257l-123 408h-9zM24 0l468 1246h507l448 -1246h-437l-63 213h-433l-61 -213h-429z" />
<glyph unicode="&#x411;" horiz-adv-x="1254" d="M556 270h51q198 0 198 116q0 108 -198 108h-51v-224zM130 0v1246h933v-337h-507v-127h49q330 0 468.5 -103.5t138.5 -292.5q0 -431 -607 -431q-117 0 -235 12t-179 23z" />
<glyph unicode="&#x412;" horiz-adv-x="1339" d="M509 766h166q71 0 110.5 30.5t39.5 79.5q0 97 -186 97q-29 0 -130 -8v-199zM509 279q119 -9 158 -9q202 0 202 109t-174 109h-186v-209zM130 0v1246q226 43 488 43q309 0 454.5 -98t145.5 -260q0 -189 -183 -301q240 -61 241 -276q0 -188 -164.5 -293.5t-472.5 -105.5 q-120 0 -247.5 12t-195.5 23z" />
<glyph unicode="&#x413;" horiz-adv-x="1012" d="M130 0v1246h905v-337h-479v-909h-426z" />
<glyph unicode="&#x414;" horiz-adv-x="1549" d="M551 337h348v572h-220q-34 -314 -128 -572zM43 337h123q156 396 155 909h996v-909h172l-62 -618h-341v281h-664l2 -281h-318z" />
<glyph unicode="&#x415;" horiz-adv-x="1207" d="M130 0v1246h952v-337h-526v-121h448v-321h-448v-130h543v-337h-969z" />
<glyph unicode="&#x416;" horiz-adv-x="2050" d="M-6 0l479 622l-458 624h497l274 -421h39v421h400v-419h29l301 419h496l-484 -551l510 -695h-496l-323 492h-33v-492h-400v490h-41l-294 -490h-496z" />
<glyph unicode="&#x417;" horiz-adv-x="1122" d="M47 55l55 315q140 -75 329 -74q183 0 183 100q0 83 -147 83h-235v296h260q47 2 84.5 23.5t37.5 61.5q0 87 -186 87q-65 0 -142 -13.5t-120 -26.5l-42 -13l-55 313q14 9 43.5 23t137.5 36.5t234 22.5q272 0 408.5 -104.5t136.5 -279.5q0 -167 -167 -262q196 -77 197 -273 q0 -187 -162 -301t-415 -114q-141 0 -249.5 24.5t-147.5 50.5z" />
<glyph unicode="&#x418;" horiz-adv-x="1498" d="M130 0v1246h405v-460l-11 -162h6l429 571l21 51h390v-1246h-405v443l8 179h-6l-422 -571l-21 -51h-394z" />
<glyph unicode="&#x419;" horiz-adv-x="1498" d="M362 1425l94 247q106 -68 336 -68q104 0 188.5 17t118.5 34l31 17l95 -247q-12 -11 -40.5 -27t-139 -42.5t-253.5 -26.5q-140 0 -247.5 23.5t-144.5 49.5zM130 0v1246h405v-460l-11 -162h6l429 571l21 51h390v-1246h-405v443l8 179h-6l-422 -571l-21 -51h-394z" />
<glyph unicode="&#x41a;" horiz-adv-x="1417" d="M130 0v1246h426v-443h53l313 443h475l-438 -567l482 -679h-498l-331 492h-56v-492h-426z" />
<glyph unicode="&#x41b;" horiz-adv-x="1475" d="M69 332q144 0 210 227t66 687h1001v-1246h-426v909h-192q-4 -415 -143.5 -684.5t-373.5 -269.5z" />
<glyph unicode="&#x41c;" horiz-adv-x="1858" d="M130 0v1246h407l383 -607h17l388 607h405v-1246h-409v590h-16l-234 -377h-283l-237 377h-12v-590h-409z" />
<glyph unicode="&#x41d;" horiz-adv-x="1484" d="M130 0v1246h426v-456h373v456h426v-1246h-426v469h-373v-469h-426z" />
<glyph unicode="&#x41e;" horiz-adv-x="1520" d="M498 624q0 -138 66 -226.5t196 -88.5t195 88.5t65 226.5q0 134 -66 222.5t-194 88.5t-195 -88.5t-67 -222.5zM63 624q0 298 181.5 481.5t516 183.5t515.5 -183.5t181 -481.5q0 -301 -181 -485t-515.5 -184t-516 184t-181.5 485z" />
<glyph unicode="&#x41f;" horiz-adv-x="1449" d="M130 0v1246h1191v-1246h-427v909h-338v-909h-426z" />
<glyph unicode="&#x420;" horiz-adv-x="1238" d="M526 643h51q183 0 183 180q0 146 -183 146q-34 0 -51 -2v-324zM130 0v1246q262 43 451 43q616 0 616 -466q0 -228 -164 -357t-371 -129h-136v-337h-396z" />
<glyph unicode="&#x421;" horiz-adv-x="1187" d="M63 620q0 309 178 489t501 180q123 0 229 -21.5t151 -42.5l45 -22l-55 -321q-130 53 -301 53q-313 0 -313 -315q0 -311 311 -311q90 0 165.5 14t107.5 26l30 13l55 -321q-13 -9 -40.5 -24t-134 -38.5t-240.5 -23.5q-330 0 -509.5 178t-179.5 487z" />
<glyph unicode="&#x422;" horiz-adv-x="1118" d="M32 909v337h1054v-337h-313v-909h-426v909h-315z" />
<glyph unicode="&#x423;" horiz-adv-x="1339" d="M-24 1246h475l256 -567h15l190 567h454l-390 -850q-118 -258 -253 -349.5t-347 -91.5l-118 350q158 0 230 51z" />
<glyph unicode="&#x424;" horiz-adv-x="1744" d="M1063 435q115 8 168 62t53 139q0 173 -221 181v-382zM460 636q0 -185 221 -195v382q-221 -12 -221 -187zM63 636q0 234 167.5 353t450.5 123v134h382v-134q281 -4 449.5 -122t168.5 -354q0 -238 -169.5 -366t-448.5 -132v-138h-382v138q-279 4 -448.5 132t-169.5 366z " />
<glyph unicode="&#x425;" horiz-adv-x="1435" d="M-15 0l473 620l-468 626h487l241 -350l239 350h484l-465 -624l475 -622h-508l-225 341l-226 -341h-507z" />
<glyph unicode="&#x426;" horiz-adv-x="1556" d="M130 0v1246h426v-909h338v909h427v-909h172l-40 -618h-317l-20 281h-986z" />
<glyph unicode="&#x427;" horiz-adv-x="1356" d="M96 730v516h426v-437q0 -69 28.5 -96.5t99.5 -27.5q69 0 151 28v533h426v-1246h-426v409h-4q-9 -9 -28 -23t-97 -36t-180 -22q-209 0 -302.5 113.5t-93.5 288.5z" />
<glyph unicode="&#x428;" horiz-adv-x="1971" d="M130 0v1246h426v-909h215v909h428v-909h217v909h427v-1246h-1713z" />
<glyph unicode="&#x429;" horiz-adv-x="2077" d="M130 0v1246h426v-909h215v909h428v-909h217v909h427v-909h169l-40 -618h-317l-19 281h-1506z" />
<glyph unicode="&#x42a;" horiz-adv-x="1469" d="M771 270h52q197 0 197 139q0 61 -43.5 94.5t-153.5 33.5h-52v-267zM32 909v337h739v-400h49q329 0 468 -114t139 -323q0 -454 -607 -454q-118 0 -235.5 12t-179.5 23l-60 10v909h-313z" />
<glyph unicode="&#x42b;" horiz-adv-x="1939" d="M1384 0v1246h427v-1246h-427zM556 270h51q198 0 198 139q0 61 -43.5 94.5t-154.5 33.5h-51v-267zM130 0v1246h426v-400h49q330 0 468.5 -114t138.5 -323q0 -454 -607 -454q-117 0 -235 12t-179 23z" />
<glyph unicode="&#x42c;" horiz-adv-x="1254" d="M556 270h51q198 0 198 139q0 61 -43.5 94.5t-154.5 33.5h-51v-267zM130 0v1246h426v-400h49q330 0 468.5 -114t138.5 -323q0 -454 -607 -454q-117 0 -235 12t-179 23z" />
<glyph unicode="&#x42d;" horiz-adv-x="1196" d="M47 55l55 315q140 -75 329 -74q200 0 244 183h-443v296h451q-12 91 -68.5 131.5t-197.5 40.5q-65 0 -142 -13.5t-119 -26.5l-43 -13l-56 313q15 9 45 23t137.5 36.5t233.5 22.5q341 0 501 -181t160 -488q0 -303 -163.5 -484t-488.5 -181q-141 0 -249.5 24.5t-147.5 50.5z " />
<glyph unicode="&#x42e;" horiz-adv-x="2116" d="M1095 624q0 -138 66 -226.5t196 -88.5t194.5 88.5t64.5 226.5q0 134 -66 222.5t-193.5 88.5t-194.5 -88.5t-67 -222.5zM130 0v1246h426v-456h162q44 230 208.5 364.5t430.5 134.5q335 0 515.5 -183.5t180.5 -481.5q0 -301 -181 -485t-515 -184q-268 0 -434.5 138.5 t-206.5 375.5h-160v-469h-426z" />
<glyph unicode="&#x42f;" horiz-adv-x="1305" d="M496 833q0 -55 33.5 -93.5t104.5 -38.5h146v264q-38 2 -109 2q-175 0 -175 -134zM45 0l281 456q-109 53 -171.5 151t-62.5 226q0 207 155 331.5t424 124.5q128 0 253.5 -10.5t187.5 -22.5l63 -10v-1246h-395v400h-89l-231 -400h-415z" />
<glyph unicode="&#x430;" horiz-adv-x="1343" d="M484 545q0 -264 178 -264q41 0 78.5 13t54.5 25l16 16v447q-40 4 -89 4q-238 -1 -238 -241zM59 535q0 577 659 577q140 0 268 -14t185 -27l56 -12v-663q0 -138 113 -138l-119 -303q-211 0 -314 114h-25q-2 -5 -6 -12.5t-27.5 -28t-55 -35t-92 -26.5t-136.5 -12 q-228 0 -367 153.5t-139 426.5z" />
<glyph unicode="&#x431;" horiz-adv-x="1343" d="M486 601q0 -173 43.5 -255t145.5 -82q91 0 137 62t46 145q0 167 -187 165q-126 2 -185 -35zM59 639q0 402 222.5 628t614.5 226h175l94 -396h-187q-254 0 -350 -37.5t-124 -167.5h33q8 9 26 21t90.5 31t166.5 19q200 0 332 -114t132 -337q0 -273 -169.5 -416t-464.5 -143 q-591 0 -591 686z" />
<glyph unicode="&#x432;" horiz-adv-x="1222" d="M490 691h223q5 20 5 37q0 81 -120 81q-15 0 -108 -8v-110zM490 264q89 -6 146 -6q122 0 122 100q0 83 -119 83h-149v-177zM96 0v1065q213 47 502 47q526 0 526 -295q0 -121 -110 -210q162 -99 161 -262q0 -187 -139.5 -288.5t-419.5 -101.5q-145 0 -275 12t-188 23z" />
<glyph unicode="&#x433;" horiz-adv-x="864" d="M96 0v1065h766v-332h-350v-733h-416z" />
<glyph unicode="&#x434;" horiz-adv-x="1428" d="M509 321h332v423h-223q-26 -227 -109 -423zM12 321h130q80 158 111.5 327t31.5 417h942v-744h179l-45 -587h-326l-21 266h-634l-20 -266h-305z" />
<glyph unicode="&#x435;" horiz-adv-x="1171" d="M453 660h325v19q0 55 -39.5 94.5t-112.5 39.5q-69 0 -113.5 -41t-59.5 -112zM59 496q0 285 149.5 450.5t396.5 165.5q243 0 386 -143.5t143 -376.5q0 -51 -5 -98t-9 -68l-4 -21h-647q2 -82 59.5 -111.5t206.5 -29.5q64 0 132 13t104 26l39 14l34 -300q-8 -7 -30 -17 t-116.5 -27.5t-224.5 -17.5q-266 0 -440 137.5t-174 403.5z" />
<glyph unicode="&#x436;" horiz-adv-x="1807" d="M10 0l293 558l-293 507h472l144 -362h75v362h405v-362h74l143 362h475l-298 -504l298 -561h-475l-164 426h-53v-426h-405v426h-75l-144 -426h-472z" />
<glyph unicode="&#x437;" horiz-adv-x="1057" d="M79 19l31 318q149 -49 295 -50q189 0 189 79q0 69 -172 69h-190v258h201q12 0 33.5 -1t29.5 -1q73 0 73 35q0 53 -173 54q-59 0 -131 -11t-112 -23l-43 -11l-29 313q181 64 433 64q467 0 466 -322q0 -142 -149 -213q63 -34 115.5 -98t52.5 -156q0 -368 -493 -368 q-134 0 -241 16.5t-145 32.5z" />
<glyph unicode="&#x438;" horiz-adv-x="1341" d="M96 0v1065h416v-390l-16 -119l8 -5l421 514h321v-1065h-415v349l12 126l-8 7l-418 -482h-321z" />
<glyph unicode="&#x439;" horiz-adv-x="1341" d="M275 1297l93 247q106 -68 337 -68q104 0 188.5 17t116.5 34l34 17l94 -247q-13 -11 -41 -27t-138.5 -42.5t-253.5 -26.5q-140 0 -248 23.5t-146 49.5zM96 0v1065h416v-390l-16 -119l8 -5l421 514h321v-1065h-415v349l12 126l-8 7l-418 -482h-321z" />
<glyph unicode="&#x43a;" horiz-adv-x="1232" d="M96 0v1065h416v-396h39l188 396h475l-311 -488l345 -577h-496l-209 392h-31v-392h-416z" />
<glyph unicode="&#x43b;" horiz-adv-x="1252" d="M-17 258q60 0 102.5 31.5t81 115t57 248t18.5 412.5h914v-1065h-417v733h-160q0 -411 -117 -594.5t-349 -183.5z" />
<glyph unicode="&#x43c;" horiz-adv-x="1654" d="M96 0v1065h460l269 -496h6l268 496h460v-1065h-368v441l16 149h-12l-252 -462h-232l-253 458h-11l15 -149v-437h-366z" />
<glyph unicode="&#x43d;" horiz-adv-x="1317" d="M96 0v1065h416v-362h297v362h414v-1065h-414v390h-297v-390h-416z" />
<glyph unicode="&#x43e;" horiz-adv-x="1343" d="M486 537q0 -273 185 -273q187 0 187 271q0 264 -187 264q-102 0 -143.5 -68.5t-41.5 -193.5zM59 553q0 260 160.5 408.5t452 148.5t452 -148.5t160.5 -408.5q0 -276 -167 -438t-446 -162q-292 0 -452 159.5t-160 440.5z" />
<glyph unicode="&#x43f;" horiz-adv-x="1301" d="M96 0v1065h1109v-1065h-415v733h-278v-733h-416z" />
<glyph unicode="&#x440;" horiz-adv-x="1321" d="M509 337q57 -55 156 -56q77 0 124.5 62t47.5 196q0 136 -63 191.5t-182 55.5l-83 -4v-445zM96 -384v1421q211 75 509 75q364 0 511 -149.5t147 -413.5q0 -262 -139.5 -428t-365.5 -166q-75 0 -133 18.5t-80 34.5l-23 18h-13v-410h-413z" />
<glyph unicode="&#x441;" horiz-adv-x="1055" d="M59 539q0 268 164.5 420.5t436.5 152.5q96 0 178 -17.5t117 -33.5l33 -15l-33 -320q-114 53 -227 54q-240 0 -240 -237q0 -126 66 -191t168 -65q53 0 111.5 14t91.5 27l30 13l33 -324q-8 -7 -26.5 -17t-102.5 -27.5t-199 -17.5q-287 0 -444 164t-157 420z" />
<glyph unicode="&#x442;" horiz-adv-x="955" d="M10 733v332h935v-332h-260v-733h-415v733h-260z" />
<glyph unicode="&#x443;" horiz-adv-x="1243" d="M-10 1065h457l211 -691h11l128 691h457l-349 -1022q-53 -151 -118 -250.5t-143.5 -146t-150 -63t-170.5 -16.5l-125 346q193 0 266 89z" />
<glyph unicode="&#x444;" horiz-adv-x="1748" d="M1071 256q192 26 192 297q0 232 -192 258v-555zM464 551q0 -283 213 -299v559q-213 -10 -213 -260zM59 551q0 256 166.5 405.5t451.5 155.5v337h394v-337q618 -9 618 -559q0 -274 -167 -432.5t-451 -165.5v-339h-394v339q-321 4 -469.5 156.5t-148.5 439.5z" />
<glyph unicode="&#x445;" horiz-adv-x="1258" d="M-6 0l372 532l-372 533h483l147 -317h12l148 317h482l-374 -533l374 -532h-484l-146 339h-12l-145 -339h-485z" />
<glyph unicode="&#x446;" horiz-adv-x="1407" d="M96 0v1065h416v-733h278v733h415v-733h158l-64 -598h-328v266h-875z" />
<glyph unicode="&#x447;" horiz-adv-x="1228" d="M57 618v447h425v-388q0 -94 116 -94l120 5v477h416v-1065h-416v321h-11q-79 -14 -254 -14q-178 0 -287 74.5t-109 236.5z" />
<glyph unicode="&#x448;" horiz-adv-x="1807" d="M96 0v1065h396v-733h213v733h398v-733h214v733h396v-1065h-1617z" />
<glyph unicode="&#x449;" horiz-adv-x="1912" d="M96 0v1065h396v-733h213v733h398v-733h214v733h396v-733h155l-64 -598h-328v266h-1380z" />
<glyph unicode="&#x44a;" horiz-adv-x="1382" d="M683 258q39 -4 99 -4q75 0 107.5 25.5t32.5 84.5q0 92 -125 92h-114v-198zM0 733v332h683v-311h116q253 0 400 -94.5t147 -269.5q0 -435 -558 -435q-128 0 -258 12t-195 23l-67 10v733h-268z" />
<glyph unicode="&#x44b;" horiz-adv-x="1817" d="M1310 0v1065h413v-1065h-413zM512 258q38 -4 97 -4q75 0 108 25.5t33 84.5q0 92 -126 92h-112v-198zM96 0v1065h416v-311h114q254 0 400.5 -94.5t146.5 -269.5q0 -435 -557 -435q-128 0 -258 12t-196 23z" />
<glyph unicode="&#x44c;" horiz-adv-x="1209" d="M512 258q38 -4 97 -4q75 0 108 25.5t33 84.5q0 92 -126 92h-112v-198zM96 0v1065h416v-311h114q254 0 400.5 -94.5t146.5 -269.5q0 -435 -557 -435q-128 0 -258 12t-196 23z" />
<glyph unicode="&#x44d;" horiz-adv-x="1158" d="M79 19l31 318q173 -49 352 -50q203 0 245 130h-469v258h459q-57 104 -235 105q-83 0 -170 -11t-134 -23l-48 -11l-29 313q104 64 383 64q309 0 471 -153.5t162 -409.5q0 -594 -633 -594q-120 0 -215.5 16.5t-133.5 32.5z" />
<glyph unicode="&#x44e;" horiz-adv-x="1813" d="M999 537q0 -273 164 -273q166 0 166 271q0 264 -166 264q-164 0 -164 -262zM96 0v1065h416v-362h116q39 193 176 300t359 107q283 0 438 -148.5t155 -408.5q0 -276 -161.5 -438t-431.5 -162q-222 0 -358 115t-175 322h-118v-390h-416z" />
<glyph unicode="&#x44f;" horiz-adv-x="1226" d="M477 695q0 -118 157 -118h82v236q-15 0 -44 1t-40 1q-155 1 -155 -120zM49 0l230 413q-201 89 -200 309q0 177 125.5 283.5t385.5 106.5q121 0 256.5 -11.5t210.5 -23.5l73 -12v-1065h-414v356h-82l-152 -356h-433z" />
<glyph unicode="&#x450;" horiz-adv-x="1191" d="M464 660h324v19q0 55 -39.5 94.5t-112.5 39.5q-68 0 -113 -41t-59 -112zM343 1449l383 42l87 -273l-285 -21zM71 496q0 285 148.5 450.5t396.5 165.5q242 0 385 -143.5t143 -376.5q0 -51 -4 -98t-10 -68l-4 -21h-647q3 -82 60 -111.5t207 -29.5q63 0 131 13t107 26l36 14 l35 -300q-9 -7 -30 -17t-116.5 -27.5t-225.5 -17.5q-266 0 -439 137.5t-173 403.5z" />
<glyph unicode="&#x451;" horiz-adv-x="1171" d="M677 1318.5q0 74.5 54.5 123.5t129 49t129 -50.5t54.5 -121.5q0 -75 -54.5 -124t-129 -49t-129 49t-54.5 123.5zM453 660h325v19q0 55 -39.5 94.5t-112.5 39.5q-69 0 -113.5 -41t-59.5 -112zM166 1318.5q0 74.5 54.5 123.5t129 49t128.5 -50.5t54 -121.5q0 -75 -54 -124 t-128.5 -49t-129 49t-54.5 123.5zM59 496q0 285 149.5 450.5t396.5 165.5q243 0 386 -143.5t143 -376.5q0 -51 -5 -98t-9 -68l-4 -21h-647q2 -82 59.5 -111.5t206.5 -29.5q64 0 132 13t104 26l39 14l34 -300q-8 -7 -30 -17t-116.5 -27.5t-224.5 -17.5q-266 0 -440 137.5 t-174 403.5z" />
<glyph unicode="&#x452;" horiz-adv-x="1290" d="M2 955v193l116 73v228h412v-203h388v-291h-388v-229h15q83 47 288 47q415 0 415 -405v-356q0 -445 -477 -445l-132 344q193 0 194 199v182q0 51 -37.5 84t-118.5 33l-145 -7l-2 9v-411h-412v955h-116z" />
<glyph unicode="&#x453;" horiz-adv-x="864" d="M285 1216l87 275l392 -42l-185 -254zM96 0v1065h766v-332h-350v-733h-416z" />
<glyph unicode="&#x454;" horiz-adv-x="1077" d="M59 539q0 268 164.5 420.5t436.5 152.5q96 0 178 -17.5t117 -33.5l33 -15l-33 -320q-114 53 -227 54q-118 0 -182 -30t-86 -98h436l-20 -256h-401q60 -108 247 -109q53 0 111.5 14t91.5 27l30 13l33 -324q-8 -7 -26.5 -17t-102.5 -27.5t-199 -17.5q-287 0 -444 164 t-157 420z" />
<glyph unicode="&#x455;" horiz-adv-x="1026" d="M69 746q0 166 117 266t320 100q104 0 199.5 -16t137.5 -31l43 -17l-30 -304q-177 44 -281 44q-115 0 -115 -42q0 -33 78 -59.5t171.5 -50.5t171.5 -98t78 -189q0 -394 -518 -394q-98 0 -189.5 16.5t-133.5 32.5l-43 15l31 309q132 -49 276 -49q174 0 174 66 q0 24 -50 40.5t-122.5 36t-144 50t-121 101.5t-49.5 173z" />
<glyph unicode="&#x456;" horiz-adv-x="606" d="M96 0v1065h416v-1065h-416zM92 1343.5q0 93.5 56.5 143t154 49.5t154.5 -49.5t57 -143t-58 -143.5t-153 -50q-94 0 -152.5 50t-58.5 143.5z" />
<glyph unicode="&#x457;" horiz-adv-x="606" d="M372 1318.5q0 74.5 55 123.5t129 49t128.5 -50.5t54.5 -121.5q0 -75 -54.5 -124t-128.5 -49t-129 49t-55 123.5zM96 0v1065h416v-1065h-416zM-138 1318.5q0 74.5 54 123.5t129 49t129 -50.5t54 -121.5q0 -75 -54 -124t-129 -49t-129 49t-54 123.5z" />
<glyph unicode="&#x458;" horiz-adv-x="626" d="M115 1343.5q0 93.5 56.5 143t154.5 49.5t154.5 -49.5t56.5 -143t-57.5 -143.5t-153.5 -50q-94 0 -152.5 50t-58.5 143.5zM-79 -85q193 0 194 200v950h415v-1048q0 -445 -477 -445z" />
<glyph unicode="&#x459;" horiz-adv-x="1854" d="M1156 258q39 -4 98 -4q75 0 108 25.5t33 84.5q0 92 -125 92h-114v-198zM-17 258q60 0 102.5 31.5t81 115t57 248t18.5 412.5h914v-311h116q254 0 400.5 -94.5t146.5 -269.5q0 -435 -559 -435q-127 0 -256.5 12t-196.5 23l-65 10h-3v733h-160q0 -411 -117 -594.5 t-349 -183.5z" />
<glyph unicode="&#x45a;" horiz-adv-x="1920" d="M1223 258q39 -4 98 -4q75 0 107.5 25.5t32.5 84.5q0 92 -126 92h-112v-198zM96 0v1065h416v-362h295v362h416v-311h114q254 0 400.5 -94.5t146.5 -269.5q0 -435 -557 -435q-128 0 -258 12t-195 23l-67 10v390h-295v-390h-416z" />
<glyph unicode="&#x45b;" horiz-adv-x="1290" d="M2 955v193l116 73v228h412v-203h388v-291h-388v-229h15q83 47 288 47q415 0 415 -405v-368h-415v292q0 51 -37.5 84t-118.5 33l-145 -7l-2 9v-411h-412v955h-116z" />
<glyph unicode="&#x45c;" horiz-adv-x="1232" d="M473 1216l88 275l391 -42l-186 -254zM96 0v1065h416v-396h39l188 396h475l-311 -488l345 -577h-496l-209 392h-31v-392h-416z" />
<glyph unicode="&#x45d;" horiz-adv-x="1362" d="M392 1449l383 42l87 -273l-285 -21zM106 0v1065h416v-390l-16 -119l10 -5l419 514h321v-1065h-415v349l13 126l-8 7l-418 -482h-322z" />
<glyph unicode="&#x45e;" horiz-adv-x="1243" d="M196 1297l94 247q106 -68 336 -68q104 0 188.5 17t118.5 34l32 17l94 -247q-13 -11 -41 -27t-138.5 -42.5t-253.5 -26.5q-140 0 -248 23.5t-144 49.5zM-10 1065h457l211 -691h11l128 691h457l-349 -1022q-53 -151 -118 -250.5t-143.5 -146t-150 -63t-170.5 -16.5 l-125 346q193 0 266 89z" />
<glyph unicode="&#x45f;" horiz-adv-x="1378" d="M96 0v1065h416v-733h355v733h415v-1065h-410l-20 -266h-328l-22 266h-406z" />
<glyph unicode="&#x462;" horiz-adv-x="1378" d="M677 315h51q106 0 151.5 18.5t45.5 71.5t-48 71t-149 18h-51v-179zM32 909v337h220v77h423v-77h411v-337h-409v-129h71q298 0 440.5 -86.5t142.5 -278.5q0 -415 -583 -415h-496v909h-220z" />
<glyph unicode="&#x463;" horiz-adv-x="1339" d="M641 292h98q79 0 110 20t31 78q0 49 -34.5 68t-103.5 19h-101v-185zM0 733v332h226v213h415v-213h320v-290l-318 -11v-22h105q283 0 419 -82.5t136 -269.5q0 -201 -135 -295.5t-422 -94.5h-520v733h-226z" />
<glyph unicode="&#x490;" horiz-adv-x="977" d="M130 0v1246h541l22 191h285l21 -528h-443v-909h-426z" />
<glyph unicode="&#x491;" horiz-adv-x="853" d="M96 0v1065h413l42 258h282l21 -590h-342v-733h-416z" />
<glyph unicode="&#x2000;" horiz-adv-x="836" />
<glyph unicode="&#x2001;" horiz-adv-x="1672" />
<glyph unicode="&#x2002;" horiz-adv-x="836" />
<glyph unicode="&#x2003;" horiz-adv-x="1672" />
<glyph unicode="&#x2004;" horiz-adv-x="557" />
<glyph unicode="&#x2005;" horiz-adv-x="418" />
<glyph unicode="&#x2006;" horiz-adv-x="278" />
<glyph unicode="&#x2007;" horiz-adv-x="278" />
<glyph unicode="&#x2008;" horiz-adv-x="209" />
<glyph unicode="&#x2009;" horiz-adv-x="334" />
<glyph unicode="&#x200a;" horiz-adv-x="92" />
<glyph unicode="&#x2010;" horiz-adv-x="857" d="M59 419v325h740v-325h-740z" />
<glyph unicode="&#x2011;" horiz-adv-x="857" d="M59 419v325h740v-325h-740z" />
<glyph unicode="&#x2012;" horiz-adv-x="857" d="M59 419v325h740v-325h-740z" />
<glyph unicode="&#x2013;" horiz-adv-x="1362" d="M57 419v325h1248v-325h-1248z" />
<glyph unicode="&#x2014;" horiz-adv-x="1748" d="M57 419v325h1634v-325h-1634z" />
<glyph unicode="&#x2018;" horiz-adv-x="523" d="M36 978q0 99 35 188.5t84.5 146.5t98.5 100.5t83 60.5l35 19l184 -149q-12 -13 -32 -38.5t-51.5 -110.5t-31.5 -179q0 -140 65 -283l-404 -45q-66 153 -66 290z" />
<glyph unicode="&#x2019;" horiz-adv-x="523" d="M-17 837q13 13 32 38.5t51 110.5t32 179q0 140 -66 284l405 44q65 -152 65 -290q0 -100 -34.5 -189t-83.5 -146t-98.5 -100.5t-84.5 -60.5l-35 -19z" />
<glyph unicode="&#x201a;" horiz-adv-x="523" d="M-17 -228q13 13 32 38.5t51 110.5t32 179q0 140 -66 284l405 44q65 -152 65 -290q0 -100 -34.5 -189t-83.5 -146t-98.5 -100.5t-84.5 -60.5l-35 -18z" />
<glyph unicode="&#x201c;" horiz-adv-x="1047" d="M561 978q0 99 34.5 188.5t83.5 146.5t98.5 100.5t82.5 60.5l36 19l184 -149q-13 -13 -32 -38.5t-51 -110.5t-32 -179q0 -140 66 -283l-405 -45q-65 153 -65 290zM36 978q0 99 35 188.5t84.5 146.5t98.5 100.5t83 60.5l35 19l184 -149q-12 -13 -32 -38.5t-51.5 -110.5 t-31.5 -179q0 -140 65 -283l-404 -45q-66 153 -66 290z" />
<glyph unicode="&#x201d;" horiz-adv-x="1047" d="M506 837q13 13 32.5 38.5t51.5 110.5t32 179q0 140 -66 284l405 44q65 -152 65 -290q0 -100 -34.5 -189t-84 -146t-98.5 -100.5t-85 -60.5l-33 -19zM-17 837q13 13 32 38.5t51 110.5t32 179q0 140 -66 284l405 44q65 -152 65 -290q0 -100 -34.5 -189t-83.5 -146 t-98.5 -100.5t-84.5 -60.5l-35 -19z" />
<glyph unicode="&#x201e;" horiz-adv-x="1047" d="M506 -228q13 13 32.5 38.5t51.5 110.5t32 179q0 140 -66 284l405 44q65 -152 65 -290q0 -100 -34.5 -189t-84 -146t-98.5 -100.5t-85 -60.5l-33 -18zM-17 -228q13 13 32 38.5t51 110.5t32 179q0 140 -66 284l405 44q65 -152 65 -290q0 -100 -34.5 -189t-83.5 -146 t-98.5 -100.5t-84.5 -60.5l-35 -18z" />
<glyph unicode="&#x2022;" horiz-adv-x="1034" d="M124 716q0 142 112 249q104 85 258 85q156 0 260 -85q108 -104 108 -249q0 -149 -108 -249q-106 -87 -260 -87q-151 0 -258 87q-112 100 -112 249z" />
<glyph unicode="&#x2026;" horiz-adv-x="2201" d="M1557 179q0 96 75 166q70 57 172 57t173 -57q73 -70 72 -166q0 -100 -72 -167q-71 -57 -173.5 -57t-171.5 57q-75 69 -75 167zM852 179q0 96 75 166q70 57 172 57t173 -57q73 -70 72 -166q0 -100 -72 -167q-71 -57 -173.5 -57t-171.5 57q-75 69 -75 167zM147 179 q0 96 75 166q70 57 172 57t173 -57q73 -70 72 -166q0 -100 -72 -167q-71 -57 -173 -57t-172 57q-75 69 -75 167z" />
<glyph unicode="&#x202f;" horiz-adv-x="334" />
<glyph unicode="&#x2039;" horiz-adv-x="896" d="M181 532l413 420l179 -196l-224 -226l222 -225l-179 -203z" />
<glyph unicode="&#x203a;" horiz-adv-x="896" d="M120 298l225 226l-221 226l179 202l410 -430l-412 -420z" />
<glyph unicode="&#x205f;" horiz-adv-x="418" />
<glyph unicode="&#x20ac;" horiz-adv-x="1250" d="M66 435v153h100v32q0 42 2 63l-102 37v154h130q110 415 590 415q108 0 196.5 -22.5t123.5 -43.5l34 -24l-45 -279q-153 51 -235 51q-185 0 -240 -97h441v-218h-480v-68h480v-218h-443q51 -102 242 -102q36 0 95 13t100 26l40 12l45 -278q-13 -11 -38 -26t-116.5 -39.5 t-199.5 -24.5q-492 0 -597 439z" />
<glyph unicode="&#x2122;" horiz-adv-x="2122" d="M890 575v874h328l243 -429h15l245 429h326v-874h-330v384h-13l-121 -241h-228l-122 241h-12v-384h-331zM26 1175v274h762v-274h-209v-600h-343v600h-210z" />
<glyph unicode="&#x25fc;" horiz-adv-x="1064" d="M0 1065h1065v-1065h-1065v1065z" />
</font>
</defs>
</svg>
