<?xml version="1.0" encoding="utf-8"?>
<!-- Generator: Adobe Illustrator 16.0.3, SVG Export Plug-In . SVG Version: 6.00 Build 0)  -->
<!DOCTYPE svg PUBLIC "-//W3C//DTD SVG 1.1 Basic//EN" "http://www.w3.org/Graphics/SVG/1.1/DTD/svg11-basic.dtd">
<svg version="1.1" baseProfile="basic" id="Layer_1"
	 xmlns="http://www.w3.org/2000/svg" xmlns:xlink="http://www.w3.org/1999/xlink" x="0px" y="0px" width="34px" height="34px"
	 viewBox="0 0 34 34" xml:space="preserve">
<path opacity="0.5" fill-rule="evenodd" clip-rule="evenodd" fill="#2C2C2C" d="M2.1,0H31.9C33.06,0,34,0.941,34,2.102V31.9
	c0,1.16-0.94,2.1-2.1,2.1H2.1C0.94,34,0,33.061,0,31.9V2.102C0,0.941,0.94,0,2.1,0z"/>
<path fill="#FFFFFF" d="M31.9,1C32.507,1,33,1.494,33,2.102V31.9c0,0.605-0.493,1.1-1.1,1.1H2.1C1.493,33,1,32.506,1,31.9V2.102
	C1,1.494,1.493,1,2.1,1H31.9 M31.9,0H2.1C0.94,0,0,0.941,0,2.102V31.9c0,1.16,0.94,2.1,2.1,2.1H31.9c1.159,0,2.1-0.939,2.1-2.1
	V2.102C34,0.941,33.06,0,31.9,0L31.9,0z"/>
<path fill="#FFFFFF" d="M24.968,17L12,24.504V9.496L24.968,17z"/>
</svg>
