<svg xmlns="http://www.w3.org/2000/svg" viewBox="5096.878 1071.184 39.199 33.816"><defs><style>.a{fill:#b5121b;}.b{fill:#fff;}</style></defs><g transform="translate(5067.247 1045.62)"><g transform="translate(29.632 25.564)"><path class="a" d="M29.632,42.472a40.493,40.493,0,0,0,2.119,13.068s6.1,3.841,17.48,3.841,17.48-3.841,17.48-3.841a41.352,41.352,0,0,0,0-26.135s-6.1-3.841-17.48-3.841S31.751,29.4,31.751,29.4A40.489,40.489,0,0,0,29.632,42.472Z" transform="translate(-29.632 -25.564)"/></g><g transform="translate(39.059 30.554)"><path class="b" d="M72.711,56.036a6.187,6.187,0,1,1,0-8.751l4.052-4.052a11.918,11.918,0,1,0,0,16.855Z" transform="translate(-56.418 -39.743)"/></g></g></svg>