<?xml version="1.0" encoding="utf-8"?>
<!DOCTYPE svg PUBLIC "-//W3C//DTD SVG 1.1//EN" "http://www.w3.org/Graphics/SVG/1.1/DTD/svg11.dtd">
<svg version="1.1" xmlns="http://www.w3.org/2000/svg"  xmlns:xlink="http://www.w3.org/1999/xlink" xml:space="preserve" x="0px" y="0px" width="108px" height="37px" viewBox="0 0 400 137" enable-background="new 0 0 100 37">
	<path  fill="#7f47b4" d="M388.161,0.019H250.729c-6.534,0-11.829,5.284-11.829,11.802v81.704c0,6.516,5.295,11.798,11.829,11.798 h56.331l-12.976,31.659l37.207-31.659h56.87c6.531,0,11.828-5.282,11.828-11.798V11.82 C399.989,5.303,394.692,0.019,388.161,0.019z"/>
			<path fill-rule="evenodd" clip-rule="evenodd" fill="#FFFFFF" d="M40.965,23.202L29.405,52.45l-0.688,1.912h-0.383l-13.779-31.16 H2l19.368,40.145c-0.868,2.422-1.952,4.123-3.253,5.104s-3.011,1.472-5.129,1.472c-3.343,0-6.137-0.459-8.383-1.376v10.17 c2.756,0.765,5.729,1.146,8.918,1.146c3.726,0,6.89-0.529,9.493-1.587c2.603-1.057,4.854-2.669,6.756-4.836 c1.9-2.166,3.936-5.735,6.104-10.705l17.301-39.533H40.965z M80.068,56.694v-0.383c5.689-1.452,8.535-4.588,8.535-9.405 c0-3.491-1.607-6.257-4.822-8.296c-3.216-2.039-7.49-3.059-12.823-3.059c-3.521,0-6.711,0.248-9.568,0.745 c-2.858,0.497-5.806,1.319-8.842,2.466l3.444,8.144c2.041-0.841,4.307-1.503,6.794-1.987c2.488-0.484,4.714-0.727,6.68-0.727 c3.112,0,5.346,0.344,6.698,1.032s2.028,1.721,2.028,3.097c0,1.555-0.925,2.689-2.774,3.402 c-1.851,0.714-4.983,1.071-9.397,1.071h-4.287v8.066h4.517c4.134,0,7.196,0.415,9.187,1.243s2.985,2.109,2.985,3.842 c0,1.581-0.944,2.798-2.832,3.651c-1.889,0.854-4.733,1.281-8.536,1.281c-2.449,0-4.982-0.293-7.598-0.88 c-2.615-0.586-5.021-1.389-7.215-2.408v9.635c3.828,1.759,9.313,2.638,16.459,2.638c4.312,0,8.063-0.548,11.253-1.644 c3.189-1.096,5.627-2.65,7.311-4.665c1.685-2.013,2.526-4.32,2.526-6.92c0-2.574-0.746-4.657-2.239-6.251 C86.059,58.791,83.563,57.562,80.068,56.694z M122.96,52.795h-16.306v-16.44H94.98v42.744h11.674V61.474h16.306v17.625h11.675 V36.354H122.96V52.795z M173.699,39.222c-3.063-2.497-7.464-3.747-13.205-3.747c-5.997,0-11.458,1.288-16.383,3.862l3.866,7.876 c4.618-2.064,8.638-3.098,12.057-3.098c4.44,0,6.66,2.167,6.66,6.5v1.873l-7.425,0.229c-6.405,0.229-11.196,1.422-14.373,3.575 c-3.177,2.154-4.766,5.499-4.766,10.036c0,4.333,1.18,7.672,3.541,10.017c2.359,2.346,5.594,3.518,9.703,3.518 c3.342,0,6.053-0.478,8.133-1.434s4.102-2.67,6.067-5.143h0.306l2.259,5.812h8.152V50.615 C178.292,45.518,176.762,41.72,173.699,39.222z M166.694,62.812c0,2.575-0.811,4.64-2.431,6.193 c-1.62,1.556-3.783,2.333-6.487,2.333c-3.776,0-5.665-1.645-5.665-4.933c0-2.294,0.829-4.001,2.488-5.123 c1.658-1.121,4.185-1.733,7.578-1.835l4.517-0.153V62.812z M194.87,28.517c2.896,2.09,7.368,3.135,13.415,3.135 c5.869,0,10.36-1.089,13.474-3.269s4.912-5.652,5.396-10.419h-10.563c-0.281,2.422-1.053,4.213-2.316,5.372 c-1.263,1.16-3.184,1.739-5.76,1.739c-2.936,0-4.971-0.528-6.105-1.586c-1.136-1.058-1.793-2.899-1.972-5.525h-10.449 C190.347,22.909,191.974,26.427,194.87,28.517z M216.553,36.354l-19.75,29.975c0.587-6.933,0.88-11.291,0.88-13.076V36.354 h-11.291v42.744H200.4L220.074,49.2c-0.511,5.531-0.766,9.813-0.766,12.847v17.052h11.292V36.354H216.553z"/>
			<path fill-rule="evenodd" clip-rule="evenodd" fill="#FFFFFF" d="M278.107,57.848v-0.318c2.837-0.478,4.984-1.558,6.442-3.241 c1.457-1.684,2.187-3.72,2.187-6.105c0-3.819-1.478-6.716-4.431-8.691c-2.954-1.975-7.397-2.963-13.33-2.963h-22.171v44.469 h22.171c6.14,0,10.859-1.134,14.162-3.401c3.302-2.267,4.952-5.562,4.952-9.884c0-2.625-0.896-4.833-2.688-6.623 C283.607,59.299,281.177,58.219,278.107,57.848z M258.606,45.08h9.905c4.179,0,6.269,1.352,6.269,4.057 c0,1.671-0.646,2.878-1.935,3.619c-1.291,0.743-3.187,1.114-5.688,1.114h-8.551V45.08z M273.909,71.152 c-1.303,0.968-3.205,1.452-5.707,1.452h-9.596V62.104h9.363c2.631,0,4.604,0.392,5.92,1.173c1.315,0.783,1.974,2.049,1.974,3.799 S275.212,70.185,273.909,71.152z M314.084,45.478c1.6,0,3.198,0.245,4.798,0.735c1.6,0.491,3.328,1.121,5.185,1.89l3.482-9.387 c-3.973-2.015-8.461-3.023-13.465-3.023c-6.836,0-12.085,1.996-15.748,5.986c-3.663,3.991-5.494,9.765-5.494,17.322 c0,15.194,6.732,22.791,20.197,22.791c2.967,0,5.424-0.238,7.371-0.716s3.876-1.339,5.785-2.585V68.109 c-1.935,1.326-3.87,2.301-5.805,2.924s-4.037,0.935-6.307,0.935c-6.14,0-9.209-4.349-9.209-13.046 C304.875,49.959,307.944,45.478,314.084,45.478z M352.072,35.692c-6.397,0-11.408,2.036-15.031,6.105 c-3.625,4.071-5.437,9.832-5.437,17.282c0,7.239,1.96,12.835,5.881,16.785c3.921,3.952,9.364,5.927,16.328,5.927 c3.379,0,6.242-0.259,8.59-0.775c2.348-0.518,4.553-1.306,6.617-2.367v-9.387c-2.528,1.221-4.953,2.108-7.274,2.665 c-2.322,0.557-4.785,0.835-7.391,0.835c-3.354,0-5.959-0.967-7.815-2.903c-1.857-1.936-2.851-4.627-2.979-8.074h27.897v-5.887 c0-6.311-1.703-11.256-5.107-14.836C362.945,37.482,358.187,35.692,352.072,35.692z M343.831,53.711 c0.206-2.996,1.019-5.31,2.438-6.94s3.379-2.446,5.882-2.446c2.501,0,4.488,0.815,5.958,2.446 c1.471,1.631,2.231,3.944,2.283,6.94H343.831z M344.296,30.402c1.676,0,3.004-0.483,3.985-1.451 c0.979-0.968,1.47-2.248,1.47-3.839c0-1.617-0.483-2.916-1.451-3.897c-0.967-0.98-2.302-1.472-4.004-1.472 c-1.651,0-2.96,0.464-3.928,1.392c-0.968,0.929-1.451,2.255-1.451,3.978c0,1.671,0.483,2.971,1.451,3.898 C341.336,29.939,342.645,30.402,344.296,30.402z M359.966,30.402c1.65,0,2.979-0.477,3.985-1.432 c1.006-0.954,1.509-2.24,1.509-3.858c0-1.67-0.496-2.982-1.489-3.938c-0.993-0.954-2.328-1.432-4.005-1.432 c-1.548,0-2.844,0.431-3.889,1.292c-1.045,0.862-1.566,2.222-1.566,4.077c0,1.804,0.521,3.137,1.566,3.998 S358.418,30.402,359.966,30.402z M384.219,68.547c-2.219,0-3.908,0.57-5.068,1.711c-1.161,1.14-1.741,2.823-1.741,5.051 c0,2.148,0.593,3.813,1.779,4.992s2.863,1.77,5.03,1.77c2.115,0,3.766-0.604,4.952-1.81s1.78-2.856,1.78-4.952 c0-2.174-0.587-3.845-1.761-5.012C388.017,69.131,386.359,68.547,384.219,68.547z M388.978,61.706l1.974-38.86h-13.388 l1.974,38.86H388.978z"/>
		
</svg>