<?xml version="1.0" encoding="utf-8"?>
<!DOCTYPE svg PUBLIC "-//W3C//DTD SVG 1.1//EN" "http://www.w3.org/Graphics/SVG/1.1/DTD/svg11.dtd">
<svg version="1.1" xmlns="http://www.w3.org/2000/svg"  xmlns:xlink="http://www.w3.org/1999/xlink" xml:space="preserve" width="25" height="25" viewBox="0 0 198 198" fill="#fff">
	<path id="svgvkontakte"  fill="#FFF" d="M163.096 68.91c.933-3.036 0-5.267-4.446-5.267h-14.698c-3.738 0-5.46 1.927-6.395 4.052 0 0-7.475 17.762-18.064 29.299-3.426 3.34-4.983 4.402-6.852 4.402-.934 0-2.287-1.063-2.287-4.099V68.91c0-3.643-1.084-5.267-4.199-5.267H83.057c-2.336 0-3.74 1.69-3.74 3.293 0 3.454 5.294 4.25 5.84 13.966v21.101c0 4.627-.857 5.465-2.726 5.465-4.983 0-17.104-17.84-24.293-38.255-1.409-3.967-2.822-5.57-6.578-5.57H36.86c-4.2 0-5.04 1.927-5.04 4.052 0 3.796 4.984 22.62 23.203 47.515 12.146 17.002 29.26 26.219 44.832 26.219 9.343 0 10.499-2.047 10.499-5.573v-12.85c0-4.094.885-4.911 3.843-4.911 2.18 0 5.918 1.062 14.639 9.26 9.966 9.715 11.609 14.074 17.215 14.074h14.698c4.2 0 6.3-2.047 5.088-6.087-1.325-4.026-6.083-9.868-12.397-16.792-3.426-3.947-8.565-8.197-10.122-10.323-2.18-2.732-1.558-3.947 0-6.375 0 0 17.908-24.593 19.777-32.942z" />
</svg>