<svg xmlns="http://www.w3.org/2000/svg" viewBox="12676 1514 60 50.015"><defs><style>.a{fill:#fff;fill-rule:evenodd;}</style></defs><path class="a" d="M131.109,76.163a12.887,12.887,0,0,0,.467-9.952c-3.689-9.05-19.162-11.164-34.558-4.71C82.2,67.72,72.852,79.606,75.47,88.566l-.8.06c-3.39-9.027,6.357-21.882,22.143-29A49.165,49.165,0,0,1,116.6,55c7.97,0,14.25,2.69,16.521,7.86C134.843,66.782,133.963,71.5,131.109,76.163ZM86.227,81.61A77.932,77.932,0,0,1,94,76.588q4.25-2.545,4.792-4.887a1.731,1.731,0,0,0-.452-1.771,2.6,2.6,0,0,0-1.865-.671A3.851,3.851,0,0,0,93.392,70.7a7.547,7.547,0,0,0-1.45,3.2H85.6A11.706,11.706,0,0,1,98.056,63.889a9.49,9.49,0,0,1,6.237,1.789q2.477,2.071,1.551,6.06a9.541,9.541,0,0,1-4.271,5.714q-.929.655-3.919,2.274-1.087.615-2.955,1.561c-1.244.637-2.087,1.085-2.532,1.357h11.082L101.9,88.5H81.787a11.307,11.307,0,0,1,1.55-3.7,15.334,15.334,0,0,1,2.89-3.191Zm19.631-3.919,14.266-13.459h6.581l-3.2,13.875h3l-1.234,5.334h-2.991L121.109,88.5h-6.717l1.165-5.059H104.532Zm10.931.412,1.711-7.4-7.41,7.4ZM90.132,104.5a.681.681,0,0,0,.162.286.585.585,0,0,0,.366.079h1.367q.311,0,.216-.305l-.732-2.365a6.44,6.44,0,0,0-.4-.957,1.19,1.19,0,0,0-.625-.555,1.275,1.275,0,0,0,.587-.542,4.792,4.792,0,0,0,.433-.982l.636-2.062q.1-.3-.216-.305H90.66a.586.586,0,0,0-.366.079.684.684,0,0,0-.162.286l-.587,1.866a1.5,1.5,0,0,1-.2.434.937.937,0,0,1-.257.25.876.876,0,0,1-.282.116,1.384,1.384,0,0,1-.287.03h-.66V97.034a.45.45,0,0,0-.043-.189.208.208,0,0,0-.21-.1H86.172a.25.25,0,0,0-.216.079.324.324,0,0,0-.06.2v7.564a.241.241,0,0,0,.276.269H87.6a.207.207,0,0,0,.21-.091.425.425,0,0,0,.043-.178V101.5h.625a1.222,1.222,0,0,1,.6.153,1.136,1.136,0,0,1,.444.69Zm5.25-1.464H97.77l.4,1.451a.907.907,0,0,0,.133.286.338.338,0,0,0,.276.091h1.487a.142.142,0,0,0,.156-.074.427.427,0,0,0-.013-.22l-2.415-7.446a.923.923,0,0,0-.137-.269.417.417,0,0,0-.33-.1H95.811a.436.436,0,0,0-.324.091.757.757,0,0,0-.144.262l-2.316,7.437a.325.325,0,0,0-.013.263.233.233,0,0,0,.18.055h1.332a.426.426,0,0,0,.264-.074.524.524,0,0,0,.156-.269Zm1.967-1.476H95.787l.36-1.36.4-1.482h.06l.384,1.5Zm8.035-1.707h-2.342V97.034a.452.452,0,0,0-.042-.19.207.207,0,0,0-.21-.091H101.4a.24.24,0,0,0-.2.079.324.324,0,0,0-.06.2V104.6a.235.235,0,0,0,.264.269h1.392a.212.212,0,0,0,.21-.085.408.408,0,0,0,.042-.183v-3.125h2.34V104.6a.235.235,0,0,0,.264.269h1.392a.214.214,0,0,0,.21-.085.414.414,0,0,0,.041-.183V97.034a.455.455,0,0,0-.041-.189.209.209,0,0,0-.21-.091h-1.394a.24.24,0,0,0-.2.08.326.326,0,0,0-.06.2v2.817Zm5.2,3.184h2.389l.4,1.451a.918.918,0,0,0,.131.286.339.339,0,0,0,.276.091h1.487a.143.143,0,0,0,.156-.074.425.425,0,0,0-.011-.22L113,97.124a.938.938,0,0,0-.137-.269.419.419,0,0,0-.33-.1h-1.512a.436.436,0,0,0-.324.091.75.75,0,0,0-.144.262l-2.316,7.441a.33.33,0,0,0-.013.263.235.235,0,0,0,.18.055h1.332A.426.426,0,0,0,110,104.8a.525.525,0,0,0,.156-.269Zm1.969-1.476H111l.36-1.36.4-1.482h.06l.384,1.5Zm6.875-3.147h1.307V104.6a.241.241,0,0,0,.276.269h1.427a.211.211,0,0,0,.21-.085.4.4,0,0,0,.042-.183V97.046a.236.236,0,0,0-.25-.281h-4.464a.241.241,0,0,0-.264.281q-.06,1.147-.132,2.281t-.15,2.3a7.165,7.165,0,0,1-.1.891,1.657,1.657,0,0,1-.2.555.881.881,0,0,1-.336.324,2.135,2.135,0,0,1-.5.182.642.642,0,0,0-.216.091.314.314,0,0,0-.047.214,3.033,3.033,0,0,0,.017.4,3.036,3.036,0,0,1,.019.4.321.321,0,0,0,.077.25.652.652,0,0,0,.39.074,3.764,3.764,0,0,0,1.236-.2,1.842,1.842,0,0,0,.791-.542,2.319,2.319,0,0,0,.445-.9,8.014,8.014,0,0,0,.215-1.262q.074-.726.1-1.647t.1-2.044h0Z" transform="translate(12602 1459)"/></svg>