<svg xmlns="http://www.w3.org/2000/svg" viewBox="4738 5598 67.016 29.1"><defs><style>.a{fill:#b42025;}</style></defs><g transform="translate(4736 5597.2)"><path class="a" d="M68.4,2.4a2.175,2.175,0,0,0-1.6-.7H63.1a1.782,1.782,0,0,0-1.3.6,1.613,1.613,0,0,0-.7,1.4v6.5s-.2.8-.5.8H57.9c-.4,0-.5-.3-.5-.8V3.7c0-.8-.4-1-.7-1.4A3.161,3.161,0,0,0,55,1.7H51.2c-.7,0-.9.3-1.3.7a1.613,1.613,0,0,0-.7,1.4V26.7a1.613,1.613,0,0,0,.7,1.4c.4.4.6.7,1.3.7H55a2.175,2.175,0,0,0,1.6-.7,1.613,1.613,0,0,0,.7-1.4V19.9c0-.6.1-.8.5-.8h2.7c.3,0,.5.1.5.8v6.8a1.719,1.719,0,0,0,.7,1.4c.4.4.6.7,1.3.7h3.7a2.175,2.175,0,0,0,1.6-.7,1.613,1.613,0,0,0,.7-1.4V3.8a1.45,1.45,0,0,0-.6-1.4ZM68,26.8c0,.7-.6.9-1.2.9H63.1c-.7,0-.9-.3-.9-.9v-8s-.1-.7-.6-.7H56.8c-.5,0-.6.7-.6.7v8c0,.7-.6.9-1.2.9H51.2c-.7,0-.9-.3-.9-.9V3.8c0-.7.3-.9.9-.9H55c.7,0,1.2.3,1.2.9v7.8c0,.4.2.7.6.7h4.8c.5,0,.6-.2.6-.7V3.8c0-.7.3-.9.9-.9h3.7c.7,0,1.2.3,1.2.9v23ZM66.1,3.7H63.7a.56.56,0,0,0-.6.5v8.3c0,.5,0,.8-.5.8H55.9a.773.773,0,0,1-.7-.8V4.3c0-.4-.2-.6-.5-.6H52c-.5,0-.8.3-.8.6V26.2c0,.4.2.7.8.7h2.6a.72.72,0,0,0,.6-.7V17.8a.773.773,0,0,1,.7-.8h6.7c.5,0,.5.4.5.8v8.4c0,.5.6.7.6.7h2.8c.5,0,.7-.2.7-.7V4.3c-.1-.4-.4-.6-1.1-.6ZM20.2,1.9H4.3a2.258,2.258,0,0,0-1.6.8A1.327,1.327,0,0,0,2,4V7.1c0,.5.2.6.4,1a2.076,2.076,0,0,0,1.1.8,1.952,1.952,0,0,0,.7.1h3c.3,0,.5.1.5.6V26.8a1.806,1.806,0,0,0,.7,1.5A2.175,2.175,0,0,0,10,29h4c.7,0,.9-.3,1.3-.7a1.806,1.806,0,0,0,.7-1.5V9.6s0-.7.5-.7h3.2a2.042,2.042,0,0,0,.9-.2,2.3,2.3,0,0,0,.8-.7c.3-.4.5-.5.5-1L22,4a1.806,1.806,0,0,0-.7-1.5,1.059,1.059,0,0,0-1.1-.6Zm.7,5.3a1.08,1.08,0,0,1-.3.7c-.2.2-.3-.1-.7-.1H15.7c-.6,0-.7.5-.7.8V26.9c0,.7-.3.9-.9.9h-4a1.108,1.108,0,0,1-1.2-.9C9,26.9,9,9,9,8.6a.789.789,0,0,0-.8-.8H4.3c-.4,0-.7.3-.9.1a.908.908,0,0,1-.3-.7V3.8c0-.6.6-.8,1.2-.8H20.2c.6,0,.7.1.7.8V7.2ZM19.5,3.9H5.1a.562.562,0,0,0-.6.5V6.6c-.1.2.1.4.3.4H9.6a.858.858,0,0,1,.7.8V26.4s.2.5.3.5h3c.2,0,.4-.1.4-.5V7.7a.773.773,0,0,1,.8-.7h4.8c.3,0,.4-.3.4-.7v-2c0-.3-.1-.4-.5-.4ZM34.6.8a11.365,11.365,0,0,0-7.7,2.9,9.119,9.119,0,0,0-3,7v9.1a11.184,11.184,0,0,0,2.9,7.1,11.233,11.233,0,0,0,7.7,3c5.5,0,10.8-2.4,10.8-9.3v-.3a3.361,3.361,0,0,0-.4-1.9,1.557,1.557,0,0,0-1.4-.6H39.4a1.686,1.686,0,0,0-1.9,1.8c0,.8-.7,1.7-2.7,1.7a2.047,2.047,0,0,1-2.3-2.2V11.5a2.151,2.151,0,0,1,2.3-2.2c2.1,0,2.7.9,2.7,1.7a1.686,1.686,0,0,0,1.9,1.8h4.1a1.678,1.678,0,0,0,1.4-.6c.4-.4.4-1,.4-1.9V10C45.3,1.8,37.4.8,34.6.8Zm8.8,11H39.9s-1.3-.1-1.4-1.2C38.3,8.5,36.4,8,34.9,8c-3.4,0-3.7,2.4-3.7,3.2v8.1c0,.8.3,3.2,3.7,3.2,1.2,0,3.4-.3,3.6-2.6.1-1.1.7-1.2,1.4-1.2h3.5c.6,0,.7.5.7,1.6,0,5.2-4.1,8.1-9.5,8.1a9.185,9.185,0,0,1-9.5-9.2V11a9.019,9.019,0,0,1,9.4-9.1c5.4,0,9.6,2.9,9.6,8.1C44.1,11.3,44,11.8,43.4,11.8ZM34.5,3.4c-4.8,0-8.5,3.7-8.5,7.8v8.2c0,4.1,3.8,8,8.6,8,4,0,8.1-2.1,8.4-6.6,0-.4-.2-.8-.5-.8H40.4c-.4,0-.8.1-.8.5-.4,2.3-2.1,3.5-4.9,3.5a4.655,4.655,0,0,1-4.8-4.7V11.1a4.715,4.715,0,0,1,4.8-4.7c2.9,0,4.4,1,4.9,3.5.1.4.4.5.8.5h2.1c.3,0,.5-.3.5-.8-.2-4.3-4.4-6.2-8.5-6.2Z"/></g></svg>