<svg xmlns="http://www.w3.org/2000/svg" viewBox="4853.6 5724.9 66.1 41"><defs><style>.a{fill:#fff;}</style></defs><g transform="translate(4736 5597.2)"><path class="a" d="M148.6,167.9a.817.817,0,0,0,.9.8h2.4a.882.882,0,0,0,.9-.8V154.8l-4.2,8.1v5Zm-2.1-36.2h8.2v-1.1h-8.2Zm6.7-4h-5.1a1.538,1.538,0,0,0-1.5,1.5v.6h8.2v-.6a1.708,1.708,0,0,0-1.6-1.5Zm-6.7,6h8.2v-1.1h-8.2Zm0,1.4a1.538,1.538,0,0,0,1.5,1.5h5.1a1.538,1.538,0,0,0,1.5-1.5v-.6h-8.2l.1.6Zm21.5,5h-7.2a4.2,4.2,0,0,0-4.2,4.1v23.6a.789.789,0,0,0,.8.8h2.5a.879.879,0,0,0,.9-.8V156.7h3.9v11a.855.855,0,0,0,.8.8h2.6s.8,0,.8-1V141a.915.915,0,0,0-.9-.9Zm-3.3,13.5h-3.9v-9.4h3.9ZM151.9,140h-2.4a.882.882,0,0,0-.9.8V156l4.2-8.1v-7a1.055,1.055,0,0,0-.9-.9Zm-8.1,0h-2.4a.882.882,0,0,0-.9.8v11.7h-3.9V140.8a.817.817,0,0,0-.9-.8h-2.4a.882.882,0,0,0-.9.8v26.9a.817.817,0,0,0,.9.8h2.4a.882.882,0,0,0,.9-.8v-12h3.9v12a.817.817,0,0,0,.9.8h2.4a.882.882,0,0,0,.9-.8V140.8A.962.962,0,0,0,143.8,140Zm39,0h-2.4a.882.882,0,0,0-.9.8v11.7h-3.9V140.8a.817.817,0,0,0-.9-.8h-2.4a.882.882,0,0,0-.9.8v26.9a.817.817,0,0,0,.9.8h2.4a.882.882,0,0,0,.9-.8v-12h3.9v12a.817.817,0,0,0,.9.8h2.4a.882.882,0,0,0,.9-.8V140.8A.962.962,0,0,0,182.8,140ZM129,140h-2.4a.882.882,0,0,0-.9.8v15.4h-3.9V140.7a.817.817,0,0,0-.9-.8h-2.4a.961.961,0,0,0-.9.8v15.5a4.206,4.206,0,0,0,4.2,4.1h3.9v4.1h-4v-.8c0-.2-.1-.3-.1-.5,0-.1-.1-.1-.1-.2a1.421,1.421,0,0,0-.6-.2h-2.4a1.421,1.421,0,0,0-.6.2,2.186,2.186,0,0,0-.3.5v1.2a3.528,3.528,0,0,0,3.8,3.9h4.4a4.206,4.206,0,0,0,4.2-4.1V140.8a1.077,1.077,0,0,0-1-.8Z"/></g></svg>