<svg xmlns="http://www.w3.org/2000/svg" viewBox="4857.46 5633.065 62.04 47.176"><defs><style>.a{fill:#e40887;}</style></defs><g transform="translate(4736 5597.2)"><path class="a" d="M158.2,67.4c.6-1.6,3.8-11.7,7-14.9,3.3-3.3,5.1-2,5.1-2a2.863,2.863,0,0,0-1.2-2.5c-1.8-1.4-4.1-.6-5.9,1a20,20,0,0,0-3.1,5.2,73.445,73.445,0,0,1-3.3,7.4c-.6.8-2,1-1.4-1.1a25.977,25.977,0,0,1,1.6-3.9c.9-2.4.3-3.3.1-3.6a2.4,2.4,0,0,0-1.5-1.1,5.422,5.422,0,0,0-2.4,0c.5,1.3,1.1,2.1-.5,6.6-.1.2-.1.4-.2.6a11.089,11.089,0,0,1-1.7,3,6.6,6.6,0,0,1-2.4,1.7c-.8.3-2.9.2-1.9-1.8a8.137,8.137,0,0,1,2.5-2.3c2.1-1.4,2.9-3.1,2.8-4.5a3.471,3.471,0,0,0-2.4-3.1,4.414,4.414,0,0,0-4.2,1,3.355,3.355,0,0,0-.9,3,4.982,4.982,0,0,1,1.9-1.4,2.294,2.294,0,0,1,1.4-.1,1.051,1.051,0,0,1,.5,1.7c-1.1,1.8-3.2,2.6-4.1,3.4a11.986,11.986,0,0,0-1.1,1.2c-1.2,1.5-1.9,2.7-2.9,3.3-.7.4-1.3.2-1.3-.4a11.891,11.891,0,0,1,1.3-3.5c.5-.9,1.8-3,2.2-3.8.6-1,1-2.3,0-3.1a3.377,3.377,0,0,0-3.9-.3c.1,1.3-.5,2.7-1.8,5.1-1.2,2.4-2.7,6.9.2,7.8a3.939,3.939,0,0,0,3.5-.5,9.127,9.127,0,0,0,2.2-2.2,2.85,2.85,0,0,0,2,2,7.878,7.878,0,0,0,7.8-3.2c.6,2.9,4.1,2.5,4.1,2.5a5.8,5.8,0,0,1-.8,1.9c-7-1.6-19.2,0-25.2,4.3a9.847,9.847,0,0,0-2.8,3,5.214,5.214,0,0,0-.9,3.5,4.87,4.87,0,0,0,1.9,3.6c2.7,2.1,8.4,2.7,13.5,1.6,8.9-2,13.5-9.8,14.4-11.2,9.4,3.9,4.8,10.6,3.9,11.3,2,.5,7.5-1.6,7-6.9-.3-5.1-7.4-7.8-9.1-8.3Zm-7.1,7.3c-1,1.2-2.9,3.1-7.5,4.9a17.015,17.015,0,0,1-5.7,1.3,13.432,13.432,0,0,1-6.9-1.2,2.842,2.842,0,0,1-1.6-1.9c-.3-1.2.8-2.8,4-4.7a24.184,24.184,0,0,1,10.9-3.2,24.993,24.993,0,0,1,9.9.8,33.3,33.3,0,0,1-3.1,4Z"/><path class="a" d="M181.6,50.9a3.377,3.377,0,0,0-3.9-.3c.1,1.3-.5,2.7-1.8,5.1-.9,1.7-1.9,4.6-1.4,6.3.6,2,3.2,1.7,3.7,1.6a1.751,1.751,0,0,0,1.7-1.9c-.9.7-1.3.7-1.6.4-.2-.2-.7-.6-.1-1.9.3-.7.7-1.6,1.1-2.4.5-.9,1.8-3,2.2-3.8.6-1,1-2.2.1-3.1Z"/><path class="a" d="M135.4,58.4a14.3,14.3,0,0,0,.6-4.9,7.209,7.209,0,0,0-.8-3,5.045,5.045,0,0,0-3-2.4c-3.9-1.5-5.6-1.2-7.1-1.9s-1.2-1.9-.3-2.3a6.867,6.867,0,0,1,2.4-.2,18.669,18.669,0,0,1,4.1,1c1.7.6,3.4,1.3,6.4,2.1,6,1.7,13.2-3.2,8.9-8.6-.8,1.5-5.4,5.7-14.8,2.9-5-1.5-9.1.1-10.1,2.1a3.715,3.715,0,0,0,1.4,4.3,13.408,13.408,0,0,0,3.4,1.3c.6.2,2.3.6,3.1.8a6.148,6.148,0,0,1,2.7,1.3,4.053,4.053,0,0,1,1.4,2.1,8.8,8.8,0,0,1,.2,2.7,10.036,10.036,0,0,1-4.9,7.9c-1.5.8-1.9-.3-1.6-1.9.4-1.8,1.4-4,2.4-4.8,1.8-1.6,2.7.2,2.7.2.7-.2,1.3-3.7-2.6-2.8-4.5,1.1-10,11-4.3,12.9,4.4,1.6,8.3-3.4,9.8-8.8Z"/><path class="a" d="M175.9,47.4a15.424,15.424,0,0,0-1.7-4.5,9.436,9.436,0,0,1,3.4-.8,5.811,5.811,0,0,1,3.9,1.4s2.6-1.5.4-4.2c-2.4-2.6-7-.8-10.1.8a14.2,14.2,0,0,0-14.7-3.5,12.3,12.3,0,0,0-7.1,4.8,5.59,5.59,0,0,0-.6,3.6c.5,3.1,4.1,4,7.6,3.7a26.9,26.9,0,0,0,6-1.6c3.2-1.2,6.6-2.9,8.4-3.4a8.37,8.37,0,0,1,2.5,6.5c-.3,4.4-4,8.5-4.5,9.2a10.1,10.1,0,0,1-1.3,1.2c-2.1,1.3-1.4-4.2.7-6.3,1.7-1.7,2.9-.4,2.9-.4.9-1.1.3-3.5-3.8-1.7-2.9,1.3-4.8,4.8-5.2,7.6-.3,2.5.4,4.8,2.1,5.1,3.3.7,6.7-3.7,7.9-5.6,1.9-2.8,4.3-6.4,3.2-11.9Zm-20.4-1.7c-1.5-1.6-.3-3.6.8-4.3a10.229,10.229,0,0,1,4.5-1.6c2.6-.2,6.3.4,8.2,1.9-2.9,1.8-11.1,6.5-13.5,4Z"/><circle class="a" cx="2.2" cy="2.2" r="2.2" transform="translate(139.6 48)"/><circle class="a" cx="2.2" cy="2.2" r="2.2" transform="translate(179.1 45.3)"/></g></svg>