<svg xmlns="http://www.w3.org/2000/svg" viewBox="4868.1 5685.6 52 26.8"><defs><style>.a{fill:#fff;}</style></defs><g transform="translate(4736 5597.2)"><path class="a" d="M141.3,102.8v12.4h-3v-9.5h-3.2v9.5h-3V102.8Z"/><path class="a" d="M141.3,88.4v12.5h-3V91.4h-3.2v9.5h-3V88.4Z"/><path class="a" d="M149,96l-1-2.5-.9,2.4-1.8,5h-3.2l4.8-12.5h2.2l5,12.5h-3.3Z"/><path class="a" d="M181.1,95.8a3.124,3.124,0,0,1-3,2.1,3.3,3.3,0,1,1,3-4.5h3a6.029,6.029,0,0,0-6-5,6.2,6.2,0,1,0,6,7.3l-3,.1Z"/><path class="a" d="M165,97.8a3.3,3.3,0,1,1,3.2-3.3,3.125,3.125,0,0,1-3.2,3.3m0-9.4a6.209,6.209,0,0,0-5.9,4.6h-1.2V88.4h-3v12.4h3V96h1.2a6.095,6.095,0,1,0,5.9-7.6"/><path class="a" d="M149,110.3l-1-2.5-.9,2.5-1.8,4.9h-3.2l4.8-12.5h2.2l5,12.5h-3.3Z"/><path class="a" d="M181.1,110.1a3.124,3.124,0,0,1-3,2.1,3.3,3.3,0,1,1,3-4.5h3a6.029,6.029,0,0,0-6-5,6.2,6.2,0,1,0,6,7.3l-3,.1Z"/><path class="a" d="M165,112.2a3.3,3.3,0,1,1,3.2-3.3,3.182,3.182,0,0,1-3.2,3.3m0-9.5a6.209,6.209,0,0,0-5.9,4.6h-1.2v-4.6h-3v12.4h3v-4.8h1.2a6.095,6.095,0,1,0,5.9-7.6"/></g></svg>