<svg xmlns="http://www.w3.org/2000/svg" viewBox="4860.1 5598.6 59.1 29.825"><defs><style>.a{fill:#da322c;}</style></defs><g transform="translate(4736 5597.2)"><path class="a" d="M163.5,14.4h-4.3V13.3h2.1V9h-2.1V7.9h4.3V1.4h13.1V14.5h6.5V21H163.5V14.4H170V7.9h-6.5Z"/><path class="a" d="M143.8,21H124.3V14.5h6.5V7.9h-6.5V1.4h13.1v13h6.4Z"/><path class="a" d="M156.9,10.1h2.2v2.2h-2.2v2.2h-2.1v2.2h-2.2V14.6h-2.2V12.4h-2.1V10.2h2.1V8h2.2V5.9h2.3V8H157A19.7,19.7,0,0,0,156.9,10.1Zm-1.6,2.7V9.6h-3.2v3.2Z"/><path class="a" d="M143.8,7.9h4.4v1h-2.1v4.4h2.1v1.1h-4.4Z"/><path class="a" d="M150.5,1.4h6.4V5.6h-1V3.5h-4.4V5.6h-1Z"/><path class="a" d="M155.9,18.9V16.7h1V21h-6.4V16.7h1v2.2Z"/><path class="a" d="M147.1,24.3c.6,0,1.3-.1,1.9-.1a1.5,1.5,0,0,1,1.4,1.3v5.3h-.9V26.1c0-1-.3-1.2-1.4-1.1v5.7h-.9c-.1-2-.1-4.1-.1-6.4Z"/><path class="a" d="M128.3,25.2v5.7h-.9V24.4c.6,0,1.2-.1,1.8-.1a1.442,1.442,0,0,1,1.5,1.3c.1,1.8,0,3.5,0,5.3h-.9V26.2c-.1-.9-.4-1.2-1.5-1Z"/><path class="a" d="M174.6,30.9h-.9V26.1c0-.9-.4-1.2-1.4-.9v5.7h-.9V24.4a4.073,4.073,0,0,1,2.2-.1,1.384,1.384,0,0,1,1.1,1.3c-.1,1.8-.1,3.5-.1,5.3Z"/><path class="a" d="M154.9,26.9v-.4c0-1.3,0-1.4-1.3-1.4h-.7q-.3-.6.3-.6a3.329,3.329,0,0,1,1.4-.1c.9.1,1.2.4,1.3,1.3V31c-1,.2-2,.5-2.9-.3-.8-.7-.6-1.7-.4-2.6.3-1.1,1.4-1.1,2.3-1.2Zm0,.9c-.5,0-1.1-.1-1.3.4a1.715,1.715,0,0,0,0,1.7c.3.5.8.4,1.3.3Z"/><path class="a" d="M179.1,26.9V25.7a.53.53,0,0,0-.6-.6h-1.4c-.1-.4-.1-.6.2-.7a12.1,12.1,0,0,1,1.9-.1c.4,0,.6.3.7.7,0,.1.1.3.1.4v5.4c-1,.2-1.9.5-2.8-.2a2.156,2.156,0,0,1-.5-2.4c.3-1.2,1.4-1.2,2.4-1.3Zm0,1a1.06,1.06,0,0,0-1.3.3c-.3.3-.2,1.4,0,1.8.2.3.6.4,1.3.2Z"/><path class="a" d="M165.7,27.7V26a1.628,1.628,0,0,1,1.7-1.7,1.685,1.685,0,0,1,1.7,1.7v3.5a1.71,1.71,0,0,1-1.8,1.7,1.55,1.55,0,0,1-1.6-1.7V27.7Zm.9-.1h0v1.9c0,.4.3.6.7.6a.749.749,0,0,0,.7-.6V25.9a.808.808,0,0,0-.7-.9c-.4,0-.7.3-.8.9a10.283,10.283,0,0,1,.1,1.7Z"/><path class="a" d="M140.6,28.2h-2.3a.438.438,0,0,1-.1.3c0,1.4,0,1.8,1.6,1.7.3,0,.7-.2.7.3,0,.4-.4.4-.7.4a4.869,4.869,0,0,1-1.2.1,1.546,1.546,0,0,1-1.4-1.6V25.9a1.651,1.651,0,0,1,3.3.1,15.482,15.482,0,0,1,.1,2.2Zm-2.3-.9h1.4V25.7a.751.751,0,0,0-.7-.7c-.4,0-.6.3-.7.7A8.533,8.533,0,0,0,138.3,27.3Z"/><path class="a" d="M158.1,23h.9c0,.5.1.9.1,1.3a6.6,6.6,0,0,1,1.4.1,2.485,2.485,0,0,0,.1.8c-.5,0-.9.1-1.4.1a4.331,4.331,0,0,1-.1.5v3.4c0,.9.1,1,1,1h.5c.2.3.1.5-.2.6-1.2.6-2.2,0-2.3-1.4V23Z"/><path class="a" d="M133,23h.9c0,.4.1.9.1,1.3.5,0,1,.1,1.5.1v.8c-.5,0-.9.1-1.4.1,0,.2-.1.3-.1.5v3.6c0,.8.1.8.8.9h.9c-.2.3-.2.6-.4.6a1.447,1.447,0,0,1-2.3-1.3V23.5C132.9,23.3,133,23.2,133,23Z"/><path class="a" d="M143.7,30.9h-.9c0-.2-.1-.3-.1-.5V25.2a.7.7,0,0,1,.6-.8l1.8-.3V25c-.5,0-.9.1-1.5.1.1,2,.1,3.9.1,5.8Z"/><path class="a" d="M183.2,31c-.7-.1-.8-.3-.9-.9V23h.9Z"/><path class="a" d="M125,30.9h-.9V24.4h.9Z"/><path class="a" d="M163.5,30.9h-.9V24.4h.9Z"/><path class="a" d="M158.1,17.7V15.6h2.1v2.1Z"/><path class="a" d="M158.1,4.6h2.1V6.7h-2.1Z"/><path class="a" d="M149.2,17.7h-2V15.6h2Z"/><path class="a" d="M147.2,6.7V4.6h2V6.7Z"/><path class="a" d="M163.5,23c0,.7,0,.7-.8.8V23Z"/><path class="a" d="M125,23c.1.7.1.7-.8.8V23Z"/></g></svg>