<svg xmlns="http://www.w3.org/2000/svg" viewBox="4742 5753 81.1 13.3"><defs><style>.a{fill:#fff;}.b{fill:#ff0003;}</style></defs><path class="a" d="M50.7,160.2V169h2.6V158.8Z" transform="translate(4736 5597.2)"/><path class="b" d="M12.8,162.2v-3.4H6v3.4H9.4v3.4H6V169H16.3v-3.4H12.8v-3.4Zm20.5,3.4v-6.8H26.5v3.4h3.4v3.4H26.5V169H36.7v-3.4H33.3Zm-10.2-3.4v-3.4H19.7v3.4H16.3v3.4h3.4V169h3.4v-3.4h3.4v-3.4Z" transform="translate(4736 5597.2)"/><path class="a" d="M64.6,163.9v-8.1H62v3.6a4.845,4.845,0,0,0-2.6-.7,5.2,5.2,0,1,0,0,10.4,5.279,5.279,0,0,0,2.6-.7v.6h2.6v-5.1m-2.6,0a2.6,2.6,0,1,1-5.2,0,2.647,2.647,0,0,1,2.6-2.6,2.521,2.521,0,0,1,2.6,2.6M43.2,169l-4.7-10.2h2.8l2.9,6.2,2.9-6.2h2.8L45.2,169Zm38.7-10.3a5.2,5.2,0,1,0,5.2,5.2,5.164,5.164,0,0,0-5.2-5.2m2.6,5.2a2.6,2.6,0,1,1-2.6-2.6,2.521,2.521,0,0,1,2.6,2.6m-13.9-5.2a5.2,5.2,0,1,0,0,10.4h.1a5.806,5.806,0,0,0,4.5-1.8L72.9,166c-1,.7-3.3,1.1-4.5-.6a1.612,1.612,0,0,1-.4-.7h7.6c0-.3.1-.6.1-.9a5,5,0,0,0-5.1-5.1M68.1,163a2.713,2.713,0,0,1,2.5-1.8,2.614,2.614,0,0,1,2.5,1.8Z" transform="translate(4736 5597.2)"/><path class="b" d="M53.3,157.3l-2.6-1.5v3Z" transform="translate(4736 5597.2)"/></svg>