<svg xmlns="http://www.w3.org/2000/svg" viewBox="1243 -347 20 20"><defs><style>.a{fill:#ff0202;}.b{fill:#fff;}</style></defs><g transform="translate(-17 -222)"><rect class="a" width="20" height="20" rx="3" transform="translate(1260 -125)"/><path class="b" d="M13.656,46.775c-.513-.61-1.46-.858-3.268-.858H3.822c-1.85,0-2.813.265-3.324.914C0,47.464,0,48.4,0,49.687v2.46c0,2.5.591,3.77,3.822,3.77h6.565c1.568,0,2.437-.219,3-.758s.823-1.453.823-3.012v-2.46C14.209,48.326,14.171,47.388,13.656,46.775ZM9.122,51.257,6.141,52.815a.458.458,0,0,1-.671-.406V49.3a.458.458,0,0,1,.67-.407l2.981,1.548a.458.458,0,0,1,0,.813Z" transform="translate(1263 -165.917)"/></g></svg>