<svg xmlns="http://www.w3.org/2000/svg" xmlns:xlink="http://www.w3.org/1999/xlink" viewBox="1209 -347 20 20"><defs><style>.a{fill:url(#a);}.b{fill:#fff;}</style><linearGradient id="a" x2="1" y2="1" gradientUnits="objectBoundingBox"><stop offset="0" stop-color="#5355dd"/><stop offset="0.232" stop-color="#a40fc6"/><stop offset="0.473" stop-color="#e80077"/><stop offset="0.744" stop-color="#f70"/><stop offset="1" stop-color="#ffda61"/></linearGradient></defs><g transform="translate(-9 -222)"><rect class="a" width="20" height="20" rx="3" transform="translate(1218 -125)"/><path class="b" d="M3.864,14A3.868,3.868,0,0,1,0,10.137V3.864A3.868,3.868,0,0,1,3.864,0h6.273A3.868,3.868,0,0,1,14,3.864v6.273A3.868,3.868,0,0,1,10.137,14ZM1.242,3.864v6.273a2.624,2.624,0,0,0,2.622,2.621h6.273a2.623,2.623,0,0,0,2.621-2.621V3.864a2.624,2.624,0,0,0-2.621-2.622H3.864A2.625,2.625,0,0,0,1.242,3.864ZM3.393,7A3.607,3.607,0,1,1,7,10.607,3.611,3.611,0,0,1,3.393,7ZM4.635,7A2.365,2.365,0,1,0,7,4.635,2.368,2.368,0,0,0,4.635,7Zm5.48-3.106a.909.909,0,1,1,.644.267A.918.918,0,0,1,10.115,3.894Z" transform="translate(1221 -122)"/></g></svg>