<svg width="106" height="106" viewBox="0 0 106 106" fill="none" xmlns="http://www.w3.org/2000/svg"><path fill="none" d="M3 3h100v100H3z"/><path d="M53 103c27.614 0 50-22.386 50-50S80.614 3 53 3 3 25.386 3 53s22.386 50 50 50z" stroke="#fff" stroke-width="5" stroke-miterlimit="10"/><path fill="none" d="M37.353 24.216h31.595v60.38H37.353z"/><path fill="none" d="M37.353 24.216h31.595v60.38H37.353z"/><path d="M62.547 34.277h6.4v-10.06h-9.6s-6.029-.142-9.865 4.844c0 0-2.617 2.475-2.652 9.689v7.567h-9.477v10.679h9.477v27.599h10.926v-27.6h9.406l1.308-10.678H57.756v-7.55c.035-.848.407-4.561 4.791-4.49z" fill="#fff"/></svg>