<svg width="54" height="54" viewBox="0 0 54 54" fill="none" xmlns="http://www.w3.org/2000/svg"><path fill="none" d="M1.262 1h51.217v51.485H1.262z"/><path d="M26.87 52.485c14.143 0 25.608-11.525 25.608-25.742C52.478 12.525 41.013 1 26.87 1S1.262 12.525 1.262 26.743c0 14.217 11.465 25.742 25.608 25.742z" fill="#fff" stroke="#fff" stroke-width="2" stroke-miterlimit="10"/><path fill="none" d="M18.855 11.923h16.182V43.01H18.855z"/><path fill="none" d="M18.855 11.923h16.182V43.01H18.855z"/><path d="M31.76 17.103h3.277v-5.18H30.12s-3.088-.072-5.053 2.495c0 0-1.34 1.274-1.358 4.988v3.896h-4.854V28.8h4.854v14.21h5.596V28.8h4.818l.67-5.498h-5.488v-3.887c.018-.437.209-2.349 2.454-2.312z" fill="#FF0143"/></svg>