<svg width="106" height="106" viewBox="0 0 106 106" fill="none" xmlns="http://www.w3.org/2000/svg"><path fill="none" d="M3 3h100v100H3z"/><path d="M53 103c27.614 0 50-22.386 50-50S80.614 3 53 3 3 25.386 3 53s22.386 50 50 50z" stroke="#fff" stroke-width="5" stroke-miterlimit="10"/><path d="M62.088 50.118H41.33v7.284h12.2c-1.769 5.216-6.63 8.964-12.36 8.964-7.213 0-13.065-5.958-13.065-13.295 0-7.338 5.852-13.296 13.066-13.296 3.04 0 5.976 1.079 8.327 3.041h.478l5.48-5.48c-8.68-7.833-22.082-7.179-29.915 1.502-7.832 8.681-7.16 22.1 1.503 29.933 8.664 7.832 22.083 7.178 29.915-1.503a21.175 21.175 0 0 0 4.739-8.699c.512-1.874.371-3.748.371-5.693v-2.758h.018zM87.477 49.906h-6.188v-6.188h-6.17v6.188H68.93v6.17h6.188v6.188h6.17v-6.188h6.189v-6.17z" fill="#fff"/></svg>