<svg width="54" height="54" viewBox="0 0 54 54" fill="none" xmlns="http://www.w3.org/2000/svg"><path fill="none" d="M1.783 1.515H53V53H1.783z"/><path d="M27.392 53C41.535 53 53 41.475 53 27.258 53 13.04 41.535 1.515 27.392 1.515S1.783 13.04 1.783 27.257C1.783 41.475 13.25 53 27.392 53z" fill="#fff" stroke="#fff" stroke-width="2" stroke-miterlimit="10"/><path d="M32.046 25.774H21.415v3.75h6.248c-.906 2.685-3.396 4.615-6.33 4.615-3.694 0-6.692-3.068-6.692-6.845 0-3.778 2.998-6.845 6.692-6.845a6.63 6.63 0 0 1 4.265 1.565h.245l2.807-2.822c-4.446-4.032-11.31-3.695-15.322.774-4.011 4.47-3.667 11.379.77 15.411 4.437 4.033 11.31 3.696 15.322-.774a10.92 10.92 0 0 0 2.426-4.478c.263-.965.19-1.93.19-2.931v-1.42h.01zM45.05 25.665h-3.17v-3.186h-3.16v3.186h-3.17v3.176h3.17v3.186h3.16v-3.186h3.17v-3.177z" fill="#FF0143"/></svg>