<svg width="55" height="54" viewBox="0 0 55 54" fill="none" xmlns="http://www.w3.org/2000/svg"><path fill="none" d="M1.89 1h51.218v51.485H1.89z"/><path d="M27.499 52.485c14.143 0 25.609-11.525 25.609-25.742C53.108 12.525 41.642 1 27.498 1 13.356 1 1.891 12.525 1.891 26.743c0 14.217 11.465 25.742 25.608 25.742z" fill="#fff" stroke="#fff" stroke-width="2" stroke-miterlimit="10"/><path fill="none" d="M13.527 13.034H41.21V40.86H13.527z"/><path fill="none" d="M13.527 13.034H41.21V40.86H13.527z"/><path fill="none" d="M13.527 13.034H41.21V40.86H13.527z"/><path d="M32.68 13.034H22.056c-4.708 0-8.53 3.841-8.53 8.575v10.677c0 4.734 3.822 8.575 8.53 8.575H32.68c4.71 0 8.53-3.841 8.53-8.575V21.6c0-4.734-3.82-8.566-8.53-8.566zm5.867 18.224c0 3.823-3.088 6.927-6.89 6.927h-8.585c-3.804 0-6.892-3.104-6.892-6.927v-8.63c0-3.823 3.088-6.927 6.892-6.927h8.584c3.803 0 6.891 3.104 6.891 6.927v8.63z" fill="#FF0143"/><path d="M27.735 19.66c-4.03 0-7.29 3.278-7.29 7.328 0 4.042 3.26 7.328 7.29 7.328s7.29-3.286 7.29-7.328c0-4.05-3.26-7.327-7.29-7.327zm0 11.734c-2.427 0-4.383-1.975-4.383-4.405 0-2.44 1.965-4.406 4.383-4.406s4.383 1.975 4.383 4.405a4.38 4.38 0 0 1-4.383 4.406zM36.375 19.552a1.864 1.864 0 0 1-1.857 1.866 1.864 1.864 0 0 1-1.856-1.866c0-1.03.833-1.867 1.856-1.867 1.033 0 1.857.829 1.857 1.867z" fill="#FF0143"/></svg>