<svg width="106" height="106" viewBox="0 0 106 106" fill="none" xmlns="http://www.w3.org/2000/svg"><path fill="none" d="M3 3h100v100H3z"/><path d="M53 103c27.614 0 50-22.386 50-50S80.614 3 53 3 3 25.386 3 53s22.386 50 50 50z" stroke="#fff" stroke-width="5" stroke-miterlimit="10"/><path fill="none" d="M25.72 26.373h54.048v54.05H25.72z"/><path fill="none" d="M25.72 26.373h54.048v54.05H25.72z"/><path fill="none" d="M25.72 26.373h54.048v54.05H25.72z"/><path d="M63.113 26.373H42.374c-9.194 0-16.655 7.461-16.655 16.655v20.74c0 9.193 7.461 16.654 16.655 16.654h20.74c9.193 0 16.654-7.461 16.654-16.655V43.01c0-9.193-7.461-16.637-16.655-16.637zM74.57 61.77c0 7.426-6.029 13.455-13.455 13.455h-16.76c-7.426 0-13.455-6.029-13.455-13.455V45.01c0-7.426 6.029-13.455 13.454-13.455h16.761c7.426 0 13.455 6.029 13.455 13.454V61.77z" fill="#fff"/><path d="M53.46 39.245c-7.868 0-14.233 6.365-14.233 14.232 0 7.85 6.365 14.233 14.233 14.233 7.867 0 14.232-6.383 14.232-14.233 0-7.867-6.365-14.232-14.232-14.232zm0 22.79a8.553 8.553 0 0 1-8.558-8.558 8.553 8.553 0 0 1 8.558-8.557c4.72 0 8.557 3.837 8.557 8.557.018 4.739-3.819 8.558-8.557 8.558zM70.327 39.032a3.63 3.63 0 0 1-3.625 3.625 3.63 3.63 0 0 1-3.624-3.625 3.63 3.63 0 0 1 3.624-3.624 3.607 3.607 0 0 1 3.625 3.624z" fill="#fff"/></svg>