<svg width="106" height="106" viewBox="0 0 106 106" fill="none" xmlns="http://www.w3.org/2000/svg"><path fill="none" d="M3 3h100v100H3z"/><path d="M53 103c27.614 0 50-22.386 50-50S80.614 3 53 3 3 25.386 3 53s22.386 50 50 50z" stroke="#fff" stroke-width="5" stroke-miterlimit="10"/><path d="M73.845 29.114L21.3 49.729s-2.493.849-2.298 2.422c.194 1.574 2.227 2.299 2.227 2.299l13.225 4.455L66.19 38.75s1.84-1.114 1.769 0c0 0 .335.194-.655 1.114-.99.919-25 22.843-25 22.843l-1.662 14.32c.725.319 1.397-.194 1.397-.194l8.54-7.78L63.89 79.256c3.607 1.574 4.915-1.697 4.915-1.697l9.353-47.171c0-3.165-4.314-1.273-4.314-1.273z" fill="#fff"/></svg>