<svg width="54" height="54" viewBox="0 0 54 54" fill="none" xmlns="http://www.w3.org/2000/svg"><path fill="none" d="M1.63 1h51.218v51.485H1.63z"/><path d="M27.24 52.485c14.142 0 25.608-11.525 25.608-25.742C52.848 12.525 41.382 1 27.239 1 13.096 1 1.631 12.525 1.631 26.743c0 14.217 11.465 25.742 25.608 25.742z" fill="#fff" stroke="#fff" stroke-width="2" stroke-miterlimit="10"/><path d="M37.915 14.445L11.003 25.058s-1.277.437-1.177 1.248c.1.81 1.14 1.183 1.14 1.183l6.774 2.294 16.255-10.377s.941-.574.905 0c0 0 .172.1-.335.573-.507.474-12.804 11.76-12.804 11.76l-.851 7.374c.37.164.715-.1.715-.1l4.374-4.005 6.818 5.252c1.848.81 2.518-.874 2.518-.874l4.79-24.286c0-1.63-2.21-.655-2.21-.655z" fill="#FF0143"/></svg>