<svg width="106" height="106" viewBox="0 0 106 106" fill="none" xmlns="http://www.w3.org/2000/svg"><path fill="none" d="M3 3h100v100H3z"/><path fill="none" d="M21.423 28.248h63.526v51.627H21.423z"/><path fill="none" d="M21.423 28.248h63.526v51.627H21.423z"/><path d="M41.402 79.874c23.974 0 37.075-19.855 37.075-37.075 0-.566 0-1.132-.035-1.68a26.556 26.556 0 0 0 6.506-6.754 25.894 25.894 0 0 1-7.478 2.05 13.081 13.081 0 0 0 5.728-7.213 26.183 26.183 0 0 1-8.274 3.165c-2.387-2.528-5.764-4.12-9.512-4.12-7.196 0-13.03 5.835-13.03 13.031 0 1.025.105 2.016.335 2.97C41.88 43.7 32.28 38.52 25.861 30.634a13.027 13.027 0 0 0-1.768 6.542c0 4.526 2.298 8.504 5.799 10.856a13.038 13.038 0 0 1-5.905-1.627v.16c0 6.311 4.49 11.58 10.449 12.782-1.079.3-2.246.46-3.43.46a12.45 12.45 0 0 1-2.458-.248c1.662 5.18 6.471 8.947 12.164 9.053a26.104 26.104 0 0 1-16.177 5.587c-1.044 0-2.087-.053-3.112-.177a36.914 36.914 0 0 0 19.979 5.852z" fill="#fff"/><path d="M53 103c27.614 0 50-22.386 50-50S80.614 3 53 3 3 25.386 3 53s22.386 50 50 50z" stroke="#fff" stroke-width="5" stroke-miterlimit="10"/></svg>