<svg width="54" height="54" viewBox="0 0 54 54" fill="none" xmlns="http://www.w3.org/2000/svg"><path fill="none" d="M1 1h51.217v51.485H1z"/><path d="M26.608 52.485c14.143 0 25.609-11.525 25.609-25.742C52.217 12.525 40.752 1 26.608 1 12.465 1 1 12.525 1 26.743 1 40.96 12.465 52.485 26.608 52.485z" fill="#fff" stroke="#fff" stroke-width="2" stroke-miterlimit="10"/><path d="M20.668 40.579c12.279 0 18.989-10.223 18.989-19.089 0-.291 0-.582-.018-.864a13.641 13.641 0 0 0 3.332-3.478 13.204 13.204 0 0 1-3.83 1.056 6.728 6.728 0 0 0 2.934-3.714 13.368 13.368 0 0 1-4.238 1.63 6.668 6.668 0 0 0-4.872-2.121c-3.685 0-6.674 3.004-6.674 6.708 0 .528.055 1.038.172 1.53-5.55-.282-10.468-2.95-13.755-7.01a6.734 6.734 0 0 0 2.065 8.958 6.65 6.65 0 0 1-3.024-.838v.082A6.71 6.71 0 0 0 17.1 30.01a6.552 6.552 0 0 1-1.757.237 6.35 6.35 0 0 1-1.258-.127c.851 2.667 3.314 4.606 6.23 4.66a13.325 13.325 0 0 1-8.286 2.877c-.534 0-1.068-.028-1.594-.091a18.835 18.835 0 0 0 10.233 3.013z" fill="#FF0143"/></svg>