<svg width="106" height="106" viewBox="0 0 106 106" fill="none" xmlns="http://www.w3.org/2000/svg"><path fill="none" d="M3 3h100v100H3z"/><path d="M53 103c27.614 0 50-22.386 50-50S80.614 3 53 3 3 25.386 3 53s22.386 50 50 50z" stroke="#fff" stroke-width="5" stroke-miterlimit="10"/><path fill="none" d="M24.349 27.113h54.09v55.181h-54.09z"/><path d="M74.277 67.038c-1.695-1.36-3.493-2.568-5.239-3.8-3.519-2.492-6.754-2.672-9.4 1.31-1.49 2.233-3.544 2.336-5.727 1.36-5.958-2.696-10.58-6.883-13.278-12.944-1.207-2.696-1.181-5.085 1.618-6.985 1.49-1.002 2.98-2.183 2.851-4.392-.154-2.85-7.114-12.43-9.836-13.432-1.13-.41-2.26-.385-3.416 0-6.42 2.158-9.091 7.448-6.549 13.715C32.903 60.566 46.31 73.56 64.75 81.497c1.053.463 2.209.642 2.8.796 4.186.052 9.117-4.006 10.53-8.012 1.386-3.878-1.516-5.42-3.802-7.243zM53.603 30.056c13.483 2.08 19.698 8.475 21.419 22.06.154 1.26-.308 3.134 1.49 3.185 1.874.026 1.412-1.823 1.438-3.082.154-12.79-10.992-24.629-23.936-25.065-.976.128-3.005-.668-3.133 1.515-.077 1.464 1.618 1.207 2.722 1.387z" fill="#fff"/><path d="M56.248 33.78c-1.284-.154-3.005-.77-3.313 1.027-.308 1.9 1.593 1.695 2.825 1.977 8.321 1.85 11.223 4.88 12.585 13.15.205 1.207-.206 3.082 1.849 2.773 1.515-.23.976-1.849 1.104-2.773.051-7.936-6.729-15.153-15.05-16.154z" fill="#fff"/><path d="M57.019 40.252c-.873.025-1.721.102-2.03 1.027-.487 1.387.54 1.72 1.542 1.875 3.416.539 5.213 2.568 5.547 5.958.103.924.668 1.67 1.567 1.566 1.232-.154 1.36-1.258 1.31-2.285.077-3.801-4.264-8.219-7.936-8.142z" fill="#fff"/></svg>