<svg width="54" height="54" viewBox="0 0 54 54" fill="none" xmlns="http://www.w3.org/2000/svg"><path fill="none" d="M1.521 1h51.217v51.485H1.521z"/><path d="M27.13 52.485c14.143 0 25.608-11.525 25.608-25.742C52.738 12.525 41.273 1 27.13 1S1.52 12.525 1.52 26.743c0 14.217 11.466 25.742 25.609 25.742z" fill="#fff" stroke="#fff" stroke-width="2" stroke-miterlimit="10"/><path fill="none" d="M12.455 13.415h27.703v28.41H12.455z"/><path d="M38.027 33.97c-.868-.7-1.79-1.322-2.684-1.957-1.802-1.282-3.459-1.375-4.814.675-.763 1.15-1.815 1.203-2.933.7-3.052-1.388-5.42-3.543-6.8-6.664-.619-1.388-.605-2.618.828-3.596.763-.516 1.526-1.124 1.46-2.262-.079-1.467-3.643-6.4-5.038-6.915-.578-.211-1.157-.198-1.749 0-3.288 1.11-4.656 3.835-3.354 7.061 3.893 9.626 10.76 16.317 20.204 20.402.54.238 1.131.33 1.434.41 2.144.027 4.67-2.063 5.392-4.125.71-1.997-.776-2.79-1.946-3.729zM27.439 14.93c6.905 1.07 10.088 4.363 10.97 11.358.079.648-.158 1.613.763 1.64.96.013.723-.94.736-1.587.08-6.585-5.63-12.68-12.259-12.906-.5.067-1.539-.343-1.605.78-.04.754.829.622 1.395.715z" fill="#FF0143"/><path d="M28.794 16.847c-.658-.08-1.539-.397-1.697.529-.158.978.816.872 1.447 1.018 4.262.952 5.748 2.512 6.445 6.77.106.621-.105 1.587.947 1.428.776-.12.5-.952.566-1.428.026-4.086-3.446-7.801-7.708-8.317z" fill="#FF0143"/><path d="M29.187 20.18c-.447.012-.881.052-1.039.528-.25.714.276.886.79.965 1.749.278 2.67 1.323 2.84 3.068.053.476.343.86.803.806.631-.079.697-.648.67-1.176.04-1.957-2.183-4.232-4.064-4.192z" fill="#FF0143"/></svg>