<svg width="106" height="106" viewBox="0 0 106 106" fill="none" xmlns="http://www.w3.org/2000/svg"><path fill="none" d="M3 3h100v100H3z"/><path d="M53 103c27.614 0 50-22.386 50-50S80.614 3 53 3 3 25.386 3 53s22.386 50 50 50z" stroke="#fff" stroke-width="5" stroke-miterlimit="10"/><path d="M71.759 33.34H33.693c-7.284 0-10.237 5.905-10.237 13.171v13.932c0 7.285 3.271 13.172 10.538 13.172H71.44c7.266 0 9.76-5.905 9.76-13.172V46.511c.017-7.284-2.158-13.172-9.442-13.172zM46.547 62.033V45.61l15.735 8.204-15.735 8.221z" fill="#fff"/></svg>