<svg width="54" height="54" viewBox="0 0 54 54" fill="none" xmlns="http://www.w3.org/2000/svg"><path fill="none" d="M1.152 1.515H52.37V53H1.152z"/><path d="M26.76 53c14.144 0 25.61-11.525 25.61-25.742 0-14.218-11.466-25.743-25.61-25.743-14.142 0-25.608 11.525-25.608 25.742C1.152 41.475 12.618 53 26.761 53z" fill="#fff" stroke="#fff" stroke-width="2" stroke-miterlimit="10"/><path d="M36.368 17.135H16.872c-3.73 0-5.243 3.04-5.243 6.782v7.173c0 3.75 1.675 6.781 5.397 6.781h19.179c3.722 0 4.999-3.04 4.999-6.781v-7.173c.009-3.75-1.105-6.782-4.836-6.782zM23.455 31.91v-8.456l8.06 4.223-8.06 4.233z" fill="#FF0143"/></svg>