<svg id="лайк" xmlns="http://www.w3.org/2000/svg" xmlns:xlink="http://www.w3.org/1999/xlink" width="270" height="90" viewBox="0 0 270 90">
  <defs>
    <style>
      .cls-1 {
        font-size: 12px;
        fill: #8b9599;
        text-anchor: middle;
        font-family: "PT Sans";
      }

      .cls-2, .cls-3 {
        fill-rule: evenodd;
      }

      .cls-2 {
        fill: url(#linear-gradient);
        filter: url(#filter);
      }

      .cls-3 {
        fill: url(#linear-gradient-2);
        filter: url(#filter-2);
      }

      .cls-4 {
        fill: url(#radial-gradient);
        filter: url(#filter-3);
      }
    </style>
    <linearGradient id="linear-gradient" x1="45" y1="90" x2="45" gradientUnits="userSpaceOnUse">
      <stop offset="0" stop-color="#27aa1a"/>
      <stop offset="1" stop-color="#47cd1f"/>
    </linearGradient>
    <filter id="filter" x="0" y="0" width="90" height="90" filterUnits="userSpaceOnUse">
      <feGaussianBlur result="blur" in="SourceAlpha"/>
      <feFlood result="flood" flood-opacity="0.15"/>
      <feComposite result="composite" operator="out" in2="blur"/>
      <feOffset result="offset" dy="1"/>
      <feComposite result="composite-2" operator="in" in2="SourceAlpha"/>
      <feBlend result="blend" in2="SourceGraphic"/>
    </filter>
    <linearGradient id="linear-gradient-2" x1="135" y1="90" x2="135" gradientUnits="userSpaceOnUse">
      <stop offset="0" stop-color="#3dc21e"/>
      <stop offset="1" stop-color="#47cd1f"/>
    </linearGradient>
    <filter id="filter-2" x="90" y="0" width="90" height="90" filterUnits="userSpaceOnUse">
      <feGaussianBlur result="blur" in="SourceAlpha"/>
      <feFlood result="flood" flood-opacity="0.15"/>
      <feComposite result="composite" operator="out" in2="blur"/>
      <feOffset result="offset" dy="1"/>
      <feComposite result="composite-2" operator="in" in2="SourceAlpha"/>
      <feBlend result="blend" in2="SourceGraphic"/>
    </filter>
    <radialGradient id="radial-gradient" cx="225" cy="45" r="45" gradientUnits="userSpaceOnUse">
      <stop offset="0" stop-color="#24a2f6"/>
      <stop offset="1" stop-color="#24a2f6"/>
    </radialGradient>
    <filter id="filter-3" x="180" y="0" width="90" height="90" filterUnits="userSpaceOnUse">
      <feGaussianBlur result="blur" in="SourceAlpha"/>
      <feFlood result="flood" flood-opacity="0.15"/>
      <feComposite result="composite" operator="out" in2="blur"/>
      <feOffset result="offset" dy="1"/>
      <feComposite result="composite-2" operator="in" in2="SourceAlpha"/>
      <feBlend result="blend" in2="SourceGraphic"/>
    </filter>
  </defs>
  <text id="_234" data-name="234" class="cls-1" x="44.394" y="109.082"><tspan x="44.394">234</tspan></text>
  <path id="Ellipse_1_copy_3" data-name="Ellipse 1 copy 3" class="cls-2" d="M45,0A45,45,0,1,1,0,45,45,45,0,0,1,45,0ZM60,36a1.989,1.989,0,0,1-.288-0.029L57,54H33L30.288,35.971a2.008,2.008,0,1,1,1.015-.465L38,43l5.855-8.364a2,2,0,1,1,2.291,0L52,43l6.7-7.495A1.991,1.991,0,1,1,60,36ZM47.992,44.753l-3-1.754-3,1.754v3.508l3,1.754,3-1.754V44.753ZM57,58H33V55H57v3Z"/>
  <text id="_234-2" data-name="234" class="cls-1" x="134.395" y="109.082"><tspan x="134.395">234</tspan></text>
  <path id="Ellipse_1_copy_3-2" data-name="Ellipse 1 copy 3" class="cls-3" d="M135,0A45,45,0,1,1,90,45,45,45,0,0,1,135,0Zm15,35a1.993,1.993,0,0,1-.289-0.029L147,53H123l-2.712-18.029A1.979,1.979,0,0,1,120,35a2.022,2.022,0,1,1,1.3-.494L128,42l5.855-8.364a2,2,0,1,1,2.29,0L142,42l6.7-7.495A1.991,1.991,0,1,1,150,35Zm-12.008,8.752-3-1.754-3,1.754v3.508l3,1.754,3-1.754V43.753ZM147,57H123V54h24v3Z"/>
  <text id="_235" data-name="235" class="cls-1" x="224.395" y="109.082"><tspan x="224.395">235</tspan></text>
  <circle id="Ellipse_1_copy_6" data-name="Ellipse 1 copy 6" class="cls-4" cx="225" cy="45" r="45"/>
</svg>
