<svg xmlns="http://www.w3.org/2000/svg" width="13" height="12" viewBox="0 0 13 12"><defs><style>.cls-1{fill:#0c1524;fill-opacity:0;stroke:#c5c5c5;stroke-linejoin:round;stroke-width:1px;fill-rule:evenodd}</style></defs><path id="Фигура_8_копия_2_copy_4" data-name="Фигура 8 копия 2 copy 4" class="cls-1" d="M691.852 4396.78a.637.637 0 0 1-.47.21l-2.406.01.631 3.25a.62.62 0 0 1-.6.75h-2.058a.633.633 0 0 1-.543-.32l-2.423-3.7-1 1.02-2.358-.01a.611.611 0 0 1-.617-.61v-6.74a.611.611 0 0 1 .617-.61l2.362-.01.94 1.09 1.129-1.08 6.065-.03c.3 0-.436.22-.388.52l1.266 5.76a.621.621 0 0 1-.147.5z" transform="translate(-679.5 -4389.5)"/></svg>