<svg id="Layer_1" xmlns="http://www.w3.org/2000/svg" xmlns:xlink="http://www.w3.org/1999/xlink" viewBox="0 0 40 40"><style>.st0,.st1{fill:#fff}.st1{clip-path:url(#SVGID_3_)}</style><path id="SVGID_1_" class="st0" d="M17.9 17h-1.6v3h1.6v9h3.3v-9h2.2s.2-1.5.3-3h-2.5v-2.1c0-.3.4-.7.7-.7h1.8V11h-2.4c-3.5 0-3.4 3-3.4 3.5V17z"/><defs><path id="SVGID_2_" d="M17.9 17h-1.6v3h1.6v9h3.3v-9h2.2s.2-1.5.3-3h-2.5v-2.1c0-.3.4-.7.7-.7h1.8V11h-2.4c-3.5 0-3.4 3-3.4 3.5V17z"/></defs><use xlink:href="#SVGID_2_" overflow="visible" fill="#fff"/><clipPath id="SVGID_3_"><use xlink:href="#SVGID_2_" overflow="visible"/></clipPath><path class="st1" d="M11 5.7h18v28.6H11z"/></svg>