<svg id="Layer_1" xmlns="http://www.w3.org/2000/svg" xmlns:xlink="http://www.w3.org/1999/xlink" viewBox="0 0 40 40"><style>.st0,.st1{fill:#fff}.st1{clip-path:url(#SVGID_4_)}.st2,.st3{clip-path:url(#SVGID_7_);fill:#fff}.st3{clip-path:url(#SVGID_9_)}</style><path id="SVGID_1_" class="st0" d="M20 11c-2.4 0-2.8 0-3.7.1-1 0-1.6.2-2.2.4-.6.2-1.1.5-1.6 1s-.8 1-1 1.6-.4 1.2-.4 2.2c0 1-.1 1.3-.1 3.7s0 2.8.1 3.7c0 1 .2 1.6.4 2.2s.5 1.1 1 1.6 1 .8 1.6 1 1.2.4 2.2.4 1.3.1 3.7.1 2.8 0 3.7-.1c1 0 1.6-.2 2.2-.4.6-.2 1.1-.5 1.6-1s.8-1 1-1.6.4-1.2.4-2.2.1-1.3.1-3.7 0-2.8-.1-3.7c0-1-.2-1.6-.4-2.2-.2-.6-.5-1.1-1-1.6s-1-.8-1.6-1-1.2-.4-2.2-.4c-.9-.1-1.3-.1-3.7-.1m0 1.6c2.4 0 2.7 0 3.6.1.9 0 1.4.2 1.7.3.4.2.7.4 1 .7s.5.6.7 1c.1.3.3.8.3 1.7 0 .9.1 1.2.1 3.6s0 2.7-.1 3.6c0 .9-.2 1.4-.3 1.7-.2.4-.4.7-.7 1-.3.3-.6.5-1 .7-.3.1-.8.3-1.7.3-.9 0-1.2.1-3.6.1s-2.7 0-3.6-.1c-.9 0-1.4-.2-1.7-.3-.4-.2-.7-.4-1-.7-.3-.3-.5-.6-.7-1-.1-.3-.3-.8-.3-1.7 0-.9-.1-1.2-.1-3.6s0-2.7.1-3.6c0-.9.2-1.4.3-1.7.2-.4.4-.7.7-1s.6-.5 1-.7c.3-.1.8-.3 1.7-.3.9-.1 1.2-.1 3.6-.1"/><defs><path id="SVGID_2_" d="M20 11c-2.4 0-2.8 0-3.7.1-1 0-1.6.2-2.2.4-.6.2-1.1.5-1.6 1s-.8 1-1 1.6-.4 1.2-.4 2.2c0 1-.1 1.3-.1 3.7s0 2.8.1 3.7c0 1 .2 1.6.4 2.2s.5 1.1 1 1.6 1 .8 1.6 1 1.2.4 2.2.4 1.3.1 3.7.1 2.8 0 3.7-.1c1 0 1.6-.2 2.2-.4.6-.2 1.1-.5 1.6-1s.8-1 1-1.6.4-1.2.4-2.2.1-1.3.1-3.7 0-2.8-.1-3.7c0-1-.2-1.6-.4-2.2-.2-.6-.5-1.1-1-1.6s-1-.8-1.6-1-1.2-.4-2.2-.4c-.9-.1-1.3-.1-3.7-.1m0 1.6c2.4 0 2.7 0 3.6.1.9 0 1.4.2 1.7.3.4.2.7.4 1 .7s.5.6.7 1c.1.3.3.8.3 1.7 0 .9.1 1.2.1 3.6s0 2.7-.1 3.6c0 .9-.2 1.4-.3 1.7-.2.4-.4.7-.7 1-.3.3-.6.5-1 .7-.3.1-.8.3-1.7.3-.9 0-1.2.1-3.6.1s-2.7 0-3.6-.1c-.9 0-1.4-.2-1.7-.3-.4-.2-.7-.4-1-.7-.3-.3-.5-.6-.7-1-.1-.3-.3-.8-.3-1.7 0-.9-.1-1.2-.1-3.6s0-2.7.1-3.6c0-.9.2-1.4.3-1.7.2-.4.4-.7.7-1s.6-.5 1-.7c.3-.1.8-.3 1.7-.3.9-.1 1.2-.1 3.6-.1"/></defs><use xlink:href="#SVGID_2_" overflow="visible" fill="#fff"/><clipPath id="SVGID_4_"><use xlink:href="#SVGID_2_" overflow="visible"/></clipPath><path class="st1" d="M5.7 5.7h28.6v28.6H5.7z"/><path id="SVGID_3_" class="st0" d="M20 23.1c-1.7 0-3.1-1.4-3.1-3.1s1.4-3.1 3.1-3.1 3.1 1.4 3.1 3.1-1.4 3.1-3.1 3.1zm0-7.9c-2.6 0-4.8 2.1-4.8 4.8s2.1 4.8 4.8 4.8 4.8-2.1 4.8-4.8-2.2-4.8-4.8-4.8z"/><defs><path id="SVGID_6_" d="M20 23.1c-1.7 0-3.1-1.4-3.1-3.1s1.4-3.1 3.1-3.1 3.1 1.4 3.1 3.1-1.4 3.1-3.1 3.1zm0-7.9c-2.6 0-4.8 2.1-4.8 4.8s2.1 4.8 4.8 4.8 4.8-2.1 4.8-4.8-2.2-4.8-4.8-4.8z"/></defs><use xlink:href="#SVGID_6_" overflow="visible" fill="#fff"/><clipPath id="SVGID_7_"><use xlink:href="#SVGID_6_" overflow="visible"/></clipPath><path class="st2" d="M9.9 9.9H30V30H9.9z"/><path id="SVGID_5_" class="st0" d="M25.8 15.2c0 .6-.5 1.1-1.1 1.1s-1.1-.5-1.1-1.1.5-1.1 1.1-1.1 1.1.6 1.1 1.1"/><defs><path id="SVGID_8_" d="M25.8 15.2c0 .6-.5 1.1-1.1 1.1s-1.1-.5-1.1-1.1.5-1.1 1.1-1.1 1.1.6 1.1 1.1"/></defs><use xlink:href="#SVGID_8_" overflow="visible" fill="#fff"/><clipPath id="SVGID_9_"><use xlink:href="#SVGID_8_" overflow="visible"/></clipPath><path class="st3" d="M18.4 8.9h12.7v12.7H18.4z"/></svg>