<svg xmlns="http://www.w3.org/2000/svg" width="13.031" height="12" viewBox="0 0 13.031 12"><defs><style>.cls-1{fill:#0c1524;fill-opacity:0;stroke:#c5c5c5;stroke-linejoin:round;stroke-width:1px;fill-rule:evenodd}</style></defs><path id="Фигура_8_копия_2_copy_3" data-name="Фигура 8 копия 2 copy 3" class="cls-1" d="M737.883 4391.22a.616.616 0 0 0-.472-.22H735l.632-3.26a.6.6 0 0 0-.124-.51.6.6 0 0 0-.481-.23h-2.064a.614.614 0 0 0-.544.32l-2.43 3.69-1.006-1.02-2.364.01a.615.615 0 0 0-.619.62v6.73a.612.612 0 0 0 .619.61l2.368.02.942-1.1 1.132 1.09 6.081.02c.3 0-.438-.21-.389-.51l1.269-5.77a.606.606 0 0 0-.139-.49z" transform="translate(-725.5 -4386.5)"/></svg>