<svg id="Layer_1" xmlns="http://www.w3.org/2000/svg" xmlns:xlink="http://www.w3.org/1999/xlink" viewBox="0 0 40 40"><style>.st0{fill:#fff}.st1,.st2{clip-path:url(#SVGID_4_);fill:#fff}.st2{clip-path:url(#SVGID_6_)}</style><path id="SVGID_1_" class="st0" d="M20.1 17.6c-1.1 0-1.9-.9-1.9-1.9s.9-1.9 1.9-1.9c1.1 0 1.9.9 1.9 1.9s-.9 1.9-1.9 1.9zm0-6.6c-2.5 0-4.6 2.1-4.6 4.7s2.1 4.7 4.6 4.7 4.6-2.1 4.6-4.7-2.1-4.7-4.6-4.7z"/><defs><path id="SVGID_2_" d="M20.1 17.6c-1.1 0-1.9-.9-1.9-1.9s.9-1.9 1.9-1.9c1.1 0 1.9.9 1.9 1.9s-.9 1.9-1.9 1.9zm0-6.6c-2.5 0-4.6 2.1-4.6 4.7s2.1 4.7 4.6 4.7 4.6-2.1 4.6-4.7-2.1-4.7-4.6-4.7z"/></defs><use xlink:href="#SVGID_2_" overflow="visible" fill="#fff"/><clipPath id="SVGID_4_"><use xlink:href="#SVGID_2_" overflow="visible"/></clipPath><path class="st1" d="M10.7 6.3h18.7v18.8H10.7z"/><path id="SVGID_3_" class="st0" d="M21.7 24c1.8-.4 3-1.3 3-1.3.5-.4.6-1.2.2-1.8-.4-.5-1.2-.6-1.8-.2 0 0-1.2.9-3.1.9s-3.1-.9-3.2-.9c-.5-.4-1.3-.4-1.8.2-.4.5-.3 1.3.2 1.8.1 0 1.2 1 3.1 1.3l-2.6 2.8c-.5.5-.5 1.3 0 1.8.2.2.6.4.9.4s.7-.1.9-.4L20 26l2.7 2.7c.5.5 1.3.5 1.8 0s.5-1.3 0-1.8L21.7 24z"/><defs><path id="SVGID_5_" d="M21.7 24c1.8-.4 3-1.3 3-1.3.5-.4.6-1.2.2-1.8-.4-.5-1.2-.6-1.8-.2 0 0-1.2.9-3.1.9s-3.1-.9-3.2-.9c-.5-.4-1.3-.4-1.8.2-.4.5-.3 1.3.2 1.8.1 0 1.2 1 3.1 1.3l-2.6 2.8c-.5.5-.5 1.3 0 1.8.2.2.6.4.9.4s.7-.1.9-.4L20 26l2.7 2.7c.5.5 1.3.5 1.8 0s.5-1.3 0-1.8L21.7 24z"/></defs><use xlink:href="#SVGID_5_" overflow="visible" fill="#fff"/><clipPath id="SVGID_6_"><use xlink:href="#SVGID_5_" overflow="visible"/></clipPath><path class="st2" d="M10.1 15.7H30v18H10.1z"/></svg>