<svg id="Layer_1" xmlns="http://www.w3.org/2000/svg" xmlns:xlink="http://www.w3.org/1999/xlink" viewBox="0 0 40 40"><style>.st0,.st1{fill:#fff}.st1{clip-path:url(#SVGID_3_)}</style><path id="SVGID_1_" class="st0" d="M27.7 19.2c1.1-.1 1.9-.6 2.2-1.3-.4.3-1.7.5-2.4.3 0-.2-.1-.3-.1-.5-.5-2-2.3-3.6-4.2-3.4.2-.1.3-.1.5-.2s1.4-.3 1.2-.7c-.2-.4-1.7.3-1.9.4.4-.1 1-.4 1.1-.8-.6.1-1.1.4-1.6.8.2-.2.3-.4.3-.6-1.5 1-2.4 3-3.1 5-.6-.6-1.1-1-1.5-1.2-1.3-.7-2.8-1.4-5.1-2.3-.1.8.4 1.9 1.7 2.6-.3 0-.8 0-1.2.2.2.9.7 1.7 2.2 2-.7 0-1 .2-1.4.6.3.6 1.1 1.4 2.5 1.2-1.5.7-.6 1.9.6 1.7-2.2 2-5.6 1.9-7.5 0 5 7 16 4.2 17.6-2.6 1.2 0 1.9-.4 2.4-.9-.7.1-1.7-.1-2.3-.3"/><defs><path id="SVGID_2_" d="M27.7 19.2c1.1-.1 1.9-.6 2.2-1.3-.4.3-1.7.5-2.4.3 0-.2-.1-.3-.1-.5-.5-2-2.3-3.6-4.2-3.4.2-.1.3-.1.5-.2s1.4-.3 1.2-.7c-.2-.4-1.7.3-1.9.4.4-.1 1-.4 1.1-.8-.6.1-1.1.4-1.6.8.2-.2.3-.4.3-.6-1.5 1-2.4 3-3.1 5-.6-.6-1.1-1-1.5-1.2-1.3-.7-2.8-1.4-5.1-2.3-.1.8.4 1.9 1.7 2.6-.3 0-.8 0-1.2.2.2.9.7 1.7 2.2 2-.7 0-1 .2-1.4.6.3.6 1.1 1.4 2.5 1.2-1.5.7-.6 1.9.6 1.7-2.2 2-5.6 1.9-7.5 0 5 7 16 4.2 17.6-2.6 1.2 0 1.9-.4 2.4-.9-.7.1-1.7-.1-2.3-.3"/></defs><use xlink:href="#SVGID_2_" overflow="visible" fill="#fff"/><clipPath id="SVGID_3_"><use xlink:href="#SVGID_2_" overflow="visible"/></clipPath><path class="st1" d="M4.1 7.1h31.8V33H4.1z"/></svg>