<svg id="Layer_1" xmlns="http://www.w3.org/2000/svg" viewBox="0 0 40 40"><style>.st0{fill:#fff}</style><path id="path17-6_1_" class="st0" d="M26.9 23.9c-.5-.4-1-.8-1.6-1.2-1-.8-2-.8-2.8.4-.4.7-1 .7-1.7.4-1.7-.8-3.1-2.1-3.9-3.9-.3-.9-.3-1.6.5-2.2.4-.3.9-.7.8-1.4 0-.9-2.1-3.8-2.9-4.1-.3-.1-.7-.1-1 0-1.9.7-2.7 2.3-1.9 4.2 2.3 5.9 6.3 9.9 11.8 12.3.3.1.7.2.8.2 1.2 0 2.7-1.2 3.1-2.5.3-1.2-.6-1.6-1.2-2.2z"/><path id="path19-1_1_" class="st0" d="M20.7 12.3c4 .6 5.9 2.6 6.4 6.9 0 .4-.1 1 .4 1 .6 0 .4-.6.4-.9 0-3.9-3.3-7.7-7.2-7.8-.3 0-.9-.2-.9.5 0 .3.5.3.9.3z"/><path id="path21-2_1_" class="st0" d="M21.4 13.5c-.4 0-.9-.2-1 .3 0 .6.5.5.9.6 2.5.6 3.3 1.5 3.7 4 .1.4 0 1 .6.9.4-.1.2-.6.3-.9.1-2.3-2-4.5-4.5-4.9z"/><path id="path23_1_" class="st0" d="M21.7 15.6c-.3 0-.5 0-.6.3-.2.4.1.5.4.6 1 .2 1.5.8 1.6 1.8 0 .3.2.5.5.5.4-.1.4-.4.4-.7 0-1.2-1.2-2.6-2.3-2.5z"/></svg>