<svg id="Layer_1" xmlns="http://www.w3.org/2000/svg" xmlns:xlink="http://www.w3.org/1999/xlink" viewBox="0 0 40 40"><style>.st0,.st1{fill:#fff}.st1{clip-path:url(#SVGID_3_)}</style><path id="SVGID_1_" class="st0" d="M28.8 23.8c-.3-.5-.9-1.3-1.8-2.1l-.8-.8c-.2-.3-.3-.5-.1-.7.1-.2.4-.6.8-1.2.3-.4.4-.6.6-.8 1.1-1.4 1.5-2.3 1.4-2.7l-.1-.1c0-.1-.1-.1-.3-.2s-.4-.1-.6 0h-3.1l-.1.1c0 .1-.1.1-.1.2-.3.7-.6 1.4-1 2.1-.3.4-.4.7-.6 1s-.4.4-.4.6l-.4.4c-.1.1-.2.1-.3.1h-.2c-.1-.1-.2-.1-.2-.3-.1-.1-.1-.2-.1-.4v-3.4c0-.1-.1-.2-.1-.3s-.1-.2-.2-.2c.2-.1.1-.1 0-.1-.4-.1-.7-.1-1.3-.1-1.2 0-1.9.1-2.2.2-.1.1-.3.2-.4.3l-.1.2c.4.1.6.2.8.4h.1c0 .1.1.2.1.4s.1.4.1.6v1.2c0 .4-.1.5-.1.7s-.1.4-.1.4c-.1.1-.1.2-.1.2l-.1.1c-.1 0-.2.1-.3.1s-.2 0-.4-.1c-.1-.1-.3-.2-.4-.4s-.3-.4-.4-.6c-.2-.3-.4-.6-.5-1l-.2-.3c-.1-.2-.2-.4-.4-.7-.2-.4-.3-.6-.4-1-.1-.1-.1-.3-.3-.3h-.1s-.1-.1-.2-.1-.2-.1-.2-.1h-2.6c-.3 0-.4.1-.5.2v.3c0 .1 0 .2.1.3.4.9.8 1.7 1.3 2.5s.8 1.4 1.2 2c.4.4.6 1 1 1.3.4.4.5.7.6.8l.3.3.3.2c.2.2.4.4.6.5.3.2.6.4 1 .6s.7.4 1.3.4c.4.1.9.2 1.3.2h1c.2 0 .4-.1.5-.2v-.1s.1-.1.1-.2v-.3c0-.3 0-.5.1-.7s.1-.4.2-.4c.1-.1.1-.2.2-.3.1-.1.1-.1.2-.1h.1c.2-.1.4 0 .5.2l.5.5c.2.2.4.4.6.7l.6.6.2.1c.1.1.3.2.4.2.2.1.4.1.5.1H28c.3 0 .4 0 .5-.1l.3-.3v-.6c.1.1 0 0 0 0z"/><defs><path id="SVGID_2_" d="M28.8 23.8c-.3-.5-.9-1.3-1.8-2.1l-.8-.8c-.2-.3-.3-.5-.1-.7.1-.2.4-.6.8-1.2.3-.4.4-.6.6-.8 1.1-1.4 1.5-2.3 1.4-2.7l-.1-.1c0-.1-.1-.1-.3-.2s-.4-.1-.6 0h-3.1l-.1.1c0 .1-.1.1-.1.2-.3.7-.6 1.4-1 2.1-.3.4-.4.7-.6 1s-.4.4-.4.6l-.4.4c-.1.1-.2.1-.3.1h-.2c-.1-.1-.2-.1-.2-.3-.1-.1-.1-.2-.1-.4v-3.4c0-.1-.1-.2-.1-.3s-.1-.2-.2-.2c.2-.1.1-.1 0-.1-.4-.1-.7-.1-1.3-.1-1.2 0-1.9.1-2.2.2-.1.1-.3.2-.4.3l-.1.2c.4.1.6.2.8.4h.1c0 .1.1.2.1.4s.1.4.1.6v1.2c0 .4-.1.5-.1.7s-.1.4-.1.4c-.1.1-.1.2-.1.2l-.1.1c-.1 0-.2.1-.3.1s-.2 0-.4-.1c-.1-.1-.3-.2-.4-.4s-.3-.4-.4-.6c-.2-.3-.4-.6-.5-1l-.2-.3c-.1-.2-.2-.4-.4-.7-.2-.4-.3-.6-.4-1-.1-.1-.1-.3-.3-.3h-.1s-.1-.1-.2-.1-.2-.1-.2-.1h-2.6c-.3 0-.4.1-.5.2v.3c0 .1 0 .2.1.3.4.9.8 1.7 1.3 2.5s.8 1.4 1.2 2c.4.4.6 1 1 1.3.4.4.5.7.6.8l.3.3.3.2c.2.2.4.4.6.5.3.2.6.4 1 .6s.7.4 1.3.4c.4.1.9.2 1.3.2h1c.2 0 .4-.1.5-.2v-.1s.1-.1.1-.2v-.3c0-.3 0-.5.1-.7s.1-.4.2-.4c.1-.1.1-.2.2-.3.1-.1.1-.1.2-.1h.1c.2-.1.4 0 .5.2l.5.5c.2.2.4.4.6.7l.6.6.2.1c.1.1.3.2.4.2.2.1.4.1.5.1H28c.3 0 .4 0 .5-.1l.3-.3v-.6c.1.1 0 0 0 0z"/></defs><use xlink:href="#SVGID_2_" overflow="visible" fill="#fff"/><clipPath id="SVGID_3_"><use xlink:href="#SVGID_2_" overflow="visible"/></clipPath><path class="st1" d="M5.4 9.2h29.2v21.3H5.4z"/></svg>