<svg id="Layer_1" xmlns="http://www.w3.org/2000/svg" viewBox="0 0 40 40"><style>.st0{fill:#fff}</style><path class="st0" d="M30 18.3c0-.4 0-.9-.1-1.5s-.1-1.2-.2-1.7c-.1-.6-.4-1-.8-1.4s-.9-.6-1.4-.7c-1.7-.2-4.1-.3-7.5-.3s-5.8.1-7.5.3c-.5.1-1 .3-1.4.7s-.7.8-.8 1.4c-.1.5-.2 1-.3 1.7s0 1.1 0 1.5v3.4c0 .4 0 .9.1 1.5 0 .6.1 1.2.2 1.7.1.6.4 1 .8 1.4.4.4.9.6 1.4.7 1.7.2 4.1.3 7.5.3s5.8-.1 7.5-.3c.5-.1 1-.3 1.4-.7.4-.4.7-.8.8-1.4.1-.5.2-1 .3-1.7s.1-1.1.1-1.5V20c-.1-.7-.1-1.3-.1-1.7zm-6 2.3l-5.7 3.6c-.1.1-.2.1-.4.1-.1 0-.2 0-.3-.1-.3-.1-.4-.3-.4-.6v-7.1c0-.3.1-.5.4-.6s.5-.1.7 0l5.7 3.6c.2.1.3.3.3.6 0 .2-.1.4-.3.5z"/></svg>