<svg enable-background="new 0 0 374.3 164.9" viewBox="0 0 374.3 164.9" xmlns="http://www.w3.org/2000/svg"><path d="m105.1 0c-11.3 0-26.5 3.1-46.9 18.8-42.6 32.8-58.2 80.5-58.2 105.1 0 19.2 8.2 41 31.7 41 16.4 0 38.7-6.3 62.5-35.6.8-3.5-1.6-6.6-5.1-6.6-17.2 14.9-27 22.7-41 22.7-10.6 0-18.8-9-18.8-22.3 0-15.6 2.7-28.1 5.5-34.8 56.3-15.6 95-35.2 95-64.9 0-10.1-9-23.4-24.7-23.4zm-7.8 12.1c7 0 9 5.1 9 9 0 3.5-3.1 15.2-15.2 26.6-14.5 13.7-26.6 21.1-52.4 28.9 4.7-11.3 13.7-29.3 28.9-45.7 14.1-15.3 24.2-18.8 29.7-18.8z" fill="#ffe08b"/><path d="m111.9 112.3h-32.5v-27.1h-14.7v69h14.7v-29h32.6v29h14.8v-69h-14.8v27.1zm53.3-9.3c-15.2 0-25.9 11.7-25.9 26.2 0 16 11.5 26.3 26.7 26.3 7.8 0 15.6-2.4 20.6-6.9l-5.8-8.5c-3.2 3.1-9.1 5-13.3 5-8.5 0-13.5-5.3-14.4-11.6h37.1v-2.9c0-16.4-10.1-27.6-25-27.6zm-12.3 21.5c.6-5 4.1-11.1 12.3-11.1 8.7 0 12 6.3 12.3 11.1zm70.7-21.5c-7.9 0-15.7 2.5-21.8 7.9l5 8.8c4.2-3.9 9.2-5.9 14.6-5.9 6.6 0 11 3.3 11 8.4v6.7c-3.3-3.9-9.2-6.1-15.8-6.1-8 0-17.4 4.4-17.4 16.1 0 11.2 9.4 16.5 17.4 16.5 6.5 0 12.4-2.4 15.8-6.4v5.2h13.1v-32.2c-.1-14.4-10.5-19-21.9-19zm8.7 39.2c-2.2 2.9-6.3 4.3-10.5 4.3-5.2 0-9.4-2.7-9.4-7.3 0-4.9 4.2-7.5 9.4-7.5 4.2 0 8.4 1.4 10.5 4.3zm28.8 12h13.1v-69h-13.1zm49.1-10.4c-2.9 0-4.6-2.4-4.6-5.5v-22.5h10.1v-11.5h-10.1v-13.7h-13.2v13.7h-8.3v11.5h8.3v26.1c0 8.9 5 13.7 14.2 13.7 5.5 0 9-1.4 11-3.2l-2.8-9.9c-.8.6-2.7 1.3-4.6 1.3zm47.9-40.8c-8.2 0-14.4 3.9-17.6 7.8v-25.6h-13.1v69h13.1v-33.6c2.3-3 6.3-5.9 11.4-5.9 5.7 0 9.3 2.2 9.3 9.1v30.4h13.1v-35.5c0-9.7-5.3-15.7-16.2-15.7z" fill="#71cefb"/></svg>