<svg xmlns="http://www.w3.org/2000/svg" viewBox="243 3350 11.312 12"><defs><style>.a{fill:#fff;}</style></defs><path class="a" d="M22.964,7.709a2.147,2.147,0,0,0-1.7.837l-3.3-1.841A2.152,2.152,0,0,0,18.088,6a2.105,2.105,0,0,0-.122-.71L21.26,3.449a2.143,2.143,0,1,0-.444-1.3,2.1,2.1,0,0,0,.122.71L17.647,4.694a2.143,2.143,0,1,0,0,2.6L20.946,9.14a2.144,2.144,0,1,0,2.018-1.43Zm0-7.034a1.473,1.473,0,1,1-1.473,1.473A1.474,1.474,0,0,1,22.964.675ZM15.948,7.47A1.473,1.473,0,1,1,17.42,6,1.474,1.474,0,0,1,15.948,7.47Zm7.017,3.855a1.473,1.473,0,1,1,1.473-1.473A1.474,1.474,0,0,1,22.964,11.325Z" transform="translate(229.2 3350)"/></svg>