<svg xmlns="http://www.w3.org/2000/svg" viewBox="4739.2 5674.6 61.6 24.4"><defs><style>.a{fill:#fe5000;}</style></defs><path class="a" d="M21.5,93.4a9.4,9.4,0,0,0,2.3-6.3,9.56,9.56,0,0,0-1.3-4.8A9.808,9.808,0,0,0,4.2,87.2v.2h7.2v-.1A2.737,2.737,0,0,1,14,84.6a2.647,2.647,0,0,1,2.6,2.6,2.875,2.875,0,0,1-.7,1.8L9.3,95.6l-6.1,6.1H13.3c-.1-.1,7.8-7.9,8.2-8.3m23.7-6.2H38V80L23.6,94.4l-7.2,7.2h7.2V94.4h7.2v7.2H38V94.4h7.2V87.2Zm17.2,6.2a9.4,9.4,0,0,0,2.3-6.3,9.56,9.56,0,0,0-1.3-4.8,9.808,9.808,0,0,0-18.3,4.9v.2h7.2v-.1a2.737,2.737,0,0,1,2.6-2.7,2.647,2.647,0,0,1,2.6,2.6,2.875,2.875,0,0,1-.7,1.8l-6.7,6.7L44,101.8H54.1c.2-.2,8.1-8,8.3-8.4m2.4,8.2V94.4l-7.2,7.2Z" transform="translate(4736 5597.2)"/></svg>