<svg xmlns="http://www.w3.org/2000/svg" viewBox="4739.5 5639.2 70.8 22.8"><defs><style>.a{fill:#fff;}</style></defs><g transform="translate(4736 5597.2)"><path class="a" d="M19.5,50H16.3v9H13.6V50H10.4V47.7h9.2L19.5,50Zm6.8,3.4A11.4,11.4,0,1,0,14.9,64.8,11.395,11.395,0,0,0,26.3,53.4"/><path class="a" d="M67.6,50H64.4v9H61.7V50H58.5V47.7h9.2Zm6.7,3.4A11.35,11.35,0,1,0,63,64.8,11.31,11.31,0,0,0,74.3,53.4"/><path class="a" d="M35,54l7-3.4a3.935,3.935,0,0,0-2.9-1.3A4.118,4.118,0,0,0,35,53.4V54m10.3-2.3-9.2,4.5A3.935,3.935,0,0,0,39,57.5a3.886,3.886,0,0,0,3.2-1.6l2.5.5A6.385,6.385,0,0,1,39,59.9a6.5,6.5,0,1,1,6.3-8.2m5,1.7A11.4,11.4,0,1,0,38.9,64.8,11.395,11.395,0,0,0,50.3,53.4"/></g></svg>