<svg xmlns="http://www.w3.org/2000/svg" viewBox="1175 -347 20 20"><defs><style>.a{fill:#7b519c;}.b{fill:#fff;}</style></defs><g transform="translate(-3 -222)"><rect class="a" width="20" height="20" rx="3" transform="translate(1178 -125)"/><path class="b" d="M10.446,14h-.018a.221.221,0,0,1-.055-.008c-.033-.009-.078-.019-.13-.031a3.147,3.147,0,0,1-.563-.167,18.176,18.176,0,0,1-5.689-3.777A17.087,17.087,0,0,1,.243,4.309,2.624,2.624,0,0,1,.205,2.191,2.758,2.758,0,0,1,1.922.779a1.4,1.4,0,0,1,.953,0A7.014,7.014,0,0,1,5.343,4.148a1.4,1.4,0,0,1-.769,1.228c-.5.337-.587.751-.305,1.384A5.8,5.8,0,0,0,7.3,9.71a1.188,1.188,0,0,0,.482.121.7.7,0,0,0,.6-.363A1.575,1.575,0,0,1,9.69,8.637a2.142,2.142,0,0,1,1.216.462l.215.15c.345.241.7.49,1.038.76.063.051.131.1.2.153.494.378,1.11.848.773,1.8A3.227,3.227,0,0,1,10.447,14Zm2.617-6.9c-.541-.01-.549-.514-.553-.756a1.813,1.813,0,0,0-.009-.185C12.11,3.06,10.7,1.6,7.624,1.131c-.044-.007-.1-.011-.152-.015-.229-.017-.707-.051-.679-.545A.556.556,0,0,1,7.405,0c.057,0,.114,0,.163.007s.08.006.112.006a.267.267,0,0,0,.037,0,.218.218,0,0,1,.038,0,6.264,6.264,0,0,1,5.868,6.147c0,.043,0,.091,0,.143a.846.846,0,0,1-.147.648.53.53,0,0,1-.4.152Zm-1.847-.344c-.5,0-.524-.462-.538-.683,0-.059-.007-.115-.015-.16-.308-1.856-.938-2.513-2.81-2.931-.046-.01-.1-.018-.16-.026A.82.82,0,0,1,7.1,2.7a.553.553,0,0,1-.083-.434.533.533,0,0,1,.571-.479,1.946,1.946,0,0,1,.317.035c.048.008.093.015.134.02a4.233,4.233,0,0,1,3.747,4.034.192.192,0,0,1,0,.027,1.032,1.032,0,0,0,0,.147c.007.2.021.625-.441.695a.882.882,0,0,1-.132.011ZM9.469,6.541a.576.576,0,0,1-.548-.569A1.218,1.218,0,0,0,7.79,4.754a.683.683,0,0,1-.516-.273.525.525,0,0,1-.022-.456.647.647,0,0,1,.681-.392,2.022,2.022,0,0,1,1.425.674,2.172,2.172,0,0,1,.678,1.469c.015.463-.154.719-.5.76a.537.537,0,0,1-.065,0Z" transform="translate(1181 -122)"/></g></svg>