<svg xmlns="http://www.w3.org/2000/svg" viewBox="1048 -343 12.002 12.002"><defs><style>.a{fill:#fff;}</style></defs><path class="a" d="M11.988,5.6A6,6,0,0,0,6.4.014V0H5.6V.014A6,6,0,0,0,.014,5.6H0v.8H.014A6,6,0,0,0,5.6,11.988V12h.8v-.014A6,6,0,0,0,11.988,6.4H12V5.6ZM3.757,1.308A6.361,6.361,0,0,0,2.816,3.2h-1.2A5.228,5.228,0,0,1,3.757,1.308ZM1.2,4H2.605a9.5,9.5,0,0,0-.2,1.6H.815A5.156,5.156,0,0,1,1.2,4ZM.815,6.4H2.408a9.5,9.5,0,0,0,.2,1.6H1.2A5.156,5.156,0,0,1,.815,6.4Zm.8,2.4h1.2a6.343,6.343,0,0,0,.942,1.892A5.223,5.223,0,0,1,1.617,8.8ZM5.6,11.151A3.384,3.384,0,0,1,3.641,8.8H5.6ZM5.6,8H3.416a8.943,8.943,0,0,1-.207-1.6H5.6Zm0-2.4H3.209A8.943,8.943,0,0,1,3.416,4H5.6Zm0-2.4H3.641A3.381,3.381,0,0,1,5.6.852Zm4.784,0h-1.2a6.344,6.344,0,0,0-.943-1.892A5.233,5.233,0,0,1,10.385,3.2ZM6.4.852A3.383,3.383,0,0,1,8.361,3.2H6.4ZM6.4,4H8.585a9.015,9.015,0,0,1,.208,1.6H6.4Zm0,2.4H8.793A8.869,8.869,0,0,1,8.585,8H6.4Zm0,4.75V8.8h1.96A3.386,3.386,0,0,1,6.4,11.151Zm1.844-.457A6.392,6.392,0,0,0,9.188,8.8h1.2A5.228,5.228,0,0,1,8.245,10.694ZM10.8,8H9.4a9.5,9.5,0,0,0,.2-1.6h1.592A5.133,5.133,0,0,1,10.8,8ZM9.594,5.6A9.5,9.5,0,0,0,9.4,4H10.8a5.156,5.156,0,0,1,.383,1.6Z" transform="translate(1048 -343)"/></svg>