<?xml version="1.0" encoding="UTF-8" standalone="no"?>
<svg
   xmlns:dc="http://purl.org/dc/elements/1.1/"
   xmlns:cc="http://creativecommons.org/ns#"
   xmlns:rdf="http://www.w3.org/1999/02/22-rdf-syntax-ns#"
   xmlns:svg="http://www.w3.org/2000/svg"
   xmlns="http://www.w3.org/2000/svg"
   xmlns:sodipodi="http://sodipodi.sourceforge.net/DTD/sodipodi-0.dtd"
   xmlns:inkscape="http://www.inkscape.org/namespaces/inkscape"
   width="244.0096"
   height="75.431168"
   viewBox="0 0 244.01001 75.430777"
   id="svg2"
   version="1.1"
   inkscape:version="0.91 r13725"
   sodipodi:docname="logo1.svg">
  <metadata
     id="metadata22">
    <rdf:RDF>
      <cc:Work
         rdf:about="">
        <dc:format>image/svg+xml</dc:format>
        <dc:type
           rdf:resource="http://purl.org/dc/dcmitype/StillImage" />
        <dc:title></dc:title>
      </cc:Work>
    </rdf:RDF>
  </metadata>
  <defs
     id="defs20" />
  <sodipodi:namedview
     pagecolor="#ffffff"
     bordercolor="#666666"
     borderopacity="1"
     objecttolerance="10"
     gridtolerance="10"
     guidetolerance="10"
     inkscape:pageopacity="0"
     inkscape:pageshadow="2"
     inkscape:window-width="1920"
     inkscape:window-height="1019"
     id="namedview18"
     showgrid="false"
     inkscape:zoom="4.6011126"
     inkscape:cx="128.519"
     inkscape:cy="47.317559"
     inkscape:window-x="0"
     inkscape:window-y="0"
     inkscape:window-maximized="1"
     inkscape:current-layer="svg2"
     fit-margin-top="0"
     fit-margin-left="0"
     fit-margin-right="0"
     fit-margin-bottom="0"
     showguides="true"
     inkscape:guide-bbox="true" />
  <rect
     style="fill:#e2007a;fill-opacity:1;stroke:none;stroke-width:2;stroke-linecap:round;stroke-linejoin:round;stroke-miterlimit:4;stroke-dasharray:none;stroke-opacity:1"
     id="rect4150"
     width="54.334782"
     height="21.299232"
     x="95.194527"
     y="6.7518783"
     rx="2.2559909e-15" />
  <path
     d="m 37.052,46.708036 c 1.566,-0.01 2.81,0.475 3.73,1.45 0.92,0.977 1.38,2.307 1.38,3.99 0,1.725 -0.47,3.07 -1.41,4.04 -0.94,0.966 -2.173,1.454 -3.7,1.464 l -1.058,0.007 0,-10.944 1.058,-0.006 z m 0.587,22.727 c 5.442,-0.034 10.092,-1.336 13.95,-3.906 3.857,-2.57 5.785,-7.062 5.785,-13.476 0,-6.453 -1.928,-10.932 -5.786,-13.432 -3.858,-2.502 -8.508,-3.737 -13.95,-3.703 l 0,-4.63 -16.448,0.104 0,4.63 c -5.484,0.033 -10.145,1.338 -13.982,3.906 -3.838,2.57 -5.756,7.063 -5.756,13.476 0,6.414 1.918,10.883 5.756,13.404 3.837,2.522 8.498,3.765 13.982,3.73 l 0,5.893 16.447,-0.103 0,-5.893 z m -19.444,-13.017 c -1.018,-0.895 -1.528,-2.265 -1.528,-4.11 0,-1.964 0.48,-3.37 1.44,-4.218 0.958,-0.847 2.163,-1.277 3.61,-1.286 l 1.12,-0.007 0,10.943 -1.12,0.007 c -1.33,0.01 -2.504,-0.434 -3.522,-1.33 m 54.41,12.557 10.28,-0.064 1.645,6.123 16.86,-0.106 -14.57,-42.002 -18.09,0.114 -14.63,42.186 16.858,-0.106 1.645,-6.144 z m 7.99,-10.572 -5.7,0.036 2.88,-10.723 2.82,10.687 m 39.727,16.406 -16.447,0.104 0,-42.094 16.447,-0.103 0,15.153 9.105,-15.21 18.033,-0.113 -13.98,20.05 14.392,22.04 -18.914,0.12 -8.636,-15.943 0,15.996 m 55.788,-0.35 -16.447,0.103 0,-29.885 -8.636,0.054 0,-12.208 33.72,-0.212 0,12.208 -8.636,0.054 0,29.886 m 67.899,-42.52 -16.448,0.103 0,42.093 16.448,-0.103 0,-42.093 z m -23.586,39.686 c 3.39,-1.725 5.083,-5.313 5.083,-10.765 0,-3.487 -1.166,-6.557 -3.497,-9.21 -2.33,-2.65 -6.686,-3.955 -13.07,-3.915 l -4.404,0.028 0,-15.576 -16.448,0.103 0,42.094 21.265,-0.133 c 3.994,-0.024 7.684,-0.9 11.07,-2.624 z m -13.892,-13.773 c 1.37,-0.008 2.34,0.255 2.908,0.793 0.567,0.538 0.852,1.308 0.852,2.31 0,1.364 -0.373,2.237 -1.115,2.623 -0.745,0.384 -1.625,0.58 -2.645,0.586 l -1.996,0.012 0,-6.312 1.996,-0.013"
     id="path6"
     inkscape:connector-curvature="0"
     style="fill:#231f20" />
  <path
     d="m 35.598,45.260036 c 1.566,-0.01 2.81,0.474 3.73,1.45 0.92,0.976 1.38,2.307 1.38,3.99 0,1.724 -0.47,3.07 -1.408,4.038 -0.94,0.968 -2.175,1.456 -3.702,1.466 l -1.058,0.006 0,-10.942 1.058,-0.008 z m 0.587,22.726 c 5.443,-0.034 10.093,-1.336 13.95,-3.905 3.858,-2.57 5.786,-7.062 5.786,-13.476 0,-6.455 -1.927,-10.933 -5.784,-13.434 -3.858,-2.5 -8.508,-3.735 -13.95,-3.7 l 0,-4.63 -16.448,0.102 0,4.63 c -5.484,0.035 -10.144,1.338 -13.982,3.907 -3.837,2.57 -5.757,7.062 -5.757,13.476 0,6.415 1.92,10.882 5.756,13.404 3.838,2.52 8.498,3.764 13.982,3.73 l 0,5.894 16.447,-0.103 0,-5.895 z m -19.443,-13.016 c -1.018,-0.896 -1.527,-2.265 -1.527,-4.11 0,-1.964 0.478,-3.37 1.438,-4.218 0.96,-0.848 2.164,-1.277 3.613,-1.286 l 1.117,-0.007 0,10.945 -1.117,0.007 c -1.332,0.008 -2.506,-0.435 -3.524,-1.33 m 54.408,12.555 10.28,-0.065 1.646,6.125 16.86,-0.106 -14.57,-42.003 -18.09,0.113 -14.629,42.188 16.858,-0.107 1.645,-6.145 z m 7.99,-10.573 -5.697,0.036 2.878,-10.72 2.82,10.685 m 39.729,16.407 -16.448,0.103 0,-42.094 16.447,-0.104 0,15.154 9.103,-15.21 18.033,-0.114 -13.98,20.053 14.392,22.04 -18.914,0.12 -8.635,-15.944 0,15.997 m 55.786,-0.352 -16.447,0.104 0,-29.886 -8.636,0.053 0,-12.208 33.718,-0.21 0,12.205 -8.634,0.055 0,29.887 m 67.898,-42.522 -16.447,0.104 0,42.096 16.447,-0.105 0,-42.095 z m -23.585,39.69 c 3.387,-1.726 5.08,-5.314 5.08,-10.766 0,-3.488 -1.164,-6.557 -3.496,-9.21 -2.328,-2.65 -6.686,-3.956 -13.07,-3.915 l -4.404,0.027 0,-15.576 -16.447,0.103 0,42.094 21.265,-0.134 c 3.994,-0.025 7.684,-0.9 11.073,-2.625 z m -13.892,-13.774 c 1.37,-0.008 2.34,0.257 2.907,0.795 0.568,0.536 0.85,1.305 0.85,2.308 0,1.363 -0.37,2.238 -1.114,2.623 -0.744,0.387 -1.626,0.582 -2.644,0.588 l -1.998,0.013 0,-6.313 1.998,-0.013"
     id="path8"
     inkscape:connector-curvature="0"
     style="fill:#ffffff" />
  <path
     d="m 122.97536,34.863491 c 9.8007,-0.0616 17.74607,-7.800581 17.74607,-17.285988 0,-9.4850653 -7.94537,-17.12587524 -17.74607,-17.06427344 -9.8007,0.0616018 -17.74607,7.80195004 -17.74607,17.28735744 0,9.485407 7.94537,17.124506 17.74607,17.062904 z"
     id="path10"
     inkscape:connector-curvature="0"
     style="fill:#ffffff;stroke:#231f20;stroke-width:1.02623999" />
  <path
     d="m 114.274,18.652036 c 0,2.108 1.137,5.678 4.747,5.655 a 6.645,6.645 0 0 0 1.573,-0.178 l 0,-14.4790009 c -3.11,2.6300009 -6.32,5.2580009 -6.32,9.0020009 z m 11.168,5.448 c 0.4,0.098 0.937,0.16 1.57,0.157 3.61,-0.023 4.75,-3.608 4.75,-5.716 0,-3.744 -3.21,-6.332 -6.32,-8.9200009 l 0,14.4770009 z m -7.624,5.6 0,-1.406 2.775,-0.017 0,-2.977 c -2.14,0.583 -2.608,0.92 -4.614,0.932 -3.98,0.025 -7.256,-2.596 -7.256,-5.973 0,-5.45 6.32,-7.698 11.87,-12.2470009 l 0,-0.334 -2.81,0.018 0,-1.404 10.467,-0.066 0,1.405 -2.808,0.017 0,0.334 c 5.55,4.4800009 11.87,6.6470009 11.87,12.0980009 0,3.377 -3.277,6.04 -7.256,6.065 -2.006,0.013 -2.473,-0.32 -4.614,-0.874 l 0,2.975 2.775,-0.017 0,1.406 -10.4,0.065"
     id="path12"
     style="fill:#000000;fill-opacity:1"
     inkscape:connector-curvature="0" />
  <rect
     style="fill:#ae0056;fill-opacity:0;stroke:none;stroke-width:2;stroke-linecap:round;stroke-linejoin:round;stroke-miterlimit:4;stroke-dasharray:none;stroke-opacity:1"
     id="rect4140"
     width="49.118637"
     height="14.56172"
     x="98.019943"
     y="11.316049"
     rx="1.9735353e-15" />
  <rect
     style="fill:#ae0056;fill-opacity:0;stroke:none;stroke-width:2;stroke-linecap:round;stroke-linejoin:round;stroke-miterlimit:4;stroke-dasharray:none;stroke-opacity:1"
     id="rect4142"
     width="0.65201735"
     height="3.4774256"
     x="95.194527"
     y="11.53334"
     rx="1.9735434e-15" />
  <rect
     style="fill:#ae0056;fill-opacity:0;stroke:none;stroke-width:2;stroke-linecap:round;stroke-linejoin:round;stroke-miterlimit:4;stroke-dasharray:none;stroke-opacity:1"
     id="rect4144"
     width="76.938042"
     height="32.818207"
     x="94.75985"
     y="11.53334"
     rx="1.9735434e-15" />
  <rect
     style="fill:#ae0056;fill-opacity:0;stroke:none;stroke-width:2;stroke-linecap:round;stroke-linejoin:round;stroke-miterlimit:4;stroke-dasharray:none;stroke-opacity:1"
     id="rect4146"
     width="75.851349"
     height="7.3895292"
     x="88.239677"
     y="11.53334"
     rx="1.9735434e-15" />
  <rect
     style="fill:#ae0056;fill-opacity:0;stroke:none;stroke-width:2;stroke-linecap:round;stroke-linejoin:round;stroke-miterlimit:4;stroke-dasharray:none;stroke-opacity:1"
     id="rect4148"
     width="60.20293"
     height="21.516571"
     x="93.021141"
     y="8.2732525"
     rx="2.1025827e-15" />
</svg>
