<svg xmlns="http://www.w3.org/2000/svg" viewBox="12218 1624 13.998 10.092"><defs><style>.a{fill:#d11831;fill-rule:evenodd;}</style></defs><g transform="translate(12218 1623.047)"><g transform="translate(-156 -388)"><g transform="translate(30 358)"><g transform="translate(126 30)"><path class="a" d="M13.9,6.343a.679.679,0,0,0-.014-.715c-2.117-3.1-4.4-4.675-6.8-4.675-4.06,0-6.88,4.508-7,4.7a.679.679,0,0,0,.014.715c2.114,3.105,4.4,4.678,6.794,4.678,4.06,0,6.88-4.508,7-4.7Zm-7,3.534C4.909,9.877,2.966,8.57,1.12,6c.723-1.018,3.02-3.875,5.971-3.875,1.994,0,3.937,1.307,5.783,3.882C12.152,7.021,9.855,9.877,6.9,9.877Z"/><path class="a" d="M7,3.661A2.421,2.421,0,0,0,4.509,6,2.421,2.421,0,0,0,7,8.337,2.421,2.421,0,0,0,9.486,6,2.421,2.421,0,0,0,7,3.661ZM7,7.417A1.467,1.467,0,0,1,5.489,6,1.467,1.467,0,0,1,7,4.582,1.467,1.467,0,0,1,8.506,6,1.467,1.467,0,0,1,7,7.417Z"/></g></g></g></g></svg>