<svg xmlns="http://www.w3.org/2000/svg" viewBox="1435 4455 17 17"><defs><style>.a{fill:#686a6a;}</style></defs><circle class="a" cx="5.5" cy="5.5" r="5.5" transform="translate(1438 4458)"/><rect class="a" width="1" height="2" transform="translate(1443 4470)"/><rect class="a" width="1" height="2" transform="translate(1446.317 4469.379) rotate(-30)"/><rect class="a" width="1" height="2" transform="translate(1448.879 4467.183) rotate(-60)"/><rect class="a" width="1" height="2" transform="translate(1450 4464) rotate(-90)"/><rect class="a" width="1" height="2" transform="translate(1436.389 4468.183) rotate(-120)"/><rect class="a" width="1" height="2" transform="translate(1439.683 4471.111) rotate(-150)"/><rect class="a" width="1" height="2" transform="translate(1443 4455)"/><rect class="a" width="1" height="2" transform="translate(1438.817 4456.389) rotate(-30)"/><rect class="a" width="1" height="2" transform="translate(1435.889 4459.683) rotate(-60)"/><rect class="a" width="1" height="2" transform="translate(1435 4464) rotate(-90)"/><rect class="a" width="1" height="2" transform="translate(1447.183 4458.121) rotate(-150)"/><rect class="a" width="1" height="2" transform="translate(1449.379 4460.683) rotate(-120)"/></svg>