<?xml version="1.0" encoding="UTF-8" standalone="no"?>
<!DOCTYPE svg PUBLIC "-//W3C//DTD SVG 1.1//EN" "http://www.w3.org/Graphics/SVG/1.1/DTD/svg11.dtd">
<svg>
<metadata>
Created by FontForge 20090914 at Sun Apr 14 13:28:19 2013
 By www-data
Cyrillic version Â©2000 Y.Warhol [beast inside arts]. All rights reserved. Any comments send to: warhol@mail.ru
</metadata>
<defs>
<font id="BeastvsSpreadTall" horiz-adv-x="341">
  <font-face font-family="Beast vs SpreadTall" font-weight="400" font-stretch="normal" units-per-em="1000" panose-1="2 11 6 3 5 3 2 2 2 4" ascent="800" descent="-200" x-height="533" cap-height="710.999" bbox="0 -176 711 877" underline-thickness="0" underline-position="0" unicode-range="U+0020-U+00FF"/>
<missing-glyph horiz-adv-x="500"/>
    <glyph glyph-name=".notdef" horiz-adv-x="500"/>
    <glyph glyph-name="space" unicode=" " horiz-adv-x="200"/>
    <glyph glyph-name="space" unicode=" " horiz-adv-x="200"/>
    <glyph glyph-name="exclam" unicode="!" horiz-adv-x="187" d="M89 0h89v89h-89v-89zM89 711v-519h89v519h-89z"/>
    <glyph glyph-name="quotedbl" unicode="&quot;" horiz-adv-x="326" d="M89 533c12 0 23.5 2.33301 34.5 7s20.5 11.167 28.5 19.5s14.333 17.833 19 28.5s7 22 7 34v89h-89v-178zM223 533c11.333 0 22.333 2.33301 33 7s20.167 11.167 28.5 19.5s15 17.833 20 28.5s7.5 22 7.5 34v89h-90z"/>
    <glyph glyph-name="numbersign" unicode="#" horiz-adv-x="309" d="M188 541v-89h-54v89h54zM78 363v-82h56v82h54v-82h56v82h50v89h-50v89h50v89l-50 -1v82h-56v-82l-54 1v81h-56v-81h-51v-89l51 -1v-88h-51v-89h51z"/>
    <glyph glyph-name="dollar" unicode="$" horiz-adv-x="324" d="M161 444c-8.66699 3.33301 -15.667 9 -21 17s-8 16.667 -8 26v135h29v-178zM191 89l-0.000976562 260c8.66699 -2.66699 15.834 -7.5 21.501 -14.5s8.5 -15.167 8.5 -24.5v-221h-30zM190.999 -5c16.667 2 32.3359 6.66797 47.0029 14.001s27.334 16.833 38.001 28.5 s19 25 25 40s9 31.167 9 48.5v184c0 16.667 -3 32.667 -9 48s-14.333 28.833 -25 40.5s-23.334 21.167 -38.001 28.5s-30.334 11.666 -47.001 12.999v182h29v-89h90v51c0 16.667 -3 32.667 -9 48s-14.333 29 -25 41s-23.334 21.833 -38.001 29.5 s-30.334 12.167 -47.001 13.5v90h-30v-89c-16 -2 -31.167 -6.83301 -45.5 -14.5s-26.833 -17.334 -37.5 -29.001s-19.167 -25.167 -25.5 -40.5s-9.5 -31.666 -9.5 -48.999v-97c0 -16.667 3.16699 -32.667 9.5 -48s14.833 -29 25.5 -41s23.167 -21.833 37.5 -29.5 s29.5 -12.167 45.5 -13.5v-266h-31v104h-87v-66c0 -18 3.16699 -34.5 9.5 -49.5s14.833 -28.333 25.5 -40s23.167 -21.167 37.5 -28.5s29.5 -12 45.5 -14l1 -82h29v82z"/>
    <glyph glyph-name="percent" unicode="%" horiz-adv-x="496" d="M111 286c-11.333 -12.667 -20.666 -27 -27.999 -43s-11 -33 -11 -51v-192h89v192c0 12.667 4.33301 23.334 13 32.001l215 214c11.333 13.333 20.666 28 27.999 44s11 33 11 51v178h-89v-178c0 -12.667 -4.33301 -23.334 -13 -32.001zM339 260 c-18 0 -35.167 -3.5 -51.5 -10.5s-30.5 -16.5 -42.5 -28.5s-21.5 -26.167 -28.5 -42.5s-10.5 -33.5 -10.5 -51.5c0 -18.667 3.5 -36 10.5 -52s16.5 -30 28.5 -42s26.167 -21.333 42.5 -28s33.5 -10 51.5 -10s35.167 3.33301 51.5 10s30.5 16 42.5 28s21.667 26 29 42 s11 33.333 11 52c0 18 -3.66699 35.167 -11 51.5s-17 30.5 -29 42.5s-26.167 21.5 -42.5 28.5s-33.5 10.5 -51.5 10.5zM339 82c-12.667 0 -23.167 4.5 -31.5 13.5s-12.5 19.5 -12.5 31.5s4.16699 22.333 12.5 31s18.833 13 31.5 13c12 0 22.5 -4.33301 31.5 -13 s13.5 -19 13.5 -31s-4.5 -22.5 -13.5 -31.5s-19.5 -13.5 -31.5 -13.5zM161 718c-18 0 -35.167 -3.5 -51.5 -10.5s-30.5 -16.5 -42.5 -28.5s-21.667 -26.167 -29 -42.5s-11 -33.5 -11 -51.5s3.66699 -35.167 11 -51.5s17 -30.666 29 -42.999s26.167 -22 42.5 -29 s33.5 -10.5 51.5 -10.5s35.167 3.5 51.5 10.5s30.5 16.667 42.5 29s21.5 26.666 28.5 42.999s10.5 33.5 10.5 51.5s-3.5 35.167 -10.5 51.5s-16.5 30.5 -28.5 42.5s-26.167 21.5 -42.5 28.5s-33.5 10.5 -51.5 10.5zM161 540c-12 0 -22.333 4.5 -31 13.5s-13 19.5 -13 31.5 s4.33301 22.333 13 31s19 13 31 13s22.5 -4.33301 31.5 -13s13.5 -19 13.5 -31s-4.5 -22.5 -13.5 -31.5s-19.5 -13.5 -31.5 -13.5z"/>
    <glyph glyph-name="ampersand" unicode="&amp;" horiz-adv-x="324" d="M132 -87h89v87h89v89h-178v89c0 24.667 4.16699 45.667 12.5 63s19.166 26 32.499 26h89v89h-89c-13.333 0 -24.166 8.66699 -32.499 26s-12.5 38 -12.5 62v45h178v89h-89v71h-89v-79c-25.333 -9.33301 -46.5 -25.166 -63.5 -47.499s-25.5 -48.5 -25.5 -78.5v-1 c0 -18.667 3.33301 -36 10 -52s16 -29.833 28 -41.5s26 -20.834 42 -27.501s33.333 -10 52 -10c-18 0 -35 -3.66699 -51 -11s-30 -17 -42 -29s-21.5 -26.167 -28.5 -42.5s-10.5 -33.5 -10.5 -51.5v-45c0 -30 8.5 -56 25.5 -78s38.167 -37.667 63.5 -47v-95z"/>
    <glyph glyph-name="quotesingle" unicode="'" horiz-adv-x="187" d="M89 533c12 0 23.5 2.33301 34.5 7s20.5 11.167 28.5 19.5s14.333 17.833 19 28.5s7 22 7 34v89h-89v-178z"/>
    <glyph glyph-name="parenleft" unicode="(" horiz-adv-x="233" d="M222 -132l1 88.999h-45v798h44v89c-18.667 0.666992 -36 -2.5 -52 -9.5s-30 -16.667 -42 -29s-21.5 -26.666 -28.5 -42.999s-10.5 -33.5 -10.5 -51.5v-711c0 -17.333 3.5 -34 10.5 -50s16.5 -30 28.5 -42s26 -21.667 42 -29s33.333 -11 52 -11z"/>
    <glyph glyph-name="parenright" unicode=")" horiz-adv-x="186" d="M43 -132c18 0 35.167 3.66797 51.5 11.001s30.5 17 42.5 29s21.667 26 29 42s11 32.667 11 50v711c0 18 -3.66699 35.167 -11 51.5s-17 30.666 -29 42.999s-26.167 22 -42.5 29s-33.5 10.167 -51.5 9.5v-89h45v-798h-45v-89z"/>
    <glyph glyph-name="asterisk" unicode="*" horiz-adv-x="403" d="M157 518l-80 -111l49 -35l80 110l80 -110l49 35l-80 111l130 42l-19 56l-130 -42l-1 137h-58v-137l-131 42l-19 -56z"/>
    <glyph glyph-name="plus" unicode="+" horiz-adv-x="373" d="M178 193v-89h89v89h88v88h-88v89h-89v-89h-89v-88h89z"/>
    <glyph glyph-name="comma" unicode="," horiz-adv-x="187" d="M178 1v88h-89v-176c12 0 23.5 2.33301 34.5 7s20.5 11 28.5 19s14.333 17.333 19 28s7 22 7 34z"/>
    <glyph glyph-name="hyphen" unicode="-" horiz-adv-x="373" d="M89 193h266v89h-266v-89z"/>
    <glyph glyph-name="period" unicode="." horiz-adv-x="187" d="M89 0h89v89h-89v-89z"/>
    <glyph glyph-name="slash" unicode="/" horiz-adv-x="402" d="M67 183l-26 -45.498c-8.66699 -15 -13 -31.167 -13 -48.5v-89h89v89c0 6 1.5 11.333 4.5 16s5.83301 9.66699 8.5 15l215 407c8 15.333 16.5 30.666 25.5 45.999s13.5 31.666 13.5 48.999v89h-89v-89c0 -6 -1.66699 -11.5 -5 -16.5s-6.33301 -10.167 -9 -15.5z"/>
    <glyph glyph-name="zero" unicode="0" d="M147 622h89v-533h-89v533zM325 127v458c0 18 -3.5 35.167 -10.5 51.5s-16.5 30.5 -28.5 42.5s-26.167 21.5 -42.5 28.5s-33.833 10.5 -52.5 10.5s-36 -3.5 -52 -10.5s-30 -16.5 -42 -28.5s-21.333 -26.167 -28 -42.5s-10 -33.5 -10 -51.5v-458 c0 -18.667 3.33301 -36 10 -52s16 -30 28 -42s26 -21.333 42 -28s33.333 -10 52 -10s36.167 3.33301 52.5 10s30.5 16 42.5 28s21.5 26 28.5 42s10.5 33.333 10.5 52z"/>
    <glyph glyph-name="one" unicode="1" horiz-adv-x="216" d="M117 579v-579h89v718l-179 -82l38 -80z"/>
    <glyph glyph-name="two" unicode="2" d="M325 0l-0.000976562 89h-178v214c0 12 4.5 22.333 13.5 31s19.167 13 30.5 13c18.667 0 36.167 3.5 52.5 10.5s30.5 16.5 42.5 28.5s21.5 26 28.5 42s10.5 33.333 10.5 52v105c0 18 -3.5 35.167 -10.5 51.5s-16.5 30.5 -28.5 42.5s-26.167 21.5 -42.5 28.5 s-33.833 10.5 -52.5 10.5s-36 -3.5 -52 -10.5s-30 -16.5 -42 -28.5s-21.333 -26.167 -28 -42.5s-10 -33.5 -10 -51.5v-52h88v89h89v-142c0 -12.667 -4.16699 -23.167 -12.5 -31.5s-19.166 -12.5 -32.499 -12.5c-18.667 0 -36 -3.5 -52 -10.5s-30 -16.5 -42 -28.5 s-21.333 -26.167 -28 -42.5s-10 -33.5 -10 -51.5v-303h266z"/>
    <glyph glyph-name="three" unicode="3" horiz-adv-x="356" d="M73 586v-53.001h89v89h89v-96c0 -23.333 -4.33301 -43.833 -13 -61.5s-19 -26.5 -31 -26.5h-89v-89h89c12 0 22.333 -8.66699 31 -26s13 -38.333 13 -63v-171h-89v193h-89v-155c0 -18.667 3.66699 -36 11 -52s17 -30 29 -42s26.167 -21.333 42.5 -28s33.5 -10 51.5 -10 s35.167 3.33301 51.5 10s30.5 16 42.5 28s21.5 26 28.5 42s10.5 33.333 10.5 52v133c0 18 -3.5 35.167 -10.5 51.5s-16.5 30.5 -28.5 42.5s-26 21.667 -42 29s-33 11 -51 11c18.667 0 36 3.33301 52 10s30 15.834 42 27.501s21.333 25.5 28 41.5s10 33.333 10 52v60 c0 18 -3.5 35.167 -10.5 51.5s-16.5 30.5 -28.5 42.5s-26.167 21.5 -42.5 28.5s-33.5 10.5 -51.5 10.5s-35.167 -3.5 -51.5 -10.5s-30.5 -16.5 -42.5 -28.5s-21.667 -26 -29 -42s-11 -33 -11 -51z"/>
    <glyph glyph-name="four" unicode="4" horiz-adv-x="310" d="M206 281h-89l89 215v-215zM295 711h-89l-179 -430v-89h179v-192h89v711z"/>
    <glyph glyph-name="five" unicode="5" d="M59 127c0 -18.667 3.33398 -36 10.001 -52s16 -30 28 -42s26 -21.333 42 -28s33.333 -10 52 -10s36.167 3.33301 52.5 10s30.5 16 42.5 28s21.5 26 28.5 42s10.5 33.333 10.5 52v267c0 18 -3.5 35.167 -10.5 51.5s-16.5 30.5 -28.5 42.5s-26.167 21.5 -42.5 28.5 s-33.833 10.5 -52.5 10.5h-44v95h178v89h-266v-273h132c13.333 0 24.166 -4.5 32.499 -13.5s12.5 -19.167 12.5 -30.5v-305h-89v193h-88v-155z"/>
    <glyph glyph-name="six" unicode="6" d="M147 89v351h89v-351h-89zM59 127c0 -18.667 3.33301 -36 10 -52s16 -30 28 -42s26 -21.333 42 -28s33.333 -10 52 -10s36.167 3.33301 52.5 10s30.5 16 42.5 28s21.5 26 28.5 42s10.5 33.333 10.5 52v269c0 18.667 -3.5 36 -10.5 52s-16.5 30 -28.5 42 s-26.167 21.5 -42.5 28.5s-33.833 10.5 -52.5 10.5c-13.333 0 -28 -2.66699 -44 -8v101h89v-37h89c0 18 -3.5 35.167 -10.5 51.5s-16.5 30.5 -28.5 42.5s-26.167 21.5 -42.5 28.5s-33.833 10.5 -52.5 10.5s-36 -3.5 -52 -10.5s-30 -16.5 -42 -28.5 s-21.333 -26.167 -28 -42.5s-10 -33.5 -10 -51.5v-458z"/>
    <glyph glyph-name="seven" unicode="7" horiz-adv-x="324" d="M221 622l-178 -622h92l175 610v12v89h-267v-178h89v89h89z"/>
    <glyph glyph-name="eight" unicode="8" horiz-adv-x="324" d="M221 439h-89v183h89v-183zM251 395c18.667 10.667 33.167 26.167 43.5 46.5s15.5 41.833 15.5 64.5v79c0 18 -3.5 35.167 -10.5 51.5s-16.667 30.5 -29 42.5s-26.5 21.5 -42.5 28.5s-33 10.5 -51 10.5c-18.667 0 -36.167 -3.5 -52.5 -10.5s-30.5 -16.5 -42.5 -28.5 s-21.5 -26.167 -28.5 -42.5s-10.5 -33.5 -10.5 -51.5v-79c0 -22.667 5.33301 -44.167 16 -64.5s25.334 -35.833 44.001 -46.5c-18.667 -13.333 -33.334 -29.333 -44.001 -48s-16 -40 -16 -64v-156c0 -18.667 3.5 -36 10.5 -52s16.5 -30 28.5 -42s26.167 -21.333 42.5 -28 s33.833 -10 52.5 -10c18 0 35 3.33301 51 10s30.167 16 42.5 28s22 26 29 42s10.5 33.333 10.5 52v156c0 23.333 -5.33301 44.5 -16 63.5s-25 35.167 -43 48.5zM221 351v-262h-89v262h89z"/>
    <glyph glyph-name="nine" unicode="9" horiz-adv-x="324" d="M221 622v-340h-89v340h89zM310 585c0 18 -3.5 35.166 -10.5 51.499s-16.5 30.5 -28.5 42.5s-26.167 21.5 -42.5 28.5s-33.5 10.5 -51.5 10.5c-18.667 0 -36.167 -3.5 -52.5 -10.5s-30.5 -16.5 -42.5 -28.5s-21.5 -26.167 -28.5 -42.5s-10.5 -33.5 -10.5 -51.5v-262 c0 -18.667 3.5 -36.167 10.5 -52.5s16.5 -30.5 28.5 -42.5s26.167 -21.5 42.5 -28.5s33.833 -10.5 52.5 -10.5c13.333 0 28 2.66699 44 8v-63c0 -13.333 -4.33301 -24.166 -13 -32.499s-19 -12.5 -31 -12.5h-45v-89h45c18 0 35.167 3.5 51.5 10.5s30.5 16.5 42.5 28.5 s21.5 26.167 28.5 42.5s10.5 33.833 10.5 52.5v451z"/>
    <glyph glyph-name="colon" unicode=":" horiz-adv-x="187" d="M89 0h89v89h-89v-89zM89 178h89v89h-89v-89z"/>
    <glyph glyph-name="semicolon" unicode=";" horiz-adv-x="187" d="M178 1v88h-89v-176c12 0 23.5 2.33301 34.5 7s20.5 11 28.5 19s14.333 17.333 19 28s7 22 7 34zM89 282v-89h89v89h-89z"/>
    <glyph glyph-name="less" unicode="&lt;" horiz-adv-x="373" d="M89 186l266 -155v103l-176 102l176 105v102l-266 -154v-103z"/>
    <glyph glyph-name="equal" unicode="=" horiz-adv-x="373" d="M89 378v-89h266v89h-266zM355 186h-266v-89h266v89z"/>
    <glyph glyph-name="greater" unicode="&gt;" horiz-adv-x="373" d="M355 186v103l-266 154v-102l177 -105l-177 -102v-103z"/>
    <glyph glyph-name="question" unicode="?" horiz-adv-x="310" d="M27 585l-0.000976562 -52.001h90v89h89v-218c0 -5.33301 -1.33301 -10.833 -4 -16.5s-6 -10.834 -10 -15.501l-36 -30c-13.333 -11.333 -23.166 -25.5 -29.499 -42.5s-9.5 -34.167 -9.5 -51.5v-56h89v56c0 12 4.33301 22.333 13 31l37 31 c12 10.667 21.5 24.834 28.5 42.501s10.5 34.834 10.5 51.501v181c0 18 -3.66699 35.167 -11 51.5s-17 30.5 -29 42.5s-26.167 21.5 -42.5 28.5s-33.5 10.5 -51.5 10.5s-35.167 -3.5 -51.5 -10.5s-30.5 -16.5 -42.5 -28.5s-21.667 -26.167 -29 -42.5s-11 -33.5 -11 -51.5z M116.999 88.999v-89h89v89h-89z"/>
    <glyph glyph-name="at" unicode="@" d="M317 89l-192 0.000976562v355h134v-237h-23v103c0 12 -4.16699 22.333 -12.5 31s-19.166 13 -32.499 13h-44v-30h59v-23h-15c-11.333 0 -21.5 -4.5 -30.5 -13.5s-13.5 -19.167 -13.5 -30.5v-35c0 -12 4.5 -22.333 13.5 -31s19.167 -13 30.5 -13h134v229 c0 18.667 -3.5 36 -10.5 52s-16.5 30 -28.5 42s-26.167 21.5 -42.5 28.5s-33.833 10.5 -52.5 10.5s-36 -3.5 -52 -10.5s-30 -16.5 -42 -28.5s-21.333 -26.167 -28 -42.5s-10 -33.833 -10 -52.5v-280c0 -18.667 3.33301 -36 10 -52s16 -29.833 28 -41.5 s26 -20.834 42 -27.501s33.333 -10 52 -10c30 0 56.167 8.83301 78.5 26.5s38.166 40.167 47.499 67.5zM206 207.001h-29v64h29v-64z"/>
    <glyph glyph-name="A" unicode="A" horiz-adv-x="356" d="M73 585l1 -585h89v192h88v-192h89v585c0 18 -3.5 35.167 -10.5 51.5s-16.5 30.5 -28.5 42.5s-26.167 21.5 -42.5 28.5s-33.5 10.5 -51.5 10.5s-35.167 -3.5 -51.5 -10.5s-30.5 -16.5 -42.5 -28.5s-21.667 -26.167 -29 -42.5s-11 -33.5 -11 -51.5zM163 281v341h88v-341 h-88z"/>
    <glyph glyph-name="B" unicode="B" horiz-adv-x="373" d="M89 711l-0.000976562 -711h134c18 0 35 3.5 51 10.5s30 16.667 42 29s21.5 26.5 28.5 42.5s10.5 33 10.5 51v134c0 18 -3.33301 35.167 -10 51.5s-16 30.5 -28 42.5s-26 21.5 -42 28.5s-33 10.5 -51 10.5c18.667 0 36 3.33301 52 10s29.833 16 41.5 28 s20.834 26 27.501 42s10 33.333 10 52v46c0 18 -3.5 35 -10.5 51s-16.5 30.167 -28.5 42.5s-26 22 -42 29s-33 10.5 -51 10.5h-134zM177.999 445v177h89v-89c0 -24.667 -4.5 -45.5 -13.5 -62.5s-19.167 -25.5 -30.5 -25.5h-45zM177.999 355h45 c11.333 0 21.5 -8.5 30.5 -25.5s13.5 -37.833 13.5 -62.5v-178h-89v266z"/>
    <glyph glyph-name="C" unicode="C" d="M325 583c0 18.667 -3.5 36.167 -10.5 52.5s-16.5 30.666 -28.5 42.999s-26.167 22 -42.5 29s-33.833 10.5 -52.5 10.5s-36 -3.5 -52 -10.5s-30 -16.667 -42 -29s-21.333 -26.666 -28 -42.999s-10 -33.833 -10 -52.5v-454c0 -18.667 3.33301 -36.167 10 -52.5 s16 -30.5 28 -42.5s26 -21.5 42 -28.5s33.333 -10.5 52 -10.5s36.167 3.5 52.5 10.5s30.5 16.5 42.5 28.5s21.5 26.167 28.5 42.5s10.5 33.833 10.5 52.5v153h-89v-193h-89v533h89v-89h89v50z"/>
    <glyph glyph-name="D" unicode="D" horiz-adv-x="373" d="M89 0h134c18 0 35 3.5 51 10.5s30 16.667 42 29s21.5 26.5 28.5 42.5s10.5 33 10.5 51v445c0 18.667 -3.5 36 -10.5 52s-16.5 30 -28.5 42s-26 21.5 -42 28.5s-33 10.5 -51 10.5h-134v-711zM178 622h89v-533h-89v533z"/>
    <glyph glyph-name="E" unicode="E" d="M59 133c0 -18 3.33301 -35 10 -51s16 -30.167 28 -42.5s26 -22 42 -29s33.333 -10.5 52 -10.5h134v89h-178v266h89v89h-89v178h178v89h-134c-18.667 0 -36 -3.5 -52 -10.5s-30 -16.5 -42 -28.5s-21.333 -26.167 -28 -42.5s-10 -33.5 -10 -51.5v-445z"/>
    <glyph glyph-name="F" unicode="F" horiz-adv-x="356" d="M207 711c-18 0 -35.167 -3.5 -51.5 -10.5s-30.5 -16.5 -42.5 -28.5s-21.667 -26.167 -29 -42.5s-11 -33.5 -11 -51.5v-578h89v355h89v89h-89v178h178v89h-133z"/>
    <glyph glyph-name="G" unicode="G" d="M325 355c0 25.333 -8.5 46.666 -25.5 63.999s-38.167 26 -63.5 26h-45v-90h45v-266h-89v533h132v89h-88c-18.667 0 -36 -3.5 -52 -10.5s-30 -16.667 -42 -29s-21.333 -26.666 -28 -42.999s-10 -33.833 -10 -52.5v-448c0 -19.333 3.33301 -37 10 -53s16 -30 28 -42 s26 -21.333 42 -28s33.333 -10 52 -10s36.167 3.33301 52.5 10s30.5 16 42.5 28s21.5 26 28.5 42s10.5 33.667 10.5 53v227z"/>
    <glyph glyph-name="H" unicode="H" horiz-adv-x="373" d="M89 711v-711h89v355h89v-355h88v711h-88v-267h-89v267h-89z"/>
    <glyph glyph-name="I" unicode="I" horiz-adv-x="170" d="M162 -5v715.999h-89v-629c0 -25.333 8.83301 -46.166 26.5 -62.499s38.5 -24.5 62.5 -24.5z"/>
    <glyph glyph-name="J" unicode="J" horiz-adv-x="310" d="M295 128v583h-178v-89h89v-533h-89v103h-90v-64c0 -19.333 3.66699 -37 11 -53s17 -30 29 -42s26.167 -21.333 42.5 -28s33.5 -10 51.5 -10s35.167 3.5 51.5 10.5s30.5 16.667 42.5 29s21.667 26.5 29 42.5s11 33 11 51z"/>
    <glyph glyph-name="K" unicode="K" horiz-adv-x="373" d="M355 711h-88.001v-178c0 -24.667 -4.5 -45.5 -13.5 -62.5s-19.167 -25.5 -30.5 -25.5l-45 -1v267h-89v-711h89v355h45c11.333 0 21.5 -8.5 30.5 -25.5s13.5 -37.833 13.5 -62.5v-267h88v267c0 18 -3.33301 35.167 -10 51.5s-16 30.5 -28 42.5s-26 21.5 -42 28.5 s-33 10.5 -51 10.5c18.667 0 36 3.33301 52 10s29.833 16 41.5 28s20.834 26 27.501 42s10 33.333 10 52v179z"/>
    <glyph glyph-name="L" unicode="L" horiz-adv-x="356" d="M207 0h133v89h-177v622h-90v-578c0 -18 3.66699 -35 11 -51s17 -30.167 29 -42.5s26.167 -22 42.5 -29s33.5 -10.5 51.5 -10.5z"/>
    <glyph glyph-name="M" unicode="M" horiz-adv-x="560" d="M312 680c-12 10 -25.668 18.168 -41.001 24.501s-31.333 9.5 -48 9.5h-134v-714h89v622h89v-429h88v429h89v-622h89v584c0 18 -3.33301 35.167 -10 51.5s-16 30.666 -28 42.999s-26.167 22 -42.5 29s-33.833 10.5 -52.5 10.5c-17.333 0 -33.666 -3.66699 -48.999 -11 s-28.333 -16.333 -39 -27z"/>
    <glyph glyph-name="N" unicode="N" horiz-adv-x="373" d="M267 316l-101 395h-77v-711h89v396l101 -396h76v711h-88v-395z"/>
    <glyph glyph-name="O" unicode="O" d="M147 622h89v-533h-89v533zM325 129v453c0 18.667 -3.5 36.334 -10.5 53.001s-16.5 31.167 -28.5 43.5s-26.167 22 -42.5 29s-33.833 10.5 -52.5 10.5s-36 -3.5 -52 -10.5s-30 -16.667 -42 -29s-21.333 -26.833 -28 -43.5s-10 -34.334 -10 -53.001v-453 c0 -18.667 3.33301 -36.167 10 -52.5s16 -30.5 28 -42.5s26 -21.5 42 -28.5s33.333 -10.5 52 -10.5s36.167 3.5 52.5 10.5s30.5 16.5 42.5 28.5s21.5 26.167 28.5 42.5s10.5 33.833 10.5 52.5z"/>
    <glyph glyph-name="P" unicode="P" horiz-adv-x="373" d="M355 577c0 18.667 -3.5 36.167 -10.5 52.5s-16.5 30.5 -28.5 42.5s-26 21.5 -42 28.5s-33 10.5 -51 10.5h-134v-711h89v192h45c18 0 35 3.66699 51 11s30 17 42 29s21.5 26 28.5 42s10.5 33 10.5 51v252zM267 281h-89v341h89v-341z"/>
    <glyph glyph-name="Q" unicode="Q" horiz-adv-x="435" d="M147 622h89v-533h-89v533zM325 585c0 18 -3.5 35.167 -10.5 51.5s-16.5 30.5 -28.5 42.5s-26.167 21.5 -42.5 28.5s-33.833 10.5 -52.5 10.5s-36 -3.66699 -52 -11s-30 -17 -42 -29s-21.333 -26.167 -28 -42.5s-10 -33.5 -10 -51.5v-451c0 -18 3.33301 -35 10 -51 s16 -30.167 28 -42.5s26 -22 42 -29s33.333 -10.5 52 -10.5h223v89h-89v496z"/>
    <glyph glyph-name="R" unicode="R" horiz-adv-x="373" d="M178 445v177h89v-89c0 -24.667 -4.5 -45.5 -13.5 -62.5s-19.167 -25.5 -30.5 -25.5h-45zM178 0l-0.000976562 355h45c11.333 0 21.5 -8.5 30.5 -25.5s13.5 -37.833 13.5 -62.5v-267h88v267c0 18.667 -3.33301 36 -10 52s-16 29.833 -28 41.5s-26 21 -42 28 s-33 10.833 -51 11.5c18.667 0 36 3.5 52 10.5s29.833 16.333 41.5 28s20.834 25.5 27.501 41.5s10 33 10 51v47c0 18 -3.5 35 -10.5 51s-16.5 30.167 -28.5 42.5s-26 22 -42 29s-33 10.5 -51 10.5h-134v-711h89z"/>
    <glyph glyph-name="S" unicode="S" horiz-adv-x="324" d="M177 -5c18 0 34.999 3.50098 50.999 10.501s30.167 16.5 42.5 28.5s22 26.167 29 42.5s10.5 33.833 10.5 52.5v180c0 18.667 -3.5 36.167 -10.5 52.5s-16.5 30.666 -28.5 42.999s-26.167 22 -42.5 29s-33.5 10.5 -51.5 10.5c-13.333 0 -24.166 4.5 -32.499 13.5 s-12.5 19.5 -12.5 31.5v133h89v-89h89v49c0 18.667 -3.5 36.334 -10.5 53.001s-16.667 31.167 -29 43.5s-26.5 22 -42.5 29s-33 10.5 -51 10.5c-18.667 0 -36.167 -3.5 -52.5 -10.5s-30.5 -16.667 -42.5 -29s-21.5 -26.833 -28.5 -43.5s-10.5 -34.334 -10.5 -53.001v-93 c0 -18.667 3.5 -36.167 10.5 -52.5s16.5 -30.666 28.5 -42.999s26.167 -22 42.5 -29s33.833 -10.5 52.5 -10.5c12 0 22.333 -4.33301 31 -13s13 -19.334 13 -32.001v-220h-89v103h-89v-63c0 -18.667 3.5 -36.167 10.5 -52.5s16.5 -30.5 28.5 -42.5s26.167 -21.5 42.5 -28.5 s33.833 -10.5 52.5 -10.5z"/>
    <glyph glyph-name="T" unicode="T" horiz-adv-x="310" d="M206 -5v626.999h89v89h-268v-89h90v-540c0 -25.333 8.66699 -46.166 26 -62.499s38.333 -24.5 63 -24.5z"/>
    <glyph glyph-name="U" unicode="U" horiz-adv-x="356" d="M340 128v583h-88v-622h-89v622h-90v-583c0 -19.333 3.66699 -37 11 -53s17 -30 29 -42s26.167 -21.333 42.5 -28s33.5 -10 51.5 -10s35.167 3.33301 51.5 10s30.5 16 42.5 28s21.5 26 28.5 42s10.5 33.667 10.5 53z"/>
    <glyph glyph-name="V" unicode="V" horiz-adv-x="373" d="M223 0c18 0 35 3.5 51 10.5s30 16.667 42 29s21.5 26.5 28.5 42.5s10.5 33 10.5 51v578h-88v-622h-89v622h-89v-711h134z"/>
    <glyph glyph-name="W" unicode="W" horiz-adv-x="544" d="M296 28c24 -22 53.667 -33 89 -33c18 0 35.167 3.33301 51.5 10s30.5 16 42.5 28s21.667 26 29 42s11 33.667 11 53v583h-89v-622h-90v430h-88v-430h-89v622h-90v-583c0 -19.333 3.66699 -37 11 -53s17 -30 29 -42s26.167 -21.333 42.5 -28s33.5 -10 51.5 -10 c34 0 63.667 11 89 33z"/>
    <glyph glyph-name="X" unicode="X" horiz-adv-x="357" d="M138 400l-25 -19.9971c-12 -12.667 -21.667 -27 -29 -43s-11 -32.667 -11 -50v-287h90v287c-0.666992 6 0.333008 11.667 3 17s6 9.66602 10 12.999l31 25l31 -25c9.33301 -8 14 -18 14 -30v-287h89v287c0 17.333 -3.66699 34 -11 50s-17 30.333 -29 43l-25 20l25 21 c12.667 11.333 22.5 25.666 29.5 42.999s10.5 34.666 10.5 51.999v195h-89v-195c0 -12.667 -4.66699 -23.667 -14 -33l-31 -26l-31 26c-8.66699 8.66699 -13 19.667 -13 33v195h-90v-195c0 -17.333 3.66699 -34.5 11 -51.5s17 -31.5 29 -43.5z"/>
    <glyph glyph-name="Y" unicode="Y" horiz-adv-x="324" d="M310 320v391h-89v-429h-89v429h-89v-391c0 -14 2.16699 -27.5 6.5 -40.5s10.5 -25 18.5 -36s17.5 -20.833 28.5 -29.5s22.833 -15.334 35.5 -20.001v-194h89v194c12.667 4.66699 24.5 11.334 35.5 20.001s20.5 18.5 28.5 29.5s14.167 23 18.5 36s6.5 26.5 6.5 40.5z"/>
    <glyph glyph-name="Z" unicode="Z" horiz-adv-x="324" d="M82 379c-11.333 -11.333 -20.666 -25.499 -27.999 -42.499s-11 -34.167 -11 -51.5v-285h267v89h-178v196c0 13.333 4.33301 23.666 13 30.999l126 104c11.333 12.667 20.666 27 27.999 43s11 33.333 11 52v196h-267v-89h178v-107c0 -14 -4.66699 -25 -14 -33z"/>
    <glyph glyph-name="bracketleft" unicode="[" horiz-adv-x="279" d="M267 -132v89h-89v798h89v89h-178v-976h178z"/>
    <glyph glyph-name="backslash" unicode="\" horiz-adv-x="402" d="M345 183l-214.999 407c-2.66699 5.33301 -5.5 10.5 -8.5 15.5s-4.5 10.5 -4.5 16.5v89h-90v-89c0 -17.333 4.66699 -33.333 14 -48s17.666 -30.334 24.999 -47.001l215 -407c2.66699 -5.33301 5.66699 -10.333 9 -15s5 -10 5 -16v-89h89v89 c0 16.667 -4.5 32.834 -13.5 48.501z"/>
    <glyph glyph-name="bracketright" unicode="]" horiz-adv-x="216" d="M28 -132h178v976h-178v-89h89v-798h-90z"/>
    <glyph glyph-name="asciicircum" unicode="^" horiz-adv-x="309" d="M117 622c12 12 26.334 18 43.001 18c17.333 0 32.666 -6 45.999 -18l31 -32l13 -13l44 45l-133 133l-134 -133l45 -45z"/>
    <glyph glyph-name="underscore" unicode="_" horiz-adv-x="746" d="M0 -72h711v30h-711v-30z"/>
    <glyph glyph-name="grave" unicode="`" horiz-adv-x="216" d="M27 711l134 -133h45l-89 133h-90z"/>
    <glyph glyph-name="a" unicode="a" d="M236 89h-89v192h89v-192zM191 0l134 0.000976562v399c0 19.333 -3.5 37.166 -10.5 53.499s-16.5 30.5 -28.5 42.5s-26.167 21.333 -42.5 28s-33.833 10 -52.5 10h-132v-89h177v-72h-45c-18.667 0 -36 -3.5 -52 -10.5s-30 -16.5 -42 -28.5s-21.333 -26.167 -28 -42.5 s-10 -33.833 -10 -52.5v-104c0 -18.667 3.33301 -36.167 10 -52.5s16 -30.5 28 -42.5s26 -21.5 42 -28.5s33.333 -10.5 52 -10.5z"/>
    <glyph glyph-name="b" unicode="b" horiz-adv-x="373" d="M178 444h89v-355h-89v355zM223 533h-45v178h-89v-711h134c18 0 35 3.5 51 10.5s30 16.667 42 29s21.5 26.5 28.5 42.5s10.5 33 10.5 51v267c0 18.667 -3.5 36.167 -10.5 52.5s-16.5 30.5 -28.5 42.5s-26 21.333 -42 28s-33 10 -51 10z"/>
    <glyph glyph-name="c" unicode="c" d="M325 405c0 18.667 -3.5 36.334 -10.5 53.001s-16.5 31 -28.5 43s-26.167 21.5 -42.5 28.5s-33.833 10.5 -52.5 10.5s-36 -3.5 -52 -10.5s-30 -16.5 -42 -28.5s-21.333 -26.333 -28 -43s-10 -34.334 -10 -53.001v-276c0 -18.667 3.33301 -36.167 10 -52.5 s16 -30.5 28 -42.5s26 -21.5 42 -28.5s33.333 -10.5 52 -10.5s36.167 3.5 52.5 10.5s30.5 16.5 42.5 28.5s21.5 26.167 28.5 42.5s10.5 33.833 10.5 52.5v64h-89v-104h-89v355h89v-89h89v50z"/>
    <glyph glyph-name="d" unicode="d" d="M236 444v-355h-89v355h89zM191 533c-18.667 0 -36 -3.33301 -52 -10s-30 -16 -42 -28s-21.333 -26.167 -28 -42.5s-10 -33.833 -10 -52.5v-267c0 -18 3.33301 -35 10 -51s16 -30.167 28 -42.5s26 -22 42 -29s33.333 -10.5 52 -10.5h134v711h-89v-178h-45z"/>
    <glyph glyph-name="e" unicode="e" d="M191 540c-18.667 0 -36 -3.49902 -52 -10.499s-30 -16.667 -42 -29s-21.333 -26.833 -28 -43.5s-10 -34.334 -10 -53.001v-275c0 -18.667 3.33301 -36.167 10 -52.5s16 -30.5 28 -42.5s26 -21.5 42 -28.5s33.333 -10.5 52 -10.5s36.167 3.5 52.5 10.5 s30.5 16.5 42.5 28.5s21.5 26.167 28.5 42.5s10.5 33.833 10.5 52.5v49h-89v-89h-89v178h178v137c0 19.333 -3.5 37.333 -10.5 54s-16.5 31 -28.5 43s-26.167 21.5 -42.5 28.5s-33.833 10.5 -52.5 10.5zM147 444.001h89v-89h-89v89z"/>
    <glyph glyph-name="f" unicode="f" horiz-adv-x="248" d="M147 -176v531h59v89h-59v89h89v89h-45c-18.667 0 -36 -3.5 -52 -10.5s-30 -16.5 -42 -28.5s-21.333 -26.167 -28 -42.5s-10 -33.5 -10 -51.5v-576c0 -12 2.33301 -23.333 7 -34s11 -20.167 19 -28.5s17.333 -14.833 28 -19.5s22 -7 34 -7z"/>
    <glyph glyph-name="g" unicode="g" d="M59 400v-266c0 -18.667 3.33301 -36.167 10 -52.5s16 -30.5 28 -42.5s26 -21.5 42 -28.5s33.333 -10.5 52 -10.5h45v-87h-177v-89h132c18.667 0 36.167 3.66699 52.5 11s30.5 17 42.5 29s21.5 26.167 28.5 42.5s10.5 33.5 10.5 51.5v575h-134 c-18.667 0 -36 -3.33301 -52 -10s-30 -16 -42 -28s-21.333 -26.167 -28 -42.5s-10 -33.833 -10 -52.5zM147 444h89v-355h-89v355z"/>
    <glyph glyph-name="h" unicode="h" horiz-adv-x="373" d="M355 402c0 18.667 -3.33301 35.999 -10 51.999s-16 29.833 -28 41.5s-26 20.834 -42 27.501s-33.333 10 -52 10l-45 1v177h-89v-711h89v444h89v-444h88v402z"/>
    <glyph glyph-name="i" unicode="i" horiz-adv-x="170" d="M162 -5v537.999h-89v-451c0 -25.333 8.83301 -46.166 26.5 -62.499s38.5 -24.5 62.5 -24.5zM73 710.999v-89h89v89h-89z"/>
    <glyph glyph-name="j" unicode="j" horiz-adv-x="216" d="M27 -176h45c18.667 0 36.167 3.5 52.5 10.5s30.5 16.667 42.5 29s21.5 26.5 28.5 42.5s10.5 33 10.5 51v576h-89v-620h-90v-89zM117 711v-89h89v89h-89z"/>
    <glyph glyph-name="k" unicode="k" horiz-adv-x="373" d="M355 533h-88.001v-163c0 -24.667 -4.5 -45.5 -13.5 -62.5s-19.167 -25.5 -30.5 -25.5l-45 -1v430h-89v-711h89v192h45c11.333 0 21.5 -8.5 30.5 -25.5s13.5 -37.833 13.5 -62.5v-104h88v104c0 18 -3.33301 35.167 -10 51.5s-16 30.5 -28 42.5s-26 21.5 -42 28.5 s-33 10.5 -51 10.5c18.667 0 36 3.33301 52 10s29.833 16 41.5 28s20.834 26 27.501 42s10 33.333 10 52v164z"/>
    <glyph glyph-name="l" unicode="l" horiz-adv-x="170" d="M162 -5v715.999h-89v-629c0 -25.333 8.83301 -46.166 26.5 -62.499s38.5 -24.5 62.5 -24.5z"/>
    <glyph glyph-name="m" unicode="m" horiz-adv-x="560" d="M312 499c-12 10.667 -25.668 19 -41.001 25s-31.333 9 -48 9h-134v-533h89v444h89v-444h88v444h89v-444h89v400c0 18.667 -3.33301 36.167 -10 52.5s-16 30.5 -28 42.5s-26.167 21.333 -42.5 28s-33.833 10 -52.5 10c-17.333 0 -33.666 -3 -48.999 -9 s-28.333 -14.333 -39 -25z"/>
    <glyph glyph-name="n" unicode="n" horiz-adv-x="373" d="M223 533h-134v-533h89v444h89v-444h88v400c0 18.667 -3.5 36.167 -10.5 52.5s-16.5 30.5 -28.5 42.5s-26 21.333 -42 28s-33 10 -51 10z"/>
    <glyph glyph-name="o" unicode="o" d="M325 129v275c0 18.667 -3.5 36.334 -10.5 53.001s-16.5 31.167 -28.5 43.5s-26.167 22 -42.5 29s-33.833 10.5 -52.5 10.5s-36 -3.5 -52 -10.5s-30 -16.667 -42 -29s-21.333 -26.833 -28 -43.5s-10 -34.334 -10 -53.001v-275c0 -18.667 3.33301 -36.167 10 -52.5 s16 -30.5 28 -42.5s26 -21.5 42 -28.5s33.333 -10.5 52 -10.5s36.167 3.5 52.5 10.5s30.5 16.5 42.5 28.5s21.5 26.167 28.5 42.5s10.5 33.833 10.5 52.5zM147 444h89v-355h-89v355z"/>
    <glyph glyph-name="p" unicode="p" horiz-adv-x="356" d="M162 89v355h89v-355h-89zM162 -176v176h45c18 0 35.167 3.5 51.5 10.5s30.5 16.5 42.5 28.5s21.5 26.167 28.5 42.5s10.5 33.833 10.5 52.5v266c0 18.667 -3.5 36.167 -10.5 52.5s-16.5 30.5 -28.5 42.5s-26.167 21.333 -42.5 28s-33.5 10 -51.5 10h-134v-620 c0 -12 2.33301 -23.5 7 -34.5s11.167 -20.5 19.5 -28.5s17.833 -14.333 28.5 -19s22 -7 34 -7z"/>
    <glyph glyph-name="q" unicode="q" d="M236 89h-89v355h89v-355zM325 -176v708.999h-134c-18.667 0 -36 -3.33301 -52 -10s-30 -16 -42 -28s-21.333 -26.167 -28 -42.5s-10 -33.833 -10 -52.5v-266c0 -18.667 3.33301 -36.167 10 -52.5s16 -30.5 28 -42.5s26 -21.5 42 -28.5s33.333 -10.5 52 -10.5h45v-86 c0 -25.333 8.66699 -46.666 26 -63.999s38.333 -26 63 -26z"/>
    <glyph glyph-name="r" unicode="r" horiz-adv-x="263" d="M73 399v-399h89v444h89v89h-44c-18 0 -35.167 -3.5 -51.5 -10.5s-30.5 -16.5 -42.5 -28.5s-21.667 -26.167 -29 -42.5s-11 -33.833 -11 -52.5z"/>
    <glyph glyph-name="s" unicode="s" d="M191 -5c18.667 0 36.168 3.49902 52.501 10.499s30.5 16.5 42.5 28.5s21.5 26.167 28.5 42.5s10.5 33.833 10.5 52.5v49c0 18.667 -3.5 36.334 -10.5 53.001s-16.5 31 -28.5 43s-26.167 21.5 -42.5 28.5s-33.833 10.5 -52.5 10.5c-11.333 0 -21.5 4.33301 -30.5 13 s-13.5 19 -13.5 31v87h89v-89h89v49c0 18.667 -3.5 36.334 -10.5 53.001s-16.5 31.167 -28.5 43.5s-26.167 22 -42.5 29s-33.833 10.5 -52.5 10.5s-36 -3.5 -52 -10.5s-30 -16.667 -42 -29s-21.333 -26.833 -28 -43.5s-10 -34.334 -10 -53.001v-47 c0 -18.667 3.33301 -36.167 10 -52.5s16 -30.5 28 -42.5s26 -21.5 42 -28.5s33.333 -10.5 52 -10.5c13.333 0 24.166 -4.5 32.499 -13.5s12.5 -19.5 12.5 -31.5v-89h-89v105h-88v-65c0 -18.667 3.33301 -36.167 10 -52.5s16 -30.5 28 -42.5s26 -21.5 42 -28.5 s33.333 -10.5 52 -10.5z"/>
    <glyph glyph-name="t" unicode="t" horiz-adv-x="263" d="M162 -5v448.999h89v89h-89v89h-89v-540c0 -25.333 8.83301 -46.166 26.5 -62.499s38.5 -24.5 62.5 -24.5z"/>
    <glyph glyph-name="u" unicode="u" horiz-adv-x="356" d="M340 0v533h-88v-444h-89v444h-90v-400c0 -18 3.66699 -35 11 -51s17 -30.167 29 -42.5s26.167 -22 42.5 -29s33.5 -10.5 51.5 -10.5h133z"/>
    <glyph glyph-name="v" unicode="v" horiz-adv-x="356" d="M162 0h89.002l14 14.5c9.33301 9.66699 19.666 21.5 30.999 35.5s21.5 28.5 30.5 43.5s13.5 28.167 13.5 39.5v400h-89v-444h-89v444h-89v-400c0 -11.333 4.66699 -24.666 14 -39.999s19.666 -29.833 30.999 -43.5s21.5 -25.334 30.5 -35.001z"/>
    <glyph glyph-name="w" unicode="w" horiz-adv-x="544" d="M296 32c24 -22 53.6689 -33 89.002 -33h133v63v106c0 40 0.166992 81.5 0.5 124.5s0.5 82.167 0.5 117.5v88v35h-89v-444h-90v444h-88v-444h-89v444h-90v-405c0 -19.333 3.66699 -37 11 -53s17 -30 29 -42s26.167 -21.333 42.5 -28s33.5 -10 51.5 -10 c17.333 0 33.666 3.33301 48.999 10s28.666 15.667 39.999 27z"/>
    <glyph glyph-name="x" unicode="x" horiz-adv-x="356" d="M138 297l-24.999 -21c-12 -11.333 -21.5 -25.666 -28.5 -42.999s-10.5 -34.333 -10.5 -51v-182h89v182c0 11.333 4.33301 22 13 32l31 26l31 -26c8.66699 -10 13 -20.667 13 -32v-182h89v182c0 16.667 -3.33301 33.667 -10 51s-16 31.666 -28 42.999l-26 21l25 20 c13.333 12 23.166 26.333 29.499 43s9.5 33.667 9.5 51v122h-89v-122c0 -12 -4.33301 -22.333 -13 -31l-31 -25l-31 25c-8.66699 8.66699 -13 19 -13 31l-1 122h-89l1 -122c0 -17.333 3.5 -34.333 10.5 -51s16.5 -31 28.5 -43z"/>
    <glyph glyph-name="y" unicode="y" horiz-adv-x="357" d="M252 -87c0 -24.667 8.5 -45.667 25.5 -63s38.167 -26 63.5 -26v709h-89v-443h-89v443h-90v-402c0 -18 3.66699 -35 11 -51s17 -29.833 29 -41.5s26.167 -21 42.5 -28s33.5 -10.5 51.5 -10.5h45v-87z"/>
    <glyph glyph-name="z" unicode="z" horiz-adv-x="324" d="M82 253c-11.333 -11.333 -20.666 -25.499 -27.999 -42.499s-11 -34.167 -11 -51.5v-159h267v89h-178v70c0 13.333 4.66699 23.666 14 30.999l125 104c11.333 12.667 20.666 27.167 27.999 43.5s11 33.5 11 51.5v144h-267v-89h178v-55c0 -14 -4.66699 -25 -14 -33z"/>
    <glyph glyph-name="braceleft" unicode="{" horiz-adv-x="309" d="M117 -43c0 -12.667 2.33398 -24.335 7.00098 -35.002s11 -20 19 -28s17.333 -14.333 28 -19s22 -7 34 -7h89v89h-88v266c0 18 -3.66699 37.333 -11 58s-17.166 39.834 -29.499 57.501s-26.666 32.167 -42.999 43.5s-33.5 17 -51.5 17c18.667 0 36.167 5.83301 52.5 17.5 s30.666 26.334 42.999 44.001s22 37 29 58s10.5 40.5 10.5 58.5v178h88v89h-89c-12 0 -23.333 -2.33301 -34 -7s-20 -11 -28 -19s-14.333 -17.5 -19 -28.5s-7 -22.5 -7 -34.5v-178c0 -18 -1.16699 -35.167 -3.5 -51.5s-6.83301 -30.5 -13.5 -42.5 s-15.834 -21.5 -27.501 -28.5s-26.834 -10.5 -45.501 -10.5v-89c18.667 0 33.834 -3.5 45.501 -10.5s20.667 -16.5 27 -28.5s10.666 -26.167 12.999 -42.5s3.5 -33.5 3.5 -51.5z"/>
    <glyph glyph-name="bar" unicode="|" horiz-adv-x="187" d="M89 845v-976h89v976h-89z"/>
    <glyph glyph-name="braceright" unicode="}" horiz-adv-x="310" d="M206 -43v265.001c0 18 1.16699 35.167 3.5 51.5s6.66602 30.5 12.999 42.5s15.333 21.5 27 28.5s26.834 10.5 45.501 10.5v89c-18.667 0 -33.834 3.5 -45.501 10.5s-20.667 16.5 -27 28.5s-10.666 26.167 -12.999 42.5s-3.5 33.5 -3.5 51.5v178 c0 12 -2.33301 23.5 -7 34.5s-11.167 20.5 -19.5 28.5s-17.833 14.333 -28.5 19s-22 7 -34 7h-90v-89h90v-178c0 -18 3.5 -37.5 10.5 -58.5s16.5 -40.333 28.5 -58s26.167 -32.334 42.5 -44.001s33.833 -17.5 52.5 -17.5c-18 0 -35 -5.66699 -51 -17 s-30.333 -25.833 -43 -43.5s-22.667 -36.834 -30 -57.501s-11 -40 -11 -58l1 -266h-90v-89h90c12 0 23.333 2.33301 34 7s20.167 11 28.5 19s14.833 17.333 19.5 28s7 22.334 7 35.001z"/>
    <glyph glyph-name="asciitilde" unicode="~" horiz-adv-x="388" d="M124 303c-14 -1.33301 -27.3311 -6.66504 -39.998 -15.998c-14 -10 -25.333 -21 -34 -33c-4.66699 -6.66699 -8.83398 -13 -12.501 -19s-7.16699 -12.333 -10.5 -19l44 -50c16 38.667 36 58 60 58c10 0 20 -2 30 -6c5.33301 -2 11.166 -4.5 17.499 -7.5 s13.5 -6.16699 21.5 -9.5c7.33301 -4 14.5 -7.5 21.5 -10.5s13.167 -5.5 18.5 -7.5c12 -4 23.667 -6 35 -6c12.667 1.33301 23.667 4.66602 33 9.99902c4.66699 2 9.16699 4.83301 13.5 8.5s8.5 7.5 12.5 11.5c3.33301 4 6.83301 8.5 10.5 13.5s6.83398 10.167 9.50098 15.5 c4 5.33301 7.33301 10.166 10 14.499s4.66699 7.83301 6 10.5l-45 48c-13.333 -34.667 -32 -52.334 -56 -53.001c-8 0 -16 1.66699 -24 5c-6.66699 2.66699 -19.334 8.33398 -38.001 17.001l-24 11c-7.33301 3.33301 -14.333 6 -21 8c-13.333 4 -26 6 -38 6z"/>
    <glyph glyph-name="uni0085" unicode="" horiz-adv-x="560" d="M89 89v-89h89v89h-89zM267 89v-89h88v89h-88zM444 89v-89h89v89h-89z"/>
    <glyph glyph-name="uni0085" unicode="…" horiz-adv-x="560" d="M89 89v-89h89v89h-89zM267 89v-89h88v89h-88zM444 89v-89h89v89h-89z"/>
    <glyph glyph-name="uni0091" horiz-adv-x="171" d="M162 533l1 178h-90v-89c0 -12 2.33301 -23.333 7 -34s11.167 -20.167 19.5 -28.5s17.833 -14.833 28.5 -19.5s22 -7 34 -7z"/>
    <glyph glyph-name="uni0091" unicode="‘" horiz-adv-x="171" d="M162 533l1 178h-90v-89c0 -12 2.33301 -23.333 7 -34s11.167 -20.167 19.5 -28.5s17.833 -14.833 28.5 -19.5s22 -7 34 -7z"/>
    <glyph glyph-name="uni0092" horiz-adv-x="187" d="M89 533c12 0 23.5 2.33301 34.5 7s20.5 11.167 28.5 19.5s14.333 17.833 19 28.5s7 22 7 34v89h-89v-178z"/>
    <glyph glyph-name="uni0092" unicode="’" horiz-adv-x="187" d="M89 533c12 0 23.5 2.33301 34.5 7s20.5 11.167 28.5 19.5s14.333 17.833 19 28.5s7 22 7 34v89h-89v-178z"/>
    <glyph glyph-name="uni0093" horiz-adv-x="326" d="M312 533l-0.000976562 178h-89v-89c0 -12 2.33301 -23.333 7 -34s11 -20.167 19 -28.5s17.333 -14.833 28 -19.5s22.334 -7 35.001 -7zM177.999 533l-0.000976562 178h-89v-89c0 -12 2.33301 -23.333 7 -34s11 -20.167 19 -28.5s17.333 -14.833 28 -19.5 s22.334 -7 35.001 -7z"/>
    <glyph glyph-name="uni0093" unicode="“" horiz-adv-x="326" d="M312 533l-0.000976562 178h-89v-89c0 -12 2.33301 -23.333 7 -34s11 -20.167 19 -28.5s17.333 -14.833 28 -19.5s22.334 -7 35.001 -7zM177.999 533l-0.000976562 178h-89v-89c0 -12 2.33301 -23.333 7 -34s11 -20.167 19 -28.5s17.333 -14.833 28 -19.5 s22.334 -7 35.001 -7z"/>
    <glyph glyph-name="uni0094" horiz-adv-x="326" d="M89 533c12 0 23.5 2.33301 34.5 7s20.5 11.167 28.5 19.5s14.333 17.833 19 28.5s7 22 7 34v89h-89v-178zM223 533c11.333 0 22.333 2.33301 33 7s20.167 11.167 28.5 19.5s15 17.833 20 28.5s7.5 22 7.5 34v89h-90z"/>
    <glyph glyph-name="uni0094" unicode="”" horiz-adv-x="326" d="M89 533c12 0 23.5 2.33301 34.5 7s20.5 11.167 28.5 19.5s14.333 17.833 19 28.5s7 22 7 34v89h-89v-178zM223 533c11.333 0 22.333 2.33301 33 7s20.167 11.167 28.5 19.5s15 17.833 20 28.5s7.5 22 7.5 34v89h-90z"/>
    <glyph glyph-name="uni0095" horiz-adv-x="248" d="M147 355c-24.667 0 -45.5 -8.5 -62.5 -25.5s-25.5 -37.833 -25.5 -62.5c0 -25.333 8.5 -46.5 25.5 -63.5s37.833 -25.5 62.5 -25.5s45.667 8.5 63 25.5s26 38.167 26 63.5c0 24.667 -8.66699 45.5 -26 62.5s-38.333 25.5 -63 25.5z"/>
    <glyph glyph-name="uni0095" unicode="•" horiz-adv-x="248" d="M147 355c-24.667 0 -45.5 -8.5 -62.5 -25.5s-25.5 -37.833 -25.5 -62.5c0 -25.333 8.5 -46.5 25.5 -63.5s37.833 -25.5 62.5 -25.5s45.667 8.5 63 25.5s26 38.167 26 63.5c0 24.667 -8.66699 45.5 -26 62.5s-38.333 25.5 -63 25.5z"/>
    <glyph glyph-name="uni0096" horiz-adv-x="605" d="M89 252h488v29h-488v-29z"/>
    <glyph glyph-name="uni0096" unicode="–" horiz-adv-x="605" d="M89 252h488v29h-488v-29z"/>
    <glyph glyph-name="uni0097" horiz-adv-x="746" d="M88 252h623v29h-623v-29z"/>
    <glyph glyph-name="uni0097" unicode="—" horiz-adv-x="746" d="M88 252h623v29h-623v-29z"/>
    <glyph glyph-name="afii10023" unicode="¨" horiz-adv-x="336" d="M70 788v89h89v-89h-89zM247 788v89h89v-89h-89zM70 133v445c0 18 3.33301 35.167 10 51.5s16 30.5 28 42.5s26 21.5 42 28.5s33.333 10.5 52 10.5h134v-89h-178v-178h89v-89h-89v-266h178v-89h-134c-18.667 0 -36 3.5 -52 10.5s-30 16.667 -42 29s-21.333 26.5 -28 42.5 s-10 33 -10 51z"/>
    <glyph glyph-name="afii10023" unicode="Ё" horiz-adv-x="336" d="M70 788v89h89v-89h-89zM247 788v89h89v-89h-89zM70 133v445c0 18 3.33301 35.167 10 51.5s16 30.5 28 42.5s26 21.5 42 28.5s33.333 10.5 52 10.5h134v-89h-178v-178h89v-89h-89v-266h178v-89h-134c-18.667 0 -36 3.5 -52 10.5s-30 16.667 -42 29s-21.333 26.5 -28 42.5 s-10 33 -10 51z"/>
    <glyph glyph-name="FL0451h" unicode="¸" d="M191 540c18.667 0 36.167 -3.50098 52.5 -10.501s30.5 -16.5 42.5 -28.5s21.5 -26.333 28.5 -43s10.5 -34.667 10.5 -54v-137h-178v-178h89v89h89v-49c0 -19.333 -3.5 -37 -10.5 -53s-16.5 -30 -28.5 -42s-26.167 -21.333 -42.5 -28s-33.833 -10 -52.5 -10 s-36 3.33301 -52 10s-30 16 -42 28s-21.333 26 -28 42s-10 33.667 -10 53v275c0 18.667 3.33301 36.334 10 53.001s16 31.167 28 43.5s26 22 42 29s33.333 10.5 52 10.5zM147 443.999v-89h89v89h-89zM68 620.999v89h89v-89h-89zM235 620.999v89h89v-89h-89z"/>
    <glyph glyph-name="FL0451h" unicode="ё" d="M191 540c18.667 0 36.167 -3.50098 52.5 -10.501s30.5 -16.5 42.5 -28.5s21.5 -26.333 28.5 -43s10.5 -34.667 10.5 -54v-137h-178v-178h89v89h89v-49c0 -19.333 -3.5 -37 -10.5 -53s-16.5 -30 -28.5 -42s-26.167 -21.333 -42.5 -28s-33.833 -10 -52.5 -10 s-36 3.33301 -52 10s-30 16 -42 28s-21.333 26 -28 42s-10 33.667 -10 53v275c0 18.667 3.33301 36.334 10 53.001s16 31.167 28 43.5s26 22 42 29s33.333 10.5 52 10.5zM147 443.999v-89h89v89h-89zM68 620.999v89h89v-89h-89zM235 620.999v89h89v-89h-89z"/>
    <glyph glyph-name="FL0410h" unicode="À" horiz-adv-x="337" d="M70 585c0 18 3.66699 35.167 11 51.5s17 30.5 29 42.5s26.167 21.5 42.5 28.5s33.5 10.5 51.5 10.5s35.167 -3.5 51.5 -10.5s30.5 -16.5 42.5 -28.5s21.5 -26.167 28.5 -42.5s10.5 -33.5 10.5 -51.5v-585h-89v192h-88v-192h-90v585zM160 281h88v341h-88v-341z"/>
    <glyph glyph-name="FL0410h" unicode="А" horiz-adv-x="337" d="M70 585c0 18 3.66699 35.167 11 51.5s17 30.5 29 42.5s26.167 21.5 42.5 28.5s33.5 10.5 51.5 10.5s35.167 -3.5 51.5 -10.5s30.5 -16.5 42.5 -28.5s21.5 -26.167 28.5 -42.5s10.5 -33.5 10.5 -51.5v-585h-89v192h-88v-192h-90v585zM160 281h88v341h-88v-341z"/>
    <glyph glyph-name="FL0411h" unicode="Á" horiz-adv-x="336" d="M336 355c0 25.333 -8.5 46.666 -25.5 63.999s-38.167 26 -63.5 26h-89v177h179v89h-135c-18.667 0 -36 -3.5 -52 -10.5s-30 -16.667 -42 -29s-21.333 -26.666 -28 -42.999s-10 -33.833 -10 -52.5v-576h132c18.667 0 36.167 3.16699 52.5 9.5s30.5 15 42.5 26 s21.5 24.333 28.5 40s10.5 33.167 10.5 52.5v227zM158 89v266h89v-266h-89z"/>
    <glyph glyph-name="FL0411h" unicode="Б" horiz-adv-x="336" d="M336 355c0 25.333 -8.5 46.666 -25.5 63.999s-38.167 26 -63.5 26h-89v177h179v89h-135c-18.667 0 -36 -3.5 -52 -10.5s-30 -16.667 -42 -29s-21.333 -26.666 -28 -42.999s-10 -33.833 -10 -52.5v-576h132c18.667 0 36.167 3.16699 52.5 9.5s30.5 15 42.5 26 s21.5 24.333 28.5 40s10.5 33.167 10.5 52.5v227zM158 89v266h89v-266h-89z"/>
    <glyph glyph-name="FL0412h" unicode="Â" horiz-adv-x="336" d="M70 711l134.001 0.000976562c18 0 35 -3.5 51 -10.5s30 -16.667 42 -29s21.5 -26.5 28.5 -42.5s10.5 -33 10.5 -51v-46c0 -18.667 -3.33301 -35.834 -10 -51.501s-15.834 -29.334 -27.501 -41.001s-25.5 -20.667 -41.5 -27s-33.333 -9.5 -52 -9.5 c18 0 35 -3.66699 51 -11s30 -17.166 42 -29.499s21.333 -26.833 28 -43.5s10 -34 10 -52v-134c0 -18 -3.5 -35 -10.5 -51s-16.5 -30.167 -28.5 -42.5s-26 -22 -42 -29s-33 -10.5 -51 -10.5h-134v711zM159.001 445.001h45c11.333 0 21.5 8.5 30.5 25.5 s13.5 37.833 13.5 62.5v89h-89v-177zM159.001 355.001v-266h89v178c0 24.667 -4.5 45.5 -13.5 62.5s-19.167 25.5 -30.5 25.5h-45z"/>
    <glyph glyph-name="FL0412h" unicode="В" horiz-adv-x="336" d="M70 711l134.001 0.000976562c18 0 35 -3.5 51 -10.5s30 -16.667 42 -29s21.5 -26.5 28.5 -42.5s10.5 -33 10.5 -51v-46c0 -18.667 -3.33301 -35.834 -10 -51.501s-15.834 -29.334 -27.501 -41.001s-25.5 -20.667 -41.5 -27s-33.333 -9.5 -52 -9.5 c18 0 35 -3.66699 51 -11s30 -17.166 42 -29.499s21.333 -26.833 28 -43.5s10 -34 10 -52v-134c0 -18 -3.5 -35 -10.5 -51s-16.5 -30.167 -28.5 -42.5s-26 -22 -42 -29s-33 -10.5 -51 -10.5h-134v711zM159.001 445.001h45c11.333 0 21.5 8.5 30.5 25.5 s13.5 37.833 13.5 62.5v89h-89v-177zM159.001 355.001v-266h89v178c0 24.667 -4.5 45.5 -13.5 62.5s-19.167 25.5 -30.5 25.5h-45z"/>
    <glyph glyph-name="FL0413h" unicode="Ã" horiz-adv-x="335" d="M202 710c-18 0 -35.167 -3.5 -51.5 -10.5s-30.5 -16.667 -42.5 -29s-21.667 -26.5 -29 -42.5s-11 -33 -11 -51v-577h90v621h177v89h-133z"/>
    <glyph glyph-name="FL0413h" unicode="Г" horiz-adv-x="335" d="M202 710c-18 0 -35.167 -3.5 -51.5 -10.5s-30.5 -16.667 -42.5 -29s-21.667 -26.5 -29 -42.5s-11 -33 -11 -51v-577h90v621h177v89h-133z"/>
    <glyph glyph-name="FL0414h" unicode="Ä" horiz-adv-x="515" d="M248 622v-533h89v533h-89zM426 718v-629h89v-89h-445v90h90v494c0 18 3.33301 35.167 10 51.5s16 30.5 28 42.5s26 21.667 42 29s33.333 11 52 11h134z"/>
    <glyph glyph-name="FL0414h" unicode="Д" horiz-adv-x="515" d="M248 622v-533h89v533h-89zM426 718v-629h89v-89h-445v90h90v494c0 18 3.33301 35.167 10 51.5s16 30.5 28 42.5s26 21.667 42 29s33.333 11 52 11h134z"/>
    <glyph glyph-name="FL0415h" unicode="Å" horiz-adv-x="334" d="M68 133v445c0 18 3.33301 35.167 10 51.5s16 30.5 28 42.5s26 21.5 42 28.5s33.333 10.5 52 10.5h134v-89h-178v-178h89v-89h-89v-266h178v-89h-134c-18.667 0 -36 3.5 -52 10.5s-30 16.667 -42 29s-21.333 26.5 -28 42.5s-10 33 -10 51z"/>
    <glyph glyph-name="FL0415h" unicode="Е" horiz-adv-x="334" d="M68 133v445c0 18 3.33301 35.167 10 51.5s16 30.5 28 42.5s26 21.5 42 28.5s33.333 10.5 52 10.5h134v-89h-178v-178h89v-89h-89v-266h178v-89h-134c-18.667 0 -36 3.5 -52 10.5s-30 16.667 -42 29s-21.333 26.5 -28 42.5s-10 33 -10 51z"/>
    <glyph glyph-name="FL0416h" unicode="Æ" horiz-adv-x="511" d="M68 712h87.999v-178c0 -24.667 4.5 -45.667 13.5 -63s19.167 -26 30.5 -26h45v266v1h89v-268h45c11.333 0 21.5 8.66699 30.5 26s13.5 38.333 13.5 63v178h88v-179c0 -18 -1.33301 -34.833 -4 -50.5s-7.16699 -29.5 -13.5 -41.5s-15.333 -21.5 -27 -28.5 s-26.5 -10.833 -44.5 -11.5c18 -0.666992 32.833 -4.66699 44.5 -12s20.667 -17 27 -29s10.833 -25.833 13.5 -41.5s4 -32.5 4 -50.5v-267h-88v267c0 24.667 -4.5 45.5 -13.5 62.5s-19.167 25.5 -30.5 25.5h-45v-355h-89v356h-45c-11.333 0 -21.5 -8.5 -30.5 -25.5 s-13.5 -37.833 -13.5 -62.5v-267h-88v267c0 18 1.33301 34.833 4 50.5s7.33398 29.5 14.001 41.5s15.667 21.667 27 29s25.666 11.333 42.999 12c-18 0.666992 -32.667 4.5 -44 11.5s-20.166 16.5 -26.499 28.5s-10.833 25.833 -13.5 41.5s-4 32.5 -4 50.5v179z"/>
    <glyph glyph-name="FL0416h" unicode="Ж" horiz-adv-x="511" d="M68 712h87.999v-178c0 -24.667 4.5 -45.667 13.5 -63s19.167 -26 30.5 -26h45v266v1h89v-268h45c11.333 0 21.5 8.66699 30.5 26s13.5 38.333 13.5 63v178h88v-179c0 -18 -1.33301 -34.833 -4 -50.5s-7.16699 -29.5 -13.5 -41.5s-15.333 -21.5 -27 -28.5 s-26.5 -10.833 -44.5 -11.5c18 -0.666992 32.833 -4.66699 44.5 -12s20.667 -17 27 -29s10.833 -25.833 13.5 -41.5s4 -32.5 4 -50.5v-267h-88v267c0 24.667 -4.5 45.5 -13.5 62.5s-19.167 25.5 -30.5 25.5h-45v-355h-89v356h-45c-11.333 0 -21.5 -8.5 -30.5 -25.5 s-13.5 -37.833 -13.5 -62.5v-267h-88v267c0 18 1.33301 34.833 4 50.5s7.33398 29.5 14.001 41.5s15.667 21.667 27 29s25.666 11.333 42.999 12c-18 0.666992 -32.667 4.5 -44 11.5s-20.166 16.5 -26.499 28.5s-10.833 25.833 -13.5 41.5s-4 32.5 -4 50.5v179z"/>
    <glyph glyph-name="FL0417h" unicode="Ç" horiz-adv-x="335" d="M68 586c0 18 3.66699 35.001 11 51.001s17 30 29 42s26.167 21.5 42.5 28.5s33.5 10.5 51.5 10.5s35.167 -3.5 51.5 -10.5s30.5 -16.5 42.5 -28.5s21.5 -26.167 28.5 -42.5s10.5 -33.5 10.5 -51.5v-60c0 -18.667 -3.33301 -36 -10 -52s-16 -29.833 -28 -41.5 s-26 -20.834 -42 -27.501s-33.333 -10 -52 -10c18 0 35 -3.66699 51 -11s30 -17 42 -29s21.5 -26.167 28.5 -42.5s10.5 -33.5 10.5 -51.5v-133c0 -18.667 -3.5 -36 -10.5 -52s-16.5 -29.833 -28.5 -41.5s-26.167 -20.834 -42.5 -27.501s-33.5 -10 -51.5 -10 s-35.167 3.33301 -51.5 10s-30.5 15.834 -42.5 27.501s-21.667 25.5 -29 41.5s-11 33.333 -11 52v155h89v-193h89v171c0 24.667 -4.33301 45.667 -13 63s-19 26 -31 26h-89v89h89c12 0 22.333 8.83301 31 26.5s13 38.167 13 61.5v96h-89v-89h-89v53z"/>
    <glyph glyph-name="FL0417h" unicode="З" horiz-adv-x="335" d="M68 586c0 18 3.66699 35.001 11 51.001s17 30 29 42s26.167 21.5 42.5 28.5s33.5 10.5 51.5 10.5s35.167 -3.5 51.5 -10.5s30.5 -16.5 42.5 -28.5s21.5 -26.167 28.5 -42.5s10.5 -33.5 10.5 -51.5v-60c0 -18.667 -3.33301 -36 -10 -52s-16 -29.833 -28 -41.5 s-26 -20.834 -42 -27.501s-33.333 -10 -52 -10c18 0 35 -3.66699 51 -11s30 -17 42 -29s21.5 -26.167 28.5 -42.5s10.5 -33.5 10.5 -51.5v-133c0 -18.667 -3.5 -36 -10.5 -52s-16.5 -29.833 -28.5 -41.5s-26.167 -20.834 -42.5 -27.501s-33.5 -10 -51.5 -10 s-35.167 3.33301 -51.5 10s-30.5 15.834 -42.5 27.501s-21.667 25.5 -29 41.5s-11 33.333 -11 52v155h89v-193h89v171c0 24.667 -4.33301 45.667 -13 63s-19 26 -31 26h-89v89h89c12 0 22.333 8.83301 31 26.5s13 38.167 13 61.5v96h-89v-89h-89v53z"/>
    <glyph glyph-name="FL0418h" unicode="È" horiz-adv-x="333" d="M199 0h134v711h-89v-622h-89v622h-88v-578c0 -18 3.5 -35 10.5 -51s16.5 -30.167 28.5 -42.5s26 -22 42 -29s33 -10.5 51 -10.5z"/>
    <glyph glyph-name="FL0418h" unicode="И" horiz-adv-x="333" d="M199 0h134v711h-89v-622h-89v622h-88v-578c0 -18 3.5 -35 10.5 -51s16.5 -30.167 28.5 -42.5s26 -22 42 -29s33 -10.5 51 -10.5z"/>
    <glyph glyph-name="FL0419h" unicode="É" horiz-adv-x="334" d="M200 0h134v711h-89v-622h-89v622h-88v-578c0 -18 3.5 -35 10.5 -51s16.5 -30.167 28.5 -42.5s26 -22 42 -29s33 -10.5 51 -10.5zM68 785v89h266v-89h-266z"/>
    <glyph glyph-name="FL0419h" unicode="Й" horiz-adv-x="334" d="M200 0h134v711h-89v-622h-89v622h-88v-578c0 -18 3.5 -35 10.5 -51s16.5 -30.167 28.5 -42.5s26 -22 42 -29s33 -10.5 51 -10.5zM68 785v89h266v-89h-266z"/>
    <glyph glyph-name="FL041Ah" unicode="Ê" horiz-adv-x="333" d="M333 711l0.00292969 -179c0 -18.667 -1 -36 -3 -52s-6.16699 -30 -12.5 -42s-15.333 -21.333 -27 -28s-26.834 -10 -45.501 -10c18 0 32.833 -3.5 44.5 -10.5s20.667 -16.5 27 -28.5s10.666 -26.167 12.999 -42.5s3.5 -33.5 3.5 -51.5v-267h-88v267 c0 24.667 -4.5 45.5 -13.5 62.5s-19.167 25.5 -30.5 25.5h-45v-355h-89v711h89v-267h44c11.333 0 21.666 8.66699 30.999 26s14 38.333 14 63v178h88z"/>
    <glyph glyph-name="FL041Ah" unicode="К" horiz-adv-x="333" d="M333 711l0.00292969 -179c0 -18.667 -1 -36 -3 -52s-6.16699 -30 -12.5 -42s-15.333 -21.333 -27 -28s-26.834 -10 -45.501 -10c18 0 32.833 -3.5 44.5 -10.5s20.667 -16.5 27 -28.5s10.666 -26.167 12.999 -42.5s3.5 -33.5 3.5 -51.5v-267h-88v267 c0 24.667 -4.5 45.5 -13.5 62.5s-19.167 25.5 -30.5 25.5h-45v-355h-89v711h89v-267h44c11.333 0 21.666 8.66699 30.999 26s14 38.333 14 63v178h88z"/>
    <glyph glyph-name="FL041Bh" unicode="Ë" horiz-adv-x="334" d="M200 710h134v-710h-89v621h-89v-621h-88v577c0 18 3.5 35 10.5 51s16.5 30.167 28.5 42.5s26 22 42 29s33 10.5 51 10.5z"/>
    <glyph glyph-name="FL041Bh" unicode="Л" horiz-adv-x="334" d="M200 710h134v-710h-89v621h-89v-621h-88v577c0 18 3.5 35 10.5 51s16.5 30.167 28.5 42.5s26 22 42 29s33 10.5 51 10.5z"/>
    <glyph glyph-name="FL041Ch" unicode="Ì" horiz-adv-x="512" d="M291 680c10.667 10.667 23.668 19.666 39.001 26.999s31.666 11 48.999 11c18.667 0 36.167 -3.5 52.5 -10.5s30.5 -16.667 42.5 -29s21.333 -26.666 28 -42.999s10 -33.5 10 -51.5v-584h-89v622h-89v-429h-88v429h-89v-622h-89v714h134 c16.667 0 32.667 -3.16699 48 -9.5s29 -14.5 41 -24.5z"/>
    <glyph glyph-name="FL041Ch" unicode="М" horiz-adv-x="512" d="M291 680c10.667 10.667 23.668 19.666 39.001 26.999s31.666 11 48.999 11c18.667 0 36.167 -3.5 52.5 -10.5s30.5 -16.667 42.5 -29s21.333 -26.666 28 -42.999s10 -33.5 10 -51.5v-584h-89v622h-89v-429h-88v429h-89v-622h-89v714h134 c16.667 0 32.667 -3.16699 48 -9.5s29 -14.5 41 -24.5z"/>
    <glyph glyph-name="FL041Dh" unicode="Í" horiz-adv-x="333" d="M67 711h89v-267h89v267h88v-711h-88v355h-89v-355h-89v711z"/>
    <glyph glyph-name="FL041Dh" unicode="Н" horiz-adv-x="333" d="M67 711h89v-267h89v267h88v-711h-88v355h-89v-355h-89v711z"/>
    <glyph glyph-name="FL041Eh" unicode="Î" horiz-adv-x="334" d="M156 622v-533h89v533h-89zM334 129c0 -19.333 -3.5 -37 -10.5 -53s-16.5 -30 -28.5 -42s-26.167 -21.333 -42.5 -28s-33.833 -10 -52.5 -10s-36 3.33301 -52 10s-30 16 -42 28s-21.333 26 -28 42s-10 33.667 -10 53v453c0 18.667 3.33301 36.334 10 53.001 s16 31.167 28 43.5s26 22 42 29s33.333 10.5 52 10.5s36.167 -3.5 52.5 -10.5s30.5 -16.667 42.5 -29s21.5 -26.833 28.5 -43.5s10.5 -34.334 10.5 -53.001v-453z"/>
    <glyph glyph-name="FL041Eh" unicode="О" horiz-adv-x="334" d="M156 622v-533h89v533h-89zM334 129c0 -19.333 -3.5 -37 -10.5 -53s-16.5 -30 -28.5 -42s-26.167 -21.333 -42.5 -28s-33.833 -10 -52.5 -10s-36 3.33301 -52 10s-30 16 -42 28s-21.333 26 -28 42s-10 33.667 -10 53v453c0 18.667 3.33301 36.334 10 53.001 s16 31.167 28 43.5s26 22 42 29s33.333 10.5 52 10.5s36.167 -3.5 52.5 -10.5s30.5 -16.667 42.5 -29s21.5 -26.833 28.5 -43.5s10.5 -34.334 10.5 -53.001v-453z"/>
    <glyph glyph-name="FL0422h" unicode="Ï" horiz-adv-x="333" d="M201 710h-134v-710h89v621h89v-621h88v577c0 18 -3.5 35 -10.5 51s-16.5 30.167 -28.5 42.5s-26 22 -42 29s-33 10.5 -51 10.5z"/>
    <glyph glyph-name="FL0422h" unicode="П" horiz-adv-x="333" d="M201 710h-134v-710h89v621h89v-621h88v577c0 18 -3.5 35 -10.5 51s-16.5 30.167 -28.5 42.5s-26 22 -42 29s-33 10.5 -51 10.5z"/>
    <glyph glyph-name="FL0420h" unicode="Ð" horiz-adv-x="332" d="M332 577v-252c0 -18 -3.5 -35 -10.5 -51s-16.5 -30 -28.5 -42s-26 -21.667 -42 -29s-33 -11 -51 -11h-45v-192h-89v711h134c18 0 35 -3.5 51 -10.5s30 -16.5 42 -28.5s21.5 -26.167 28.5 -42.5s10.5 -33.833 10.5 -52.5zM244 281v341h-89v-341h89z"/>
    <glyph glyph-name="FL0420h" unicode="Р" horiz-adv-x="332" d="M332 577v-252c0 -18 -3.5 -35 -10.5 -51s-16.5 -30 -28.5 -42s-26 -21.667 -42 -29s-33 -11 -51 -11h-45v-192h-89v711h134c18 0 35 -3.5 51 -10.5s30 -16.5 42 -28.5s21.5 -26.167 28.5 -42.5s10.5 -33.833 10.5 -52.5zM244 281v341h-89v-341h89z"/>
    <glyph glyph-name="FL0421h" unicode="Ñ" horiz-adv-x="334" d="M334 583v-50h-89v89h-89v-533h89v193h89v-153c0 -19.333 -3.5 -37 -10.5 -53s-16.5 -30 -28.5 -42s-26.167 -21.333 -42.5 -28s-33.833 -10 -52.5 -10s-36 3.33301 -52 10s-30 16 -42 28s-21.333 26 -28 42s-10 33.667 -10 53v454c0 18.667 3.33301 36.167 10 52.5 s16 30.666 28 42.999s26 22 42 29s33.333 10.5 52 10.5s36.167 -3.5 52.5 -10.5s30.5 -16.667 42.5 -29s21.5 -26.666 28.5 -42.999s10.5 -33.833 10.5 -52.5z"/>
    <glyph glyph-name="FL0421h" unicode="С" horiz-adv-x="334" d="M334 583v-50h-89v89h-89v-533h89v193h89v-153c0 -19.333 -3.5 -37 -10.5 -53s-16.5 -30 -28.5 -42s-26.167 -21.333 -42.5 -28s-33.833 -10 -52.5 -10s-36 3.33301 -52 10s-30 16 -42 28s-21.333 26 -28 42s-10 33.667 -10 53v454c0 18.667 3.33301 36.167 10 52.5 s16 30.666 28 42.999s26 22 42 29s33.333 10.5 52 10.5s36.167 -3.5 52.5 -10.5s30.5 -16.667 42.5 -29s21.5 -26.666 28.5 -42.999s10.5 -33.833 10.5 -52.5z"/>
    <glyph glyph-name="FL041Fh" unicode="Ò" horiz-adv-x="336" d="M247 -4c-24.667 0 -45.667 8 -63 24s-26 36.667 -26 62v540h-90v89h268v-89h-89v-626z"/>
    <glyph glyph-name="FL041Fh" unicode="Т" horiz-adv-x="336" d="M247 -4c-24.667 0 -45.667 8 -63 24s-26 36.667 -26 62v540h-90v89h268v-89h-89v-626z"/>
    <glyph glyph-name="FL0423h" unicode="Ó" horiz-adv-x="335" d="M246 91l0.000976562 87.001h-45c-18 0 -35.167 3.5 -51.5 10.5s-30.5 16.333 -42.5 28s-21.667 25.5 -29 41.5s-11 33 -11 51v402h90v-443h89v443h89v-622c0 -17.333 -1.83301 -31.333 -5.5 -42s-9.33398 -19.334 -17.001 -26.001s-17 -11.5 -28 -14.5 s-23.833 -5.16699 -38.5 -6.5h-179v91h179z"/>
    <glyph glyph-name="FL0423h" unicode="У" horiz-adv-x="335" d="M246 91l0.000976562 87.001h-45c-18 0 -35.167 3.5 -51.5 10.5s-30.5 16.333 -42.5 28s-21.667 25.5 -29 41.5s-11 33 -11 51v402h90v-443h89v443h89v-622c0 -17.333 -1.83301 -31.333 -5.5 -42s-9.33398 -19.334 -17.001 -26.001s-17 -11.5 -28 -14.5 s-23.833 -5.16699 -38.5 -6.5h-179v91h179z"/>
    <glyph glyph-name="FL0424h" unicode="Ô" horiz-adv-x="509" d="M243 192l-43 1c-18 0 -35 3.66699 -51 11s-30 17 -42 29s-21.5 26 -28.5 42s-10.5 33 -10.5 51v252c0 18.667 3.5 36.167 10.5 52.5s16.5 30.5 28.5 42.5s26 21.5 42 28.5s33 10.5 51 10.5h176v-1h1c18 0 35 -3.5 51 -10.5s30 -16.5 42 -28.5s21.5 -26.167 28.5 -42.5 s10.5 -33.833 10.5 -52.5v-252c0 -18 -3.5 -35 -10.5 -51s-16.5 -30 -28.5 -42s-26 -21.667 -42 -29s-33 -11 -51 -11h-43v-191h-2v-1h-89v192zM243 623h-87v-341h87v341zM421 622h-87v-340l87 1v339z"/>
    <glyph glyph-name="FL0424h" unicode="Ф" horiz-adv-x="509" d="M243 192l-43 1c-18 0 -35 3.66699 -51 11s-30 17 -42 29s-21.5 26 -28.5 42s-10.5 33 -10.5 51v252c0 18.667 3.5 36.167 10.5 52.5s16.5 30.5 28.5 42.5s26 21.5 42 28.5s33 10.5 51 10.5h176v-1h1c18 0 35 -3.5 51 -10.5s30 -16.5 42 -28.5s21.5 -26.167 28.5 -42.5 s10.5 -33.833 10.5 -52.5v-252c0 -18 -3.5 -35 -10.5 -51s-16.5 -30 -28.5 -42s-26 -21.667 -42 -29s-33 -11 -51 -11h-43v-191h-2v-1h-89v192zM243 623h-87v-341h87v341zM421 622h-87v-340l87 1v339z"/>
    <glyph glyph-name="FL0425h" unicode="Õ" horiz-adv-x="335" d="M132 400l-25 20.9971c-12 12 -21.667 26.5 -29 43.5s-11 34.167 -11 51.5v195h90v-195c0 -13.333 4.33301 -24.333 13 -33l31 -26l31 26c9.33301 9.33301 14 20.333 14 33v195h89v-195c0 -17.333 -3.5 -34.666 -10.5 -51.999s-16.833 -31.666 -29.5 -42.999l-25 -21 l25 -20c12 -12.667 21.667 -27 29 -43s11 -32.667 11 -50v-287h-89v287c0 12 -4.66699 22 -14 30l-31 25l-31 -25c-4 -3.33301 -7.33301 -7.66602 -10 -12.999s-3.66699 -11 -3 -17v-287h-90v287c0 17.333 3.66699 34 11 50s17 30.333 29 43z"/>
    <glyph glyph-name="FL0425h" unicode="Х" horiz-adv-x="335" d="M132 400l-25 20.9971c-12 12 -21.667 26.5 -29 43.5s-11 34.167 -11 51.5v195h90v-195c0 -13.333 4.33301 -24.333 13 -33l31 -26l31 26c9.33301 9.33301 14 20.333 14 33v195h89v-195c0 -17.333 -3.5 -34.666 -10.5 -51.999s-16.833 -31.666 -29.5 -42.999l-25 -21 l25 -20c12 -12.667 21.667 -27 29 -43s11 -32.667 11 -50v-287h-89v287c0 12 -4.66699 22 -14 30l-31 25l-31 -25c-4 -3.33301 -7.33301 -7.66602 -10 -12.999s-3.66699 -11 -3 -17v-287h-90v287c0 17.333 3.66699 34 11 50s17 30.333 29 43z"/>
    <glyph glyph-name="FL0426h" unicode="Ö" horiz-adv-x="425" d="M200 0h224c0 10.667 -2.5 21.167 -7.5 31.5s-11.667 19.833 -20 28.5s-18 15.667 -29 21s-22.167 8 -33.5 8v622h-89v-622h-89v622h-88v-578c0 -18 3.5 -35 10.5 -51s16.5 -30.167 28.5 -42.5s26 -22 42 -29s33 -10.5 51 -10.5z"/>
    <glyph glyph-name="FL0426h" unicode="Ц" horiz-adv-x="425" d="M200 0h224c0 10.667 -2.5 21.167 -7.5 31.5s-11.667 19.833 -20 28.5s-18 15.667 -29 21s-22.167 8 -33.5 8v622h-89v-622h-89v622h-88v-578c0 -18 3.5 -35 10.5 -51s16.5 -30.167 28.5 -42.5s26 -22 42 -29s33 -10.5 51 -10.5z"/>
    <glyph glyph-name="FL0427h" unicode="×" horiz-adv-x="334" d="M245 91v87h-45c-18 0 -35.167 3.5 -51.5 10.5s-30.5 16.333 -42.5 28s-21.667 25.5 -29 41.5s-11 33 -11 51v402h90v-443h89v443h89v-711h-89v91z"/>
    <glyph glyph-name="FL0427h" unicode="Ч" horiz-adv-x="334" d="M245 91v87h-45c-18 0 -35.167 3.5 -51.5 10.5s-30.5 16.333 -42.5 28s-21.667 25.5 -29 41.5s-11 33 -11 51v402h90v-443h89v443h89v-711h-89v91z"/>
    <glyph glyph-name="FL0428h" unicode="Ø" horiz-adv-x="510" d="M199 0c-18 0 -35 3.5 -51 10.5s-30 16.667 -42 29s-21.5 26.5 -28.5 42.5s-10.5 33 -10.5 51v578h88v-622h89v622h89v-622h88v622h89v-711h-311z"/>
    <glyph glyph-name="FL0428h" unicode="Ш" horiz-adv-x="510" d="M199 0c-18 0 -35 3.5 -51 10.5s-30 16.667 -42 29s-21.5 26.5 -28.5 42.5s-10.5 33 -10.5 51v578h88v-622h89v622h89v-622h88v622h89v-711h-311z"/>
    <glyph glyph-name="FL0429h" unicode="Ù" horiz-adv-x="600" d="M199 0c-18 0 -35 3.5 -51 10.5s-30 16.667 -42 29s-21.5 26.5 -28.5 42.5s-10.5 33 -10.5 51v578h88v-622h89v622h89v-622h88v622h89v-622c11.333 0 22.5 -2.66699 33.5 -8s20.667 -12.333 29 -21s15 -18.167 20 -28.5s7.5 -20.833 7.5 -31.5h-401z"/>
    <glyph glyph-name="FL0429h" unicode="Щ" horiz-adv-x="600" d="M199 0c-18 0 -35 3.5 -51 10.5s-30 16.667 -42 29s-21.5 26.5 -28.5 42.5s-10.5 33 -10.5 51v578h88v-622h89v622h89v-622h88v622h89v-622c11.333 0 22.5 -2.66699 33.5 -8s20.667 -12.333 29 -21s15 -18.167 20 -28.5s7.5 -20.833 7.5 -31.5h-401z"/>
    <glyph glyph-name="FL042Ah" unicode="Ú" horiz-adv-x="422" d="M422 133c0 -19.333 -3.5 -37 -10.5 -53s-16.5 -30 -28.5 -42s-26 -21.333 -42 -28s-33 -10 -51 -10h-134v621h-89v89h44c18 0 35.167 -3.5 51.5 -10.5s30.5 -16.5 42.5 -28.5s21.667 -26.167 29 -42.5s11 -33.833 11 -52.5v-58h45c18 0 35 -3.66699 51 -11s30 -17 42 -29 s21.5 -26 28.5 -42s10.5 -33 10.5 -51v-252zM334 429h-89v-341h89v341z"/>
    <glyph glyph-name="FL042Ah" unicode="Ъ" horiz-adv-x="422" d="M422 133c0 -19.333 -3.5 -37 -10.5 -53s-16.5 -30 -28.5 -42s-26 -21.333 -42 -28s-33 -10 -51 -10h-134v621h-89v89h44c18 0 35.167 -3.5 51.5 -10.5s30.5 -16.5 42.5 -28.5s21.667 -26.167 29 -42.5s11 -33.833 11 -52.5v-58h45c18 0 35 -3.66699 51 -11s30 -17 42 -29 s21.5 -26 28.5 -42s10.5 -33 10.5 -51v-252zM334 429h-89v-341h89v341z"/>
    <glyph glyph-name="FL042Bh" unicode="Û" horiz-adv-x="514" d="M333 133v252c0 18 -3.5 35 -10.5 51s-16.5 30 -28.5 42s-26 21.667 -42 29s-33 11 -51 11h-45v192h-89v-710h134c18 -0 35 3.33301 51 10s30 16 42 28s21.5 26 28.5 42s10.5 33.667 10.5 53zM245 429v-341h-89v341h89zM514 -5c-24 0 -44.833 8 -62.5 24 s-26.5 36.667 -26.5 62v629h89v-715z"/>
    <glyph glyph-name="FL042Bh" unicode="Ы" horiz-adv-x="514" d="M333 133v252c0 18 -3.5 35 -10.5 51s-16.5 30 -28.5 42s-26 21.667 -42 29s-33 11 -51 11h-45v192h-89v-710h134c18 -0 35 3.33301 51 10s30 16 42 28s21.5 26 28.5 42s10.5 33.667 10.5 53zM245 429v-341h-89v341h89zM514 -5c-24 0 -44.833 8 -62.5 24 s-26.5 36.667 -26.5 62v629h89v-715z"/>
    <glyph glyph-name="FL042Ch" unicode="Ü" horiz-adv-x="333" d="M333 133v252c0 18 -3.5 35 -10.5 51s-16.5 30 -28.5 42s-26 21.667 -42 29s-33 11 -51 11h-45v192h-89v-710h134c18 -0 35 3.33301 51 10s30 16 42 28s21.5 26 28.5 42s10.5 33.667 10.5 53zM245 429v-341h-89v341h89z"/>
    <glyph glyph-name="FL042Ch" unicode="Ь" horiz-adv-x="333" d="M333 133v252c0 18 -3.5 35 -10.5 51s-16.5 30 -28.5 42s-26 21.667 -42 29s-33 11 -51 11h-45v192h-89v-710h134c18 -0 35 3.33301 51 10s30 16 42 28s21.5 26 28.5 42s10.5 33.667 10.5 53zM245 429v-341h-89v341h89z"/>
    <glyph glyph-name="afii10047" unicode="Ý" horiz-adv-x="333" d="M333 133v445c0 18 -3.33301 35.167 -10 51.5s-16 30.5 -28 42.5s-26 21.5 -42 28.5s-33.333 10.5 -52 10.5h-134v-89h178v-178h-89v-89h89v-266h-178v-89h134c18.667 0 36 3.5 52 10.5s30 16.667 42 29s21.333 26.5 28 42.5s10 33 10 51z"/>
    <glyph glyph-name="afii10047" unicode="Э" horiz-adv-x="333" d="M333 133v445c0 18 -3.33301 35.167 -10 51.5s-16 30.5 -28 42.5s-26 21.5 -42 28.5s-33.333 10.5 -52 10.5h-134v-89h178v-178h-89v-89h89v-266h-178v-89h134c18.667 0 36 3.5 52 10.5s30 16.667 42 29s21.333 26.5 28 42.5s10 33 10 51z"/>
    <glyph glyph-name="FL042Eh" unicode="Þ" horiz-adv-x="514" d="M68 -4v715h89v-266h91v137c0 18.667 3.33301 36.334 10 53.001s16 31.167 28 43.5s26 22 42 29s33.333 10.5 52 10.5s36.167 -3.5 52.5 -10.5s30.5 -16.667 42.5 -29s21.5 -26.833 28.5 -43.5s10.5 -34.334 10.5 -53.001v-453c0 -19.333 -3.5 -37 -10.5 -53 s-16.5 -30 -28.5 -42s-26.167 -21.333 -42.5 -28s-33.833 -10 -52.5 -10s-36 3.33301 -52 10s-30 16 -42 28s-21.333 26 -28 42s-10 33.667 -10 53v224h-91v-271c0 -25.333 -8.83301 -46 -26.5 -62s-38.5 -24 -62.5 -24zM336 622v-533h89v533h-89z"/>
    <glyph glyph-name="FL042Eh" unicode="Ю" horiz-adv-x="514" d="M68 -4v715h89v-266h91v137c0 18.667 3.33301 36.334 10 53.001s16 31.167 28 43.5s26 22 42 29s33.333 10.5 52 10.5s36.167 -3.5 52.5 -10.5s30.5 -16.667 42.5 -29s21.5 -26.833 28.5 -43.5s10.5 -34.334 10.5 -53.001v-453c0 -19.333 -3.5 -37 -10.5 -53 s-16.5 -30 -28.5 -42s-26.167 -21.333 -42.5 -28s-33.833 -10 -52.5 -10s-36 3.33301 -52 10s-30 16 -42 28s-21.333 26 -28 42s-10 33.667 -10 53v224h-91v-271c0 -25.333 -8.83301 -46 -26.5 -62s-38.5 -24 -62.5 -24zM336 622v-533h89v533h-89z"/>
    <glyph glyph-name="FL042Fh" unicode="ß" horiz-adv-x="334" d="M245 445h-45c-11.333 0 -21.5 8.5 -30.5 25.5s-13.5 37.833 -13.5 62.5v89h89v-177zM245 0h88.999v711h-134c-18 0 -35 -3.5 -51 -10.5s-30 -16.667 -42 -29s-21.5 -26.5 -28.5 -42.5s-10.5 -33 -10.5 -51v-47c0 -18 3.33301 -35 10 -51s15.834 -29.833 27.501 -41.5 s25.5 -21 41.5 -28s33.333 -10.5 52 -10.5c-18 -0.666992 -35 -4.5 -51 -11.5s-30 -16.333 -42 -28s-21.333 -25.5 -28 -41.5s-10 -33.333 -10 -52v-267h88v267c0 24.667 4.5 45.5 13.5 62.5s19.167 25.5 30.5 25.5h45v-355z"/>
    <glyph glyph-name="FL042Fh" unicode="Я" horiz-adv-x="334" d="M245 445h-45c-11.333 0 -21.5 8.5 -30.5 25.5s-13.5 37.833 -13.5 62.5v89h89v-177zM245 0h88.999v711h-134c-18 0 -35 -3.5 -51 -10.5s-30 -16.667 -42 -29s-21.5 -26.5 -28.5 -42.5s-10.5 -33 -10.5 -51v-47c0 -18 3.33301 -35 10 -51s15.834 -29.833 27.501 -41.5 s25.5 -21 41.5 -28s33.333 -10.5 52 -10.5c-18 -0.666992 -35 -4.5 -51 -11.5s-30 -16.333 -42 -28s-21.333 -25.5 -28 -41.5s-10 -33.333 -10 -52v-267h88v267c0 24.667 4.5 45.5 13.5 62.5s19.167 25.5 30.5 25.5h45v-355z"/>
    <glyph glyph-name="FL0430h" unicode="à" horiz-adv-x="316" d="M227 89v192h-89v-192h89zM182 0c-18.667 0 -36 3.49902 -52 10.499s-30 16.5 -42 28.5s-21.333 26.167 -28 42.5s-10 33.833 -10 52.5v104c0 18.667 3.33301 36.167 10 52.5s16 30.5 28 42.5s26 21.5 42 28.5s33.333 10.5 52 10.5h45v72h-177v89h132 c18.667 0 36.167 -3.33301 52.5 -10s30.5 -16 42.5 -28s21.5 -26.167 28.5 -42.5s10.5 -34.166 10.5 -53.499v-399h-134z"/>
    <glyph glyph-name="FL0430h" unicode="а" horiz-adv-x="316" d="M227 89v192h-89v-192h89zM182 0c-18.667 0 -36 3.49902 -52 10.499s-30 16.5 -42 28.5s-21.333 26.167 -28 42.5s-10 33.833 -10 52.5v104c0 18.667 3.33301 36.167 10 52.5s16 30.5 28 42.5s26 21.5 42 28.5s33.333 10.5 52 10.5h45v72h-177v89h132 c18.667 0 36.167 -3.33301 52.5 -10s30.5 -16 42.5 -28s21.5 -26.167 28.5 -42.5s10.5 -34.166 10.5 -53.499v-399h-134z"/>
    <glyph glyph-name="FL0431h" unicode="á" horiz-adv-x="316" d="M139 89v192h89v-192h-89zM184 0c18.667 0 36 3.49902 52 10.499s30 16.5 42 28.5s21.333 26.167 28 42.5s10 33.833 10 52.5v104c0 18.667 -3.33301 36.167 -10 52.5s-16 30.5 -28 42.5s-26 21.5 -42 28.5s-33.333 10.5 -52 10.5h-45v72h177v89h-132 c-18.667 0 -36.167 -3.33301 -52.5 -10s-30.5 -16 -42.5 -28s-21.5 -26.167 -28.5 -42.5s-10.5 -34.166 -10.5 -53.499v-266c0 -18 3.83301 -35.167 11.5 -51.5s17.667 -30.5 30 -42.5s26.5 -21.5 42.5 -28.5s32.667 -10.5 50 -10.5z"/>
    <glyph glyph-name="FL0431h" unicode="б" horiz-adv-x="316" d="M139 89v192h89v-192h-89zM184 0c18.667 0 36 3.49902 52 10.499s30 16.5 42 28.5s21.333 26.167 28 42.5s10 33.833 10 52.5v104c0 18.667 -3.33301 36.167 -10 52.5s-16 30.5 -28 42.5s-26 21.5 -42 28.5s-33.333 10.5 -52 10.5h-45v72h177v89h-132 c-18.667 0 -36.167 -3.33301 -52.5 -10s-30.5 -16 -42.5 -28s-21.5 -26.167 -28.5 -42.5s-10.5 -34.166 -10.5 -53.499v-266c0 -18 3.83301 -35.167 11.5 -51.5s17.667 -30.5 30 -42.5s26.5 -21.5 42.5 -28.5s32.667 -10.5 50 -10.5z"/>
    <glyph glyph-name="FL0432h" unicode="â" horiz-adv-x="316" d="M50 129v275c0 18.667 3.33301 36.334 10 53.001s16 31.167 28 43.5s26 22 42 29s33.333 10.5 52 10.5s36.167 -3.5 52.5 -10.5s30.5 -16.667 42.5 -29s21.5 -26.833 28.5 -43.5s10.5 -34.334 10.5 -53.001v-49c-2.66699 -22 -9.16699 -41.833 -19.5 -59.5 s-23.5 -27.167 -39.5 -28.5c18 -12 32.333 -23.833 43 -35.5s16 -29.5 16 -53.5v-49c0 -19.333 -3.5 -37 -10.5 -53s-16.5 -30 -28.5 -42s-26.167 -21.333 -42.5 -28s-33.833 -10 -52.5 -10s-36 3.33301 -52 10s-30 16 -42 28s-21.333 26 -28 42s-10 33.667 -10 53zM182 223 h-44.001v-134h89v89c0 12 -4.16699 22.5 -12.5 31.5s-19.166 13.5 -32.499 13.5zM137.999 444v-131h52c10 2 18.333 6.83301 25 14.5s10.667 19.167 12 34.5v82h-89z"/>
    <glyph glyph-name="FL0432h" unicode="в" horiz-adv-x="316" d="M50 129v275c0 18.667 3.33301 36.334 10 53.001s16 31.167 28 43.5s26 22 42 29s33.333 10.5 52 10.5s36.167 -3.5 52.5 -10.5s30.5 -16.667 42.5 -29s21.5 -26.833 28.5 -43.5s10.5 -34.334 10.5 -53.001v-49c-2.66699 -22 -9.16699 -41.833 -19.5 -59.5 s-23.5 -27.167 -39.5 -28.5c18 -12 32.333 -23.833 43 -35.5s16 -29.5 16 -53.5v-49c0 -19.333 -3.5 -37 -10.5 -53s-16.5 -30 -28.5 -42s-26.167 -21.333 -42.5 -28s-33.833 -10 -52.5 -10s-36 3.33301 -52 10s-30 16 -42 28s-21.333 26 -28 42s-10 33.667 -10 53zM182 223 h-44.001v-134h89v89c0 12 -4.16699 22.5 -12.5 31.5s-19.166 13.5 -32.499 13.5zM137.999 444v-131h52c10 2 18.333 6.83301 25 14.5s10.667 19.167 12 34.5v82h-89z"/>
    <glyph glyph-name="FL0433h" unicode="ã" horiz-adv-x="230" d="M52 399c0 18.667 3.66699 36.167 11 52.5s17 30.5 29 42.5s26.167 21.5 42.5 28.5s33.5 10.5 51.5 10.5h44v-89h-89v-444h-89v399z"/>
    <glyph glyph-name="FL0433h" unicode="г" horiz-adv-x="230" d="M52 399c0 18.667 3.66699 36.167 11 52.5s17 30.5 29 42.5s26.167 21.5 42.5 28.5s33.5 10.5 51.5 10.5h44v-89h-89v-444h-89v399z"/>
    <glyph glyph-name="FL0434h" unicode="ä" horiz-adv-x="316" d="M50 400c0 18.667 3.33301 36.167 10 52.5s16 30.5 28 42.5s26 21.333 42 28s33.333 10 52 10h134v-574c0 -18 -3.5 -35.167 -10.5 -51.5s-16.5 -30.5 -28.5 -42.5s-26.167 -21.667 -42.5 -29s-33.833 -11 -52.5 -11h-132v89h177v86h-45c-18.667 0 -36 3.5 -52 10.5 s-30 16.5 -42 28.5s-21.333 26.167 -28 42.5s-10 33.833 -10 52.5v266zM138 444v-355h89v355h-89z"/>
    <glyph glyph-name="FL0434h" unicode="д" horiz-adv-x="316" d="M50 400c0 18.667 3.33301 36.167 10 52.5s16 30.5 28 42.5s26 21.333 42 28s33.333 10 52 10h134v-574c0 -18 -3.5 -35.167 -10.5 -51.5s-16.5 -30.5 -28.5 -42.5s-26.167 -21.667 -42.5 -29s-33.833 -11 -52.5 -11h-132v89h177v86h-45c-18.667 0 -36 3.5 -52 10.5 s-30 16.5 -42 28.5s-21.333 26.167 -28 42.5s-10 33.833 -10 52.5v266zM138 444v-355h89v355h-89z"/>
    <glyph glyph-name="FL0435h" unicode="å" horiz-adv-x="317" d="M183 540c18.667 0 36.167 -3.50098 52.5 -10.501s30.5 -16.5 42.5 -28.5s21.5 -26.333 28.5 -43s10.5 -34.667 10.5 -54v-137h-178v-178h89v89h89v-49c0 -19.333 -3.5 -37 -10.5 -53s-16.5 -30 -28.5 -42s-26.167 -21.333 -42.5 -28s-33.833 -10 -52.5 -10 s-36 3.33301 -52 10s-30 16 -42 28s-21.333 26 -28 42s-10 33.667 -10 53v275c0 18.667 3.33301 36.334 10 53.001s16 31.167 28 43.5s26 22 42 29s33.333 10.5 52 10.5zM139 443.999v-89h89v89h-89z"/>
    <glyph glyph-name="FL0435h" unicode="е" horiz-adv-x="317" d="M183 540c18.667 0 36.167 -3.50098 52.5 -10.501s30.5 -16.5 42.5 -28.5s21.5 -26.333 28.5 -43s10.5 -34.667 10.5 -54v-137h-178v-178h89v89h89v-49c0 -19.333 -3.5 -37 -10.5 -53s-16.5 -30 -28.5 -42s-26.167 -21.333 -42.5 -28s-33.833 -10 -52.5 -10 s-36 3.33301 -52 10s-30 16 -42 28s-21.333 26 -28 42s-10 33.667 -10 53v275c0 18.667 3.33301 36.334 10 53.001s16 31.167 28 43.5s26 22 42 29s33.333 10.5 52 10.5zM139 443.999v-89h89v89h-89z"/>
    <glyph glyph-name="FL0436h" unicode="æ" horiz-adv-x="494" d="M51 534h88.0029v-163c0 -24.667 4.66699 -45.667 14 -63s19.666 -26 30.999 -26h44v429v1h89v-431l45 1c11.333 0 21.5 8.5 30.5 25.5s13.5 37.833 13.5 62.5v163h88v-164c0 -18 -3.16699 -34.833 -9.5 -50.5s-15.166 -29.5 -26.499 -41.5s-24.666 -21.5 -39.999 -28.5 s-32 -10.833 -50 -11.5c18 -0.666992 34.667 -4.66699 50 -12s28.666 -17 39.999 -29s20.166 -25.833 26.499 -41.5s9.5 -32.5 9.5 -50.5v-104h-88v104c0 24.667 -4.5 45.5 -13.5 62.5s-19.167 25.5 -30.5 25.5h-45v-192h-89v193h-45c-11.333 0 -21.5 -8.5 -30.5 -25.5 s-13.5 -37.833 -13.5 -62.5v-104h-88v104c0 18 3.16699 34.833 9.5 50.5s15.166 29.5 26.499 41.5s24.666 21.667 39.999 29s31.666 11.333 48.999 12c-18 0.666992 -34.5 4.5 -49.5 11.5s-28.167 16.5 -39.5 28.5s-20.166 25.833 -26.499 41.5s-9.5 32.5 -9.5 50.5v164z "/>
    <glyph glyph-name="FL0436h" unicode="ж" horiz-adv-x="494" d="M51 534h88.0029v-163c0 -24.667 4.66699 -45.667 14 -63s19.666 -26 30.999 -26h44v429v1h89v-431l45 1c11.333 0 21.5 8.5 30.5 25.5s13.5 37.833 13.5 62.5v163h88v-164c0 -18 -3.16699 -34.833 -9.5 -50.5s-15.166 -29.5 -26.499 -41.5s-24.666 -21.5 -39.999 -28.5 s-32 -10.833 -50 -11.5c18 -0.666992 34.667 -4.66699 50 -12s28.666 -17 39.999 -29s20.166 -25.833 26.499 -41.5s9.5 -32.5 9.5 -50.5v-104h-88v104c0 24.667 -4.5 45.5 -13.5 62.5s-19.167 25.5 -30.5 25.5h-45v-192h-89v193h-45c-11.333 0 -21.5 -8.5 -30.5 -25.5 s-13.5 -37.833 -13.5 -62.5v-104h-88v104c0 18 3.16699 34.833 9.5 50.5s15.166 29.5 26.499 41.5s24.666 21.667 39.999 29s31.666 11.333 48.999 12c-18 0.666992 -34.5 4.5 -49.5 11.5s-28.167 16.5 -39.5 28.5s-20.166 25.833 -26.499 41.5s-9.5 32.5 -9.5 50.5v164z "/>
    <glyph glyph-name="FL0437h" unicode="ç" horiz-adv-x="317" d="M139 444l-0.000976562 -87h-88v47c0 18.667 3.33301 36.334 10 53.001s16 31.167 28 43.5s26 22 42 29s33.333 10.5 52 10.5s36.167 -3.5 52.5 -10.5s30.5 -16.667 42.5 -29s21.5 -26.833 28.5 -43.5s10.5 -34.334 10.5 -53.001v-49 c-2.66699 -22 -9.16699 -41.833 -19.5 -59.5s-23.5 -27.167 -39.5 -28.5c18 -12 32.333 -23.833 43 -35.5s16 -29.5 16 -53.5v-49c0 -19.333 -3.5 -37 -10.5 -53s-16.5 -30 -28.5 -42s-26.167 -21.333 -42.5 -28s-33.833 -10 -52.5 -10s-36 3.33301 -52 10s-30 16 -42 28 s-21.333 26 -28 42s-10 33.667 -10 53v65h88v-105h89v89c0 12 -4.16699 22.5 -12.5 31.5s-19.166 13.5 -32.499 13.5h-45v90h53c10 2 18.333 6.83301 25 14.5s10.667 19.167 12 34.5v82h-89z"/>
    <glyph glyph-name="FL0437h" unicode="з" horiz-adv-x="317" d="M139 444l-0.000976562 -87h-88v47c0 18.667 3.33301 36.334 10 53.001s16 31.167 28 43.5s26 22 42 29s33.333 10.5 52 10.5s36.167 -3.5 52.5 -10.5s30.5 -16.667 42.5 -29s21.5 -26.833 28.5 -43.5s10.5 -34.334 10.5 -53.001v-49 c-2.66699 -22 -9.16699 -41.833 -19.5 -59.5s-23.5 -27.167 -39.5 -28.5c18 -12 32.333 -23.833 43 -35.5s16 -29.5 16 -53.5v-49c0 -19.333 -3.5 -37 -10.5 -53s-16.5 -30 -28.5 -42s-26.167 -21.333 -42.5 -28s-33.833 -10 -52.5 -10s-36 3.33301 -52 10s-30 16 -42 28 s-21.333 26 -28 42s-10 33.667 -10 53v65h88v-105h89v89c0 12 -4.16699 22.5 -12.5 31.5s-19.166 13.5 -32.499 13.5h-45v90h53c10 2 18.333 6.83301 25 14.5s10.667 19.167 12 34.5v82h-89z"/>
    <glyph glyph-name="FL0438h" unicode="è" horiz-adv-x="318" d="M318 0h-133c-18 0 -35.167 3.5 -51.5 10.5s-30.5 16.667 -42.5 29s-21.667 26.5 -29 42.5s-11 33 -11 51v400h90v-444h89v444h88v-533z"/>
    <glyph glyph-name="FL0438h" unicode="и" horiz-adv-x="318" d="M318 0h-133c-18 0 -35.167 3.5 -51.5 10.5s-30.5 16.667 -42.5 29s-21.667 26.5 -29 42.5s-11 33 -11 51v400h90v-444h89v444h88v-533z"/>
    <glyph glyph-name="FL0439h" unicode="é" horiz-adv-x="318" d="M318 0h-133c-18 0 -35.167 3.5 -51.5 10.5s-30.5 16.667 -42.5 29s-21.667 26.5 -29 42.5s-11 33 -11 51v400h90v-444h89v444h88v-533zM52 617v89h266v-89h-266z"/>
    <glyph glyph-name="FL0439h" unicode="й" horiz-adv-x="318" d="M318 0h-133c-18 0 -35.167 3.5 -51.5 10.5s-30.5 16.667 -42.5 29s-21.667 26.5 -29 42.5s-11 33 -11 51v400h90v-444h89v444h88v-533zM52 617v89h266v-89h-266z"/>
    <glyph glyph-name="FL043Ah" unicode="ê" horiz-adv-x="316" d="M316 533l-0.000976562 -164c0 -18.667 -1.16699 -36 -3.5 -52s-6.83301 -30 -13.5 -42s-15.667 -21.333 -27 -28s-26.333 -10 -45 -10c18 0 32.833 -3.5 44.5 -10.5s20.834 -16.5 27.501 -28.5s11.167 -26.167 13.5 -42.5s3.5 -33.5 3.5 -51.5v-104h-88v104 c0 24.667 -4.5 45.5 -13.5 62.5s-19.167 25.5 -30.5 25.5h-45v-192h-89v532h89v-251h45c11.333 0 21.5 8.66699 30.5 26s13.5 38.333 13.5 63v163h88z"/>
    <glyph glyph-name="FL043Ah" unicode="к" horiz-adv-x="316" d="M316 533l-0.000976562 -164c0 -18.667 -1.16699 -36 -3.5 -52s-6.83301 -30 -13.5 -42s-15.667 -21.333 -27 -28s-26.333 -10 -45 -10c18 0 32.833 -3.5 44.5 -10.5s20.834 -16.5 27.501 -28.5s11.167 -26.167 13.5 -42.5s3.5 -33.5 3.5 -51.5v-104h-88v104 c0 24.667 -4.5 45.5 -13.5 62.5s-19.167 25.5 -30.5 25.5h-45v-192h-89v532h89v-251h45c11.333 0 21.5 8.66699 30.5 26s13.5 38.333 13.5 63v163h88z"/>
    <glyph glyph-name="FL043Bh" unicode="ë" horiz-adv-x="316" d="M182 533c-18 0 -35.001 -3.33301 -51.001 -10s-30 -16 -42 -28s-21.5 -26.167 -28.5 -42.5s-10.5 -33.833 -10.5 -52.5v-488c12.667 0 24.334 5.33301 35.001 16s20 24 28 40s14.167 33.333 18.5 52s6.5 36 6.5 52v372h89v-444h89v533h-134z"/>
    <glyph glyph-name="FL043Bh" unicode="л" horiz-adv-x="316" d="M182 533c-18 0 -35.001 -3.33301 -51.001 -10s-30 -16 -42 -28s-21.5 -26.167 -28.5 -42.5s-10.5 -33.833 -10.5 -52.5v-488c12.667 0 24.334 5.33301 35.001 16s20 24 28 40s14.167 33.333 18.5 52s6.5 36 6.5 52v372h89v-444h89v533h-134z"/>
    <glyph glyph-name="FL043Ch" unicode="ì" horiz-adv-x="494" d="M273 499c10.667 10.667 23.668 19 39.001 25s31.666 9 48.999 9c18.667 0 36.167 -3.33301 52.5 -10s30.5 -16 42.5 -28s21.333 -26.167 28 -42.5s10 -33.833 10 -52.5v-400h-89v444h-89v-444h-88v444h-89v-444h-89v533h134c16.667 0 32.667 -3 48 -9s29 -14.333 41 -25z "/>
    <glyph glyph-name="FL043Ch" unicode="м" horiz-adv-x="494" d="M273 499c10.667 10.667 23.668 19 39.001 25s31.666 9 48.999 9c18.667 0 36.167 -3.33301 52.5 -10s30.5 -16 42.5 -28s21.333 -26.167 28 -42.5s10 -33.833 10 -52.5v-400h-89v444h-89v-444h-88v444h-89v-444h-89v533h134c16.667 0 32.667 -3 48 -9s29 -14.333 41 -25z "/>
    <glyph glyph-name="FL043Dh" unicode="í" horiz-adv-x="316" d="M316 533v-533h-88l-1 192h-88v-192h-89v532h89v-251l89 1v251h88z"/>
    <glyph glyph-name="FL043Dh" unicode="н" horiz-adv-x="316" d="M316 533v-533h-88l-1 192h-88v-192h-89v532h89v-251l89 1v251h88z"/>
    <glyph glyph-name="FL043Eh" unicode="î" horiz-adv-x="316" d="M316 129c0 -19.333 -3.5 -37 -10.5 -53s-16.5 -30 -28.5 -42s-26.167 -21.333 -42.5 -28s-33.833 -10 -52.5 -10s-36 3.33301 -52 10s-30 16 -42 28s-21.333 26 -28 42s-10 33.667 -10 53v275c0 18.667 3.33301 36.334 10 53.001s16 31.167 28 43.5s26 22 42 29 s33.333 10.5 52 10.5s36.167 -3.5 52.5 -10.5s30.5 -16.667 42.5 -29s21.5 -26.833 28.5 -43.5s10.5 -34.334 10.5 -53.001v-275zM138 444v-355h89v355h-89z"/>
    <glyph glyph-name="FL043Eh" unicode="о" horiz-adv-x="316" d="M316 129c0 -19.333 -3.5 -37 -10.5 -53s-16.5 -30 -28.5 -42s-26.167 -21.333 -42.5 -28s-33.833 -10 -52.5 -10s-36 3.33301 -52 10s-30 16 -42 28s-21.333 26 -28 42s-10 33.667 -10 53v275c0 18.667 3.33301 36.334 10 53.001s16 31.167 28 43.5s26 22 42 29 s33.333 10.5 52 10.5s36.167 -3.5 52.5 -10.5s30.5 -16.667 42.5 -29s21.5 -26.833 28.5 -43.5s10.5 -34.334 10.5 -53.001v-275zM138 444v-355h89v355h-89z"/>
    <glyph glyph-name="FL043Fh" unicode="ï" horiz-adv-x="317" d="M185 533c18 0 35 -3.33301 51 -10s30 -16 42 -28s21.5 -26.167 28.5 -42.5s10.5 -33.833 10.5 -52.5v-400h-88v444h-89v-444h-89v533h134z"/>
    <glyph glyph-name="FL043Fh" unicode="п" horiz-adv-x="317" d="M185 533c18 0 35 -3.33301 51 -10s30 -16 42 -28s21.5 -26.167 28.5 -42.5s10.5 -33.833 10.5 -52.5v-400h-88v444h-89v-444h-89v533h134z"/>
    <glyph glyph-name="FL0440h" unicode="ð" horiz-adv-x="320" d="M142 89h89v355h-89v-355zM142 -175c-12 0 -23.333 2.33301 -34 7s-20.167 11 -28.5 19s-14.833 17.5 -19.5 28.5s-7 22.5 -7 34.5v619h134c18 0 35.167 -3.33301 51.5 -10s30.5 -16 42.5 -28s21.5 -26.167 28.5 -42.5s10.5 -33.833 10.5 -52.5v-266 c0 -18.667 -3.5 -36.167 -10.5 -52.5s-16.5 -30.5 -28.5 -42.5s-26.167 -21.5 -42.5 -28.5s-33.5 -10.5 -51.5 -10.5h-45v-175z"/>
    <glyph glyph-name="FL0440h" unicode="р" horiz-adv-x="320" d="M142 89h89v355h-89v-355zM142 -175c-12 0 -23.333 2.33301 -34 7s-20.167 11 -28.5 19s-14.833 17.5 -19.5 28.5s-7 22.5 -7 34.5v619h134c18 0 35.167 -3.33301 51.5 -10s30.5 -16 42.5 -28s21.5 -26.167 28.5 -42.5s10.5 -33.833 10.5 -52.5v-266 c0 -18.667 -3.5 -36.167 -10.5 -52.5s-16.5 -30.5 -28.5 -42.5s-26.167 -21.5 -42.5 -28.5s-33.5 -10.5 -51.5 -10.5h-45v-175z"/>
    <glyph glyph-name="FL0441h" unicode="ñ" horiz-adv-x="317" d="M317 405v-50h-89v89h-89v-355h89v104h89v-64c0 -19.333 -3.5 -37 -10.5 -53s-16.5 -30 -28.5 -42s-26.167 -21.333 -42.5 -28s-33.833 -10 -52.5 -10s-36 3.33301 -52 10s-30 16 -42 28s-21.333 26 -28 42s-10 33.667 -10 53v276c0 18.667 3.33301 36.334 10 53.001 s16 31 28 43s26 21.5 42 28.5s33.333 10.5 52 10.5s36.167 -3.5 52.5 -10.5s30.5 -16.5 42.5 -28.5s21.5 -26.333 28.5 -43s10.5 -34.334 10.5 -53.001z"/>
    <glyph glyph-name="FL0441h" unicode="с" horiz-adv-x="317" d="M317 405v-50h-89v89h-89v-355h89v104h89v-64c0 -19.333 -3.5 -37 -10.5 -53s-16.5 -30 -28.5 -42s-26.167 -21.333 -42.5 -28s-33.833 -10 -52.5 -10s-36 3.33301 -52 10s-30 16 -42 28s-21.333 26 -28 42s-10 33.667 -10 53v276c0 18.667 3.33301 36.334 10 53.001 s16 31 28 43s26 21.5 42 28.5s33.333 10.5 52 10.5s36.167 -3.5 52.5 -10.5s30.5 -16.5 42.5 -28.5s21.5 -26.333 28.5 -43s10.5 -34.334 10.5 -53.001z"/>
    <glyph glyph-name="FL0442h" unicode="ò" horiz-adv-x="320" d="M142 0v445h-91v88h269v-89h-89v-444h-89z"/>
    <glyph glyph-name="FL0442h" unicode="т" horiz-adv-x="320" d="M142 0v445h-91v88h269v-89h-89v-444h-89z"/>
    <glyph glyph-name="FL0447h" unicode="ó" horiz-adv-x="317" d="M49 -176l146 0.000976562c30.667 0 54.167 6.66699 70.5 20s28.333 29.166 36 47.499s12.167 37.5 13.5 57.5s2 37 2 51v533h-89v-443h-89v443h-90v-402c0 -18 3.66699 -35 11 -51s17 -29.833 29 -41.5s26.167 -21 42.5 -28s33.5 -10.5 51.5 -10.5h45v-87h-179v-89z"/>
    <glyph glyph-name="FL0447h" unicode="у" horiz-adv-x="317" d="M49 -176l146 0.000976562c30.667 0 54.167 6.66699 70.5 20s28.333 29.166 36 47.499s12.167 37.5 13.5 57.5s2 37 2 51v533h-89v-443h-89v443h-90v-402c0 -18 3.66699 -35 11 -51s17 -29.833 29 -41.5s26.167 -21 42.5 -28s33.5 -10.5 51.5 -10.5h45v-87h-179v-89z"/>
    <glyph glyph-name="FL0444h" unicode="ô" horiz-adv-x="497" d="M230 0h-47c-18 0 -35.167 3.5 -51.5 10.5s-30.5 16.5 -42.5 28.5s-21.5 26 -28.5 42s-10.5 33.333 -10.5 52v266c0 18.667 3.5 36.167 10.5 52.5s16.5 30.5 28.5 42.5s26.167 21.333 42.5 28s33.5 10 51.5 10h47v1h134c18 0 35.167 -3.33301 51.5 -10s30.5 -16 42.5 -28 s21.5 -26.167 28.5 -42.5s10.5 -33.833 10.5 -52.5v-266c0 -18.667 -3.5 -36.167 -10.5 -52.5s-16.5 -30.5 -28.5 -42.5s-26.167 -21.5 -42.5 -28.5s-33.5 -10.5 -51.5 -10.5h-45v-175c-12 0 -23.333 2.33301 -34 7s-20.167 11 -28.5 19s-14.833 17.5 -19.5 28.5 s-7 22.5 -7 34.5v86zM319 89h89v355h-89v-355zM228 88v355h-89v-355h89z"/>
    <glyph glyph-name="FL0444h" unicode="ф" horiz-adv-x="497" d="M230 0h-47c-18 0 -35.167 3.5 -51.5 10.5s-30.5 16.5 -42.5 28.5s-21.5 26 -28.5 42s-10.5 33.333 -10.5 52v266c0 18.667 3.5 36.167 10.5 52.5s16.5 30.5 28.5 42.5s26.167 21.333 42.5 28s33.5 10 51.5 10h47v1h134c18 0 35.167 -3.33301 51.5 -10s30.5 -16 42.5 -28 s21.5 -26.167 28.5 -42.5s10.5 -33.833 10.5 -52.5v-266c0 -18.667 -3.5 -36.167 -10.5 -52.5s-16.5 -30.5 -28.5 -42.5s-26.167 -21.5 -42.5 -28.5s-33.5 -10.5 -51.5 -10.5h-45v-175c-12 0 -23.333 2.33301 -34 7s-20.167 11 -28.5 19s-14.833 17.5 -19.5 28.5 s-7 22.5 -7 34.5v86zM319 89h89v355h-89v-355zM228 88v355h-89v-355h89z"/>
    <glyph glyph-name="FL0445h" unicode="õ" horiz-adv-x="316" d="M114 297l-25.001 20c-12 12 -21.5 26.333 -28.5 43s-10.5 33.667 -10.5 51v121h90l-1 -121c0 -12 4.33301 -22.333 13 -31l31 -25l31 25c8.66699 8.66699 13 19 13 31v122h89v-122c0 -17.333 -3.16699 -34.333 -9.5 -51s-16.166 -31 -29.499 -43l-25 -20l26 -21 c12 -11.333 21.333 -25.666 28 -42.999s10 -34.333 10 -51v-182h-89v182c0 12 -4.33301 22.667 -13 32l-31 26l-31 -26c-8.66699 -9.33301 -13 -20 -13 -32v-182h-89v182c0 16.667 3.5 33.667 10.5 51s16.5 31.666 28.5 42.999z"/>
    <glyph glyph-name="FL0445h" unicode="х" horiz-adv-x="316" d="M114 297l-25.001 20c-12 12 -21.5 26.333 -28.5 43s-10.5 33.667 -10.5 51v121h90l-1 -121c0 -12 4.33301 -22.333 13 -31l31 -25l31 25c8.66699 8.66699 13 19 13 31v122h89v-122c0 -17.333 -3.16699 -34.333 -9.5 -51s-16.166 -31 -29.499 -43l-25 -20l26 -21 c12 -11.333 21.333 -25.666 28 -42.999s10 -34.333 10 -51v-182h-89v182c0 12 -4.33301 22.667 -13 32l-31 26l-31 -26c-8.66699 -9.33301 -13 -20 -13 -32v-182h-89v182c0 16.667 3.5 33.667 10.5 51s16.5 31.666 28.5 42.999z"/>
    <glyph glyph-name="FL0446h" unicode="ö" horiz-adv-x="419" d="M419 0h-233c-18 0 -35.167 3.16699 -51.5 9.5s-30.833 15 -43.5 26s-22.667 24.333 -30 40s-11 33.167 -11 52.5v405h90v-444h89v444h88v-444c38 0 64.5 -8.33301 79.5 -25s22.5 -38 22.5 -64z"/>
    <glyph glyph-name="FL0446h" unicode="ц" horiz-adv-x="419" d="M419 0h-233c-18 0 -35.167 3.16699 -51.5 9.5s-30.833 15 -43.5 26s-22.667 24.333 -30 40s-11 33.167 -11 52.5v405h90v-444h89v444h88v-444c38 0 64.5 -8.33301 79.5 -25s22.5 -38 22.5 -64z"/>
    <glyph glyph-name="FL0449h" unicode="÷" horiz-adv-x="316" d="M50 533v-226.001c0 -26 4.33301 -46.667 13 -62s18.167 -26.833 28.5 -34.5s20.333 -12.667 30 -15s15.5 -3.5 17.5 -3.5h88v-192h89v532h-89v-251l-45 1c-11.333 0 -21.333 2.33301 -30 7s-13 14.334 -13 29.001l1 214z"/>
    <glyph glyph-name="FL0449h" unicode="ч" horiz-adv-x="316" d="M50 533v-226.001c0 -26 4.33301 -46.667 13 -62s18.167 -26.833 28.5 -34.5s20.333 -12.667 30 -15s15.5 -3.5 17.5 -3.5h88v-192h89v532h-89v-251l-45 1c-11.333 0 -21.333 2.33301 -30 7s-13 14.334 -13 29.001l1 214z"/>
    <glyph glyph-name="FL0448h" unicode="ø" horiz-adv-x="497" d="M497 0h-310c-18 0 -35.167 3.16699 -51.5 9.5s-30.833 15 -43.5 26s-22.667 24.333 -30 40s-11 33.167 -11 52.5v405h90v-444h89v444h88v-444h90v444h89v-533z"/>
    <glyph glyph-name="FL0448h" unicode="ш" horiz-adv-x="497" d="M497 0h-310c-18 0 -35.167 3.16699 -51.5 9.5s-30.833 15 -43.5 26s-22.667 24.333 -30 40s-11 33.167 -11 52.5v405h90v-444h89v444h88v-444h90v444h89v-533z"/>
    <glyph glyph-name="FL044Ah" unicode="ù" horiz-adv-x="598" d="M598 0h-411c-18 0 -35.167 3.16699 -51.5 9.5s-30.833 15 -43.5 26s-22.667 24.333 -30 40s-11 33.167 -11 52.5v405h90v-444h89l1 446h87l1 -446h89v444h89v-444c36.667 -0.666992 62.667 -9.16699 78 -25.5s23 -37.5 23 -63.5z"/>
    <glyph glyph-name="FL044Ah" unicode="щ" horiz-adv-x="598" d="M598 0h-411c-18 0 -35.167 3.16699 -51.5 9.5s-30.833 15 -43.5 26s-22.667 24.333 -30 40s-11 33.167 -11 52.5v405h90v-444h89l1 446h87l1 -446h89v444h89v-444c36.667 -0.666992 62.667 -9.16699 78 -25.5s23 -37.5 23 -63.5z"/>
    <glyph glyph-name="FL044Dh" unicode="ú" horiz-adv-x="406" d="M274 0c-17.333 0 -33.832 3.5 -49.499 10.5s-29.834 16.5 -42.501 28.5s-22.667 26 -30 42s-11 33 -11 51v311h-90v89h44c18 0 35.167 -3.5 51.5 -10.5s30.5 -16.5 42.5 -28.5s21.667 -26.167 29 -42.5s11 -33.833 11 -52.5v-26h45c18.667 0 36 -3.5 52 -10.5 s30 -16.5 42 -28.5s21.333 -26.167 28 -42.5s10 -33.833 10 -52.5v-104c0 -18.667 -3.33301 -36.167 -10 -52.5s-16 -30.5 -28 -42.5s-26 -21.5 -42 -28.5s-33.333 -10.5 -52 -10.5zM229.001 89h89v192h-89v-192z"/>
    <glyph glyph-name="FL044Dh" unicode="ъ" horiz-adv-x="406" d="M274 0c-17.333 0 -33.832 3.5 -49.499 10.5s-29.834 16.5 -42.501 28.5s-22.667 26 -30 42s-11 33 -11 51v311h-90v89h44c18 0 35.167 -3.5 51.5 -10.5s30.5 -16.5 42.5 -28.5s21.667 -26.167 29 -42.5s11 -33.833 11 -52.5v-26h45c18.667 0 36 -3.5 52 -10.5 s30 -16.5 42 -28.5s21.333 -26.167 28 -42.5s10 -33.833 10 -52.5v-104c0 -18.667 -3.33301 -36.167 -10 -52.5s-16 -30.5 -28 -42.5s-26 -21.5 -42 -28.5s-33.333 -10.5 -52 -10.5zM229.001 89h89v192h-89v-192z"/>
    <glyph glyph-name="FL044Bh" unicode="û" horiz-adv-x="489" d="M140 89v192h89v-192h-89zM185 0c18.667 0 36 3.5 52 10.5s30 16.5 42 28.5s21.333 26.167 28 42.5s10 33.833 10 52.5v104c0 18.667 -3.33301 36.167 -10 52.5s-16 30.5 -28 42.5s-26 21.5 -42 28.5s-33.333 10.5 -52 10.5h-45v150h-89v-389 c0 -18 3.83301 -35.167 11.5 -51.5s17.667 -30.5 30 -42.5s26.5 -21.5 42.5 -28.5s32.667 -10.5 50 -10.5zM489 -7c-24 0 -44.833 8 -62.5 24s-26.5 36.667 -26.5 62v443h89v-529z"/>
    <glyph glyph-name="FL044Bh" unicode="ы" horiz-adv-x="489" d="M140 89v192h89v-192h-89zM185 0c18.667 0 36 3.5 52 10.5s30 16.5 42 28.5s21.333 26.167 28 42.5s10 33.833 10 52.5v104c0 18.667 -3.33301 36.167 -10 52.5s-16 30.5 -28 42.5s-26 21.5 -42 28.5s-33.333 10.5 -52 10.5h-45v150h-89v-389 c0 -18 3.83301 -35.167 11.5 -51.5s17.667 -30.5 30 -42.5s26.5 -21.5 42.5 -28.5s32.667 -10.5 50 -10.5zM489 -7c-24 0 -44.833 8 -62.5 24s-26.5 36.667 -26.5 62v443h89v-529z"/>
    <glyph glyph-name="FL044Ch" unicode="ü" horiz-adv-x="315" d="M138 89v192h89v-192h-89zM183 0c18.667 0 36 3.5 52 10.5s30 16.5 42 28.5s21.333 26.167 28 42.5s10 33.833 10 52.5v104c0 18.667 -3.33301 36.167 -10 52.5s-16 30.5 -28 42.5s-26 21.5 -42 28.5s-33.333 10.5 -52 10.5h-45v150h-88l-1 -389 c0 -18 3.83301 -35.167 11.5 -51.5s17.667 -30.5 30 -42.5s26.5 -21.5 42.5 -28.5s32.667 -10.5 50 -10.5z"/>
    <glyph glyph-name="FL044Ch" unicode="ь" horiz-adv-x="315" d="M138 89v192h89v-192h-89zM183 0c18.667 0 36 3.5 52 10.5s30 16.5 42 28.5s21.333 26.167 28 42.5s10 33.833 10 52.5v104c0 18.667 -3.33301 36.167 -10 52.5s-16 30.5 -28 42.5s-26 21.5 -42 28.5s-33.333 10.5 -52 10.5h-45v150h-88l-1 -389 c0 -18 3.83301 -35.167 11.5 -51.5s17.667 -30.5 30 -42.5s26.5 -21.5 42.5 -28.5s32.667 -10.5 50 -10.5z"/>
    <glyph glyph-name="FL044Eh" unicode="ý" horiz-adv-x="316" d="M50 405c0 18.667 3.5 36.334 10.5 53.001s16.5 31 28.5 43s26.167 21.5 42.5 28.5s33.833 10.5 52.5 10.5s36 -3.5 52 -10.5s30 -16.5 42 -28.5s21.333 -26.333 28 -43s10 -34.334 10 -53.001v-276c0 -19.333 -3.33301 -37 -10 -53s-16 -30 -28 -42s-26 -21.333 -42 -28 s-33.333 -10 -52 -10s-36.167 3.33301 -52.5 10s-30.5 16 -42.5 28s-21.5 26 -28.5 42s-10.5 33.667 -10.5 53v64h89v-104h89v146h-89v82h89v127h-89v-89h-89v50z"/>
    <glyph glyph-name="FL044Eh" unicode="э" horiz-adv-x="316" d="M50 405c0 18.667 3.5 36.334 10.5 53.001s16.5 31 28.5 43s26.167 21.5 42.5 28.5s33.833 10.5 52.5 10.5s36 -3.5 52 -10.5s30 -16.5 42 -28.5s21.333 -26.333 28 -43s10 -34.334 10 -53.001v-276c0 -19.333 -3.33301 -37 -10 -53s-16 -30 -28 -42s-26 -21.333 -42 -28 s-33.333 -10 -52 -10s-36.167 3.33301 -52.5 10s-30.5 16 -42.5 28s-21.5 26 -28.5 42s-10.5 33.667 -10.5 53v64h89v-104h89v146h-89v82h89v127h-89v-89h-89v50z"/>
    <glyph glyph-name="FL044Fh" unicode="þ" horiz-adv-x="486" d="M52 -4v529h89v-223h79v102c0 18.667 3.33301 36.334 10 53.001s16 31.167 28 43.5s26 22 42 29s33.333 10.5 52 10.5s36.167 -3.5 52.5 -10.5s30.5 -16.667 42.5 -29s21.5 -26.833 28.5 -43.5s10.5 -34.334 10.5 -53.001v-275c0 -19.333 -3.5 -37 -10.5 -53 s-16.5 -30 -28.5 -42s-26.167 -21.333 -42.5 -28s-33.833 -10 -52.5 -10s-36 3.33301 -52 10s-30 16 -42 28s-21.333 26 -28 42s-10 33.667 -10 53v94h-79v-141c0 -25.333 -8.83301 -46 -26.5 -62s-38.5 -24 -62.5 -24zM308 444v-355h89v355h-89z"/>
    <glyph glyph-name="FL044Fh" unicode="ю" horiz-adv-x="486" d="M52 -4v529h89v-223h79v102c0 18.667 3.33301 36.334 10 53.001s16 31.167 28 43.5s26 22 42 29s33.333 10.5 52 10.5s36.167 -3.5 52.5 -10.5s30.5 -16.667 42.5 -29s21.5 -26.833 28.5 -43.5s10.5 -34.334 10.5 -53.001v-275c0 -19.333 -3.5 -37 -10.5 -53 s-16.5 -30 -28.5 -42s-26.167 -21.333 -42.5 -28s-33.833 -10 -52.5 -10s-36 3.33301 -52 10s-30 16 -42 28s-21.333 26 -28 42s-10 33.667 -10 53v94h-79v-141c0 -25.333 -8.83301 -46 -26.5 -62s-38.5 -24 -62.5 -24zM308 444v-355h89v355h-89z"/>
    <glyph glyph-name="FL0450h" unicode="ÿ" horiz-adv-x="316" d="M50 369c0 18.667 1.5 37.5 4.5 56.5s9.16699 36.167 18.5 51.5s22.666 28 39.999 38s40.333 15.667 69 17h134v-532h-89v192h-45c-11.333 0 -21.5 -8.5 -30.5 -25.5s-13.5 -37.833 -13.5 -62.5v-104h-88v104c0 18 1.33301 34.833 4 50.5s7.33398 29.5 14.001 41.5 s15.834 21.667 27.501 29s26.167 11.333 43.5 12c-18 0.666992 -32.667 4.5 -44 11.5s-20.333 16.5 -27 28.5s-11.334 25.833 -14.001 41.5s-4 32.5 -4 50.5zM138 444v-163h89v163h-89z"/>
    <glyph glyph-name="FL0450h" unicode="я" horiz-adv-x="316" d="M50 369c0 18.667 1.5 37.5 4.5 56.5s9.16699 36.167 18.5 51.5s22.666 28 39.999 38s40.333 15.667 69 17h134v-532h-89v192h-45c-11.333 0 -21.5 -8.5 -30.5 -25.5s-13.5 -37.833 -13.5 -62.5v-104h-88v104c0 18 1.33301 34.833 4 50.5s7.33398 29.5 14.001 41.5 s15.834 21.667 27.501 29s26.167 11.333 43.5 12c-18 0.666992 -32.667 4.5 -44 11.5s-20.333 16.5 -27 28.5s-11.334 25.833 -14.001 41.5s-4 32.5 -4 50.5zM138 444v-163h89v163h-89z"/>
    <glyph glyph-name=".null" horiz-adv-x="0"/>
    <glyph glyph-name="nonmarkingreturn" horiz-adv-x="500"/>
    <glyph glyph-name="glyph138" horiz-adv-x="1000" d="M89 355c-25.333 0 -46.5 -8.50098 -63.5 -25.501s-25.5 -37.833 -25.5 -62.5c0 -25.333 8.5 -46.5 25.5 -63.5s38.167 -25.5 63.5 -25.5c12 0 23.333 2.33301 34 7s20.167 11 28.5 19s14.833 17.333 19.5 28s7 22.334 7 35.001c0 12 -2.33301 23.333 -7 34 s-11.167 20 -19.5 28s-17.833 14.333 -28.5 19s-22 7 -34 7z"/>
    <glyph glyph-name=".null" horiz-adv-x="0"/>
  </font>
</defs>
</svg>
