<?xml version="1.0" standalone="no"?>
<!DOCTYPE svg PUBLIC "-//W3C//DTD SVG 20010904//EN"
 "http://www.w3.org/TR/2001/REC-SVG-20010904/DTD/svg10.dtd">
<svg version="1.0" xmlns="http://www.w3.org/2000/svg"
 width="300.000000pt" height="300.000000pt" viewBox="0 0 300.000000 300.000000"
 preserveAspectRatio="xMidYMid meet">
<metadata>
Created by potrace 1.11, written by Peter Selinger 2001-2013
</metadata>
<g transform="translate(0.000000,300.000000) scale(0.100000,-0.100000)"
fill="#000000" stroke="none">
<path d="M0 1500 l0 -1500 1500 0 1500 0 0 1500 0 1500 -1500 0 -1500 0 0
-1500z m910 670 c0 -18 -7 -20 -55 -20 -34 0 -55 -4 -55 -11 0 -6 59 -177 130
-380 72 -203 130 -374 130 -379 0 -6 3 -10 8 -10 11 0 173 596 179 660 7 70
-18 107 -78 116 -29 5 -39 11 -39 25 0 18 10 19 155 19 154 0 155 0 155 -22
-1 -17 -12 -29 -43 -43 -33 -16 -48 -32 -69 -75 -15 -30 -86 -253 -158 -494
-172 -575 -193 -630 -269 -699 -44 -40 -88 -52 -158 -44 -168 19 -269 290
-147 396 45 40 85 47 131 24 50 -24 75 -69 75 -138 1 -67 -16 -96 -82 -136
-28 -17 -50 -35 -50 -41 0 -63 130 -88 195 -36 26 20 75 106 75 131 0 7 -89
265 -198 573 l-199 559 -46 3 c-39 3 -47 6 -47 23 0 18 9 19 230 19 223 0 230
-1 230 -20z m1630 0 c0 -18 -7 -20 -60 -20 l-60 0 0 -640 0 -640 60 0 c57 0
60 -1 60 -25 l0 -25 -222 2 c-223 3 -223 3 -226 25 -3 21 0 23 47 23 l51 0 0
640 0 640 -170 0 -170 0 0 -640 0 -640 50 0 c47 0 50 -2 50 -25 l0 -25 -222 2
c-221 3 -223 3 -226 25 -3 20 1 22 58 25 l61 3 -1 615 c0 338 0 625 0 638 0
20 -4 22 -60 22 -53 0 -60 2 -60 20 0 20 7 20 520 20 513 0 520 0 520 -20z"/>
</g>
</svg>
