<?xml version="1.0" encoding="utf-8"?>
<!-- Generator: Adobe Illustrator 16.0.3, SVG Export Plug-In . SVG Version: 6.00 Build 0)  -->
<!DOCTYPE svg PUBLIC "-//W3C//DTD SVG 1.1//EN" "http://www.w3.org/Graphics/SVG/1.1/DTD/svg11.dtd">
<svg version="1.1" id="Layer_1" xmlns="http://www.w3.org/2000/svg" xmlns:xlink="http://www.w3.org/1999/xlink" x="0px" y="0px"
	 width="50px" height="50px" viewBox="0 0 50 50" enable-background="new 0 0 50 50" xml:space="preserve">
<g enable-background="new    ">
	<path fill="#FF0030" d="M29.93,38.91c0.779-1.171,2.73-4.16,3.77-6.111c2.73-5.33,2.471-8.189,2.34-9.359
		c-3.77,0.39-8.58-1.431-8.58-6.631c0-4.03,2.99-7.02,6.891-7.02c4.16,0,8.191,3.38,8.191,9.75c0,3.25-1.432,6.63-2.211,8.189
		c-2.34,5.201-6.5,10.271-8.451,12.48h-1.17l-0.52-0.39L29.93,38.91z"/>
</g>
<g enable-background="new    ">
	<path fill="#FF0030" d="M9.929,38.912c0.78-1.171,2.73-4.16,3.771-6.111c2.73-5.33,2.47-8.189,2.34-9.359
		c-3.77,0.39-8.58-1.431-8.58-6.631c0-4.03,2.99-7.02,6.891-7.02c4.16,0,8.19,3.38,8.19,9.75c0,3.25-1.43,6.63-2.21,8.189
		c-2.34,5.201-6.5,10.271-8.45,12.48h-1.17l-0.52-0.39L9.929,38.912z"/>
</g>
</svg>
