<?xml version="1.0" encoding="utf-8"?>
<!-- Generator: Adobe Illustrator 20.1.0, SVG Export Plug-In . SVG Version: 6.00 Build 0)  -->
<svg version="1.1" id="Layer_1" xmlns="http://www.w3.org/2000/svg" xmlns:xlink="http://www.w3.org/1999/xlink" x="0px" y="0px"
	 viewBox="0 0 40 348" style="enable-background:new 0 0 40 348;" xml:space="preserve">
<style type="text/css">
	.st0{fill:#FFFFFF;}
	.st1{fill:none;}
</style>
<path class="st0" d="M21.6,22.4H18v-8.5h-1.8v-2.5H18l0-2.1c0-2.4,1-3.8,3.8-3.8h2.4v2.9h-1.5c-1.1,0-1.2,0.4-1.2,1.2l0,1.8h2.7
	l-0.3,2.5h-2.4L21.6,22.4C21.6,22.4,21.6,22.4,21.6,22.4z"/>
<path class="st0" d="M20.1,60.2H21c0,0,0.3,0,0.4-0.2c0.1-0.1,0.1-0.4,0.1-0.4s0-1.3,0.5-1.5c0.6-0.2,1.3,1.2,2,1.7
	c0.6,0.4,1,0.3,1,0.3l2,0c0,0,1-0.1,0.6-0.9c0-0.1-0.3-0.6-1.5-1.8c-1.3-1.2-1.1-1,0.4-3.1c0.9-1.3,1.3-2.1,1.2-2.4
	c-0.1-0.3-0.8-0.3-0.8-0.3l-2.3,0c0,0-0.2,0-0.3,0.1c-0.1,0.1-0.2,0.3-0.2,0.3s-0.4,1-0.8,1.8c-1,1.8-1.4,1.9-1.6,1.8
	c-0.4-0.3-0.3-1-0.3-1.6c0-1.7,0.3-2.4-0.5-2.6c-0.2-0.1-0.4-0.1-1.1-0.1c-0.8,0-1.5,0-1.9,0.2c-0.3,0.1-0.5,0.4-0.3,0.4
	c0.1,0,0.5,0.1,0.7,0.3c0.2,0.3,0.2,1.1,0.2,1.1s0.1,2-0.3,2.3c-0.3,0.2-0.7-0.2-1.6-1.8c-0.5-0.8-0.8-1.8-0.8-1.8s-0.1-0.2-0.2-0.3
	c-0.1-0.1-0.3-0.1-0.3-0.1h-2.1c0,0-0.3,0-0.4,0.2c-0.1,0.1,0,0.4,0,0.4s1.7,4.1,3.6,6.2C18.1,60.3,20.1,60.2,20.1,60.2z"/>
<g>
	<path class="st0" d="M19.7,96c2.2,0,4-1.7,4-3.8c0-2.1-1.8-3.8-4-3.8c-2.2,0-4,1.7-4,3.8C15.7,94.3,17.5,96,19.7,96z M19.7,90.6
		c0.9,0,1.7,0.7,1.7,1.6c0,0.9-0.7,1.6-1.7,1.6S18,93.1,18,92.2C18,91.3,18.8,90.6,19.7,90.6z M24,96.6c-0.3-0.5-1.1-0.7-1.6-0.3
		c-1.6,1-3.8,1-5.4,0c-0.6-0.3-1.3-0.2-1.6,0.3c-0.3,0.5-0.2,1.2,0.4,1.5c0.7,0.4,1.5,0.7,2.3,0.9l-2.3,2.1c-0.5,0.4-0.5,1.1,0,1.6
		c0.2,0.2,0.5,0.3,0.8,0.3c0.3,0,0.6-0.1,0.8-0.3l2.2-2.1l2.2,2.1c0.5,0.4,1.2,0.4,1.7,0c0.5-0.4,0.5-1.1,0-1.6l-2.3-2.1
		c0.8-0.2,1.6-0.5,2.3-0.9C24.2,97.8,24.4,97.2,24,96.6z"/>
</g>
<path class="st0" d="M27.2,137.7c-0.5,0.2-1.1,0.3-1.6,0.4c0.6-0.3,1-0.8,1.3-1.4c-0.6,0.3-1.2,0.5-1.8,0.6
	c-0.5-0.5-1.3-0.8-2.1-0.8c-1.6,0-2.9,1.1-2.9,2.5c0,0.2,0,0.4,0.1,0.6c-2.4-0.1-4.5-1.1-5.9-2.6c-0.2,0.4-0.4,0.8-0.4,1.3
	c0,0.9,0.5,1.6,1.3,2.1c-0.5,0-0.9-0.1-1.3-0.3c0,0,0,0,0,0c0,1.2,1,2.2,2.3,2.5c-0.2,0.1-0.5,0.1-0.8,0.1c-0.2,0-0.4,0-0.5,0
	c0.4,1,1.4,1.7,2.7,1.8c-1,0.7-2.2,1.1-3.6,1.1c-0.2,0-0.5,0-0.7,0c1.3,0.7,2.8,1.1,4.4,1.1c5.3,0,8.2-3.8,8.2-7.2
	c0-0.1,0-0.2,0-0.3C26.4,138.6,26.8,138.2,27.2,137.7z"/>
<path class="st0" d="M24.2,178.7h-7.9c-1.4,0-2.5,1.1-2.5,2.5v2.6v5.3c0,1.4,1.1,2.5,2.5,2.5h7.9c1.4,0,2.5-1.1,2.5-2.5v-5.3v-2.6
	C26.7,179.8,25.5,178.7,24.2,178.7z M24.9,180.2l0.3,0v0.3v1.9l-2.2,0l0-2.2L24.9,180.2z M18.4,183.8c0.4-0.6,1.1-0.9,1.8-0.9
	c0.8,0,1.4,0.4,1.8,0.9c0.3,0.4,0.4,0.8,0.4,1.3c0,1.2-1,2.3-2.3,2.3c-1.2,0-2.3-1-2.3-2.3C18,184.6,18.1,184.2,18.4,183.8z
	 M25.4,189c0,0.7-0.6,1.2-1.2,1.2h-7.9c-0.7,0-1.2-0.6-1.2-1.2v-5.3H17c-0.2,0.4-0.3,0.9-0.3,1.3c0,1.9,1.6,3.5,3.5,3.5
	c1.9,0,3.5-1.6,3.5-3.5c0-0.5-0.1-0.9-0.3-1.3h1.9L25.4,189L25.4,189z"/>
<path class="st1" d="M24.5,233.4c-0.7-0.4-1.1-0.3-1.6,0.3c-0.3,0.4-0.6,0.5-1.1,0.3c-0.4-0.2-0.8-0.4-1.1-0.6
	c-0.8-0.5-1.3-1.2-1.6-2.1c-0.2-0.5-0.1-0.9,0.4-1.2c0.1-0.1,0.2-0.2,0.4-0.3c0.2-0.2,0.3-0.5,0.2-0.8c-0.4-0.9-0.9-1.6-1.7-2.3
	c-0.1-0.1-0.4-0.2-0.5-0.2c-0.9,0-1.8,0.9-1.8,1.8c0.1,0.3,0.1,0.6,0.2,0.8c1.5,3.7,4.1,6.2,7.7,7.8c0.3,0.1,0.5,0.2,0.8,0.1
	c0.7-0.2,1.3-0.7,1.6-1.3c0.3-0.5,0.2-0.9-0.2-1.2C25.6,234.1,25,233.7,24.5,233.4z"/>
<path class="st0" d="M29.3,228c-0.2-1.1-0.7-2.1-1.6-2.8c-0.6-0.5-1.4-0.8-2.2-1.1c-1.9-0.5-3.8-0.7-5.7-0.5c-1,0.1-2,0.2-2.9,0.6
	c-2,0.7-3.3,1.9-3.7,4c-0.3,1.4-0.4,2.8-0.3,4.3c0,0.8,0.2,1.5,0.4,2.3c0.4,1.6,1.3,2.7,2.9,3.4c0.2,0.1,0.3,0.2,0.5,0.2
	c0.2,0.1,0,0.2,0,0.4c0,1-0.2,2.1-0.2,3.1c0,0.1,0,0.2,0,0.3c0-0.1,0.5-0.1,0.5-0.2c0.2-0.2,0.5-0.4,0.7-0.6c0.6-0.7,1.4-1.4,2-2.1
	c0.2-0.2,0.5-0.3,0.9-0.3c0.8,0,1.7,0,2.5-0.1c1-0.1,1.9-0.3,2.8-0.5c1.7-0.5,2.8-1.6,3.3-3.3c0.2-0.9,0.4-1.8,0.4-2.7
	C29.6,230.9,29.6,229.5,29.3,228z M22.2,227c1,0,1.9,0.4,2.5,1.1c0.7,0.7,1,1.8,1,2.8c0,0.2-0.2,0.6-0.4,0.6c0,0,0,0,0,0
	c-0.2,0-0.4-0.4-0.4-0.6c0-0.7-0.3-1.6-0.8-2.1c-0.5-0.5-1.2-0.9-2-0.9c-0.2,0-0.4-0.2-0.4-0.4S22,227,22.2,227z M22,228.6
	c1.2,0,2.2,1,2.2,2.1c0,0.2-0.2,0.4-0.4,0.4s-0.4-0.2-0.4-0.4c0-0.8-0.6-1.4-1.4-1.4c-0.2,0-0.4-0.2-0.4-0.4S21.8,228.6,22,228.6z
	 M26.1,235.8c-0.4,0.7-0.9,1.1-1.6,1.3c-0.3,0.1-0.6,0-0.8-0.1c-3.6-1.5-6.2-4.1-7.7-7.8c-0.1-0.3-0.1-0.5-0.2-0.8
	c0-0.9,0.9-1.8,1.8-1.8c0.2,0,0.4,0.1,0.5,0.2c0.7,0.6,1.3,1.4,1.7,2.3c0.1,0.3,0,0.5-0.2,0.8c-0.1,0.1-0.2,0.2-0.4,0.3
	c-0.4,0.3-0.6,0.7-0.4,1.2c0.3,0.9,0.9,1.6,1.6,2.1c0.3,0.2,0.7,0.4,1.1,0.6c0.5,0.2,0.8,0.1,1.1-0.3c0.5-0.6,1-0.8,1.6-0.3
	c0.6,0.4,1.1,0.8,1.6,1.2C26.3,234.9,26.3,235.3,26.1,235.8z M26.9,231.5C26.9,231.5,26.9,231.5,26.9,231.5c-0.2,0-0.4-0.5-0.4-0.7
	c0.1-2.3-1.8-4.4-4.1-4.5c-0.2,0-0.4-0.3-0.4-0.5s0.2-0.4,0.4-0.4c2.8,0.1,5,2.7,4.8,5.4C27.3,231,27.1,231.5,26.9,231.5z"/>
<g>
	<path class="st0" d="M27.7,285.4c-0.5-0.4-1-0.7-1.5-1.1c-1-0.7-1.9-0.8-2.7,0.4c-0.4,0.6-1,0.7-1.6,0.4c-1.7-0.8-3-1.9-3.8-3.7
		c-0.3-0.8-0.3-1.4,0.5-2c0.4-0.3,0.8-0.6,0.8-1.2c0-0.8-2-3.5-2.8-3.8c-0.3-0.1-0.6-0.1-1,0c-1.8,0.6-2.6,2.1-1.9,3.9
		c2.2,5.3,5.9,9,11.2,11.2c0.3,0.1,0.6,0.2,0.8,0.2c1.2,0,2.6-1.1,3-2.3C29.2,286.3,28.4,285.9,27.7,285.4L27.7,285.4z M21.9,274.9
		c3.8,0.6,5.6,2.4,6.1,6.2c0,0.4-0.1,0.9,0.4,0.9c0.5,0,0.4-0.5,0.4-0.9c0-3.6-3.1-7-6.8-7.1c-0.3,0-0.8-0.2-0.9,0.4
		C21.1,274.9,21.5,274.9,21.9,274.9L21.9,274.9z"/>
	<path class="st0" d="M22.6,276c-0.4,0-0.9-0.2-0.9,0.3c-0.1,0.5,0.5,0.5,0.8,0.6c2.4,0.5,3.2,1.4,3.6,3.7c0.1,0.3-0.1,0.9,0.5,0.8
		c0.4-0.1,0.3-0.5,0.3-0.8C26.9,278.3,25,276.2,22.6,276L22.6,276z"/>
	<path class="st0" d="M22.8,277.8c-0.2,0-0.5,0-0.6,0.3c-0.1,0.4,0.1,0.5,0.4,0.5c1,0.2,1.5,0.7,1.6,1.7c0,0.3,0.2,0.5,0.4,0.4
		c0.4,0,0.4-0.4,0.4-0.6C25.1,279,23.9,277.8,22.8,277.8L22.8,277.8z"/>
</g>
<g>
	<path id="rect2989-7" class="st0" d="M15.2,326c0.2,0.6,0.4,1.1,0.6,1.7c0.3,0.8,0.5,1.5,0.5,1.9v2.4h0.9v-2.4l1.1-3.5h-0.9
		l-0.6,2.3l-0.6-2.3H15.2z M19.5,327.4c-0.4,0-0.7,0.2-0.9,0.5c-0.2,0.2-0.3,0.6-0.3,1v1.6c0,0.5,0.1,0.8,0.3,1
		c0.2,0.3,0.5,0.5,0.9,0.5c0.4,0,0.7-0.2,0.9-0.5c0.2-0.2,0.2-0.6,0.2-1v-1.6c0-0.5-0.1-0.8-0.2-1C20.2,327.6,19.9,327.4,19.5,327.4
		L19.5,327.4z M21.3,327.5v3.5c0,0.3,0,0.5,0.1,0.7c0.1,0.2,0.3,0.3,0.5,0.3c0.3,0,0.6-0.2,0.9-0.5v0.5h0.8v-4.4h-0.8v3.4
		c-0.2,0.3-0.3,0.4-0.5,0.4c-0.1,0-0.2-0.1-0.2-0.2c0,0,0-0.1,0-0.3v-3.3H21.3L21.3,327.5z M19.5,328.2c0.3,0,0.4,0.2,0.4,0.6v1.9
		c0,0.4-0.1,0.6-0.4,0.6c-0.3,0-0.4-0.2-0.4-0.6v-1.9C19.1,328.4,19.2,328.2,19.5,328.2z M19.2,332.6c-1.5,0-3.1,0-4.6,0.2
		c-0.7,0.1-1.3,0.6-1.4,1.3c-0.2,1-0.2,2.1-0.2,3.1v0.1c0,1,0,2.1,0.2,3c0.2,0.7,0.7,1.2,1.4,1.3c1.5,0.2,3.1,0.2,4.6,0.2h0.3h0.3
		c1.5,0,3.1,0,4.6-0.2c0.7-0.1,1.3-0.6,1.4-1.3c0.2-1,0.2-2.1,0.2-3.1v0c0-1,0-2.1-0.2-3.1c-0.2-0.7-0.7-1.2-1.4-1.3
		c-1.5-0.2-3.1-0.2-4.6-0.2h-0.3H19.2L19.2,332.6z M13.9,334.3h2.8v0.8h-1v5.1h-0.9v-5.1h-0.9V334.3z M19.7,334.3h0.8v1.9
		c0.3-0.3,0.5-0.5,0.8-0.5c0.3,0,0.5,0.2,0.6,0.5c0.1,0.2,0.1,0.5,0.1,0.9v1.7c0,0.4,0,0.7-0.1,0.9c-0.1,0.3-0.3,0.5-0.6,0.5
		c-0.3,0-0.6-0.2-0.8-0.5v0.4h-0.8L19.7,334.3L19.7,334.3z M23.9,335.7c0.4,0,0.7,0.1,0.9,0.4c0.2,0.2,0.2,0.6,0.2,1v0.9h-1.6v0.8
		c0,0.4,0.1,0.6,0.4,0.6c0.2,0,0.3-0.1,0.4-0.3c0,0,0-0.2,0-0.5H25v0.1c0,0.3,0,0.4,0,0.5c0,0.2-0.1,0.3-0.2,0.5
		c-0.2,0.3-0.5,0.5-1,0.5c-0.4,0-0.7-0.1-1-0.4c-0.2-0.2-0.3-0.6-0.3-1v-1.5c0-0.5,0.1-0.8,0.2-1C23.1,335.9,23.5,335.7,23.9,335.7
		L23.9,335.7z M16.8,335.8h0.8v3.2c0,0.2,0,0.3,0,0.3c0,0.1,0.1,0.2,0.2,0.2c0.2,0,0.3-0.1,0.5-0.4v-3.4H19v4.4h-0.8v-0.5
		c-0.3,0.4-0.6,0.5-0.9,0.5c-0.3,0-0.4-0.1-0.5-0.3c0-0.1-0.1-0.3-0.1-0.7L16.8,335.8L16.8,335.8z M20.9,336.4
		c-0.1,0-0.3,0.1-0.4,0.2v2.7c0.1,0.1,0.3,0.2,0.4,0.2c0.2,0,0.3-0.2,0.3-0.6V337C21.3,336.6,21.1,336.4,20.9,336.4L20.9,336.4z
		 M23.9,336.4c-0.3,0-0.4,0.2-0.4,0.6v0.4h0.8v-0.4C24.3,336.6,24.1,336.4,23.9,336.4z"/>
</g>
</svg>
