<?xml version="1.0" encoding="utf-8"?>
<!-- Generator: Adobe Illustrator 16.0.3, SVG Export Plug-In . SVG Version: 6.00 Build 0)  -->
<!DOCTYPE svg PUBLIC "-//W3C//DTD SVG 1.1//EN" "http://www.w3.org/Graphics/SVG/1.1/DTD/svg11.dtd">
<svg version="1.1" id="Layer_1" xmlns="http://www.w3.org/2000/svg" xmlns:xlink="http://www.w3.org/1999/xlink" x="0px" y="0px"
	 width="50px" height="50px" viewBox="0 0 50 50" enable-background="new 0 0 50 50" xml:space="preserve">
<g enable-background="new    ">
	<path fill="#FF0030" d="M19.825,10.422c-0.78,1.17-2.73,4.16-3.771,6.11c-2.73,5.33-2.47,8.19-2.34,9.36
		c3.77-0.39,8.58,1.431,8.58,6.631c0,4.03-2.99,7.02-6.891,7.02c-4.16,0-8.19-3.379-8.19-9.75c0-3.25,1.43-6.63,2.21-8.19
		c2.34-5.2,6.5-10.271,8.45-12.48h1.17l0.52,0.39L19.825,10.422z"/>
</g>
<g enable-background="new    ">
	<path fill="#FF0030" d="M39.825,10.422c-0.78,1.17-2.73,4.16-3.771,6.11c-2.73,5.33-2.47,8.19-2.34,9.36
		c3.77-0.39,8.58,1.431,8.58,6.631c0,4.03-2.99,7.02-6.891,7.02c-4.16,0-8.189-3.379-8.189-9.75c0-3.25,1.43-6.63,2.21-8.19
		c2.34-5.2,6.5-10.271,8.45-12.48h1.17l0.52,0.39L39.825,10.422z"/>
</g>
</svg>
