<?xml version="1.0" encoding="utf-8"?>
<!-- Generator: Adobe Illustrator 16.0.0, SVG Export Plug-In . SVG Version: 6.00 Build 0)  -->
<!DOCTYPE svg PUBLIC "-//W3C//DTD SVG 1.1 Basic//EN" "http://www.w3.org/Graphics/SVG/1.1/DTD/svg11-basic.dtd">
<svg version="1.1" baseProfile="basic" id="Layer_1"
	 xmlns="http://www.w3.org/2000/svg" xmlns:xlink="http://www.w3.org/1999/xlink" x="0px" y="0px" width="50px" height="25px"
	 viewBox="0 0 50 25" xml:space="preserve">
<g>
	<path fill="none" stroke="#CC0033" stroke-miterlimit="10" d="M30.127,9.176c0.596,0.594,1.301,0.886,2.146,0.899
		c0.844-0.014,1.564-0.306,2.16-0.899c0.594-0.595,0.887-1.315,0.9-2.161c-0.014-0.844-0.307-1.564-0.9-2.159
		c-0.596-0.596-1.316-0.887-2.16-0.887c-0.846,0-1.551,0.291-2.146,0.887c-0.594,0.595-0.885,1.315-0.885,2.159
		C29.242,7.861,29.533,8.581,30.127,9.176L30.127,9.176z"/>
	<path fill="none" stroke="#CC0033" stroke-miterlimit="10" d="M41.609,7.001c-5.691-7.006-11.686-7.032-18-0.068
		C29.924,13.98,35.918,14.008,41.609,7.001L41.609,7.001z"/>
</g>
<g>
	
		<path fill="none" stroke="#FAAD18" stroke-width="1.4994" stroke-linecap="round" stroke-linejoin="round" stroke-miterlimit="10" d="
		M14.615,13.582l2.584,2.862v-4.512h0.816c0.949,0,1.43-0.481,1.43-1.431c0-2.438,0-4.891,0-7.343c0-0.949-0.48-1.431-1.43-1.431
		c-3.43,0-6.861,0-10.291,0c-0.963,0-1.446,0.481-1.432,1.431v1.519"/>
	
		<path fill="none" stroke="#FAAD18" stroke-width="1.4994" stroke-linecap="round" stroke-linejoin="round" stroke-miterlimit="10" d="
		M6.293,4.676c-1.138,0-2.276,0-3.401,0c-0.963,0-1.445,0.482-1.445,1.445v7.329c0,0.948,0.481,1.431,1.445,1.431h0.817v4.497
		l4.073-4.497h5.401c0.102,0,0.207,0,0.307-0.014c0.715-0.088,1.08-0.513,1.125-1.285"/>
	
		<path fill="none" stroke="#FAAD18" stroke-width="1.4994" stroke-linecap="round" stroke-linejoin="round" stroke-miterlimit="10" d="
		M14.615,13.582l-1.49-1.649h-5.4c-0.103,0-0.19,0-0.278-0.015c-0.773-0.088-1.168-0.555-1.154-1.416V4.676"/>
</g>
</svg>
