<svg xmlns="http://www.w3.org/2000/svg" width="107.611mm" height="107.599mm" viewBox="0 0 381.29841 381.25589"><path d="M289.326 321.069l-60.182-60.187v-15.27l-4.86-4.799-4.86-4.799-6.104 4.444c-24.371 17.741-50.213 26.216-79.94 26.216-29.923 0-57.002-9.008-80.806-26.881-42.918-32.224-61.875-87.676-48.185-140.947 11.76-45.763 48.722-82.724 94.485-94.485 22.621-5.813 46.393-5.813 69.014 0 45.763 11.76 82.724 48.722 94.485 94.485 10.354 40.292 2.059 82.669-22.551 115.197l-4.294 5.676 4.609 4.699 4.609 4.699h16.176l60.189 60.194 60.189 60.194-15.895 15.877-15.895 15.877-60.182-60.187zm-138.533-93.88c41.546-7.047 73.373-41.783 77.42-84.496 5.046-53.261-32.625-99.165-85.491-104.174-53.261-5.046-99.165 32.625-104.174 85.491-6.05 63.852 48.496 113.992 112.246 103.179z" fill="#fff"/></svg>