<svg xmlns="http://www.w3.org/2000/svg" viewBox="0 0 270 74" enable-background="new 0 0 270 74"><style type="text/css">.st0{fill:url(#SVGID_1_);} .st1{fill:url(#SVGID_2_);} .st2{fill:url(#SVGID_3_);} .st3{fill:url(#SVGID_4_);} .st4{fill:url(#SVGID_5_);} .st5{fill:url(#SVGID_6_);} .st6{fill:url(#SVGID_7_);} .st7{fill:url(#SVGID_8_);} .st8{fill:url(#SVGID_9_);} .st9{fill:url(#SVGID_10_);} .st10{fill:url(#SVGID_11_);} .st11{fill:url(#SVGID_12_);} .st12{fill:url(#SVGID_13_);} .st13{fill:url(#SVGID_14_);} .st14{fill:url(#SVGID_15_);} .st15{fill:url(#SVGID_16_);} .st16{fill:url(#SVGID_17_);} .st17{fill:#BB2727;}</style><linearGradient id="SVGID_1_" gradientUnits="userSpaceOnUse" x1="76.463" y1="42.889" x2="76.463" y2="9.154"><stop offset="0" stop-color="#506670"/><stop offset=".109" stop-color="#465B64"/><stop offset=".356" stop-color="#34464D"/><stop offset=".511" stop-color="#2D3E44"/><stop offset=".652" stop-color="#314349"/><stop offset=".823" stop-color="#3B5058"/><stop offset="1" stop-color="#4B646F"/></linearGradient><path class="st0" d="M70.1 42.9h-14.5l.3-1.8c.5-.3 1.2-.5 1.9-.8.7-.3 1.5-.5 2.4-.6l5.8-27.3c-.6-.1-1.3-.3-1.9-.5-.6-.2-1.2-.5-1.8-.9l.4-1.8h34.6l-.4 1.8c-.6.4-1.3.7-2.1.9-.7.2-1.5.4-2.2.5l-5.8 27.3c1.2.1 2.4.6 3.6 1.4l-.3 1.8h-14.4l.3-1.8c.4-.3.9-.5 1.4-.8.6-.3 1.3-.5 2.2-.6l5.8-27.4h-12.2l-5.8 27.4c1.1.3 2.1.8 2.9 1.4l-.2 1.8z"/><linearGradient id="SVGID_2_" gradientUnits="userSpaceOnUse" x1="108.22" y1="42.889" x2="108.22" y2="9.154"><stop offset="0" stop-color="#506670"/><stop offset=".109" stop-color="#465B64"/><stop offset=".356" stop-color="#34464D"/><stop offset=".511" stop-color="#2D3E44"/><stop offset=".652" stop-color="#314349"/><stop offset=".823" stop-color="#3B5058"/><stop offset="1" stop-color="#4B646F"/></linearGradient><path class="st1" d="M124.5 9.2c-.3 1.4-.7 2.9-1.2 4.5-.5 1.5-1 3-1.6 4.3h-2l-1-5.7h-9l-2.5 11.8h5.9l2.9-3.7h1.5c-.2 1.6-.4 3.3-.8 5.3-.4 1.9-.9 3.7-1.4 5.4h-1.5l-1.3-3.8h-5.9l-2.6 12.5h9.3l3.9-6.1h2c0 .6 0 1.3-.1 2l-.2 2.4-.3 2.5c-.1.8-.3 1.6-.4 2.3h-26.2l.3-1.8c.6-.3 1.3-.6 2.1-.8.7-.3 1.5-.4 2.2-.6l5.8-27.3c-.6-.1-1.3-.3-1.9-.6-.6-.2-1.2-.5-1.7-.8l.4-1.8h25.3z"/><linearGradient id="SVGID_3_" gradientUnits="userSpaceOnUse" x1="137.906" y1="42.889" x2="137.906" y2="8.769"><stop offset="0" stop-color="#506670"/><stop offset=".109" stop-color="#465B64"/><stop offset=".356" stop-color="#34464D"/><stop offset=".511" stop-color="#2D3E44"/><stop offset=".652" stop-color="#314349"/><stop offset=".823" stop-color="#3B5058"/><stop offset="1" stop-color="#4B646F"/></linearGradient><path class="st2" d="M132.8 39.7c.8.1 1.6.3 2.4.6.8.2 1.5.5 2.1.8l-.3 1.8h-16l.3-1.8c1.4-.7 2.8-1.1 4.3-1.4l5.8-27.3c-.7-.1-1.4-.3-2-.6-.6-.2-1.2-.5-1.7-.8l.4-1.8h6.1c1.3 0 2.8-.1 4.5-.2 1.7-.1 3.2-.2 4.6-.2 1.7 0 3.2.1 4.7.4 1.4.3 2.7.7 3.7 1.4 1 .6 1.8 1.5 2.4 2.5.6 1 .9 2.3.9 3.8 0 1.9-.4 3.7-1.1 5.3-.7 1.6-1.7 3-3.1 4.2-1.3 1.2-3 2.1-5 2.8-2 .7-4.2 1-6.7 1h-3.3c-.4 0-.7 0-.9-.1l-2.1 9.6zm8.7-27.8c-.6 0-1.2 0-1.6.1l-1.2.2-3.1 14.6c.3.1.7.1 1.3.1h1.4c1.4 0 2.6-.2 3.7-.7 1.1-.5 2-1.2 2.7-2.1.7-.9 1.3-2 1.7-3.2.4-1.2.6-2.6.6-4.1 0-.7-.1-1.4-.3-2-.2-.6-.5-1.1-.9-1.6-.4-.4-.9-.8-1.6-1-.8-.2-1.7-.3-2.7-.3z"/><linearGradient id="SVGID_4_" gradientUnits="userSpaceOnUse" x1="167.857" y1="43.227" x2="167.857" y2="8.914"><stop offset="0" stop-color="#506670"/><stop offset=".109" stop-color="#465B64"/><stop offset=".356" stop-color="#34464D"/><stop offset=".511" stop-color="#2D3E44"/><stop offset=".652" stop-color="#314349"/><stop offset=".823" stop-color="#3B5058"/><stop offset="1" stop-color="#4B646F"/></linearGradient><path class="st3" d="M151.5 42.9l.3-1.8c.7-.4 1.4-.7 2.2-.9.7-.3 1.4-.4 2.1-.5l5.8-27.3c-.6-.1-1.3-.3-1.9-.6-.6-.2-1.2-.5-1.7-.8l.4-1.8h7.7c1.2 0 2.4-.1 3.5-.1 1.1-.1 2.4-.1 3.8-.1 1.5 0 3 .1 4.2.4 1.3.2 2.4.6 3.3 1.1.9.5 1.6 1.2 2.1 2s.8 1.8.8 3c0 1.3-.2 2.6-.7 3.6-.5 1.1-1.1 2-1.9 2.8-.8.8-1.8 1.5-2.9 2-1.1.5-2.3.9-3.7 1.2v.2c.9.1 1.7.2 2.6.5.9.3 1.6.6 2.3 1.2.7.5 1.3 1.2 1.7 2 .4.8.7 1.7.7 2.8 0 1.7-.3 3.3-1 4.7-.7 1.4-1.7 2.7-3.1 3.7-1.3 1-3 1.9-5.1 2.4-2 .6-4.4.9-7 .9h-2.2l-2.4-.1c-.8 0-1.6-.1-2.3-.1-.7 0-1.4-.1-1.9-.1h-5.7zm15.1-2.8c1.2 0 2.3-.2 3.3-.6 1-.4 1.9-1 2.6-1.8.7-.8 1.3-1.6 1.7-2.7.4-1 .6-2.1.6-3.3 0-1.8-.6-2.9-1.7-3.5-1.2-.6-2.8-.9-4.8-.9h-2.6l-2.7 12.5c.4.1.9.2 1.4.2.5.1 1.2.1 2.2.1zm1.2-15.9c.5 0 1.1 0 1.7-.1.6 0 1.1-.1 1.6-.2 1.9-.7 3.4-1.8 4.4-3.2 1-1.4 1.5-3 1.5-4.8 0-1.3-.4-2.2-1.1-2.9-.7-.7-2-1-3.7-1h-1.8l-1.5.1-2.6 12h1.5z"/><linearGradient id="SVGID_5_" gradientUnits="userSpaceOnUse" x1="207.59" y1="43.034" x2="207.59" y2="9.154"><stop offset="0" stop-color="#506670"/><stop offset=".109" stop-color="#465B64"/><stop offset=".356" stop-color="#34464D"/><stop offset=".511" stop-color="#2D3E44"/><stop offset=".652" stop-color="#314349"/><stop offset=".823" stop-color="#3B5058"/><stop offset="1" stop-color="#4B646F"/></linearGradient><path class="st4" d="M182.6 42.9l.3-1.8c.6-.3 1.3-.6 2.1-.9.8-.3 1.5-.4 2.2-.5l5.8-27.3c-.6-.1-1.3-.3-1.9-.5-.6-.2-1.2-.5-1.7-.9l.4-1.8h15.4l-.4 1.8c-.6.3-1.3.6-2.1.9-.8.3-1.6.4-2.5.5l-2.2 10.3c.6-.1 1.4-.2 2.3-.3.9-.1 1.7-.1 2.3-.1 1.9 0 3.5.2 4.8.7 1.3.4 2.3 1 3.1 1.7.8.7 1.3 1.5 1.7 2.5.3.9.5 1.9.5 2.8 0 2.2-.4 4-1.1 5.7-.8 1.6-1.8 3-3.2 4-1.4 1.1-3.1 1.9-5 2.4-2 .5-4.2.8-6.6.8h-1c-.5 0-1.1 0-1.8-.1h-11.4zm17.6-17.4c-1.2 0-2.1.1-2.8.3l-2.9 13.9c.3.1.7.1 1.2.1h1.3c1.3 0 2.4-.3 3.3-.8 1-.5 1.8-1.3 2.4-2.2.7-.9 1.2-2 1.5-3.2.3-1.2.5-2.5.5-3.9 0-.6-.1-1.2-.2-1.7s-.4-1-.7-1.4c-.3-.4-.8-.7-1.4-.9-.5-.1-1.3-.2-2.2-.2zm25.3 17.4h-14.6l.4-1.8c.5-.3 1.1-.6 1.8-.8l2-.6 5.8-27.3c-.6-.1-1.2-.3-1.8-.5-.6-.2-1.2-.5-1.7-.9l.4-1.8h14.8l-.4 1.8c-1.2.7-2.5 1.1-4.1 1.4l-5.8 27.3c.8.1 1.4.3 2 .6.6.3 1.1.5 1.5.8l-.3 1.8z"/><linearGradient id="SVGID_6_" gradientUnits="userSpaceOnUse" x1="248.626" y1="42.889" x2="248.626"><stop offset="0" stop-color="#506670"/><stop offset=".109" stop-color="#465B64"/><stop offset=".356" stop-color="#34464D"/><stop offset=".511" stop-color="#2D3E44"/><stop offset=".652" stop-color="#314349"/><stop offset=".823" stop-color="#3B5058"/><stop offset="1" stop-color="#4B646F"/></linearGradient><path class="st5" d="M241.9 42.9h-14.6l.3-1.8 2.1-.9c.7-.3 1.4-.4 2.1-.5l5.8-27.3c-.6-.1-1.3-.3-1.9-.5-.6-.2-1.2-.5-1.7-.9l.4-1.8h14.6l-.4 1.8c-.5.3-1.1.6-1.8.8-.6.2-1.3.4-2.1.6l-3.9 18.3-1.3 3.8 3-4 15.7-16.9.2-1.2c-.7-.2-1.4-.4-1.9-.6-.6-.2-1.1-.5-1.6-.8l.4-1.8h14.7l-.4 1.8c-.6.4-1.3.6-2 .9-.7.2-1.5.4-2.2.5l-5.8 27.3c.7.1 1.4.3 2 .6.6.2 1.2.5 1.7.8l-.4 1.8h-14.6l.3-1.8c.5-.2 1.1-.5 1.8-.7.7-.3 1.4-.5 2.1-.7l3.9-18.3 1.3-3.8-2.8 3.9-16 17.2-.2 1.1c.7.2 1.4.4 2 .6.6.3 1.1.5 1.6.8l-.4 1.7zm10.1-35.7c-1.3 0-2.5-.2-3.5-.5s-1.8-.8-2.5-1.3c-.6-.5-1.1-1.1-1.4-1.7-.3-.6-.5-1.2-.5-1.9.3-.3.6-.5 1.1-.7.5-.2.9-.4 1.5-.6.5-.2 1.1-.3 1.6-.4.5-.1 1-.1 1.5-.1l1.6.6v2.9c.3.2.6.3.9.4.3.1.7.2 1.2.2.7 0 1.4-.1 2.1-.2.7-.1 1.4-.4 2-.7.6-.3 1.2-.7 1.7-1.2s.9-1 1.1-1.6c.4 0 .8.1 1.2.3.4.2.7.4.9.7-.3.6-.7 1.3-1.2 2s-1.2 1.3-2.1 1.9c-.9.6-1.9 1-3.1 1.4-1.1.3-2.5.5-4.1.5z"/><linearGradient id="SVGID_7_" gradientUnits="userSpaceOnUse" x1="57.606" y1="72.963" x2="57.606" y2="54.111"><stop offset="0" stop-color="#506670"/><stop offset=".109" stop-color="#465B64"/><stop offset=".356" stop-color="#34464D"/><stop offset=".511" stop-color="#2D3E44"/><stop offset=".652" stop-color="#314349"/><stop offset=".823" stop-color="#3B5058"/><stop offset="1" stop-color="#4B646F"/></linearGradient><path class="st6" d="M55.3 73c-1.2 0-2.2-.1-3.2-.4-.9-.3-1.7-.6-2.2-.9.1-.3.2-.6.3-1l.4-1.2.5-1.2c.2-.4.4-.8.6-1.1h1.1l.3 3.6c.2.1.5.2.9.3.4.1.8.1 1.2.1 1.5 0 2.6-.4 3.5-1.3.8-.9 1.3-2 1.3-3.4 0-1.6-.9-2.4-2.8-2.4l-2.2.5c0-.3 0-.7.1-1.1.1-.4.2-.8.4-1.1h1.8c.4 0 .7 0 1-.1.8-.4 1.5-.9 2.1-1.7.5-.8.8-1.6.8-2.5 0-.8-.2-1.4-.6-1.8-.4-.4-1-.6-2-.6-.8 0-1.4.2-1.9.5l-2 3.3h-1.1v-2c0-.7.1-1.5.3-2.3.4-.2.9-.4 1.3-.5.5-.1.9-.3 1.4-.3l1.4-.2c.5 0 .9-.1 1.2-.1.8 0 1.6.1 2.3.2.7.1 1.3.4 1.9.7.5.3.9.7 1.2 1.2.3.5.4 1.1.4 1.8 0 .5-.1.9-.2 1.4-.1.5-.4 1-.7 1.4s-.8.9-1.4 1.3c-.6.4-1.3.7-2.2.9.4 0 .8.1 1.2.3.4.2.7.4 1.1.7.3.3.6.6.8 1.1.2.4.3.9.3 1.5 0 1-.2 1.9-.6 2.7-.4.8-1 1.5-1.8 2-.8.6-1.7 1-2.8 1.3-.9.2-2.1.4-3.4.4z"/><linearGradient id="SVGID_8_" gradientUnits="userSpaceOnUse" x1="73.467" y1="72.652" x2="73.467" y2="54.111"><stop offset="0" stop-color="#506670"/><stop offset=".109" stop-color="#465B64"/><stop offset=".356" stop-color="#34464D"/><stop offset=".511" stop-color="#2D3E44"/><stop offset=".652" stop-color="#314349"/><stop offset=".823" stop-color="#3B5058"/><stop offset="1" stop-color="#4B646F"/></linearGradient><path class="st7" d="M70.4 72.7h-6.5l.2-1c.3-.2.6-.3 1-.5l1-.3 10.3-16.8h1.9l2.9 16.8 1 .3c.3.1.6.3.8.4l-.2 1h-8l.2-1 1.2-.5 1.2-.3-.6-4.1h-5.8l-2.5 4.1c.4.1.7.1 1.1.3.4.1.7.3 1 .5l-.2 1.1zm1.4-7.6h4.7l-.7-5v-2.2h-.1l-1 2.3-2.9 4.9z"/><linearGradient id="SVGID_9_" gradientUnits="userSpaceOnUse" x1="94.533" y1="72.652" x2="94.533" y2="54.422"><stop offset="0" stop-color="#506670"/><stop offset=".109" stop-color="#465B64"/><stop offset=".356" stop-color="#34464D"/><stop offset=".511" stop-color="#2D3E44"/><stop offset=".652" stop-color="#314349"/><stop offset=".823" stop-color="#3B5058"/><stop offset="1" stop-color="#4B646F"/></linearGradient><path class="st8" d="M91.1 72.7h-7.8l.2-1c.3-.1.6-.3 1-.4.4-.1.8-.3 1.3-.3l3.1-14.7-1-.3c-.3-.1-.7-.3-1-.5l.2-1h18.7l-.2 1c-.3.2-.7.4-1.1.5l-1.2.3-3.1 14.7c.6.1 1.3.3 2 .8l-.2 1h-7.8l.2-1c.2-.1.5-.3.8-.4.3-.1.7-.3 1.2-.3l3.1-14.8h-6.6l-3.1 14.8c.6.2 1.1.4 1.6.8l-.3.8z"/><linearGradient id="SVGID_10_" gradientUnits="userSpaceOnUse" x1="114.155" y1="72.963" x2="114.155" y2="54.111"><stop offset="0" stop-color="#506670"/><stop offset=".109" stop-color="#465B64"/><stop offset=".356" stop-color="#34464D"/><stop offset=".511" stop-color="#2D3E44"/><stop offset=".652" stop-color="#314349"/><stop offset=".823" stop-color="#3B5058"/><stop offset="1" stop-color="#4B646F"/></linearGradient><path class="st9" d="M105.1 65.6c0-1.6.2-3.1.7-4.5.5-1.4 1.2-2.6 2.1-3.6.9-1 2.1-1.8 3.4-2.4 1.3-.6 2.9-.9 4.6-.9 1.2 0 2.2.2 3.1.5.9.3 1.7.8 2.3 1.5.6.6 1.1 1.4 1.4 2.3.3.9.5 1.9.5 3 0 1.4-.2 2.8-.7 4.2-.4 1.4-1.1 2.6-2 3.7s-2 2-3.3 2.6c-1.3.7-2.9 1-4.7 1-1.2 0-2.3-.2-3.2-.6-.9-.4-1.7-.9-2.4-1.5-.6-.7-1.1-1.4-1.5-2.3-.2-1-.3-2-.3-3zm4.4.5c0 1.7.3 3 1 3.9.7.9 1.5 1.3 2.6 1.3 1 0 1.8-.3 2.6-1 .7-.6 1.3-1.5 1.8-2.5s.8-2.1 1-3.4c.2-1.2.3-2.5.3-3.7 0-1.5-.3-2.8-.8-3.7-.5-.9-1.4-1.4-2.6-1.4-.7 0-1.3.2-1.8.5s-1 .7-1.5 1.2c-.4.5-.8 1.1-1.1 1.8-.3.7-.6 1.4-.8 2.2-.2.8-.4 1.5-.5 2.3-.1 1-.2 1.8-.2 2.5z"/><linearGradient id="SVGID_11_" gradientUnits="userSpaceOnUse" x1="131.615" y1="72.652" x2="131.615" y2="54.215"><stop offset="0" stop-color="#506670"/><stop offset=".109" stop-color="#465B64"/><stop offset=".356" stop-color="#34464D"/><stop offset=".511" stop-color="#2D3E44"/><stop offset=".652" stop-color="#314349"/><stop offset=".823" stop-color="#3B5058"/><stop offset="1" stop-color="#4B646F"/></linearGradient><path class="st10" d="M128.9 70.9c.5.1.9.2 1.3.3.4.1.8.3 1.1.5l-.2 1h-8.7l.2-1c.8-.4 1.5-.6 2.3-.8l3.1-14.7-1.1-.3c-.3-.1-.6-.3-.9-.5l.2-1h3.3c.7 0 1.5 0 2.4-.1.9-.1 1.7-.1 2.5-.1.9 0 1.7.1 2.5.2.8.2 1.4.4 2 .7s1 .8 1.3 1.3c.3.6.5 1.2.5 2 0 1-.2 2-.6 2.9-.4.9-.9 1.6-1.7 2.3-.7.6-1.6 1.2-2.7 1.5-1.1.4-2.3.6-3.6.6h-2.3l-.9 5.2zm4.6-15c-.3 0-.6 0-.9.1l-.6.1-1.7 7.9c.2 0 .4.1.7.1h.8c.7 0 1.4-.1 2-.4.6-.3 1.1-.7 1.4-1.1.4-.5.7-1.1.9-1.7.2-.7.3-1.4.3-2.2 0-.4 0-.8-.1-1.1-.1-.3-.3-.6-.5-.8-.2-.2-.5-.4-.9-.5-.3-.3-.8-.4-1.4-.4z"/><linearGradient id="SVGID_12_" gradientUnits="userSpaceOnUse" x1="150.221" y1="72.963" x2="150.221" y2="54.111"><stop offset="0" stop-color="#506670"/><stop offset=".109" stop-color="#465B64"/><stop offset=".356" stop-color="#34464D"/><stop offset=".511" stop-color="#2D3E44"/><stop offset=".652" stop-color="#314349"/><stop offset=".823" stop-color="#3B5058"/><stop offset="1" stop-color="#4B646F"/></linearGradient><path class="st11" d="M141.1 65.6c0-1.6.2-3.1.7-4.5.5-1.4 1.2-2.6 2.1-3.6.9-1 2.1-1.8 3.4-2.4s2.9-.9 4.6-.9c1.2 0 2.2.2 3.1.5.9.3 1.7.8 2.3 1.5.6.6 1.1 1.4 1.4 2.3.3.9.5 1.9.5 3 0 1.4-.2 2.8-.7 4.2-.4 1.4-1.1 2.6-2 3.7-.9 1.1-2 2-3.3 2.6-1.3.7-2.9 1-4.7 1-1.2 0-2.3-.2-3.2-.6-.9-.4-1.7-.9-2.4-1.5-.6-.7-1.1-1.4-1.5-2.3-.1-1-.3-2-.3-3zm4.5.5c0 1.7.3 3 1 3.9.7.9 1.5 1.3 2.6 1.3 1 0 1.8-.3 2.6-1 .7-.6 1.3-1.5 1.8-2.5s.8-2.1 1-3.4c.2-1.2.3-2.5.3-3.7 0-1.5-.3-2.8-.8-3.7-.5-.9-1.4-1.4-2.6-1.4-.7 0-1.3.2-1.8.5s-1 .7-1.5 1.2c-.4.5-.8 1.1-1.1 1.8-.3.7-.6 1.4-.8 2.2-.2.8-.4 1.5-.5 2.3-.2 1-.2 1.8-.2 2.5z"/><linearGradient id="SVGID_13_" gradientUnits="userSpaceOnUse" x1="171.862" y1="72.652" x2="171.862" y2="54.422"><stop offset="0" stop-color="#506670"/><stop offset=".109" stop-color="#465B64"/><stop offset=".356" stop-color="#34464D"/><stop offset=".511" stop-color="#2D3E44"/><stop offset=".652" stop-color="#314349"/><stop offset=".823" stop-color="#3B5058"/><stop offset="1" stop-color="#4B646F"/></linearGradient><path class="st12" d="M172 56.2c-.3-.1-.6-.2-.9-.4-.3-.1-.5-.3-.6-.4l.2-1h6.7l-.2 1c-.4.3-1 .5-1.7.8l-1.4 6.7 1.7-.4 5.1-6.2-.9-.3-.8-.4.2-1h7l-.2 1c-.3.2-.6.3-1 .4l-1.1.3-6.2 6.5c.3.6.6 1.2 1 1.9l1.1 2.1c.4.7.8 1.5 1.3 2.2.4.7.9 1.5 1.4 2.2l1 .6-.2.9h-4.2l-.9-.9c-.8-1.2-1.4-2.4-1.8-3.7-.4-1.3-.9-2.6-1.3-4h-1.5l-1.4 6.8c.5.2 1 .4 1.5.8l-.2 1h-7l.2-1c.3-.2.6-.3.9-.4.3-.1.7-.2 1.1-.3l1.5-7.1-1.7.4c-.8 1.3-1.7 2.5-2.6 3.8-.9 1.3-1.9 2.5-2.9 3.6l-1.3.9h-4.6l.2-.9 1.2-.6c.8-.7 1.5-1.4 2.3-2.2l2.1-2.3c.7-.7 1.3-1.5 1.9-2.1.6-.7 1.1-1.3 1.6-1.9l-3.1-6.5-.9-.3c-.3-.1-.5-.3-.7-.4l.2-1h6.7l-.2 1c-.2.2-.5.3-.9.4l-1.1.3 2.4 6.4h1.8l1.2-6.3z"/><linearGradient id="SVGID_14_" gradientUnits="userSpaceOnUse" x1="193.359" y1="72.963" x2="193.359" y2="54.111"><stop offset="0" stop-color="#506670"/><stop offset=".109" stop-color="#465B64"/><stop offset=".356" stop-color="#34464D"/><stop offset=".511" stop-color="#2D3E44"/><stop offset=".652" stop-color="#314349"/><stop offset=".823" stop-color="#3B5058"/><stop offset="1" stop-color="#4B646F"/></linearGradient><path class="st13" d="M198.1 67.2h1.1v1l-.1 1.2-.2 1.3-.2 1.2c-.4.2-.8.4-1.2.5l-1.3.3c-.5.1-.9.1-1.3.2-.4 0-.8.1-1.1.1-1.6 0-2.9-.2-4-.7-1.1-.4-2-1-2.7-1.7-.7-.7-1.2-1.5-1.5-2.3-.3-.9-.5-1.7-.5-2.6 0-1.7.3-3.3.8-4.7.5-1.4 1.2-2.6 2.2-3.6 1-1 2.1-1.8 3.5-2.4 1.4-.6 3-.8 4.8-.8 1.1 0 2.2.1 3.1.2.9.2 1.7.4 2.2.7-.1.3-.1.6-.3 1.1-.1.4-.3.9-.4 1.4l-.5 1.4c-.2.5-.3.8-.5 1.2h-1.1l-.6-3.9c-.2-.1-.4-.2-.8-.2-.4-.1-.7-.1-1.1-.1-1 0-1.9.2-2.8.7-.8.5-1.6 1.2-2.2 2.1-.6.9-1.1 2-1.4 3.2-.3 1.3-.5 2.7-.5 4.2 0 1 .1 1.8.4 2.5.3.7.6 1.2 1.1 1.6.4.4.9.7 1.5.9.5.2 1 .3 1.6.3.5 0 .9 0 1.3-.1s.6-.2.8-.3l1.9-3.9z"/><linearGradient id="SVGID_15_" gradientUnits="userSpaceOnUse" x1="210.245" y1="72.652" x2="210.245" y2="54.422"><stop offset="0" stop-color="#506670"/><stop offset=".109" stop-color="#465B64"/><stop offset=".356" stop-color="#34464D"/><stop offset=".511" stop-color="#2D3E44"/><stop offset=".652" stop-color="#314349"/><stop offset=".823" stop-color="#3B5058"/><stop offset="1" stop-color="#4B646F"/></linearGradient><path class="st14" d="M213.5 54.4h7.1l-.2 1c-.3.2-.7.4-1.1.5-.4.1-.8.2-1.1.3l-6.3 6.3c.3.6.6 1.2 1 1.9s.8 1.4 1.3 2.2c.4.7.9 1.5 1.4 2.3.5.8 1 1.5 1.4 2.2l1.1.8-.2.9h-4.4l-.9-.7c-.3-.5-.6-1.1-1-1.7-.3-.6-.7-1.3-1-2l-.9-2.1c-.3-.7-.5-1.4-.8-2h-1.3l-1.4 6.8 1 .3c.3.1.5.3.7.4l-.2 1h-7.9l.2-1 1.2-.5 1.2-.3 3.1-14.7c-.4-.1-.8-.1-1.1-.3-.3-.1-.6-.3-.9-.5l.2-1h7.9l-.2 1c-.2.1-.5.3-.9.4s-.7.3-1.1.3l-1.4 6.6 1.5-.4 5.5-6.2-1-.3c-.3-.1-.6-.3-.8-.4l.3-1.1z"/><linearGradient id="SVGID_16_" gradientUnits="userSpaceOnUse" x1="229.802" y1="72.652" x2="229.802" y2="54.422"><stop offset="0" stop-color="#506670"/><stop offset=".109" stop-color="#465B64"/><stop offset=".356" stop-color="#34464D"/><stop offset=".511" stop-color="#2D3E44"/><stop offset=".652" stop-color="#314349"/><stop offset=".823" stop-color="#3B5058"/><stop offset="1" stop-color="#4B646F"/></linearGradient><path class="st15" d="M226.1 72.7h-7.9l.2-1 1.2-.5 1.2-.3 3.1-14.7-1-.3c-.3-.1-.7-.3-.9-.5l.2-1h7.9l-.2 1c-.3.2-.6.3-1 .4-.3.1-.7.2-1.1.3l-2.1 9.9-.7 2 1.6-2.2 8.5-9.1.1-.6-1.1-.3c-.3-.1-.6-.3-.8-.4l.2-1h7.9l-.2 1c-.3.2-.7.3-1.1.5l-1.2.3-3.1 14.7 1.1.3c.3.1.6.3.9.5l-.2 1h-7.9l.2-1 .9-.4 1.2-.4 2-9.9.7-2.1-1.5 2.1-8.7 9.3-.1.6 1.1.3c.3.1.6.3.8.4l-.2 1.1z"/><linearGradient id="SVGID_17_" gradientUnits="userSpaceOnUse" x1="250.01" y1="72.652" x2="250.01" y2="49.476"><stop offset="0" stop-color="#506670"/><stop offset=".109" stop-color="#465B64"/><stop offset=".356" stop-color="#34464D"/><stop offset=".511" stop-color="#2D3E44"/><stop offset=".652" stop-color="#314349"/><stop offset=".823" stop-color="#3B5058"/><stop offset="1" stop-color="#4B646F"/></linearGradient><path class="st16" d="M246.4 72.7h-7.9l.2-1 1.2-.5 1.2-.3 3.1-14.7-1-.3c-.3-.1-.7-.3-.9-.5l.2-1h7.9l-.2 1c-.3.2-.6.3-1 .4-.3.1-.7.2-1.1.3l-2.1 9.9-.7 2 1.6-2.2 8.5-9.1.1-.6-1.1-.3c-.3-.1-.6-.3-.8-.4l.2-1h7.9l-.2 1c-.3.2-.7.3-1.1.5l-1.2.3-3.1 14.7 1.1.3c.3.1.6.3.9.5l-.2 1h-7.9l.2-1c.3-.1.6-.3 1-.4l1.2-.4 2.1-9.9.7-2.1-1.5 2.1-8.7 9.3-.1.6 1.1.3c.3.1.6.3.8.4l-.4 1.1zm5.4-19.3c-.7 0-1.4-.1-1.9-.3-.5-.2-1-.4-1.3-.7-.3-.3-.6-.6-.8-.9-.2-.3-.2-.7-.2-1 .1-.1.3-.3.6-.4.2-.1.5-.2.8-.3.3-.1.6-.2.9-.2.3-.1.6-.1.8-.1l.9.3v1.6c.2.1.3.2.5.2.2.1.4.1.7.1.4 0 .7 0 1.1-.1.4-.1.7-.2 1.1-.4l.9-.6c.3-.2.5-.5.6-.9.2 0 .4.1.7.2.2.1.4.2.5.4-.1.3-.4.7-.6 1.1s-.7.7-1.1 1c-.5.3-1 .6-1.7.8-.8.1-1.6.2-2.5.2z"/><path class="st17" d="M17.5 7.5l-16.3 12.6c-2.3 1.8-1.1 5.6 1.9 5.5h10.5l-10 46.8c-.1.5.1.9.2 1 .1.2.4.5 1 .5 5.8 0 15.9.1 20.8.1.6 0 1.1-.4 1.2-1l13.9-65.5h-23.2z"/></svg>