<?xml version="1.0" encoding="UTF-8" standalone="no"?>
<svg width="19px" height="18px" viewBox="0 0 19 18" version="1.1" xmlns="http://www.w3.org/2000/svg" xmlns:xlink="http://www.w3.org/1999/xlink">
    <!-- Generator: Sketch 47.1 (45422) - http://www.bohemiancoding.com/sketch -->
    <title>cart icon</title>
    <desc>Created with Sketch.</desc>
    <defs></defs>
    <g id="Page-1" stroke="none" stroke-width="1" fill="none" fill-rule="evenodd">
        <g id="Artboard" transform="translate(-1313.000000, -570.000000)" fill-rule="nonzero" fill="#FFFFFF">
            <g id="вариант-1" transform="translate(189.000000, 340.000000)">
                <g id="cart-icon" transform="translate(1124.000000, 230.000000)">
                    <g id="Group" transform="translate(0.000000, 0.637820)">
                        <path d="M0.63355799,2.96924202e-07 C0.283643912,2.96924202e-07 0,0.283654768 0,0.633558287 C0,0.983461806 0.283643912,1.26711628 0.63355799,1.26711628 L2.65302429,1.26711628 L4.83087989,11.5426349 C4.91704377,11.9294432 5.17055144,12.2513751 5.49083612,12.2487987 L16.050136,12.2487987 C16.3848446,12.2534448 16.6927116,11.9499916 16.6927116,11.6152407 C16.6927116,11.2804897 16.3848446,10.9769521 16.050136,10.9816827 L6.00560199,10.9816827 L5.73500937,9.71454558 L16.8948799,9.71454558 C17.178545,9.71243372 17.4465611,9.49639045 17.5086287,9.21958896 L18.9869307,2.88400906 C19.0693143,2.51631946 18.74998,2.11456133 18.3731819,2.11186026 L4.13132627,2.11186026 L3.78814903,0.501567039 C3.72819332,0.220246173 3.45542549,-0.000295363471 3.16779016,2.96924202e-07 L0.63355799,2.96924202e-07 Z M4.39530877,3.37897624 L8.23625408,3.37897624 L8.23625408,5.27965021 L4.79789263,5.27965021 L4.39530877,3.37897624 Z M9.50337006,3.37897624 L12.459974,3.37897624 L12.459974,5.27965021 L9.50337006,5.27965021 L9.50337006,3.37897624 Z M13.72709,3.37897624 L17.5746454,3.37897624 L17.1324642,5.27965021 L13.72709,5.27965021 L13.72709,3.37897624 Z M5.06846413,6.54675775 L8.23625408,6.54675775 L8.23625408,8.4474296 L5.47102688,8.4474296 L5.06846413,6.54675775 Z M9.50337006,6.54675775 L12.459974,6.54675775 L12.459974,8.4474296 L9.50337006,8.4474296 L9.50337006,6.54675775 Z M13.72709,6.54675775 L16.8354944,6.54675775 L16.3933132,8.4474296 L13.72709,8.4474296 L13.72709,6.54675775 Z M7.60269609,13.0935427 C6.44385517,13.0935427 5.49083612,14.0465406 5.49083612,15.2054026 C5.49083612,16.3642435 6.44385517,17.3172626 7.60269609,17.3172626 C8.76153701,17.3172626 9.71455606,16.3642435 9.71455606,15.2054026 C9.71455606,14.0465617 8.76153701,13.0935427 7.60269609,13.0935427 Z M13.938276,13.0935427 C12.7794351,13.0935427 11.826416,14.0465406 11.826416,15.2054026 C11.826416,16.3642435 12.7794351,17.3172626 13.938276,17.3172626 C15.0971169,17.3172626 16.050136,16.3642435 16.050136,15.2054026 C16.050136,14.0465617 15.0971169,13.0935427 13.938276,13.0935427 Z M7.60269609,14.3606586 C8.0767453,14.3606586 8.44744008,14.7313534 8.44744008,15.2054026 C8.44744008,15.6794518 8.0767453,16.0501466 7.60269609,16.0501466 C7.12868912,16.0501466 6.7579521,15.6794307 6.7579521,15.2054026 C6.7579521,14.7313745 7.12868912,14.3606586 7.60269609,14.3606586 Z M13.938276,14.3606586 C14.4123252,14.3606586 14.78302,14.7313534 14.78302,15.2054026 C14.78302,15.6794518 14.4123252,16.0501466 13.938276,16.0501466 C13.464269,16.0501466 13.093532,15.6794307 13.093532,15.2054026 C13.093532,14.7313745 13.464269,14.3606586 13.938276,14.3606586 Z" id="Shape"></path>
                    </g>
                </g>
            </g>
        </g>
    </g>
</svg>