<?xml version="1.0" encoding="UTF-8" standalone="no"?>
<svg width="18px" height="18px" viewBox="0 0 18 18" version="1.1" xmlns="http://www.w3.org/2000/svg" xmlns:xlink="http://www.w3.org/1999/xlink">
    <!-- Generator: Sketch 47.1 (45422) - http://www.bohemiancoding.com/sketch -->
    <title>cashback icon</title>
    <desc>Created with Sketch.</desc>
    <defs></defs>
    <g id="Page-1" stroke="none" stroke-width="1" fill="none" fill-rule="evenodd">
        <g id="Artboard" transform="translate(-1314.000000, -480.000000)" fill-rule="nonzero" fill="#FFFFFF">
            <g id="вариант-1" transform="translate(189.000000, 340.000000)">
                <g id="cashback-icon" transform="translate(1125.000000, 140.000000)">
                    <path d="M2.25,16.875 C1.962,16.875 1.674,16.76475 1.454625,16.545375 C1.01475,16.1055 1.01475,15.3945 1.454625,14.954625 L14.954625,1.454625 C15.3945,1.01475 16.1055,1.01475 16.545375,1.454625 C16.98525,1.8945 16.98525,2.6055 16.545375,3.045375 L3.045375,16.545375 C2.826,16.76475 2.538,16.875 2.25,16.875 Z M3.9375,7.875 C1.76625,7.875 0,6.10875 0,3.9375 C0,1.76625 1.76625,0 3.9375,0 C6.10875,0 7.875,1.76625 7.875,3.9375 C7.875,6.10875 6.10875,7.875 3.9375,7.875 Z M3.9375,2.25 C3.007125,2.25 2.25,3.007125 2.25,3.9375 C2.25,4.867875 3.007125,5.625 3.9375,5.625 C4.867875,5.625 5.625,4.867875 5.625,3.9375 C5.625,3.007125 4.867875,2.25 3.9375,2.25 Z M14.0625,18 C11.89125,18 10.125,16.23375 10.125,14.0625 C10.125,11.89125 11.89125,10.125 14.0625,10.125 C16.23375,10.125 18,11.89125 18,14.0625 C18,16.23375 16.23375,18 14.0625,18 Z M14.0625,12.375 C13.132125,12.375 12.375,13.132125 12.375,14.0625 C12.375,14.992875 13.132125,15.75 14.0625,15.75 C14.992875,15.75 15.75,14.992875 15.75,14.0625 C15.75,13.132125 14.992875,12.375 14.0625,12.375 Z" id="Shape"></path>
                </g>
            </g>
        </g>
    </g>
</svg>