<?xml version="1.0" encoding="utf-8"?>
<!-- Generator: Adobe Illustrator 18.1.1, SVG Export Plug-In . SVG Version: 6.00 Build 0)  -->
<svg version="1.1" id="logo-cosmo-full-ec008c" xmlns="http://www.w3.org/2000/svg" xmlns:xlink="http://www.w3.org/1999/xlink" x="0px" y="0px"
	 viewBox="0 0 186 34" xml:space="preserve" preserveAspectRatio="xMidYMid meet">
	 <style type="text/css">
     #logo-cosmo-full-ec008c-g{fill:#ec008c;}
   </style>
<g id="logo-cosmo-full-ec008c-g">
	<g>
		<defs>
			<rect id="SVGID_1_" x="0" width="186" height="34"/>
		</defs>
		<clipPath id="SVGID_2_">
			<use xlink:href="#SVGID_1_"  overflow="visible"/>
		</clipPath>
		<path clip-path="url(#SVGID_2_)" d="M10.9,12.5c0-5.4-0.7-7.4-2.2-7.4C7.5,5.1,6.2,5.9,6.2,17
			c0,10.8,0.6,11.9,2.5,11.9c2,0,2.4-3,2.5-7.8l5,0.2c0,5.7-0.8,12.6-7.8,12.6C2.1,34,0,27.8,0,17C0,4.5,3.8,0,8.5,0
			c6.9,0,7.7,6.3,7.7,12.3L10.9,12.5z"/>
		<path clip-path="url(#SVGID_2_)" d="M22.3,20.4c0,7.1,0.8,8.5,2.2,8.5c1.4,0,2.2-1.4,2.2-8.5v-6.9
			c0-7.1-0.8-8.5-2.2-8.5c-1.4,0-2.2,1.4-2.2,8.5V20.4z M24.5,0c5.3,0,8.7,4.1,8.7,17s-3.4,17-8.7,17s-8.7-4.1-8.7-17S19.2,0,24.5,0
			"/>
		<path clip-path="url(#SVGID_2_)" d="M38.2,23.9c0,1.8,0,5.1,2.6,5.1c2,0,2.7-1.8,2.7-3.2c0-5.8-10.8-7.2-10.8-16.9
			C32.6,4,35.3,0,40.3,0c5.4,0,7.4,4.1,7.6,10h-5.3c0-1.8,0-4.9-2.4-4.9c-1.4,0-2.2,1.2-2.2,3c0,5.6,10.8,7.4,10.8,17
			c0,5-2.8,9-8.2,9c-6.4,0-7.7-5.6-7.7-10.1H38.2z"/>
	</g>
	<polygon points="61.5,0.6 58.7,17.4 58.6,17.4 56,0.6 48,0.6 48,33.4 52.4,33.4 52.4,9.4 52.5,9.4 56.5,33.4
		59.8,33.4 63.9,9.4 64,9.4 64,33.4 69.3,33.4 69.3,0.6 	"/>
	<g>
		<defs>
			<rect id="SVGID_3_" x="0" width="186" height="34"/>
		</defs>
		<clipPath id="SVGID_4_">
			<use xlink:href="#SVGID_3_"  overflow="visible"/>
		</clipPath>
		<path clip-path="url(#SVGID_4_)" d="M75.8,20.4c0,7.1,0.8,8.5,2.2,8.5c1.4,0,2.2-1.4,2.2-8.5v-6.9
			c0-7.1-0.8-8.5-2.2-8.5c-1.4,0-2.2,1.4-2.2,8.5V20.4z M78,0c5.3,0,8.7,4.1,8.7,17S83.3,34,78,34c-5.3,0-8.7-4.1-8.7-17
			S72.7,0,78,0"/>
		<path clip-path="url(#SVGID_4_)" d="M92.7,15.5h0.5c2.4,0,3.8-1,3.8-4.9c0-4.7-1.8-4.9-3.8-4.9h-0.5V15.5z
			 M86.7,0.6h6c6.7,0,10.3,2.7,10.3,9.8c0,5.9-2.3,9.8-7.9,9.8h-2.4v13.1h-6V0.6z"/>
		<path clip-path="url(#SVGID_4_)" d="M109.1,20.4c0,7.1,0.8,8.5,2.2,8.5c1.4,0,2.2-1.4,2.2-8.5v-6.9
			c0-7.1-0.8-8.5-2.2-8.5c-1.4,0-2.2,1.4-2.2,8.5V20.4z M111.3,0c5.3,0,8.7,4.1,8.7,17s-3.4,17-8.7,17c-5.3,0-8.7-4.1-8.7-17
			S106,0,111.3,0"/>
	</g>
	<polygon points="120,0.6 120,33.4 133.6,33.4 133.6,28.3 125.9,28.3 125.9,0.6 	"/>
	<rect x="133.8" y="0.6" width="6" height="32.7"/>
	<polygon points="140.1,0.6 140.1,5.7 145.2,5.7 145.2,33.4 151.2,33.4 151.2,5.7 156.3,5.7 156.3,0.6 	"/>
	<path d="M160.9,5.7L160.9,5.7l1.8,15.6H159L160.9,5.7z M157.2,0.6l-4.6,32.7h5l0.8-7.3h4.8l0.9,7.3h5.7l-4-32.7
		H157.2z"/>
	<polygon points="181.2,0.6 181.2,17.9 181.1,17.9 175.7,0.6 169.8,0.6 169.8,33.4 174.9,33.4 174.9,13.6 175,13.6
		181.4,33.4 186,33.4 186,0.6 	"/>
</g>
</svg>
