<?xml version="1.0" encoding="UTF-8" standalone="no"?>
<svg width="22px" height="18px" viewBox="0 0 22 18" version="1.1" xmlns="http://www.w3.org/2000/svg" xmlns:xlink="http://www.w3.org/1999/xlink">
    <!-- Generator: Sketch 47.1 (45422) - http://www.bohemiancoding.com/sketch -->
    <title>wallet icon</title>
    <desc>Created with Sketch.</desc>
    <defs></defs>
    <g id="Page-1" stroke="none" stroke-width="1" fill="none" fill-rule="evenodd">
        <g id="Artboard" transform="translate(-1312.000000, -525.000000)" fill-rule="nonzero" fill="#FFFFFF">
            <g id="вариант-1" transform="translate(189.000000, 340.000000)">
                <g id="wallet-icon" transform="translate(1123.000000, 185.000000)">
                    <path d="M20.0892446,7.97538462 L20.0892446,6.46153846 C20.0892446,6.20676923 19.8739616,6 19.6108381,6 L2.38820511,6 C2.12412473,6 1.90979863,6.20676923 1.90979863,6.46153846 L1.90979863,7.97538462 C1.90979863,9.48530769 1.36824251,10.5987692 0.843909016,11.6769231 C0.40951594,12.5676923 0,13.4116154 0,14.3501538 C1.06227576e-16,16.7723077 1.19984343,18 3.56795546,18 L18.4320445,18 C20.8001566,18 22,16.7723077 22,14.3501538 C22,13.4116154 21.589288,12.5676923 21.156091,11.6769231 C20.6308007,10.5987692 20.0892446,9.48461538 20.0892446,7.97538462 Z" id="Shape"></path>
                    <path d="M19.5790435,3.78947368 L12.9015652,3.78947368 C13.2038261,3.39252632 13.3913043,2.90273684 13.3913043,2.36747368 C13.3913043,1.06294737 12.318087,0 11,0 C9.68191304,0 8.60869565,1.062 8.60869565,2.36747368 C8.60869565,2.90273684 8.79617391,3.39347368 9.0993913,3.78947368 L2.42095652,3.78947368 C1.24443478,3.78947368 0,5.09305263 0,6.32557895 L0,8.52631579 C0,8.78778947 0.21426087,9 0.47826087,9 C0.74226087,9 0.956521739,8.78778947 0.956521739,8.52631579 L0.956521739,6.32557895 C0.956521739,5.61315789 1.76382609,4.73684211 2.42095652,4.73684211 L19.5790435,4.73684211 C20.2371304,4.73684211 21.0434783,5.61315789 21.0434783,6.32557895 L21.0434783,8.52631579 C21.0434783,8.78778947 21.2586957,9 21.5217391,9 C21.7847826,9 22,8.78778947 22,8.52631579 L22,6.32557895 C22,5.09305263 20.7555652,3.78947368 19.5790435,3.78947368 Z" id="Shape"></path>
                </g>
            </g>
        </g>
    </g>
</svg>