<?xml version="1.0" standalone="no"?>
<!DOCTYPE svg PUBLIC "-//W3C//DTD SVG 1.1//EN" "http://www.w3.org/Graphics/SVG/1.1/DTD/svg11.dtd" >
<svg xmlns="http://www.w3.org/2000/svg">
<metadata>Generated by IcoMoon</metadata>
<defs>
<font id="icomoon" horiz-adv-x="1024">
<font-face units-per-em="1024" ascent="960" descent="-64" />
<missing-glyph horiz-adv-x="1024" />
<glyph unicode="&#x20;" horiz-adv-x="512" d="" />
<glyph unicode="&#xe601;" glyph-name="uniE601" horiz-adv-x="470" d="M294.194 737.205c-29.048 0-61.332-2.834-80.93-8.504-99.534-29.398-110.426-150.17-110.426-173.25 0-102.37 41.882-160.812 102.864-189.962l-119.18-225.078h72.822l109.132 212.298h23.23v-212.298h68.444v596.896l-65.956-0.1zM291.756 423.337c0 0-37.752-1.144-61.134 6.416-13.182 4.228-57.354 22.382-57.354 122.662 0 96.846 60.238 107.59 59.092 107.192 18.652 5.52 59.49 4.728 59.49 4.728l-0.1-240.996z" />
<glyph unicode="&#xe602;" glyph-name="uniE602" horiz-adv-x="990" d="M480.464 767.129c-215.65 0-315.644-181.66-315.644-338.878 0 0.858 62.422 0.304 126.258 0 0 177.722 133.632 232.972 210.396 232.972 102.926 0 210.348-78.128 210.348-232.972 0-154.794-147.216-190.5-147.216-190.5v359.988l-126.258-42.372v-444.784c0 0 53.334 0 126.258 0 87.674 0 245.042 138.33 245.042 338.878 0 153.53-113.632 317.666-329.18 317.666z" />
<glyph unicode="&#xe603;" glyph-name="uniE603" d="M842.177 341.607c0 0 68.431-67.585 85.359-98.857 0.465-0.676 0.676-1.186 0.762-1.481 6.898-11.553 8.591-20.61 5.205-27.296-5.714-11.044-25.053-16.589-31.611-17.055 0 0-117.564 0-120.95 0-8.422 0-25.942 2.2-47.271 16.927-16.292 11.385-32.503 30.131-48.203 48.456-23.445 27.211-43.716 50.825-64.242 50.825-2.624 0-5.163-0.423-7.617-1.27-15.531-4.909-35.252-27.043-35.252-85.993 0-18.451-14.558-28.947-24.757-28.947 0 0-52.815 0-55.396 0-18.874 0-117.141 6.601-204.275 98.477-106.773 112.485-202.668 338.132-203.598 340.121-5.966 14.6 6.56 22.557 20.103 22.557h122.133c16.378 0 21.711-9.905 25.434-18.79 4.317-10.197 20.314-50.995 46.551-96.828 42.489-74.567 68.599-104.913 89.464-104.913 3.936 0 7.659 0.974 11.174 2.961 27.254 14.981 22.177 112.316 20.906 132.376 0 3.892-0.043 43.462-14.008 62.592-9.987 13.713-27 19.044-37.282 20.99 2.749 3.979 8.591 10.073 16.081 13.669 18.663 9.311 52.391 10.664 85.867 10.664h18.579c36.311-0.508 45.705-2.836 58.908-6.179 26.577-6.348 27.084-23.573 24.757-82.227-0.676-16.757-1.397-35.633-1.397-57.851 0-4.739-0.212-10.029-0.212-15.405-0.804-30.088-1.863-63.987 19.383-77.91 2.71-1.693 5.883-2.624 9.183-2.624 7.364 0 29.412 0 89.21 102.626 26.238 45.324 46.551 98.774 47.948 102.795 1.186 2.243 4.739 8.548 9.057 11.089 3.302 2.031 7.703 2.37 9.987 2.37h143.674c15.659 0 26.28-2.37 28.354-8.294 3.47-9.606-0.676-38.935-66.272-127.635-11.044-14.77-20.736-27.55-29.242-38.723-59.458-78.038-59.458-81.972 3.512-141.221z" />
<glyph unicode="&#xe604;" glyph-name="uniE604" horiz-adv-x="1028" d="M843.458 655.313c-15.224-8.052-47.528-20.592-80.566-21.472 10.736 5.368 49.236 36.698 61.778 75.198-11.614-13.32-65.048-31.378-95.694-34.55-22.496 19.764-53.384 32.11-94.862 33.038-84.274 1.904-145.856-90.424-126.288-169.182-68.27 7.71-183.48 22.398-281.808 142.342-46.554-55.534-6.246-157.568 40.308-179.918-26.936-4.49-46.554 5.318-59.044 16.104-8.050-31.378 18.788-111.896 104.72-136.976-19.666-4.49-37.574-5.318-56.36-2.684 3.562-35.77 62.658-92.278 126.192-93.984-49.236-36.698-109.062-62.702-201.338-56.36 179.43-113.504 387.604-51.53 488.762 56.36 71.732 76.27 118.97 207.248 104.038 303.082 24.984 15.422 51.872 36.892 70.172 69z" />
<glyph unicode="&#xe605;" glyph-name="uniE605" horiz-adv-x="638" d="M475.338 194.275c-58.212-17.888-135.472-7.48-135.472 75.394v230.314h186.71v114.198h-186.71c0 102.122 0 185.748 0 185.748h-97.622c0 0 1.718-73.926-35.724-125.216-36.786-50.428-112.632-78.222-112.632-78.222v-96.512h93.582l-0.202-1.010c0 0 0-233.4 0-282.262 0-48.76 18.444-166.952 257.35-132.844 73.066 10.462 98.584 20.768 98.584 20.768v113.038c0.050 0-37.596-14.198-67.86-23.394z" />
<glyph unicode="&#xe606;" glyph-name="uniE606" horiz-adv-x="1214" d="M591.9 318.347l178.812 178.812 15.566 104.92 139.928 42.814-124.312 58.228h-58.378l-116.606-128.24-388.604 213.766 151.464-205.962-303.074 42.764 388.604-229.284-151.562-264.388 132.12-42.714v135.998l35.058 93.284z" />
<glyph unicode="&#xe607;" glyph-name="uniE607" horiz-adv-x="1338" d="M553.416 532.395l49-35.366 76.82 35.366-0.504 39.342c-2.816 88.846-76.518 167.176-167.276 167.176-90.606 0-164.306-77.878-167.376-166.22v-238.51c0-21.632-17.81-39.038-39.642-39.038-21.984 0-44.674 9.206-44.674 30.736v123.908h-125.822c0 0 0-122.65 0-123.908 0-91.158 75.21-165.214 167.778-165.214 91.812 0 166.47 75.11 167.778 165.214v247.818c0 21.582 19.92 41.25 41.958 41.25 21.884 0 41.958-19.72 41.958-41.25v-41.304zM763.102 449.787v-123.91c0-21.582-22.74-35.466-44.624-35.466-22.036 0-39.744 17.558-39.744 39.038l0.504 120.338-76.82-38.938-49 38.938v-123.908c0.804-90.554 75.664-165.214 167.778-165.214 92.568 0 167.778 74.104 167.778 165.214 0 1.106 0 123.908 0 123.908h-125.872z" />
<glyph unicode="&#xe608;" glyph-name="uniE608" d="M213.552 737.305v-273.576l24.872-24.872h273.576v-273.576l24.872-24.872h273.578v596.896h-596.896zM213.552 314.503h124.352l-124.354-124.354 49.74-49.74 124.354 124.352v-124.352h49.74v223.836h-223.836v-49.74z" />
<glyph unicode="&#xe609;" glyph-name="uniE609" horiz-adv-x="1442" d="M517.632 392.515c-123.288 0-170.486-44.13-170.486-73.066s0-97.422 0-97.422h340.976c0 0 0 60.89 0 97.422s-47.198 73.066-170.486 73.066zM201.010 514.293c-36.534 0-73.066-28.934-73.066-73.066s72.044-84.366 97.422-121.778c38.432-56.552 48.71-146.134 48.71-146.134h48.712v146.134c0 150.712-85.244 194.844-121.776 194.844zM517.632 733.491c-181.448 0-236.784-143.114-219.2-243.554 41.112-35.022 48.712-121.776 48.712-121.776s21.336 48.712 170.486 48.712c156.8 0 170.486-48.712 170.486-48.712s5.066 86.754 45.692 121.776c17.39 100.442-37.36 243.554-216.18 243.554zM834.25 514.293c-36.534 0-121.778-43.596-121.778-192.262s0-148.712 0-148.712h48.712c0 0 10.278 92.892 48.712 148.712 25.38 36.924 97.422 76.622 97.422 120.17 0 43.546-36.534 72.090-73.066 72.090z" />
<glyph unicode="&#xe60a;" glyph-name="uniE60A" d="M638.004 767.129h-252.516v-252.516h252.516v252.516zM796.838 527.491h-34.394l-21.062 105.4h-52.776v-131.814h0.102l-0.202-36.966h-353.524v36.918h0.152v131.814h-54.492l-21.11-105.4h-32.628c-24.192 0-43.18-19.444-43.18-43.384v-229.438c0-24.092 19.394-43.13 43.18-43.13h108.228l-0.152 101.108 353.626 0.352v-101.814h108.38c24.040 0 43.13 19.444 43.13 43.432v229.538c0 23.94-19.494 43.384-43.28 43.384zM385.49 110.585h252.516v151.51h-252.516v-151.51z" />
<glyph unicode="&#xe60b;" glyph-name="uniE60B" horiz-adv-x="790" d="M503.834 789.823c-117.752 30.438-263.822-8.052-329.204-112.74-88.886-142.42-23.854-268.276 34.692-291.32 16.664-6.634 24.108-5.674 27.148 7.9 2.632 11.65 6.28 23.652 7.394 28.312 2.48 9.774 4.002 14.688-9.064 30.438-13.724 16.614-43.252 76.628-3.292 167.084 51.56 116.638 179.492 121.35 251.006 100.382 104.992-30.692 120.236-138.012 98.052-236.166-19.702-86.354-83.92-150.878-139.076-133.354-37.782 11.952-62.854 37.884-46.19 96.228 13.016 45.38 19.094 64.372 24.816 85.492 19.652 73.438-6.89 97.242-28.818 103.726-84.734 24.918-122.514-104.638-85.594-171.186-7.392-34.642-43.608-184.658-52.674-219.706-10.688-41.988-10.736-163.894 2.582-167.084 10.686-2.582 71.614 99.572 80.632 143.026 4.66 22.234 16.46 62.244 27.956 110.462 12.56-21.020 29.982-37.884 62.954-46.798 93.292-25.272 211.046 27.452 251.412 185.822 33.274 132.036-16.462 278.66-174.732 319.48z" />
<glyph unicode="&#xe60c;" glyph-name="uniE60C" d="M576.458 667.289c-80.812 80.918-212.192 80.918-293.11 0s-80.918-212.192 0-293.16c80.812-80.918 212.192-80.918 293.11 0s80.918 212.192 0 293.16zM646.724 440.001c-11.322-30.298-29.058-59.044-52.996-83.088-24.662-24.56-53.152-42.086-83.712-53.358l290.524-153.818-153.818 290.268z" />
<glyph unicode="&#xe60d;" glyph-name="uniE60D" horiz-adv-x="728" d="M372.638 443.695c102.602 0 185.722 83.364 185.722 186.118 0 102.802-83.070 186.12-185.722 186.12-102.554 0-185.622-83.316-185.622-186.12 0-102.752 83.118-186.118 185.622-186.118zM372.638 707.503c42.754 0 77.438-34.732 77.438-77.686 0-42.854-34.582-77.688-77.438-77.688-42.656 0-77.438 34.784-77.438 77.688 0 42.954 34.682 77.686 77.438 77.686zM504.642 433.229c-37.672-25.464-83.118-40.412-132.002-40.412-49.434 0-93.932 17.39-133.248 41.214-52.622 31.89-111.222-61.142-57.902-95.726 33.934-22.076 72.306-37.274 112.92-46.742l-103.55-103.948c-21.478-21.476-21.478-56.212 0-77.688 21.378-21.43 56.060-21.43 77.438 0l103.796 104.092 103.798-104.092c21.378-21.528 56.060-21.528 77.438 0 21.376 21.476 21.376 56.212 0 77.688l-102.504 102.802c39.814 9.020 77.338 23.97 110.278 45.994 57.204 38.472-7.424 129.96-56.458 96.822z" />
<glyph unicode="&#xe60e;" glyph-name="uniE60E" d="M222.612 564.865c-66.568 0-120.582-53.962-120.582-120.584s54.014-120.634 120.582-120.634c66.62 0 120.634 54.014 120.634 120.634s-54.066 120.582-120.634 120.582zM512 564.865c-66.67 0-120.634-53.962-120.634-120.584s53.962-120.634 120.634-120.634c66.62 0 120.582 54.014 120.582 120.634s-53.962 120.582-120.582 120.582zM801.388 564.865c-66.62 0-120.634-53.962-120.634-120.584s54.014-120.634 120.634-120.634c66.568 0 120.582 54.014 120.582 120.634s-54.014 120.582-120.582 120.582z" />
<glyph unicode="&#xe60f;" glyph-name="uniE60F" d="M659.886 488.299c-49.322 0-123.298-49.322-123.298-123.298 0 15.538 0 31.466 0 44.784 0 53.512-51.786 89.418-86.312 89.418-32.75 0-80.394-32.404-85.324-81.576 0 9.27 0 17.952 0 25.696 0 38.714-37.284 64.558-62.142 64.558-24.856 0-62.144-25.596-62.144-64.312 0-14.896 0-103.424 0-103.424h123.3c0-36.892 0-73.98 0-73.98h172.62c0-49.716 0-98.64 0-98.64h246.6c0 0 0 123.298 0 197.278s-73.98 123.5-123.298 123.5zM659.886 512.911c54.448 0 98.64 44.19 98.64 98.64s-44.192 98.638-98.64 98.638c-54.448 0-98.64-44.19-98.64-98.638 0-54.45 44.19-98.64 98.64-98.64zM450.276 517.399c38.028 0 68.95 32.108 68.95 71.712 0 39.656-30.924 71.762-68.95 71.762-38.126 0-69.050-32.108-69.050-71.76 0-39.554 30.924-71.712 69.048-71.712zM302.81 521.099c27.472 0 49.714 23.132 49.714 51.64s-22.242 51.638-49.716 51.638c-27.472 0-49.716-23.132-49.716-51.638 0-28.508 22.244-51.64 49.716-51.64z" />
<glyph unicode="&#xe610;" glyph-name="uniE610" d="M512 777.717c-187.246 0-338.86-151.718-338.86-338.86s151.616-338.86 338.86-338.86c43.61 0 85.594 8.284 123.916 23.38 51.336 20.128 22.212 75.528-19.668 58.552-32.226-13.112-67.398-20.23-104.296-20.23-153.19 0-277.154 124.068-277.154 277.154 0 153.090 123.966 277.154 277.154 277.154 153.090 0 277.156-124.068 277.156-277.154 0-30.294-4.27-59.518-13.774-86.506-29.582-83.812-66.786-104.806-66.786-31.106 0 78.018 0 259.98 0 259.98 0 17.84-14.432 32.326-32.376 32.326-16.772 0-30.596-12.858-32.122-29.226-34.918 31.716-81.22 51.030-132.098 51.030-108.566 0-196.444-87.93-196.444-196.444s87.88-196.444 196.444-196.444c50.926 0 97.332 19.418 132.3 51.182 3.356-50.928 34.206-87.88 83.202-87.88 27.394 0 44.472 13.722 63.686 41.322 37.61 54.384 59.822 120.918 59.822 192.074-0.102 186.84-151.822 338.558-338.964 338.558zM512 307.877c-72.326 0-130.98 58.654-130.98 130.98s58.654 130.98 130.98 130.98c72.326 0 130.98-58.654 130.98-130.98s-58.654-130.98-130.98-130.98z" />
<glyph unicode="&#xe611;" glyph-name="uniE611" horiz-adv-x="1350" d="M209.242 538.699v-305.674c0-14.25 71.672-25.674 83.864-25.674h449.428c11.938 0 83.864 11.424 83.864 25.674v306.856l-310.666-141.438-306.496 140.258zM742.538 670.363h-449.428c-12.194 0-83.864-11.424-83.864-25.676v-49.186l306.598-140.412 310.56 141.336v48.262c0 14.302-71.572 25.676-83.864 25.676z" />
<glyph unicode="&#xe612;" glyph-name="uniE612" d="M776.414 510.357h-22.038c0 0-3.946 0-4.576 0-36.184 0-42.334 32.030-42.334 32.030l0.894-0.63c-4.26 103.448-82.832 185.596-190.17 186.226v-0.106h-85.882c-107.024-0.63-193.432-85.934-193.432-193.116v-192.276c0-107.076 85.934-191.96 193.328-192.694v-0.052l193.326 0.106c96.664 1.998 191.748 85.568 191.748 192.644v129.902c-0.212 20.512-20.352 37.97-40.864 37.97zM421.476 584.299c0.262 0 0-0.052 0 0h107.394c21.458-0.474 35.13-20.038 35.13-38.97 0-18.88-13.674-34.922-35.13-34.922h-107.394v3.368c0 0-1.052-3.368-1.21-3.368-19.144 0-38.706 16.356-38.706 35.5-0.262 19.144 20.616 38.392 39.916 38.392zM619.798 292.889h-198.322v1.106c0 0-1.104 0-1.316 0-19.144 0-38.338 18.616-38.338 37.762 0 19.198 19.144 34.448 38.338 34.448 0.368 0 1.104 0 1.104 0h200.532c21.404 0 32.922-17.144 32.922-36.184-0.368-18.88-13.41-37.13-34.922-37.13z" />
<glyph unicode="&#xe613;" glyph-name="uniE613" horiz-adv-x="840" d="M659.538 399.351c0 0-127.832 168.602-275.080 362.76-41.586 54.852-118.41 25.352-169.164-13.212-55.26-41.944-97.258-107.758-58.18-159.332 147.244-194.208 275.080-362.76 275.080-362.76l264.63-112.264-37.284 284.81zM236.96 720.059c31.088 23.61 75.746 42.098 106.684 22.842-28.064-5.12-60.69-19.822-91.368-43.126-30.626-23.202-53.468-50.548-65.914-76.158-9.218 33.442 17.056 70.984 50.602 96.44zM204.080 593.457c11.728 27.144 34.212 56.542 67.092 81.484 32.982 24.94 67.194 38.718 96.542 42.712 11.522-15.004 22.944-30.27 35.236-46.198-29.038-4.25-63.456-19.052-95.822-43.634-32.418-24.586-55.876-53.726-67.758-80.562-12.342 15.98-23.866 31.19-35.288 46.198zM258.78 521.345c11.728 27.144 34.212 56.542 67.194 81.534 32.88 24.996 67.194 38.72 96.542 42.664 82.608-108.832 171.776-226.218 195.488-257.562-48.756-19.87-112.060-17.616-142.838 22.894-21.612 28.476-79.998 105.504-116.208 152.928-17.106 22.738-29.704 39.488-29.704 39.488l-12.908-9.73c0 0 12.754-16.644 30.064-39.28 36.056-47.528 94.596-124.504 116.206-152.928 28.784-37.542 17.976-94.288-9.782-135.516-26.12 34.366-113.186 149.036-194.056 255.514zM623.072 211.391c-7.018-5.326-11.728-11.73-15.21-18.182l-145.758 62.020c36.672 51.624 38.974 90.702 30.474 119.794 26.582-16.952 67.604-25.456 132.29 0.206l20.128-154.056c-7.322-1.69-14.904-4.508-21.92-9.782z" />
<glyph unicode="&#xe614;" glyph-name="uniE614" d="M1024-73.143v512h-512v-512h512zM512 438.857v512h-512v-512h512z" />
<glyph unicode="&#xe615;" glyph-name="uniE615" horiz-adv-x="1066" d="M716.774 124.677l-29.034 233.858 159.53 171.936-229.16 44.398-112.494 206.354-112.654-206.354-229.002-44.398 159.32-171.936-28.876-233.858 211.212 100.038z" />
<glyph unicode="&#xe616;" glyph-name="uniE616" horiz-adv-x="914" d="M302.536 619.511c-0.204 0.67 0 45.12 0 45.12v135.302l-183.722-180.422h138.036c-0.204 0 45.994-0.67 45.688 0zM720.876 709.387c-13.976 22.534-86.37 37.744-123.6 37.744-37.59 0-96.89 0-96.89 0s-32.332 44.294-104.934 51.254c-58.834 5.622-46.666-17.274-46.666-43.572v-180.474h-183.722c0 0-46.356 12.118-46.356-19.336 0-58.216 7.734-247.972 136.438-266.74 151.648-22.224 174.75 14.54 174.75 22.586 0 33.412 5.93 73.322 5.93 73.322s58.99-68.014 125.714-65.538c65.794 2.526 79.924-39.754 79.924-77.398s0-69.662 0-69.662-0.464-25.78-39.754-25.78c-39.602 0-73.116 0-73.116 0s-27.536 3.042-27.536 31.144c0 28.102 17.43 35.63 33.31 35.63 15.828 0 27.536-1.856 27.536-1.856v50.688c0 0-123.96 16.552-123.96-75.232 0-92.040 49.346-108.386 102.612-108.386 53.162 0 87.038 0 87.038 0s136.024 1.082 136.024 294.43c-0.774 293.604-28.876 314.642-42.746 337.174zM562.52 455.485c0 0 9.692 37.588 39.602 37.588s58.062-59.092 58.062-59.092c0 0-61.98 21.502-97.664 21.502z" />
<glyph unicode="&#xe617;" glyph-name="uniE617" horiz-adv-x="1552" d="M267.972 591.641h-127.32v-305.57h203.714v407.424h-76.394v-101.856zM267.972 362.463h-50.928v152.784h50.928v-152.784zM369.824 286.073h76.392v305.57h-76.394v-305.57zM369.824 617.105h76.392v76.392h-76.394v-76.394zM471.68 286.073h127.32v-25.466h-127.32v-76.394h203.714v407.424h-203.714v-305.568zM548.076 515.251h50.928v-152.784h-50.928v152.784zM700.86 591.641v-305.57h127.318v-25.464h-127.318v-76.394h203.714v407.424h-203.714zM828.18 362.463h-50.928v152.784h50.928v-152.784z" />
<glyph unicode="&#xe618;" glyph-name="uniE618" d="M663.68 788.649c0 0-138.068 0-211.576 0-73.758 0-211.722-29.734-211.722-178.342 0-93.096 91.096-154.16 188.588-141.716-18.088-24.286-14.942-65.21 13.792-96.044-62.164-3.448-248.554-18.24-248.554-155.456 0-91.444 103.090-128.024 197.884-128.024 106.986 0 248.554 45.722 248.554 187.438 0 94.846-133.472 117.678-133.472 178.342 0 60.562 105.84 59.414 105.84 173.746 0 84.6-59.816 114.332-59.816 114.332h50.62l59.866 45.722zM576.23 221.635c0-130.472-299.072-127.076-299.072 18.24 0 92.644 119.678 107.236 202.53 105.138 62.014-42.274 96.544-73.058 96.544-123.376zM465.796 496.023c-117.43-36.228-205.080 215.724-78.154 251.45 123.678 34.88 194.336-215.674 78.154-251.45zM806.342 486.877v86.848h-50.72v-86.848h-87.448v-50.32h87.448v-86.848h50.72v86.846h87.448v50.32h-87.448z" />
<glyph unicode="&#xe619;" glyph-name="uniE619" horiz-adv-x="732" d="M436.432 555.925c43.696 0 77.63 0 77.63 0v147c0 0-51.752 0-135.89 0-105.658 0-161.766-69.622-161.766-167.020 0-17.118 0-59.11 0-113.566h-84.086v-140.294h84.134c0-175.080 0-373.436 0-373.436h168.224c0 0 0 203.258 0 373.434h109.912l13.012 140.294h-122.928c0 48.048 0 81.284 0 86.84 0 25.076 8.108 46.75 51.754 46.75z" />
<glyph unicode="&#xe61a;" glyph-name="uniE61A" horiz-adv-x="456" d="M387.914 773.151v26.78h-320.854v-26.78c0 0 106.916-6.334 106.916-53.458v-561.674c0-47.174-106.916-53.51-106.916-53.51v-26.73h320.854v26.73c0 0-107.020 6.284-107.020 53.51v561.674c0 47.174 107.020 53.46 107.020 53.46z" />
<glyph unicode="&#xe61b;" glyph-name="uniE61B" horiz-adv-x="1026" d="M213.968 152.103l133.068 0.25v430.872h-132.57l-0.498-431.118zM804.842 489.285c-4.184 17.474-11.4 33.054-22.104 46.846-10.606 13.74-25.938 25.092-46.698 33.952-20.662 8.91-43.46 13.342-68.402 13.342-56.702 0-103.598-23.846-140.884-71.538l-2.042 72.336-111.064-1.046v-430.872l121.372-0.25v191.016c0 47.144 2.988 79.452 8.664 96.926 5.726 17.474 16.428 31.512 32.16 42.116 15.582 10.556 33.154 15.83 52.87 15.83 15.482 0 28.378-3.684 39.278-11.098 10.954-7.418 18.718-17.822 23.644-31.214 5.028-13.392 7.27-42.812 7.27-88.312v-215.26h113.058v262.206c-0.894 32.558-2.938 57.55-7.116 75.024zM280.778 748.951c-36.344 0-66.312-29.72-66.312-66.312s29.97-66.26 66.312-66.26c36.54 0 66.262 29.668 66.262 66.26s-29.772 66.312-66.262 66.312z" />
<glyph unicode="&#xe61c;" glyph-name="uniE61C" horiz-adv-x="934" d="M308.206 727.977h-105.136v-578.244h315.406v105.136h-210.27v473.106zM728.746 727.977h-105.136v-105.136c0 0 102.928-6.572 105.136 0s0 105.136 0 105.136zM623.61 149.735h105.136v367.974h-105.136v-367.974z" />
<glyph unicode="&#xe61d;" glyph-name="uniE61D" horiz-adv-x="842" d="M245.974 641.031c0-20.36 3.282-26.772 11.026-37.902 7.642-11.232 23.336-22.772 36.67-27.592 11.13-4.256 40.722-4.872 53.492 0.462 14.514 5.284 27.54 16.464 35.286 26.722 8.668 10.668 10.464 38.978 10.464 38.978s2.616 143.81 0 164.632c-2.872 20.822-26.208 41.748-42.67 49.85-10.924 5.384-26.31 7.488-48.056 3.846-21.848-3.692-36.722-17.386-46.26-29.952-9.386-12.668-9.848-27.13-9.848-37.028-0.104-10-1.18-142.938-0.104-152.014zM306.286 808.997c8.872 5.076 22.772 4.564 28.822-0.822 6.104-5.334 6.36-13.746 6.36-15.438v-157.348c0-4.256-4.154-13.642-11.9-16.104-7.744-2.462-16.104-1.744-20.258 1.384-4.052 3.076-9.796 8.206-9.796 16.72 0 8.41-0.718 155.76-0.718 155.76s-1.18 11.026 7.488 15.848zM124.166 578.409h56.622v161.708l65.186 210.33h-55.236l-36.824-149.092h-4.82l-37.954 149.502h-55.698l68.88-210.74-0.154-161.708zM453.122 580.563c5.642-5.692 21.952-8.206 34.928-5.898 16.976 2.666 44.67 30.208 44.67 30.208v-30.054h52.62v279.414h-54.518c0 0 0.154-203.456 0.154-205.456 0-2.256 0.668-9.386-3.23-14.618-3.64-5.334-16.72-16.514-30.618-10.462-8.31 3.23-6.976 12.462-6.976 20.002 0 8.412 0 210.484 0 210.484h-53.134c0 0-0.104-238.28 1.538-247.666 2.154-13.54 8.718-20.106 14.566-25.952zM721.97 240.427c0 6.514-3.13 22.156-22.464 22.156-23.284 0-22.414-21.438-22.414-21.438v-38.054h44.62c0.256-0.052 0.256 30.722 0.256 37.336zM836.544 361.925c0 69.084-55.852 124.884-124.73 124.884 0 0-145.092 4.258-290.388 4.258-146.014 0-292.44-4.258-292.44-4.258-69.034 0-124.68-55.8-124.68-124.884 0 0-4.308-69.596-4.308-151.76 0-82.060 4.308-154.476 4.308-154.476 0-68.726 55.646-124.524 124.68-124.524 0 0 144.372-4.308 289.568-4.308 146.27 0 293.26 4.308 293.26 4.308 68.88 0 124.73 55.8 124.73 124.524 0 0 5.284 91.342 5.284 153.964-0.052 62.314-5.284 152.272-5.284 152.272zM182.48 25.535h-59.186v320.956h-59.954l0.204 54.876h179.198v-54.212h-60.16l-0.104-321.622zM387.936 24.457h-52.364v29.85c0 0-31.49-27.85-44.774-30.054-13.232-2.41-29.13 0-35.182 5.794-5.694 5.794-12.462 12.514-14.514 25.952-1.384 9.438-1.332 247.82-1.332 247.82h53.134v-217.868c0 0-1.744-12.72 7.026-14 8.668-1.384 30.26 10.924 33.748 18.052 3.334 6.924 0 213.868 0 213.868h54.518l-0.256-279.414zM584.264 81.641c0-16.616 0.77-40.466-21.13-52.108-22.052-11.334-38.004-6.206-45.082-3.488-6.822 2.718-27.594 23.232-27.594 23.232v-24.72l-54.62-0.102-0.718 379.628h54.364v-121.192c0 0 15.232 14.206 25.438 19.54 10.206 4.822 33.85 10.924 48.722-4.616 15.182-15.438 20.36-30.772 20.616-42.466s0-156.888 0-173.71zM686.326 71.949c7.438-3.026 23.952-4.514 28.822 1.282 5.026 5.692 6.36 8.514 6.36 15.746s0 36.054 0 36.054h55.544c0 0 0-35.542-0.872-41.696-0.822-6.41-2.41-27.644-20.464-43.39-18.31-15.438-29.028-17.438-39.49-20.514-10.41-3.23-28.106-3.13-40.876 1.18-12.874 4.616-33.234 19.54-40.518 32.466-7.23 11.9-10 23.746-10 34.876 0 11.232 0 135.142 0 152.784 0 23.542 17.386 46.364 17.386 46.364s15.078 16.616 28.568 19.028c23.592 4.41 52.98 3.898 66.058-2 12.976-5.898 21.438-10.822 24.668-17.028s13.182-18.822 13.182-48.876c0-24.156 0-81.136 0-81.136h-97.65v-68.418c0.256-0.41 1.59-13.336 9.284-16.72zM497.228 259.147c-8.77-4.822-7.538-16.052-7.538-16.052s0.718-147.452 0.718-155.658c0-8.41 5.642-13.746 9.692-16.514 4.154-3.026 12.514-4 20.206-1.59 7.95 2.206 12.052 12 12.052 16.104v154.272c0 1.898 0.256 8-6.36 16.206-6.72 8.256-20.002 8.256-28.772 3.23z" />
<glyph unicode="&#xe61e;" glyph-name="uniE61E" horiz-adv-x="1026" d="M728.154 99.995h-431.572c-68.022 0-123.272 55.196-123.272 123.16v301.97h185.758c-14.348-26.552-22.374-56.894-22.374-89.152 0-103.616 83.894-187.678 187.566-187.678s187.678 84.064 187.678 187.678c0 32.258-8.248 62.596-22.428 89.152h161.578v-301.97c0.284-67.966-54.972-123.16-122.932-123.16zM524.542 585.691c82.71 0 149.658-67.062 149.658-149.716s-67.118-149.602-149.658-149.602c-82.54 0-149.49 67.008-149.49 149.602-0.226 82.71 66.834 149.716 149.49 149.716zM524.542 623.713c-52.032 0-99.15-21.188-132.992-55.424h-217.734v86.212c0 68.078 55.308 123.216 123.444 123.216h431.404c67.966 0 123.216-55.196 123.216-123.216v-86.268h-193.668c-34.462 34.292-81.578 55.48-133.668 55.48zM762.050 626.819v92.372c0 8.476-6.894 15.366-15.312 15.366h-92.598c-8.248 0-15.308-6.894-15.308-15.366v-92.426c0-8.532 6.894-15.426 15.308-15.426h92.598c8.418 0.058 15.312 6.948 15.312 15.48z" />
<glyph unicode="&#xe61f;" glyph-name="uniE61F" horiz-adv-x="1134" d="M408.412 654.659c18.186 7.544 55.080-35.548 24.8-95.274 24.75-6.82 38.338-12.088 44.020-15.914 1.394 37.046 28.728 127.774 69.546 116.408 40.818-11.314 69.546-52.856 59.058-61.226-10.592-8.318-28.832 0-61.794-28.004-33.378-27.95-38.442-38.544-42.212-43.866 54.922-59.472-41.334-99.462-54.974-97.496 25.008-20.72 124.728-58.23 205.584-10.592-1.034 1.24-0.672 2.066-0.672 2.946-28.108 19.634-52.752 39.836-61.38 48.364-12.194 12.142-9.716 24.54 7.7 4.548 11.678-13.226 39.836-33.998 68.15-51.772 17.256 4.65 32.086 24.026 39.836 48.050-26.92 11.78-55.956 19.84-86.492 18.498-11.158-0.516-13.692 8.32 0 9.198 24.75 1.6 54.922-2.79 89.438-16.016 1.498 8.318 2.74 16.894 2.428 25.524-44.126 4.96-84.168 5.89-94.45 2.946-11.832-3.41-9.662 4.754-3.256 7.596 11.832 5.528 51.308 7.442 96.414 3.41-5.168 28.366-22.63 54.51-60.4 65.36 28.52 0 58.178-29.090 67.84-66.032 25.11-2.582 51.876-6.976 76.418-13.898-3.41 4.804-6.666 9.972-10.49 14.156 37.254 26.712 26.92 121.678-60.502 93.672-48.466 49.908-74.816 64.278-87.682 68.82 2.272-18.186-0.776-32.448-24.85-21.132-24.232 11.366-63.5 36.272-70.062 43.866-16.122 1.5-67.376 1.448-83.858-1.548-5.992-12.816-58.178-30.898-83.91-33.172-3.512-12.918-24.284-23.82-35.548-32.6 13.798-7.546 27.020-15.914 27.020-15.914s26.25 23.51 44.282 31.106zM734.284 587.337c30.898 11.986 41.284-34.412 37.044-44.59-5.322-12.868-32.5-9.094-42.008 1.5-10.126 10.592-8.678 37.82 4.96 43.092zM443.958 426.339c-6.046-2.222-21.080-2.222-29.452-2.996-3.41-32.5 1.81-64.792 5.372-86.956 2.014-12.658 28.728-17.412 43.866-18.91 15.14-1.24 20.462 7.544 19.79 11.678-0.93 3.566 0 39.836 1.394 74.144-7.7 2.634-26.608 11.73-40.972 23.046zM372.916 674.295c16.17 2.272 63.5 18.186 74.3 31 10.54 12.866-7.026 57.456-34.98 42.314-27.95-15.086-46.19-41.592-47.64-49.86-1.548-8.32-7.596-25.73 8.32-23.458zM539.956 715.887c18.24-15.914 80.756-67.272 88.456-50.634 7.544 16.638 7.544 65.772-24.904 102.096-32.5 36.27-42.008 24.18-66.496 3.048-24.232-21.286-15.192-38.648 2.946-54.51zM588.836 616.839c-8.576 17.878-22.216 35.962-36.376 26.61-18.496-12.246-7.028-42.112 8.214-43.866 15.346-1.704 36.63-0.62 28.158 17.256zM804.446 490.873c-24.956 7.182-54.922 12.556-84.426 16.122 1.086-9.298 0.206-18.91-1.548-28.52 29.4-12.45 61.898-31.052 97.24-58.488 13.95-10.852 7.078-18.29-6.716-9.764-25.99 16.068-57.972 39.112-93.882 56.266-6.15-17.878-17.928-35.34-38.236-50.378 19.894-11.73 38.648-21.338 51.462-25.162 20.462-5.736 23.146-20.462-1.808-11.78-13.744 4.908-29.348 13.38-45.83 23.25 0.724-5.322-1.5-9.352-9.716-7.904-17.568 3.048-52.752 2.272-82.668-22.63-29.244-24.75-86.492-88.922-135.32-80.706-50.584 8.318-118.682 22.062-146.632 137.592-25.73 11.314-43.866 33.274-49.86 43.092 0-50.946 17.36-285.206 287.946-349.846 270.12-65.206 334.346 232.558 259.992 368.858zM378.442 444.011c-24.8 35.702-22.63 66.082-19.426 87.886 3.202 21.75 24.75 31.104 37.358 29.504-21.028 45.418-62.21 85.458-96.312 74.554-22.63-7.232-41.954-36.528-51.358-64.016-28.264 8.164-65.1 13.072-105.558 7.492-21.698-3.048-23.92-17.31-4.96-13.64 36.842 7.13 76.52 2.066 106.85-5.63-1.448-6.15-1.396-11.158-1.652-16.48-34.722 6.768-87.216 10.074-147.204-10.024-16.69-5.58-18.754-15.14-3.254-11.728 42.008 9.198 101.992 16.69 149.734 10.488 0.724-5.372 2.582-12.502 5.012-20.098-30.122 0.568-69.494-2.272-98.788-16.844-23.664-11.832-11.314-19.738 7.286-9.508 22.628 12.45 62.362 18.394 94.45 18.186 14.31-35.808 49.6-79.984 127.826-60.14zM375.914 548.791c-20.512-16.224-19.068-103.44 27.95-117.906 35.548-11.006 130.204 30.12 95.382 84.682-19.066 29.658-101.27 50.582-123.332 33.222zM362.322 434.659c0 0 0-43.866 3.77-67.996 3.77-24.232 38.544-33.946 49.908-31.726-3.048 6.044-10.592 58.178-8.266 89.332-15.14 1.448-29.142 15.086-29.142 15.086l-16.276-4.7zM414.456 635.233c-14.88-11.73-16.17-35.188 0-40.508 34.048-11.314 22.63 58.28 0 40.508z" />
<glyph unicode="&#xe620;" glyph-name="uniE620" horiz-adv-x="658" d="M614.286 201.143q0-7.428-5.714-13.144l-28.572-28.572q-5.714-5.714-13.144-5.714t-13.144 5.714l-224.572 224.572-224.57-224.572q-5.714-5.714-13.144-5.714t-13.144 5.714l-28.57 28.572q-5.714 5.714-5.714 13.144t5.714 13.144l266.286 266.286q5.714 5.714 13.142 5.714t13.144-5.714l266.286-266.286q5.714-5.714 5.714-13.144zM614.286 420.571q0-7.428-5.714-13.144l-28.572-28.572q-5.714-5.714-13.144-5.714t-13.144 5.714l-224.572 224.572-224.57-224.572q-5.714-5.714-13.144-5.714t-13.144 5.714l-28.57 28.572q-5.714 5.714-5.714 13.144t5.714 13.144l266.286 266.286q5.714 5.714 13.142 5.714t13.144-5.714l266.286-266.286q5.714-5.714 5.714-13.144z" />
<glyph unicode="&#xe621;" glyph-name="uniE621" d="M272.366 286.461c-47.962 0-86.93-39.12-86.93-86.79 0-47.936 38.97-86.62 86.93-86.62 48.134 0 87.060 38.682 87.060 86.62-0.002 47.674-38.924 86.79-87.060 86.79zM185.532 543.505v-125.178c81.506 0 158.156-31.874 215.876-89.622 57.646-57.606 89.476-134.604 89.476-216.416h125.73c-0.002 237.794-193.442 431.216-431.084 431.216zM185.68 765.425v-125.242c290.71 0 527.326-236.846 527.326-527.894h125.56c0 360.034-292.924 653.134-652.886 653.134z" />
<glyph unicode="&#xe622;" glyph-name="uniE622" d="M240.3 723.757c-12.2-2-24.4-8.8-33.3-18.5-6-6.6-12.4-19.4-13.9-27.8-1.4-7.9-1.5-198.9-0.1-223.3 2.5-42.2 10.6-77 26.4-112.4 34.7-77.6 105.3-142.1 186.5-170.3 36.7-12.8 67.6-18 106.6-18 37.1 0 67.8 5.1 102 16.7 75.8 25.9 140.5 79.9 179.1 149.6 16.7 30.2 29.1 66.9 34.3 101.4 3.6 24 4.3 51.4 3.9 157.7l-0.3 100.5-2.2 5.9c-5.6 14.8-15.7 26.2-28.7 32.7-15.2 7.4 7.6 6.9-288.6 6.8-146.6-0.1-268.8-0.5-271.7-1zM372.5 559.357c3.2-0.9 8.1-2.8 10.8-4.2 3.2-1.8 26.2-23.2 66.4-61.8 33.9-32.4 62-59.1 62.4-59.3 0.5-0.2 27.9 25.7 61 57.5s62.2 59.3 64.7 61c25.9 18.6 62.5 3.3 68.4-28.5 1.5-8.3 0-18.4-4.2-26.8-3.4-7-7.2-10.8-109-108.3-49.9-47.9-55.1-52.5-61.9-55.9-7.3-3.6-7.8-3.7-18.6-3.7s-11.3 0.1-18.7 3.8c-7.1 3.5-12.6 8.5-85.7 78.6-42.9 41.2-79.1 76.2-80.4 77.7-5.7 6.8-9.7 18.1-9.7 27.4 0 28.3 27.3 49.5 54.5 42.5z" />
<glyph unicode="&#xe623;" glyph-name="uniE623" horiz-adv-x="1016" d="M514.534 798.885c-193.718 0-350.762-157.032-350.762-350.762 0-66.27 18.39-128.242 50.334-181.124l-63.302-188.182 194.198 62.17c50.252-27.784 108.040-43.628 169.544-43.628 193.718 0 350.762 157.054 350.762 350.762-0.012 193.732-157.056 350.762-350.774 350.762zM514.534 156.117c-59.308 0-114.538 17.784-160.654 48.278l-112.212-35.916 36.476 108.428c-34.958 48.15-55.604 107.304-55.604 171.204 0 161.016 130.988 292.016 292.004 292.016s292.004-131 292.004-292.016c-0.024-161.004-131.012-291.992-292.016-291.992zM678.986 368.415c-8.798 4.814-51.994 28.124-60.090 31.418-8.096 3.284-14.010 5-20.318-3.74-6.308-8.716-24.222-28.24-29.664-34.024-5.456-5.784-10.702-6.322-19.49-1.496-8.786 4.802-37.284 15.342-70.336 47.12-25.728 24.722-42.598 54.726-47.496 63.876-4.896 9.16-0.036 13.834 4.616 18.11 4.17 3.868 9.346 10.13 14.022 15.188 4.662 5.060 6.298 8.728 9.512 14.594 3.202 5.854 1.916 11.146-0.164 15.702s-18.332 49.294-25.12 67.486c-6.788 18.204-14.36 15.494-19.582 15.69s-11.17 1.168-17.14 1.39c-5.97 0.222-15.762-1.648-24.29-10.306-8.54-8.646-32.48-29.432-34.13-73.492-1.646-44.048 28.836-87.828 33.076-93.95 4.252-6.146 58.21-101.638 147.882-140.918 89.686-39.258 90.14-27.294 106.604-26.418 16.474 0.866 53.794 19.688 62.042 40.298 8.25 20.622 8.914 38.544 6.812 42.366-2.080 3.822-7.956 6.298-16.744 11.1z" />
<glyph unicode="&#xe624;" glyph-name="uniE624" horiz-adv-x="724" d="M357.565 728.186c-163.335-2.066-294.955-134.985-294.955-298.604 0-165.118 133.699-298.819 298.817-299.030 49.557 0 96.352 12.241 137.474 33.54 66.005-31.843 152.698-18.756 161.344-8.423-68.746 28.047-67.292 81.189-67.292 81.189s-1.457-0.648-4.409-1.703c44.706 52.298 71.702 120.196 71.702 194.215 0 165.118-133.91 298.817-298.817 298.817-1.29 0-2.576 0.016-3.862 0zM361.427 600.413c94.474 0 170.801-76.357 170.801-170.831s-76.327-170.801-170.801-170.801c-31.421 0-60.961 8.442-86.267 23.414 0.211-2.32-1.031-4.638-3.983-6.325-30.577-19.19-71.709-11.619-75.715-5.504 31.632 16.027 30.986 46.402 30.986 46.402s5.083-2.312 12.041-5.686c-29.734 30.788-47.892 72.528-47.892 118.499 0 94.263 76.357 170.831 170.831 170.831z" />
<glyph unicode="&#xe625;" glyph-name="uniE625" d="M799.238 266.555l-172.467 172.302 172.467 172.302-114.936 114.936-172.302-172.384-172.384 172.384-114.855-114.936 172.302-172.302-172.302-172.302 114.855-114.936 172.384 172.384 172.302-172.384z" />
<glyph unicode="&#xe900;" glyph-name="viber1" d="M623.437 227.233v0c32.8-0.325 71.2 30.792 82.302 61.698 10.694 29.725-11.886 41.518-29.739 55.675-13.151 10.425-27.184 19.788-41.012 29.347-27.576 19.086-52.8 20.575-73.375-10.131-11.551-17.233-27.731-17.992-44.645-10.425-46.625 20.825-82.637 52.925-103.722 99.624-9.331 20.661-9.224 39.184 12.62 53.796 11.551 7.731 23.184 16.873 22.261 33.755-1.208 22.008-55.453 95.592-76.882 103.355-8.857 3.216-17.682 3.004-26.71 0.016-50.229-16.645-71.045-57.363-51.118-105.559 59.437-143.804 164.073-243.918 308.073-305.024 8.196-3.478 17.331-4.882 21.951-6.122zM352.139 0.53v0 0zM231.592 214.816v0c-53.976 56.661-61.869 151.241-61.869 224.914s7.886 168.253 61.869 224.924c64.857 68.082 192.392 75.075 280.408 75.075s215.551-6.988 280.392-75.086c53.976-56.675 61.869-151.257 61.869-224.924 0-73.657-7.886-168.253-61.869-224.914-64.857-68.082-192.392-75.075-280.408-75.075-10.669 0-21.91 0.114-33.559 0.408-17.559 0.465-36.025 1.375-54.792 3.061l-90.678-100.253c-1.233-1.363-2.906-2.131-4.775-2.131-3.525 0-6.343 2.776-6.343 6.245v115.257c-8.675 2.776-17.151 5.878-25.347 9.363-24.898 10.58-47.225 24.588-64.898 43.143zM435.143 92.277c24.025-1.714 49.616-2.539 76.857-2.539 288.604 0 392.98 92.971 392.98 349.992 0 257.037-104.376 350.008-392.98 350.008s-392.98-92.971-392.98-350.008c0-178.359 50.275-277.714 177.475-321.824v-96.925c0-6.375 1.935-12.31 5.265-17.249 2.163-3.216 4.914-6.008 8.098-8.237 5.176-3.624 11.494-5.755 18.327-5.755 9.404 0 17.853 4.041 23.665 10.457l0.335 0.367 82.963 91.722zM603.2 487.869c0.475 29.445-33.306 63.478-62.122 62.767-6.767-0.155-13.388-0.882-15.875-8-3.731-10.637 4.114-13.176 12.098-14.441 26.678-4.212 40.718-19.722 43.38-45.935 0.718-7.118 5.306-12.873 12.278-12.073 9.657 1.151 10.539 9.616 10.229 17.682v0zM652.62 476.286c0.531 61.025-52.547 116.563-117.518 124.253-10.122 1.192-23.494 5.91-25.853-7.943-2.482-14.539 12.424-13.053 22.008-15.175 65.025-14.318 87.665-37.657 98.375-101.208 1.559-9.265-1.543-23.69 14.441-21.29 11.829 1.771 7.567 14.131 8.547 21.363v0zM517.559 651.673c-7.633-1.078-23.425 5.192-24.408-11.665-0.661-11.355 12.629-9.502 21.363-10.824 105.275-15.959 153.825-65.275 167.241-169.771 1.233-9.657-2.416-24.18 11.567-24.449 14.596-0.278 11.075 14.033 11.2 23.69 1.249 98.416-85.825 189.641-186.963 193.012z" />
<glyph unicode="&#xe901;" glyph-name="if_telegram_401554" d="M850.203 771.604l-692.695-267.174c-47.278-18.969-46.997-45.338-8.617-57.096l172.76-53.922 66.102-202.664c8.036-22.182 4.075-30.979 27.367-30.979 17.976 0 25.95 8.196 35.962 17.976 6.367 6.23 44.168 42.982 86.375 84.019l179.703-132.773c33.068-18.243 56.945-8.792 65.179 30.712l117.961 555.879c12.077 48.42-18.459 70.383-50.097 56.024zM348.763 405.8l389.403 245.677c19.439 11.789 37.263 5.451 22.629-7.54l-333.431-300.839-12.983-138.471-65.619 201.172z" />
</font>
</defs>
</svg>
